<svg xmlns="http://www.w3.org/2000/svg" viewBox="0 0 500 500"><g id="freepik--Floor--inject-71"><path id="freepik--floor--inject-71" d="M83.69,254.29c-91.85,53-91.85,139,0,192s240.77,53,332.62,0,91.85-139,0-192S175.54,201.26,83.69,254.29Z" style="fill:#fafafa"></path></g><g id="freepik--Clouds--inject-71"><path id="freepik--Cloud--inject-71" d="M98.78,66.12a11.31,11.31,0,0,1-7.53,0,1.84,1.84,0,0,0-1.9.13,21.36,21.36,0,0,1-2.22,1.33,14.54,14.54,0,0,1-3.86,1.17c-3.45.49-8-.43-9-2.44-1.44,3-6.54,2.78-8.44,2.6a8,8,0,0,1-4.27-1.73,5.22,5.22,0,0,1-1.38-1.68c-2.85,3.46-9.39,4.18-14,3-2.45-.62-5.93-2.19-6.9-4.25-.32.75-1.17,1.61-3.17,1.62a5.37,5.37,0,0,1-1.71-.32,21,21,0,0,1-3.28.51c-1.18,0-4.32.18-4.67-1.18s2.43-2.16,3.59-2.09c-.2-.93.64-2.07,2.1-2.51a8.19,8.19,0,0,1,4.21.08c.12-1.78.29-3.52,2.61-4.42,2.15-.83,5.37-.45,7,1a9,9,0,0,1,.89-4.32c1-2.18,3-3.36,5.37-4.52,4.13-2,11.76-.94,13.7,2.86,1.82-2.09,4.6-2.38,7.78-1.7s7,3.82,6.92,6.71a5.27,5.27,0,0,1,6.21,3.51A6.86,6.86,0,0,1,95,61.89c.18.2.48.38,1.41.46a8.39,8.39,0,0,1,2.87.53C101.11,63.7,100.71,65.31,98.78,66.12Z" style="fill:#f5f5f5"></path><path id="freepik--cloud--inject-71" d="M446.51,103.34a11.25,11.25,0,0,1-7.53,0,1.86,1.86,0,0,0-1.9.13,22.46,22.46,0,0,1-2.22,1.33A13.84,13.84,0,0,1,431,106c-3.45.49-8-.43-9-2.43-1.44,3-6.54,2.77-8.44,2.6a8.06,8.06,0,0,1-4.27-1.74,5.11,5.11,0,0,1-1.38-1.68c-2.85,3.46-9.39,4.18-14,3-2.45-.63-5.93-2.2-6.9-4.25-.32.74-1.17,1.6-3.17,1.61a4.87,4.87,0,0,1-1.71-.32,21,21,0,0,1-3.28.51c-1.18,0-4.32.19-4.67-1.18-.32-1.22,2.43-2.15,3.59-2.09-.2-.93.64-2.07,2.1-2.5a8,8,0,0,1,4.21.07c.12-1.77.29-3.52,2.61-4.42a7.65,7.65,0,0,1,7,1,9,9,0,0,1,.89-4.32c1-2.17,3-3.36,5.37-4.52,4.13-2,11.76-.94,13.7,2.86,1.82-2.09,4.6-2.38,7.78-1.7s7,3.82,6.92,6.72a5.25,5.25,0,0,1,6.21,3.51,6.85,6.85,0,0,1,8.23,2.43c.18.2.48.39,1.41.46a8.39,8.39,0,0,1,2.87.53C448.84,100.92,448.44,102.53,446.51,103.34Z" style="fill:#f5f5f5"></path><path id="freepik--cloud--inject-71" d="M126.67,106a6.78,6.78,0,0,0-2.32-.43c-.75-.06-1-.21-1.13-.37a5.53,5.53,0,0,0-6.64-2,4.24,4.24,0,0,0-5-2.83c.08-2.33-2.9-4.84-5.58-5.41s-4.8-.31-6.26,1.37c-1.57-3.06-7.72-3.92-11-2.3-1.91.93-3.54,1.89-4.33,3.64a7.31,7.31,0,0,0-.72,3.48,6.14,6.14,0,0,0-5.62-.78c-1.87.72-2,2.13-2.1,3.56a6.57,6.57,0,0,0-3.4-.06c-1.17.35-1.85,1.27-1.69,2-.93-.06-3.15.7-2.89,1.68s2.82,1,3.76,1a17.44,17.44,0,0,0,2.65-.41,4,4,0,0,0,1.37.26c1.61,0,2.3-.7,2.56-1.3.78,1.65,3.58,2.92,5.56,3.42,3.73,1,9,.37,11.29-2.41a4.06,4.06,0,0,0,1.11,1.35,6.43,6.43,0,0,0,3.45,1.4c1.53.14,5.64.34,6.79-2.1.82,1.62,4.48,2.36,7.26,2a11.21,11.21,0,0,0,3.11-.93,18.05,18.05,0,0,0,1.79-1.08,1.49,1.49,0,0,1,1.53-.1,9.1,9.1,0,0,0,6.07,0C127.8,108,128.12,106.66,126.67,106Z" style="fill:#f0f0f0"></path><path id="freepik--cloud--inject-71" d="M466.78,63.3A5.38,5.38,0,0,0,465,63c-.58,0-.76-.15-.87-.28a4.23,4.23,0,0,0-5.07-1.5A3.25,3.25,0,0,0,455.24,59c.06-1.78-2.21-3.7-4.26-4.14s-3.67-.24-4.79,1c-1.2-2.34-5.9-3-8.44-1.76A6.23,6.23,0,0,0,434.44,57a5.66,5.66,0,0,0-.55,2.67,4.68,4.68,0,0,0-4.3-.6c-1.42.55-1.53,1.63-1.6,2.72a5,5,0,0,0-2.6,0c-.9.27-1.42,1-1.29,1.55-.72,0-2.41.53-2.22,1.28s2.16.76,2.88.73a12.61,12.61,0,0,0,2-.32,2.94,2.94,0,0,0,1.06.2c1.23,0,1.75-.53,2-1,.6,1.27,2.74,2.23,4.25,2.62,2.85.73,6.88.28,8.64-1.85a3.19,3.19,0,0,0,.84,1A4.94,4.94,0,0,0,446.16,67c1.17.11,4.31.26,5.19-1.6.63,1.24,3.43,1.8,5.55,1.5a8.55,8.55,0,0,0,2.38-.72,12.1,12.1,0,0,0,1.37-.82,1.15,1.15,0,0,1,1.17-.08,7,7,0,0,0,4.64,0C467.64,64.8,467.89,63.81,466.78,63.3Z" style="fill:#f0f0f0"></path></g><g id="freepik--Shield--inject-71"><g id="freepik--shield--inject-71"><path d="M253,23.5c38.79,0,67.12,8.4,94.83,23.94,8.62,63-7.39,151.62-94.83,202.73-87.44-51.11-103.45-139.78-94.83-202.73C185.88,31.9,214.21,23.5,253,23.5Z" style="fill:#fff"></path><path d="M253,250.71l-.24-.14c-39.83-23.28-68-56-83.64-97.16-12.29-32.34-16.35-70-11.41-106l0-.23.2-.11c30-16.82,58.43-24,95.06-24s65.06,7.18,95.06,24l.2.11,0,.23c4.94,36.05.88,73.7-11.41,106-15.67,41.19-43.81,73.88-83.64,97.16Zm-94.4-203c-4.36,32.19-10.18,140.6,94.4,201.9,104.58-61.3,98.76-169.71,94.4-201.9C317.62,31.08,289.37,24,253,24S188.38,31.08,158.6,47.73Z" style="fill:#e0e0e0"></path><path d="M253,238.49c-90-56-89.34-149.87-85.53-184.73C194.21,39.59,220.09,33.5,253,33.5s58.79,6.09,85.53,20.26C342.34,88.62,343,182.49,253,238.49Z" style="fill:#2A53E1"></path><path d="M253,238.49c-90-56-89.34-149.87-85.53-184.73C194.21,39.59,220.09,33.5,253,33.5s58.79,6.09,85.53,20.26C342.34,88.62,343,182.49,253,238.49Z" style="fill:#fff;opacity:0.7000000000000001"></path><polygon points="273.43 101.18 273.43 60.33 232.58 60.33 232.58 101.18 191.73 101.18 191.73 142.03 232.58 142.03 232.58 182.88 273.43 182.88 273.43 142.03 314.27 142.03 314.27 101.18 273.43 101.18" style="fill:#fafafa"></polygon></g></g><g id="freepik--Plants--inject-71"><g id="freepik--plants--inject-71"><path d="M445.27,339.76c-.92-4.34-3.69-19.05-2.27-32.37,1.84-17.33,10.59-24.64,14.27-27,3.31-2.1,6.63-2.9,8.88-2.12a6.68,6.68,0,0,1,4.42,4.23c1.33,4.08-.78,10.15-6.27,18.05a51.61,51.61,0,0,0-5.05,9.32h-.82a53.4,53.4,0,0,1,5.25-9.75c5.27-7.59,7.4-13.6,6.17-17.38a5.89,5.89,0,0,0-4-3.76,5.11,5.11,0,0,0-1.62-.24,13.09,13.09,0,0,0-6.6,2.29c-7.47,4.75-12.68,14.63-13.93,26.42-1.44,13.44,1.45,28.33,2.31,32.35h0l.21.89,7.05,4.07-.45.61-7.26-4.16-.34-1.47h0Z" style="fill:#2A53E1"></path><path d="M449.62,328.28a6.46,6.46,0,0,0-.92,1c-1.49-19,5.22-38.7,13.32-47.45a.48.48,0,0,1,.7,0,.5.5,0,0,1,0,.7C454.92,290.94,448.42,309.84,449.62,328.28Z" style="fill:#2A53E1"></path><path d="M470.84,355.77c-.17-.08-15-8.66-18-10.38l-.12-.1a52.08,52.08,0,0,1-3.63-5.6,17.36,17.36,0,0,1-1.86-6.1,6.21,6.21,0,0,1,.56-3.86,13.24,13.24,0,0,1,2.27-2.85,6.36,6.36,0,0,0,2-8c-.48-1.74-1-3.55-.24-5.25a6.42,6.42,0,0,1,4.07-3.13c.6-.19,1.22-.34,1.82-.49a15.81,15.81,0,0,0,2.9-.91c2-1,3.5-2.65,5.05-4.45a19.93,19.93,0,0,1,4.38-4.17,9.77,9.77,0,0,1,3.87-1.57,5.62,5.62,0,0,1,4.4.89c1.61,1.33,1.63,3.66,1.17,5.25a16.6,16.6,0,0,1-1.48,3.23c-.28.51-.57,1-.83,1.56a5.74,5.74,0,0,0-.64,2.18,5.35,5.35,0,0,0,1.3,3.37,23.4,23.4,0,0,0,2.16,2.4c.51.52,1,1,1.52,1.61a8.49,8.49,0,0,1,2.43,5.08c.14,2.58-1.76,4.51-3.43,5.89s-3.08,2.7-3.22,4.45a7,7,0,0,0,.55,2.72l1,2.83a22.27,22.27,0,0,1,.87,3,9.69,9.69,0,0,1-.57,5.82,10.16,10.16,0,0,1-3.22,4.09l-.38.3c-1.46,1.15-3.07,2.33-4.17,2.33A1.18,1.18,0,0,1,470.84,355.77ZM474,299.66a8.89,8.89,0,0,0-3.56,1.47,19.49,19.49,0,0,0-4.21,4c-1.53,1.78-3.12,3.63-5.3,4.64a16.26,16.26,0,0,1-3,1c-.59.14-1.19.29-1.77.47a5.65,5.65,0,0,0-3.6,2.72c-.64,1.45-.2,3.05.27,4.74a9,9,0,0,1,.45,4.81,9.19,9.19,0,0,1-2.63,3.92,12.05,12.05,0,0,0-2.15,2.68,5.41,5.41,0,0,0-.48,3.4,16.8,16.8,0,0,0,1.78,5.87,51.25,51.25,0,0,0,3.53,5.42l17.86,10.32c.49.24,1.79-.48,3.89-2.13l.4-.31a9.54,9.54,0,0,0,3-3.79,9,9,0,0,0,.52-5.38,21.94,21.94,0,0,0-.84-2.87l-1-2.83a7.62,7.62,0,0,1-.59-3c.17-2.21,2.09-3.8,3.49-5s3.28-3,3.16-5.27A7.9,7.9,0,0,0,481,319.9c-.48-.54-1-1.07-1.5-1.58a26.43,26.43,0,0,1-2.23-2.47A6.14,6.14,0,0,1,475.8,312a6.63,6.63,0,0,1,.72-2.48c.26-.55.56-1.08.84-1.6a15.13,15.13,0,0,0,1.42-3.07c.4-1.37.4-3.36-.92-4.46a4.1,4.1,0,0,0-2.7-.79A9,9,0,0,0,474,299.66Z" style="fill:#2A53E1"></path><path d="M460.68,349.74h0a.47.47,0,0,0,.43-.51c-1.71-18.51,6-39.43,12.05-45.71a.46.46,0,0,0,0-.66.47.47,0,0,0-.66,0c-6.18,6.4-14.05,27.67-12.32,46.45A.47.47,0,0,0,460.68,349.74Z" style="fill:#2A53E1"></path><path d="M462.52,327.22l.14,0A62,62,0,0,1,476,324.35a.48.48,0,0,0,.43-.51.47.47,0,0,0-.51-.43,63.94,63.94,0,0,0-13.59,2.91.46.46,0,0,0,.18.9Z" style="fill:#2A53E1"></path></g><g id="freepik--plants--inject-71"><path d="M39.76,347.08a.38.38,0,0,1-.16-.27c-1.38-15-14.18-25.92-19.64-30.57-.88-.75-1.58-1.34-2-1.78a7.37,7.37,0,0,1-2.32-6.87,6.33,6.33,0,0,1,4.45-4.53c5.7-1.85,14.65,5.22,20.37,16.1,8,15.26,4.26,26.51,4.22,26.62a.37.37,0,0,1-.26.24l-4.32,1.11a.26.26,0,0,1-.15,0A.44.44,0,0,1,39.76,347.08Zm0-27.57C34.22,308.94,25.66,302,20.29,303.77a5.55,5.55,0,0,0-3.95,4,6.64,6.64,0,0,0,2.11,6.17c.43.41,1.12,1,2,1.74,5.48,4.66,18.25,15.52,19.86,30.63l3.7-.95C44.44,343.84,47.07,333.39,39.77,319.51Z" style="fill:#2A53E1"></path><path d="M42.37,346.51h.05a.36.36,0,0,0,.38-.36c.32-17.57-11.83-34.49-20-38a.37.37,0,0,0-.3.68c8.09,3.45,19.87,20.62,19.57,37.27A.37.37,0,0,0,42.37,346.51Z" style="fill:#2A53E1"></path><path d="M44.24,346a.43.43,0,0,0,.16,0l2.94-.89a.34.34,0,0,0,.24-.24c.06-.17,5.22-16.95,1.42-39.55-1.94-11.52-8.66-22.75-16-26.71a11.21,11.21,0,0,0-10.26-.71,5.62,5.62,0,0,0-3.47,3.55c-1.21,4.28,3.23,10.65,7.93,17.39,3.29,4.71,6.69,9.59,8.24,13.9a.38.38,0,0,0,.71-.26c-1.59-4.4-5-9.31-8.34-14.07-4.59-6.59-8.94-12.82-7.82-16.75a4.85,4.85,0,0,1,3.05-3.08,10.53,10.53,0,0,1,9.61.68c7.12,3.86,13.67,14.87,15.58,26.18,3.56,21.15-.78,37.12-1.33,39l-2.74.82a.38.38,0,0,0-.25.47A.37.37,0,0,0,44.24,346Z" style="fill:#2A53E1"></path><path d="M45,335.34h0a.39.39,0,0,0,.41-.35c2.2-27.17-12.95-48.92-17.44-52.66a.37.37,0,0,0-.52.05.38.38,0,0,0,0,.53c4.42,3.68,19.36,25.15,17.17,52A.37.37,0,0,0,45,335.34Z" style="fill:#2A53E1"></path></g></g><g id="freepik--Shadows--inject-71"><ellipse id="freepik--Shadow--inject-71" cx="76.11" cy="367.33" rx="54.01" ry="31.18" style="fill:#e0e0e0"></ellipse><ellipse id="freepik--shadow--inject-71" cx="160.79" cy="351.73" rx="54.01" ry="31.18" style="fill:#e0e0e0"></ellipse><ellipse id="freepik--shadow--inject-71" cx="424.73" cy="367.33" rx="54.01" ry="31.18" style="fill:#e0e0e0"></ellipse><ellipse id="freepik--shadow--inject-71" cx="348.05" cy="351.73" rx="54.01" ry="31.18" style="fill:#e0e0e0"></ellipse><ellipse id="freepik--shadow--inject-71" cx="251.3" cy="430.08" rx="54.01" ry="31.18" style="fill:#e0e0e0"></ellipse></g><g id="freepik--character-4--inject-71"><g id="freepik--Character--inject-71"><g id="freepik--Bottom--inject-71"><path d="M339.55,311.74l-14.79.27c.17,9.75.29,17.93.23,19.37a11.93,11.93,0,0,1-3.31,7.64c-2.9,3.31-5,4.66-8.65,7.57.57,1.44,8.33,1.24,10.52.1a82.44,82.44,0,0,0,9.17-5.76c3-2.37,3.69-3.77,3.67-7.29,0-.44,0-1.08-.05-1.15C336.35,331.36,337.93,321.51,339.55,311.74Z" style="fill:#ffa8a7"></path><path d="M371.36,311.32,355.67,310q.18,1.14.33,2.28c2.13,12.59,2.3,13.69,3.42,22.68.57,4.52,1.61,19.67,2.4,22.84,2.56,10.22,10.66,5.94,11.56.48.6-3.63-2.59-22.47-2.56-24.23C371,326.65,371,322.81,371.36,311.32Z" style="fill:#ffa8a7"></path><path d="M304.89,350.86a3.28,3.28,0,0,0,.62,3.24,13.24,13.24,0,0,0,9.87,2.22c4.89-.68,7.53-2.26,9.47-3.95s4.68-4.09,6.88-4.6,5.39-1.7,6-2.36.54-3.55.54-3.55Z" style="fill:#263238"></path><path d="M336.39,331.72a1.55,1.55,0,0,1,.8,1c.15.79.17,1.82.5,3.12a23.74,23.74,0,0,1,.54,7c-.26,1.49-4.71,2.78-6.85,3.64a27.12,27.12,0,0,0-6.9,4.54,19.91,19.91,0,0,1-10.3,4c-4.87.11-8-1.22-9-3-1.22-2.21-.29-3.51,5.29-6.21,1.05-.51,4.75-2.79,6-3.62a29,29,0,0,0,3.78-2.94,23.13,23.13,0,0,0,1.69-1.74,8,8,0,0,0,1.41-1.87c.06-.15.1-.33.16-.49a8.8,8.8,0,0,0,.35-1.34c.09-.48.14-1.18.58-1.47a3.66,3.66,0,0,1,2-.25,15.78,15.78,0,0,1,2.16.29c.82.19,2.89,0,3.38.8a4.36,4.36,0,0,1,.48,2.08c0,.33,0,.67,0,1,0,.15-.06.4.14.34s.39-.56.46-.73c.15-.37.24-.78.41-1.15a3.34,3.34,0,0,1,.69-1.22c.92-.8,1.82-.66,2.09-.93C336.27,332.61,336.36,332,336.39,331.72Z" style="fill:#37474f"></path><path d="M309.55,346.3c7.05.44,9.31,4.89,9.63,7.65a16.1,16.1,0,0,1-5,1.11c-4.87.11-8.23-1.21-9.22-3C303.81,350,304.57,348.28,309.55,346.3Z" style="fill:#fafafa"></path><path d="M320.12,346.29a.34.34,0,0,0,.21-.08.36.36,0,0,0,.05-.5,8.23,8.23,0,0,0-6.4-2.53.36.36,0,0,0-.3.4.35.35,0,0,0,.38.31,7.6,7.6,0,0,1,5.79,2.27A.34.34,0,0,0,320.12,346.29Z" style="fill:#f0f0f0"></path><path d="M323.14,344.45a.32.32,0,0,0,.22-.08.36.36,0,0,0,0-.49,8.17,8.17,0,0,0-6.4-2.53.36.36,0,0,0-.3.39.35.35,0,0,0,.38.31,7.6,7.6,0,0,1,5.79,2.28A.36.36,0,0,0,323.14,344.45Z" style="fill:#f0f0f0"></path><path d="M325.93,342.36a.35.35,0,0,0,.22-.08.36.36,0,0,0,.05-.5,8.23,8.23,0,0,0-6.4-2.52.35.35,0,0,0,.08.7,7.6,7.6,0,0,1,5.79,2.27A.32.32,0,0,0,325.93,342.36Z" style="fill:#f0f0f0"></path><path d="M328.67,340.27a.37.37,0,0,0,.22-.08.36.36,0,0,0,.05-.5,8.35,8.35,0,0,0-7-2.55.35.35,0,0,0-.31.39.36.36,0,0,0,.39.31,7.7,7.7,0,0,1,6.36,2.3A.34.34,0,0,0,328.67,340.27Z" style="fill:#f0f0f0"></path><path d="M360.67,358.84c.27,3.4.84,5.64,2.06,7.6a4.82,4.82,0,0,0,5.7,1.87c2.24-.64,5.09-2.29,5.66-5.24a19.08,19.08,0,0,0,.33-8.12Z" style="fill:#263238"></path><path d="M370.82,334c.93,0,.79,4.57,1.43,9.12.69,4.89,1.42,6.81,2,10.82.69,4.57,0,6.65-1.51,9.47s-7,5.7-9.83,1.81c-2.31-3.18-2.49-6.78-2.39-11.37a67.88,67.88,0,0,0-.89-11.48c-.47-3.7-1-7.06-.24-7.46a34.77,34.77,0,0,0,.63,3.69c.11.25.48.88.6-.08,0-.29-.07-.94,0-1.23a1.22,1.22,0,0,1,.82-1.12,8.7,8.7,0,0,1,3.93-1c1.81-.06,3.38-.17,4.4.33.61.3.61.9.69,1.47s.12,1.12.28,1C371,337.7,370.74,334.54,370.82,334Z" style="fill:#37474f"></path><path d="M374.6,356.63a11.76,11.76,0,0,1-1.58,7c-1.5,2.82-7.45,5.73-10.28,1.83a13.19,13.19,0,0,1-2.07-6.65C362.24,355.73,372,354.1,374.6,356.63Z" style="fill:#fafafa"></path><path d="M362.58,353.79l.11,0a15.49,15.49,0,0,1,8.49-1.09.34.34,0,0,0,.4-.27.36.36,0,0,0-.26-.42,15.88,15.88,0,0,0-8.94,1.15.36.36,0,0,0-.15.48A.34.34,0,0,0,362.58,353.79Z" style="fill:#f0f0f0"></path><path d="M370.89,349.25a.35.35,0,0,0,.29-.25.36.36,0,0,0-.23-.44c-4.19-1.32-8.75,1-8.93,1.07a.37.37,0,0,0-.13.48.35.35,0,0,0,.47.14s4.49-2.25,8.38-1A.39.39,0,0,0,370.89,349.25Z" style="fill:#f0f0f0"></path><path d="M370.67,346a.32.32,0,0,0,.28-.24.35.35,0,0,0-.21-.44,11.9,11.9,0,0,0-9.1,1.05.37.37,0,0,0-.11.49.34.34,0,0,0,.48.1s4.22-2.41,8.51-1A.26.26,0,0,0,370.67,346Z" style="fill:#f0f0f0"></path><path d="M370.37,342.85a.33.33,0,0,0,.28-.23.35.35,0,0,0-.21-.45c-4.32-1.52-9,1-9.16,1.15a.36.36,0,0,0-.11.49.33.33,0,0,0,.47.11s4.56-2.5,8.57-1.08A.43.43,0,0,0,370.37,342.85Z" style="fill:#ebebeb"></path><path d="M364.31,207.36c2.74,10,2.88,11.16,4.76,33.5,1.83,21.66,1.59,28.14,1.84,30.75.59,6,.44,10.26,1.46,24.38.93,12.95-1.09,28.75-1.09,28.75s-1.19,2.17-6,2.7a12.64,12.64,0,0,1-7.33-1.23s-5.47-28.21-7.32-37.65C348.55,278,345,256.87,345,256.87l-1.79,20.44a76.22,76.22,0,0,1-.59,19.33c-2.11,11.68-4.25,24.36-4.25,24.36a14.79,14.79,0,0,1-6.68,1c-5.21-.44-7-1.65-7-1.65s-2.11-35.11-2.35-47.94-.56-44.12-.8-64.1Z" style="fill:#37474f"></path><path d="M345,256.87l-3.3-22.74s-7.28-1.82-12-6.73c.42,3.72,6.95,8.37,10,9l3.6,21.91,0,18.95Z" style="fill:#263238"></path><path d="M353.3,211.05a31.17,31.17,0,0,1,2.83,5.84,58.63,58.63,0,0,1,1.92,6.21c.52,2.11,1,4.23,1.27,6.38a43.8,43.8,0,0,1,.54,6.48c-.55-2.1-1.06-4.19-1.56-6.28s-1-4.17-1.54-6.24-1.06-4.15-1.62-6.21S354,213.11,353.3,211.05Z" style="fill:#37474f"></path><path d="M356.08,211.78A23.06,23.06,0,0,1,359,215a32.08,32.08,0,0,1,2.39,3.67,27.71,27.71,0,0,1,1.84,4,17.12,17.12,0,0,1,1.05,4.3l-2-3.85c-.68-1.27-1.35-2.53-2.06-3.77s-1.4-2.49-2.09-3.75S356.73,213.11,356.08,211.78Z" style="fill:#37474f"></path><path d="M352,237.83c1,6.71,2,13.44,2.94,20.15s1.81,17.56,3.14,24.18,5,32.37,6.14,39.07c-1.63-6.59-6-32.13-7.44-38.8s-2.1-17.56-2.87-24.31S352.49,244.61,352,237.83Z" style="fill:#263238"></path><path d="M328.39,238.27,327.64,256c-.1,3-.23,5.91-.31,8.86s-.19,5.91-.09,8.82.82,31.18.54,37.1c-.8-6.57-1.57-31.11-1.87-37.06-.09-6,.29-11.87.7-17.78S327.61,244.14,328.39,238.27Z" style="fill:#263238"></path><path d="M338.85,318.14l-.86,6.17s-2.38,1.62-7.43,1.18-5.81-2.1-5.81-2.1l-.11-5.79s1.23,1.18,5.85,1.63A19.34,19.34,0,0,0,338.85,318.14Z" style="fill:#455a64"></path><path d="M371.79,321.83l-.34,6.23s-2.24,1.83-7.31,1.87-6-1.54-6-1.54L357,322.67s2,1,6.59,1A19.44,19.44,0,0,0,371.79,321.83Z" style="fill:#455a64"></path></g><g id="freepik--Top--inject-71"><path d="M316,235.88a1.19,1.19,0,0,1,.5,1.1,3.73,3.73,0,0,1-1.69,2.92,1.19,1.19,0,0,1-1.2.12l-9.46-5.45a1.19,1.19,0,0,1-.5-1.1,3.73,3.73,0,0,1,1.69-2.92,1.19,1.19,0,0,1,1.2-.12Z" style="fill:#f0f0f0"></path><path d="M314.8,239.9a1,1,0,0,1-1.69-1A3.72,3.72,0,0,1,314.8,236a1.17,1.17,0,0,1,1.19-.12,1.19,1.19,0,0,1,.5,1.1A3.73,3.73,0,0,1,314.8,239.9Z" style="fill:#e0e0e0"></path><path d="M323.29,213.16,315.84,231l-11.35-5.52,7.28-17.67C312.74,205.47,325.58,209,323.29,213.16Z" style="fill:#37474f"></path><path d="M302.36,349a1.12,1.12,0,0,0-.6-1,3.52,3.52,0,0,0-3.16-.18,1.12,1.12,0,0,0-.7.88c0,.29-.08,1.43-.1,1.72a1.13,1.13,0,0,0,.61.95,3.47,3.47,0,0,0,3.15.17,1.11,1.11,0,0,0,.71-.87C302.28,350.41,302.35,349.27,302.36,349Z" style="fill:#455a64"></path><path d="M298.6,347.85a1,1,0,0,0-.1,1.83,3.49,3.49,0,0,0,3.16.17,1.09,1.09,0,0,0,.7-.87,1.12,1.12,0,0,0-.6-1A3.52,3.52,0,0,0,298.6,347.85Z" style="fill:#37474f"></path><path d="M307.25,262.59a1.12,1.12,0,0,0-.6-.95,3.5,3.5,0,0,0-3.15-.18,1.13,1.13,0,0,0-.71.88c0,.29-4.87,86.09-4.89,86.38a1.12,1.12,0,0,0,.6.95,3.49,3.49,0,0,0,3.16.17,1.07,1.07,0,0,0,.7-.87C302.38,348.68,307.24,262.88,307.25,262.59Z" style="fill:#e0e0e0"></path><path d="M307.25,262.59a1.12,1.12,0,0,0-.6-.95,3.5,3.5,0,0,0-3.15-.18,1.13,1.13,0,0,0-.71.88c0,.29-4.87,86.09-4.89,86.38a1.12,1.12,0,0,0,.6.95,3.49,3.49,0,0,0,3.16.17,1.07,1.07,0,0,0,.7-.87C302.38,348.68,307.24,262.88,307.25,262.59Z" style="opacity:0.2"></path><path d="M303.5,261.46a1.13,1.13,0,0,0-.71.88,1.09,1.09,0,0,0,.6.94,3.46,3.46,0,0,0,3.16.18,1.09,1.09,0,0,0,.7-.87,1.12,1.12,0,0,0-.6-.95A3.5,3.5,0,0,0,303.5,261.46Z" style="fill:#e0e0e0"></path><path d="M308.6,238.83a1.09,1.09,0,0,0-.6-.94,3.49,3.49,0,0,0-3.16-.18,1.1,1.1,0,0,0-.7.87c0,.29-1.33,23.47-1.35,23.76a1.1,1.1,0,0,0,.61.94,3.44,3.44,0,0,0,3.15.18,1.11,1.11,0,0,0,.71-.87C307.27,262.3,308.58,239.13,308.6,238.83Z" style="fill:#455a64"></path><path d="M304.84,237.71a1,1,0,0,0-.1,1.82,3.5,3.5,0,0,0,3.15.18,1.13,1.13,0,0,0,.71-.88,1.1,1.1,0,0,0-.6-.94A3.49,3.49,0,0,0,304.84,237.71Z" style="fill:#37474f"></path><path d="M332.35,161.4c-4,1.4-10.4,3.61-12.6,9.44s-3.52,16.42-3.83,19.66-1,9-1,9-7.59,22.57-8.3,24-3.15,2.45-6.79,5.34c-1.27,1-2.4,2-1.09,5.52.43,1.18.69,2.42,1.09,3.62s.87,2.61,2.23,2.78a5.43,5.43,0,0,1,1,.07,2.1,2.1,0,0,1,.65.41,2.58,2.58,0,0,0,2.13.73c.21-.05.41-.15.63-.2a2.74,2.74,0,0,1,1.84.54,2,2,0,0,0,2,.28,4.89,4.89,0,0,0,1.22-1.05,14.7,14.7,0,0,0,1.45-1.88l-2.58-1.49a3.58,3.58,0,0,1,.11-2.75,5.79,5.79,0,0,1,1.55-1.81l3,1.7a9.73,9.73,0,0,0,.8-3.19c.26-2.15-.8-3.06.82-6.4s9.19-17.3,10.49-19.43c1.76-2.9,2-4.79,2.46-7.74.71-4.87,3.77-23.55,3.77-23.55Z" style="fill:#ffa8a7"></path><path d="M311.77,207.86c4.51-1.23,11.2,2,11.52,5.3l3-5.44c-.53-3.25-7.63-6.73-12.42-5.06Z" style="fill:#37474f"></path><path d="M332.35,161c-4.41,1.11-8.9,2.35-12,7.16-2.22,3.43-3.8,13.74-5.39,23.45a19.93,19.93,0,0,0,12.14,1.78C330.84,181.75,332.35,161,332.35,161Z" style="fill:#2A53E1"></path><path d="M348,159.27a68.18,68.18,0,0,1,15.12,2.13c1.45,4.48,1.3,13.71,1.32,17,0,7.29.75,18.32,1.31,23.52s1.53,15.49,2,19.77c-5.45,5.58-33.1,8.23-46.51-.41,0,0,0-6.06,0-11,0-9.27-.18-21.68,1-32.94,1.27-11.73,8.79-16.34,10.89-16.54A60.79,60.79,0,0,1,348,159.27Z" style="fill:#f0f0f0"></path><path d="M380.47,246.75a1.18,1.18,0,0,1,.61,1,3.73,3.73,0,0,1-1.35,3.1,1.18,1.18,0,0,1-1.17.25l-10-4.34a1.18,1.18,0,0,1-.62-1,3.73,3.73,0,0,1,1.35-3.1,1.17,1.17,0,0,1,1.17-.26Z" style="fill:#f0f0f0"></path><path d="M379.73,250.88a1,1,0,0,1-1.79-.78,3.73,3.73,0,0,1,1.35-3.1,1,1,0,0,1,1.79.78A3.73,3.73,0,0,1,379.73,250.88Z" style="fill:#e0e0e0"></path><path d="M380.16,367.23a1.09,1.09,0,0,0-.71-.87,3.47,3.47,0,0,0-3.15.18,1.12,1.12,0,0,0-.6.95c0,.29.08,1.43.1,1.72a1.12,1.12,0,0,0,.71.87,3.5,3.5,0,0,0,3.15-.18,1.12,1.12,0,0,0,.6-.95C380.24,368.66,380.18,367.52,380.16,367.23Z" style="fill:#455a64"></path><path d="M376.3,366.54a1,1,0,0,0,.1,1.82,3.52,3.52,0,0,0,3.16-.18,1.12,1.12,0,0,0,.6-.95,1.09,1.09,0,0,0-.71-.87A3.47,3.47,0,0,0,376.3,366.54Z" style="fill:#37474f"></path><path d="M375.2,280.84a1.07,1.07,0,0,0-.7-.87,3.52,3.52,0,0,0-3.16.18,1.12,1.12,0,0,0-.6,1c0,.29,4.94,86.09,5,86.38a1.12,1.12,0,0,0,.71.87,3.5,3.5,0,0,0,3.15-.18,1.12,1.12,0,0,0,.6-.95C380.15,366.93,375.22,281.13,375.2,280.84Z" style="fill:#e0e0e0"></path><path d="M375.2,280.84a1.07,1.07,0,0,0-.7-.87,3.52,3.52,0,0,0-3.16.18,1.12,1.12,0,0,0-.6,1c0,.29,4.94,86.09,5,86.38a1.12,1.12,0,0,0,.71.87,3.5,3.5,0,0,0,3.15-.18,1.12,1.12,0,0,0,.6-.95C380.15,366.93,375.22,281.13,375.2,280.84Z" style="opacity:0.2"></path><path d="M371.34,280.15a1,1,0,0,0,.11,1.82,3.5,3.5,0,0,0,3.15-.18,1.09,1.09,0,0,0,.6-1,1.07,1.07,0,0,0-.7-.87A3.52,3.52,0,0,0,371.34,280.15Z" style="fill:#e0e0e0"></path><path d="M373.46,250.52a1.11,1.11,0,0,0-.71-.87,3.49,3.49,0,0,0-3.16.18,1.1,1.1,0,0,0-.6.95c0,.29,1.74,30,1.76,30.32a1.07,1.07,0,0,0,.7.87,3.52,3.52,0,0,0,3.16-.18,1.12,1.12,0,0,0,.6-1C375.19,280.55,373.47,250.81,373.46,250.52Z" style="fill:#455a64"></path><path d="M369.59,249.83a1.1,1.1,0,0,0-.6.95,1.12,1.12,0,0,0,.71.87,3.5,3.5,0,0,0,3.15-.18,1.13,1.13,0,0,0,.61-.95,1.11,1.11,0,0,0-.71-.87A3.49,3.49,0,0,0,369.59,249.83Z" style="fill:#37474f"></path><path d="M379,217.73l.23,22.83L366.91,238,366,218.12C365.66,214.92,379.1,213.16,379,217.73Z" style="fill:#37474f"></path><path d="M367.91,235.22c.1,1.59-1,3.08-4.27,6.36-1.15,1.14-2.16,2.23-.46,5.61.57,1.12,1,2.33,1.5,3.47s1.15,2.5,2.52,2.51a6.75,6.75,0,0,1,1,0,2.12,2.12,0,0,1,.69.34,2.61,2.61,0,0,0,2.2.48c.21-.08.39-.2.6-.28a2.77,2.77,0,0,1,1.89.33,2,2,0,0,0,2,.06,5,5,0,0,0,1.1-1.19,14.37,14.37,0,0,0,1.22-2l-2.73-1.18c-.52-.23,0-2,.2-2.38a3.94,3.94,0,0,1,2.57-1.63,3.7,3.7,0,0,0,1.53-3.06,10.06,10.06,0,0,0-.66-3.5c-.64-1.88-.32-10-.19-15.24s.44-13.58.38-15.86a106.15,106.15,0,0,0-.48-12.44c-.64-5-2.95-25.49-6.71-29.69a11.15,11.15,0,0,0-8.77-3.71c-1.15,1.47-3,11.46-2.22,16.59s4.12,27.68,4.12,27.68S367.76,233.05,367.91,235.22Z" style="fill:#ffa8a7"></path><path d="M366,218.12c3.49-3.1,11.24-3.21,13-.39l.1-6.2c-1.92-2.68-10.12-2.31-13.66,1.32Z" style="fill:#37474f"></path><path d="M377.16,180.41c-1.29-8.93-1.9-11-3.69-13.77s-4.51-3.84-10.35-5.24c-4.53,6.7-3,17.93-3,17.93l2.58,18.06c4.55,1.52,13.53.55,16.2-3.15C378.93,194.24,378.41,189,377.16,180.41Z" style="fill:#2A53E1"></path><g id="freepik--Head--inject-71"><path d="M352.8,153.4a72.56,72.56,0,0,0,6.5-10.71,13.38,13.38,0,0,0,1.2-10.09c-.63-2-2.46-4-4.06-4.29a5.8,5.8,0,0,0-2-5.51,4.36,4.36,0,0,0-4.53-.9,3.73,3.73,0,0,0-6.42-2,4,4,0,0,0-3.94-2,4.29,4.29,0,0,0-3.63,2.92,6.89,6.89,0,0,0-4.22-1.66,4,4,0,0,0-3.69,2.31c-.55,1.39-.08,3,.41,4.38a2.25,2.25,0,0,0-3.55,2.19,6,6,0,0,1,.35,1.7,1.32,1.32,0,0,1-2.3.75,2.79,2.79,0,0,0,3.33,3.35,2.15,2.15,0,0,0,.87,2.14,2.49,2.49,0,0,0,1.81.31Z" style="fill:#263238"></path><path d="M329.14,150.23c.84,3.82,2.38,5.57,5,6.46a12.73,12.73,0,0,0,4.3.4l.41,3.14c-5.22,9.68,11.45,8,15,0l-.86-11.11s1.64,1.92,4.41.16a6,6,0,0,0,2-7.31c-1.32-2.89-4.07-1.74-4.92-.88s-1.81,2.31-2.55,2.25c-1.13-.09-1.4-1-1.66-1.75a15.51,15.51,0,0,1-.82-5.58c-.75-.4-1.79-.77-2.11-1.67-1.15-3.26,0-4.26.6-5.68-2.94-2-7.29,1.62-10.59,2-3.77.49-4.62-1.67-6.67-1.41a18.45,18.45,0,0,0-1.82,6.62A44.29,44.29,0,0,0,329.14,150.23Z" style="fill:#ffa8a7"></path><path d="M338.43,157.09h0c3-.13,7.36-.77,9.86-3.24a11.27,11.27,0,0,0,3-5.76s-.28,4.19-1.55,6.09a11.93,11.93,0,0,1-6.15,4.09,42.39,42.39,0,0,1-4.93.7Z" style="fill:#f28f8f"></path><path d="M330.41,136l3-.87a1.48,1.48,0,0,0-1.86-1.07A1.63,1.63,0,0,0,330.41,136Z" style="fill:#263238"></path><path d="M343.59,137.15l-2.79-1.41a1.51,1.51,0,0,1,2.05-.73A1.65,1.65,0,0,1,343.59,137.15Z" style="fill:#263238"></path><path d="M332.82,144.14l4.25,1.34.71-8.16C336.27,137.09,334.13,141.24,332.82,144.14Z" style="fill:#f28f8f"></path><path d="M340.42,146.72l-4.24,1.7a2.3,2.3,0,0,0,3.18,1.18A2.15,2.15,0,0,0,340.42,146.72Z" style="fill:#b16668"></path><path d="M338.11,149.82a2.41,2.41,0,0,1,2.26-2.3h.22a2,2,0,0,1-1.23,2.07A2.54,2.54,0,0,1,338.11,149.82Z" style="fill:#f28f8f"></path><path d="M342.49,139.75a1.3,1.3,0,0,1-1.24,1.35,1.28,1.28,0,0,1-1.35-1.23,1.3,1.3,0,0,1,1.23-1.36A1.31,1.31,0,0,1,342.49,139.75Z" style="fill:#263238"></path><path d="M333.14,139.2a1.3,1.3,0,1,1-1.36-1.24A1.31,1.31,0,0,1,333.14,139.2Z" style="fill:#263238"></path></g></g></g></g><g id="freepik--character-5--inject-71"><g id="freepik--character--inject-71"><g id="freepik--bottom--inject-71"><path d="M428.49,365.52a4.37,4.37,0,0,1-.25-2.74,16.85,16.85,0,0,1,1.54-3.74,24.07,24.07,0,0,0,1.62-15.7c-.55-2.32-2.37-4.1-3.94-5.83-3.4-3.73-7.11-7.19-10.83-10.59l12.51-12.86c2.62,4.2,10,18.29,10,18.29l.81,1.5c.27.33.42.72.65,1a10.44,10.44,0,0,0,1.17,1.13l2.31,2.25a6,6,0,0,1,1.67,2.24c.55,1.67-.45,3.4-1,5.08-.89,2.71-.6,5.65-.71,8.51a8.53,8.53,0,0,1-2.39,6.05,22.5,22.5,0,0,1-7.74,6,5.9,5.9,0,0,1-3.19.46A3.12,3.12,0,0,1,428.49,365.52Z" style="fill:#874c4c"></path><path d="M447.06,340a6.35,6.35,0,0,1,.91,2.37c.19.87-1.79,4.26-2,6a44.17,44.17,0,0,0,0,4.49c0,2.47.71,5-3.17,9.87s-7.66,6.39-10.5,6.83a6.52,6.52,0,0,1-3-.42s-2.58-2.34-1.41-3.95S447.06,340,447.06,340Z" style="fill:#263238"></path><path d="M429.41,341.89c-.14.6.28,1.31.61,2.6a14.72,14.72,0,0,1,.19,5.51c-1.65,9.43-4.9,13.08-2.56,17.2.85,1.51,3.94,2.27,10.39-1.54,3.3-2,6.83-7.23,7-10.19s-.33-5.11-.09-7.35,2.53-6,2.1-8.15a8.13,8.13,0,0,0-2.58-3.52,26.24,26.24,0,0,1-3.29-3c-.72-.89-1.22-1.47-2-1.06l.81,1.5a9.9,9.9,0,0,1,.49,4.5c-.17,1.6-.73,2.27-1,3.53-.55-1.8-.53-3.26-1.78-3.59-.69-.18-1.41-.22-3.74.71S429.54,341.35,429.41,341.89Z" style="fill:#455a64"></path><path d="M438,365.68c3.3-1.94,6.82-7.23,7-10.18a26,26,0,0,0,0-2.94c0,.2-.05.4-.08.56-.08.36-.17.71-.28,1.07a8.36,8.36,0,0,1-2,3.79c-.92.89-3.14,3.17-4.63,2.65a2.34,2.34,0,0,1-1.18-2.44c0-.44.21-1.59.21-1.59a13.68,13.68,0,0,0-4.43.06c-2.69.57-2.73.91-2.73.91a6.1,6.1,0,0,1-.67,1.9,4.85,4.85,0,0,1-1.29,1.46,2.75,2.75,0,0,1-.65.28c-.71,2.05-1.1,3.87.33,6C428.62,368.62,431.54,369.5,438,365.68Z" style="fill:#37474f"></path><path d="M430.36,346.9h0a3.4,3.4,0,0,1,.19,1.35,35.07,35.07,0,0,1-.58,6.2,4.79,4.79,0,0,0,.13,2.35,4.87,4.87,0,0,1,.4.87.56.56,0,0,1-.22.65,1,1,0,0,1-1.12.15,1.41,1.41,0,0,1-.51-.69c-.08-.17-.16-.34-.23-.52a60.1,60.1,0,0,0,1.78-7.27A14.72,14.72,0,0,0,430.36,346.9Z" style="fill:#37474f"></path><path d="M441.93,337.67a13.86,13.86,0,0,0-.29-3.76c-.17-.18-.33-.35-.45-.5-.72-.89-1.22-1.47-2-1.06l.81,1.5a11.61,11.61,0,0,1,.18,4c-.29,1.81-.42,2.79-.66,4.05-.61,4.14-.29,5.73-1.28,9.47s-2.66,5.87-2.23,6.27,1.61.4,2.92-2.39,1.95-8.12,2-10.76S441.71,340.33,441.93,337.67Z" style="fill:#37474f"></path><path d="M437.21,356.55a.42.42,0,0,1-.22.05,9.18,9.18,0,0,0-6.9,1.8.39.39,0,0,1-.43-.64,10,10,0,0,1,7.38-1.93.39.39,0,0,1,.17.72Z" style="fill:#ebebeb"></path><path d="M437.79,353.62a.31.31,0,0,1-.21,0,10.39,10.39,0,0,0-7.39,1.72.38.38,0,0,1-.54-.13.4.4,0,0,1,.13-.54,11.13,11.13,0,0,1,7.87-1.83.39.39,0,0,1,.35.43A.37.37,0,0,1,437.79,353.62Z" style="fill:#ebebeb"></path><path d="M438.75,350.46a.39.39,0,0,1-.24.05,11.66,11.66,0,0,0-8.28,1.82.44.44,0,0,1-.6-.16.43.43,0,0,1,.16-.59,12.58,12.58,0,0,1,8.81-1.94.44.44,0,0,1,.39.48A.43.43,0,0,1,438.75,350.46Z" style="fill:#ebebeb"></path><path d="M439.1,347.18a.47.47,0,0,1-.24.05,11.36,11.36,0,0,0-8.08,1.84.43.43,0,0,1-.59-.15.42.42,0,0,1,.15-.58,12.21,12.21,0,0,1,8.61-2,.42.42,0,0,1,.38.46A.45.45,0,0,1,439.1,347.18Z" style="fill:#ebebeb"></path><path d="M439.38,343.82a.6.6,0,0,1-.24.05c-3.09-.22-5.34.49-8.34,2.4a.43.43,0,0,1-.59-.13.42.42,0,0,1,.13-.59c3.15-2,5.58-2.76,8.86-2.53a.43.43,0,0,1,.4.45A.45.45,0,0,1,439.38,343.82Z" style="fill:#ebebeb"></path><path d="M394.05,225.14c-1,7.15-4.41,16.12-6.28,33.06-1.75,15.88-2.53,24.16-1.42,32.06.39,2.81,1.81,6.11,4.52,10.27,8.47,13.05,25.14,33.58,25.14,33.58s3.78-.06,8.36-3.79a13.13,13.13,0,0,0,4.62-8.94s-.44-3-7.43-15a64.52,64.52,0,0,1-7.89-25l4.56-51C407.37,231.33,399.11,229.3,394.05,225.14Z" style="fill:#263238"></path><path d="M424.37,330.32a13.13,13.13,0,0,0,4.62-8.94s-.44-3-7.43-15a64.52,64.52,0,0,1-7.89-25l3.49-39.05a151.31,151.31,0,0,0-20.34-1.23c-.23,5.59,1,12.51,8.85,16.67,0,0-1.45,27.46-1.64,35.5-.14,6.13,1.61,21.73,2.45,28.8,5.29,6.85,9.53,12.07,9.53,12.07S419.79,334.05,424.37,330.32Z"></path><path d="M404.09,371.6s5.58-7,5.58-15.4-.92-22.81-.92-22.81l17.25,4.4-3.79,22.56-.2,1.78s1,9.86-6.72,10.15A100.48,100.48,0,0,1,404.09,371.6Z" style="fill:#874c4c"></path><path d="M424.45,371.6a6.53,6.53,0,0,1-.63,2.58c-.35.86-4.07,2.6-5.23,4s-1.34,2-2.69,3.86c-1.49,2.11-2.37,4.75-8.59,6.6s-10.4.95-13.1-.37a6.87,6.87,0,0,1-2.38-2.18s-.82-3.54,1.14-4.23S424.45,371.6,424.45,371.6Z" style="fill:#263238"></path><path d="M408.13,362.75c-.48.43-.54,1.29-1,2.6A15.47,15.47,0,0,1,404,370.2c-7,7.13-12,8.34-12.44,13.28-.16,1.8,2,4.29,9.87,4.86,4,.29,10.17-2.16,12.08-4.6s2.77-4.59,4.31-6.37,5.73-3.65,6.65-5.77a8.56,8.56,0,0,0-.12-4.56,26.47,26.47,0,0,1-1-4.58c-.09-1.19-.18-2-1.1-2.11l-.2,1.78c-1,2.76-1.43,3.19-2.26,4.16-1.09,1.28-2,1.53-2.93,2.46.6-1.88,1.48-3.11.6-4.14-.48-.57-1.08-1-3.64-1.62S408.55,362.36,408.13,362.75Z" style="fill:#455a64"></path><path d="M401.35,388.33c4,.29,10.18-2.16,12.09-4.6a28.16,28.16,0,0,0,1.74-2.52c-.15.14-.28.3-.41.42s-.57.52-.87.76a8.69,8.69,0,0,1-4,2.07c-1.33.22-4.59.87-5.56-.47a2.45,2.45,0,0,1,.43-2.8c.28-.37,1.13-1.24,1.13-1.24a14.29,14.29,0,0,0-3.84-2.59c-2.65-1.11-2.89-.84-2.89-.84a6.52,6.52,0,0,1-1.71,1.23,4.93,4.93,0,0,1-2,.49,2.72,2.72,0,0,1-.72-.15c-1.83,1.35-3.25,2.68-3.3,5.38C391.54,385.28,393.53,387.76,401.35,388.33Z" style="fill:#37474f"></path><path d="M406,367.62v0a3.6,3.6,0,0,1-.63,1.27,37.62,37.62,0,0,1-4.2,5,5.17,5.17,0,0,0-1.29,2.1,4.66,4.66,0,0,1-.17,1,.57.57,0,0,1-.58.42,1,1,0,0,1-1-.53,1.53,1.53,0,0,1,0-.9c0-.19.06-.39.11-.58a61.53,61.53,0,0,0,5.85-5.2A13.94,13.94,0,0,0,406,367.62Z" style="fill:#37474f"></path><path d="M421.41,366.57a14.44,14.44,0,0,0,2-3.41,6.84,6.84,0,0,1-.08-.7c-.09-1.19-.18-2-1.1-2.11l-.2,1.78a12,12,0,0,1-2.21,3.53c-1.33,1.39-2,2.16-3,3.09-3,3.2-3.66,4.75-6.74,7.39s-5.78,3.47-5.65,4.07,1.14,1.29,3.94-.33,6.51-5.82,8.08-8.09S419.64,368.73,421.41,366.57Z" style="fill:#37474f"></path><path d="M406.11,380a.43.43,0,0,1-.22-.09,9.64,9.64,0,0,0-7-2.56.4.4,0,1,1,0-.8,10.38,10.38,0,0,1,7.49,2.74.4.4,0,0,1,.06.56A.38.38,0,0,1,406.11,380Z" style="fill:#ebebeb"></path><path d="M408.35,377.83a.43.43,0,0,1-.21-.09,10.8,10.8,0,0,0-7.37-2.92.4.4,0,0,1-.39-.43.42.42,0,0,1,.44-.39,11.58,11.58,0,0,1,7.85,3.11.41.41,0,0,1,.05.58A.4.4,0,0,1,408.35,377.83Z" style="fill:#ebebeb"></path><path d="M411.06,375.68a.43.43,0,0,1-.23-.1,12.23,12.23,0,0,0-8.21-3.36.46.46,0,0,1-.42-.49.45.45,0,0,1,.48-.42,13.19,13.19,0,0,1,8.74,3.58.46.46,0,0,1,.05.64A.44.44,0,0,1,411.06,375.68Z" style="fill:#ebebeb"></path><path d="M413.31,373.07a.52.52,0,0,1-.23-.1,11.87,11.87,0,0,0-8.05-3.23.45.45,0,1,1,.06-.89,12.84,12.84,0,0,1,8.57,3.44.45.45,0,0,1-.35.78Z" style="fill:#ebebeb"></path><path d="M415.55,370.34a.43.43,0,0,1-.23-.1c-2.53-2-4.89-2.75-8.61-2.9a.45.45,0,1,1,0-.89c3.9.16,6.44.95,9.13,3.1a.44.44,0,0,1,.07.62A.45.45,0,0,1,415.55,370.34Z" style="fill:#ebebeb"></path><path d="M394.05,225.14s-1.38,9.23,1.56,17.65c2.56,7.32,7.47,11.44,12.63,13.16,0,0-1.71,32.85-2.17,37.42s.61,21.14,1.58,32,1.26,14.65,1.26,14.65,2.28,2.45,8.66,2.58,8.4-2.57,8.4-2.57,4-12.6,4.2-22.5c.1-5.67-1.12-8.49-.06-14.11S439,272.82,440.27,261s-.66-22.29-8.91-34.43C422.48,232.45,402.13,231,394.05,225.14Z" style="fill:#263238"></path><path d="M427.72,228.35c4.47,6.31,10.92,19.33,6.34,38q-1.95,7.95-3.85,15.37c-2.94,11.58-5.26,20.74-5.57,24.23a29,29,0,0,0,.28,5.89,50.39,50.39,0,0,1,0,13.86c-.81,6-2,12.24-2.81,16.48.27-.07.52-.14.76-.22.84-4.25,2-10.35,2.74-16.16a50.88,50.88,0,0,0,0-14,27.87,27.87,0,0,1-.28-5.76c.31-3.44,2.62-12.56,5.55-24.12,1.26-4.95,2.56-10.07,3.86-15.37,4.6-18.78-1.82-31.94-6.36-38.4Z"></path></g><g id="freepik--top--inject-71"><g id="freepik--Arm--inject-71"><path d="M360.81,198.53c-2.91-1.08-4-2.87-5.69-4.24-2.1-1.73-4.43-2.59-7.95-4.43-.6-.32-1.21-.62-1.82-.93a9.09,9.09,0,0,1-.87-.47c-.25-.18-.48-.31-.79-.06a1.2,1.2,0,0,0-.37.74,3.26,3.26,0,0,0,.86,2.54,15.66,15.66,0,0,0,2.06,1.83c.54.45-.26.64-.64.68-1.91.18-6-3.08-7.64-3.89-.76-.36-1.35-1.16-2.25-.66a5.6,5.6,0,0,1-.89.5,4.23,4.23,0,0,1-1.07.1,2.41,2.41,0,0,0-1.48.55,1.37,1.37,0,0,0-.41,1.44c.15.39.53.68.61,1.08a3.92,3.92,0,0,1,0,.59c0,.88.83,1.48,1.38,2.16s.7,1.29,1.14,1.88a13.2,13.2,0,0,0,1.5,1.82,27.88,27.88,0,0,0,4.36,3.37,19.07,19.07,0,0,0,7.06,2.18,12.25,12.25,0,0,1,5.87,1.79c3.11,1.72,14.79,8.19,19.87,10.26,6.15,2.51,7.94,3.34,13.87-1.1,3.94-2.94,17.22-16.35,17.22-16.35l1.66-18.54s-7.12-.63-14.87,8.33c-5.55,6.42-12.1,14-12.1,14S363.29,199.46,360.81,198.53Z" style="fill:#9e6767"></path></g><path d="M347.17,195.46c.05,3,3.16,5.48,4.89,6.18,0,0-2.88-.47-4.11-2.09C346.6,197.76,346.73,196.62,347.17,195.46Z" style="fill:#874c4c"></path><path d="M414.36,126.5a4.16,4.16,0,0,1,3.61,0c1.37.72,2.32,2.39,3.87,2.41a2.1,2.1,0,0,0,2-2.32,1.67,1.67,0,0,1,.77,3,4.7,4.7,0,0,1,6.8,4.23,3.5,3.5,0,0,0,.05,1c.21.72,1,1.08,1.69,1.41a6.53,6.53,0,0,1,2.91,2.48,4.14,4.14,0,0,1,.25,3.67,3.6,3.6,0,0,0-2.15-2,4.48,4.48,0,0,1,.81,5.43,8.84,8.84,0,0,1-3.62,3.18,22.31,22.31,0,0,0-3.94,2c-.66.48-1.23,1.07-1.91,1.52a5.78,5.78,0,0,1-8-1.59c-.84-1.3-2.36-1.51-3.82-1.88-1.74-.44-3.66-1.17-4.35-2.84-.6-1.46-.06-3.28-.95-4.59-.53-.78-1.41-1.13-1.95-1.9a5.23,5.23,0,0,1-.89-2.38,5.68,5.68,0,0,1,1.25-4.43c1.19-1.39,3-2.08,4.27-3.34C412.13,128.44,413,127.15,414.36,126.5Z" style="fill:#263238"></path><g id="freepik--Chest--inject-71"><path d="M437.6,207.36s-3.55-1.35-5.18-8.8c-.74-3.38-2.28-9.66-1.35-14.94L423.33,182s-3.27-.6-10.41-1.25l-6.5.65s-11.24,6.17-15.4,13c-2.27,3.74-4.26,11.43.85,16.65.12,5.09,1,15.41,1,15.41s3.17,4.74,16.23,5c18.75.41,22.87-4.58,22.87-4.58C431.85,221.41,436.14,212.76,437.6,207.36Z" style="fill:#2A53E1"></path><path d="M437.6,207.36s-3.55-1.35-5.18-8.8c-.74-3.38-2.28-9.66-1.35-14.94L423.33,182s-3.27-.6-10.41-1.25l-6.5.65s-11.24,6.17-15.4,13c-2.27,3.74-4.26,11.43.85,16.65.12,5.09,1,15.41,1,15.41s3.17,4.74,16.23,5c18.75.41,22.87-4.58,22.87-4.58C431.85,221.41,436.14,212.76,437.6,207.36Z" style="fill:#fff;opacity:0.2"></path><path d="M405.8,211.48s3.12,4.38,10.28,3.53,8.8-6.26,8.8-6.26.11,7.07-8.45,8.06S405.8,211.48,405.8,211.48Z" style="fill:#2A53E1"></path></g><g id="freepik--head--inject-71"><path d="M425.82,143.58a7.53,7.53,0,0,0-4.23-2.18,23.32,23.32,0,0,1-3.92-.59c-1.41-.44-2.66-1.29-4.06-1.75a8.75,8.75,0,0,0-6.68.75c-2,1.06-3.14,3.13-5.32,3.88-1.14.39-2.34.56-3.47,1a7.69,7.69,0,0,0-4.39,4,6.2,6.2,0,0,0,.45,5.85,4.44,4.44,0,0,1,.86,1.54c.21,1.09-.72,2-1.11,3.06A4.26,4.26,0,0,0,395.9,164a8.37,8.37,0,0,0,5.49.88A12.85,12.85,0,0,0,406,171.8a28.24,28.24,0,0,0,4.84,3.06,22.49,22.49,0,0,0,4.68,1.66c1.66.48,4.66,1.38,6.11-.05a6.51,6.51,0,0,0,1.23-2.12,57.69,57.69,0,0,1,4.68-7.7,25.18,25.18,0,0,0,3.88-8.09,11.39,11.39,0,0,0-.35-6.59,9.62,9.62,0,0,0-1.28-2.41,3,3,0,0,0-2.69-1.2A6.56,6.56,0,0,0,425.82,143.58Z" style="fill:#263238"></path><path d="M427.4,160.62c-1.89-.6-3.41.19-4.27,2.23-.75,1.77-2.6,1.27-2.34-1.43-4.39-3.78.27-6.64-3.39-10.33-2.28-2.31-6.78-1.38-8.51.25a4.42,4.42,0,0,0-5.28-1.8c-1.87.8-3,2-3.76,4.81s.24,3.35-.1,5.37A15.07,15.07,0,0,0,399,164c.43,9.35,2.47,11.59,4.58,13,1.45,1,3.25,1.42,6.26,1.27l.11,4.08a21.23,21.23,0,0,0-3.51,11.28,45.63,45.63,0,0,0,17.37-10.89l-.42-13.58h0c.49,1,2.69,2.08,4.71.17C430.7,167,430.73,161.7,427.4,160.62Z" style="fill:#9e6767"></path><path d="M402.18,157.56l2.85-1.4a1.51,1.51,0,0,0-2.07-.8A1.73,1.73,0,0,0,402.18,157.56Z" style="fill:#263238"></path><path d="M412.35,156.44l2.87,1.38a1.57,1.57,0,0,0-.7-2.14A1.65,1.65,0,0,0,412.35,156.44Z" style="fill:#263238"></path><path d="M412.88,168.19,408.61,170a2.31,2.31,0,0,0,3.24,1.18A2.24,2.24,0,0,0,412.88,168.19Z" style="fill:#874c4c"></path><path d="M410.59,171.43a2.45,2.45,0,0,1,2.25-2.41h.23a2.1,2.1,0,0,1-1.22,2.16A2.6,2.6,0,0,1,410.59,171.43Z" style="fill:#f28f8f"></path><polygon points="408.32 158.84 408.15 167.25 403.54 165.96 408.32 158.84" style="fill:#874c4c"></polygon><path d="M411.47,161.09a1.33,1.33,0,1,0,2.65-.07,1.35,1.35,0,0,0-1.37-1.32A1.33,1.33,0,0,0,411.47,161.09Z" style="fill:#263238"></path><path d="M402,160.71a1.35,1.35,0,0,0,1.37,1.32,1.36,1.36,0,0,0-.08-2.71A1.34,1.34,0,0,0,402,160.71Z" style="fill:#263238"></path><path d="M409.88,178.32c2.92-.36,7.88-.83,10.08-4.34,0,0-.19,2-3.07,3.76-2,1.23-7,2-7,2Z" style="fill:#874c4c"></path></g></g><g id="freepik--arm--inject-71"><g id="freepik--arm--inject-71"><path d="M442.73,250.66c.92-1,2.09-1.88,2.47-3.24a2.31,2.31,0,0,0-.32-2.06,1,1,0,0,1-.25-.38.78.78,0,0,1,0-.37,2.6,2.6,0,0,0-.1-1.54,1.56,1.56,0,0,0-1-.84,3.64,3.64,0,0,0,0-2.33c-.3-.88-1.21-1.59-1.81-.6a8,8,0,0,0-.69,1.55,17.17,17.17,0,0,0-1.22,4c-.15,1.47-.16,5.78,2.1,6C442.1,250.79,442.6,250.8,442.73,250.66Z" style="fill:#874c4c"></path><path d="M431.19,183.62c9.43,1.44,11,5.5,16.17,12.66a168.74,168.74,0,0,1,11.14,17c2.27,4.18,2.6,5.69-1.58,11-2.06,2.64-4.17,4.87-8.05,9.13-2.47,2.71-5.16,5.47-7.74,8.21a3.19,3.19,0,0,0-.69,2.84,15.5,15.5,0,0,1,.45,1.75,15.21,15.21,0,0,1-.18,2.32,2,2,0,0,0,.91,2,2.2,2.2,0,0,0,1.11.13,7.75,7.75,0,0,1-2.13,1.16,3.26,3.26,0,0,1-2.38-.07c-.71-.35-1.24-1-2-1.25-.41-.12-.84-.1-1.26-.21a2,2,0,0,1-1.07-.7c-.44-.54-.61-1.32-1.22-1.66a9.56,9.56,0,0,0-.95-.3,2.15,2.15,0,0,1-1.17-1.56,5.72,5.72,0,0,1,.05-2,51.25,51.25,0,0,1,1.1-5.35,5.36,5.36,0,0,1,.86-1.64c.41-.59.8-1.2,1.25-1.76,3-3.83,10.66-18.22,10.66-18.22L433.8,203.32S425.53,191.23,431.19,183.62Z" style="fill:#9e6767"></path><path d="M444.47,217.08c2.65,2.6,6.77,2.81,8.28,2.72a9.07,9.07,0,0,1-9.14-1.12Z" style="fill:#874c4c"></path></g></g></g></g><g id="freepik--character-2--inject-71"><g id="freepik--character--inject-71"><g id="freepik--bottom--inject-71"><path d="M130.32,316.31l15.4-2c-1.25,7.78-2.59,15.85-3.58,21.31a30.38,30.38,0,0,1-1.17,4.84c-.58,3.51-8.92,4.32-10.85-1.17l.14-4.76C130.27,330.14,130.33,322.85,130.32,316.31Z" style="fill:#ffa8a7"></path><path d="M199,352.64a2.5,2.5,0,0,1-.85,2.37,14.91,14.91,0,0,1-10.74,2.67c-5.32-.63-6.72-1.8-9-3.38s-5-5.05-7.45-5.55c-2.24-.47-4.9-1.18-5.83-2.35-.61-.77-.46-3.17-.46-3.17Z" style="fill:#263238"></path><path d="M166.66,329.68a1,1,0,0,0-.89.72c-.16.83-.32,3.76-.66,5.12a33.25,33.25,0,0,0-.26,8.74c.31,1.54,4.93,2.46,7.26,3.31s4.32,3.42,6.75,5.34a16.51,16.51,0,0,0,9.85,3.44c4.1-.06,8.7-1.4,9.74-3.27,1.28-2.31,1.46-4.52-4.65-7.23-1.15-.51-5.25-3.66-6.59-4.57a32.49,32.49,0,0,1-4-3.27,21,21,0,0,1-1.57-1.56,4.91,4.91,0,0,1-.86-1.67,22.67,22.67,0,0,1-.43-3.42.61.61,0,0,0-.11-.29.67.67,0,0,0-.27-.16,7.29,7.29,0,0,0-3-.12,11.91,11.91,0,0,0-3,.69,2.54,2.54,0,0,0-1.37.87,2.19,2.19,0,0,0-.26,1.11,7.36,7.36,0,0,1,0,1.15.64.64,0,0,1-.15.38c-.2.21-.54.05-.71-.11a14.39,14.39,0,0,1-1.66-1.91c-.29-.35-1.58-.55-2-.83s-.74-.88-1-1.16S166.68,330.16,166.66,329.68Z" style="fill:#37474f"></path><path d="M178.86,352.91a14.36,14.36,0,0,1-2.68-2.41h0s6.34,2.77,9.21.81c1.84-1.26,1-2.76.9-3.25s4.51-2.59,6.32-2.81h0c.5.27.93.49,1.19.6,5.64,2.31,5.81,4.46,5.22,6.79-1,1.87-4.94,3.79-10.23,3.83A17,17,0,0,1,178.86,352.91Z" style="fill:#455a64"></path><path d="M185.77,346.66c3.8,1.45,2.19,2.15,1.13,2.31s-6.61-4.18-10.52-7.15c-4.07-3.1-7.07-6.7-8.58-7.84-.56-.42-1.73-1.14-2.27-1.63.09-.82.16-1.56.24-2a1.43,1.43,0,0,1,.87-1l.24,1.54a4.45,4.45,0,0,0,1.3.71,5,5,0,0,1,1.68,1.28,14.39,14.39,0,0,0,1.66,1.91C174.85,339,182,345.21,185.77,346.66Z" style="fill:#263238"></path><path d="M186.63,348.43a.43.43,0,0,1-.24-.08.37.37,0,0,1,0-.52,9.07,9.07,0,0,1,6.89-2.73.37.37,0,0,1-.07.73,8.4,8.4,0,0,0-6.24,2.46A.37.37,0,0,1,186.63,348.43Z" style="fill:#f0f0f0"></path><path d="M183,345.94a.37.37,0,0,1-.31-.59,9.08,9.08,0,0,1,6.83-2.89.38.38,0,0,1,.34.4.36.36,0,0,1-.4.33,8.45,8.45,0,0,0-6.18,2.61A.35.35,0,0,1,183,345.94Z" style="fill:#f0f0f0"></path><path d="M180,343.45a.41.41,0,0,1-.24-.08.37.37,0,0,1-.06-.52,9.1,9.1,0,0,1,6.9-2.73.37.37,0,1,1-.08.73,8.4,8.4,0,0,0-6.23,2.46A.38.38,0,0,1,180,343.45Z" style="fill:#f0f0f0"></path><path d="M177.33,341.36a.31.31,0,0,1-.24-.07.36.36,0,0,1-.08-.51,9.08,9.08,0,0,1,6.77-3,.36.36,0,0,1,.35.38.37.37,0,0,1-.39.35,8.38,8.38,0,0,0-6.13,2.72A.35.35,0,0,1,177.33,341.36Z" style="fill:#f0f0f0"></path><path d="M174.41,339.18a.39.39,0,0,1-.23-.07.36.36,0,0,1-.09-.51c1.38-1.88,4.63-3.22,7.42-3.05a.38.38,0,0,1,.35.39.37.37,0,0,1-.4.34c-2.51-.15-5.54,1.08-6.76,2.75A.38.38,0,0,1,174.41,339.18Z" style="fill:#f0f0f0"></path><path d="M141.75,359.4c-.1,3.61-.58,6-1.79,8.16s-3.59,2.89-6.05,2.36-5.64-2.09-6.44-5.18a19.7,19.7,0,0,1-.28-8.57Z" style="fill:#263238"></path><path d="M130.26,334.52c-.84.3-.89,5.23-1.31,10.09-.46,5.21-1.32,6.8-1.74,11.07-.47,4.88-.08,6.5,1.72,9.38s7.91,5.57,10.75,1.26c2.31-3.5,2.21-6.76,1.84-11.61a101.93,101.93,0,0,1-.34-11.56c.08-3.64,1.85-7.16,1-7.54a14.41,14.41,0,0,1-.51,2.75,4.59,4.59,0,0,1-.48,1.36c-.45.7-.72-.4-.73-.82,0-.72.19-1.3-.38-1.88a4.22,4.22,0,0,0-1.54-.81,8.85,8.85,0,0,0-1.84-.46,18.73,18.73,0,0,0-3.89-.09,1.86,1.86,0,0,0-1.47.67,1.06,1.06,0,0,0-.13.39c-.09.48,0,1-.1,1.44,0,.14-.06.49-.19.57s-.33,0-.34,0S130.2,335.37,130.26,334.52Z" style="fill:#37474f"></path><path d="M127.36,354c-.07.71-.41,5.1.88,5.89s2-2.81,2-2.81,3.17-1.08,7.91.81c-.22.76.58,3.22,1.85,2.65s1.51-5.35,1.52-5.42c.34,4.65.37,7.79-1.87,11.19-2.84,4.31-9,1.62-10.75-1.26s-2.19-4.5-1.72-9.38C127.26,355.19,127.29,354.45,127.36,354Z" style="fill:#455a64"></path><path d="M130.64,357.39c0,1.76-1.55,1.21-1.87-1.26-.48-3.68.33-7.25.18-11.52.42-4.86.31-10,1.31-10.09,0,.84.28,4.17.28,4.17-.2,3.63-1,7.89-.74,11.62C130,353.59,130.61,355.64,130.64,357.39Z" style="fill:#263238"></path><path d="M137.63,357.87c.28-1.74.82-2.25,1.06-5.53s1.86-9.2,2.43-12.76c.15-1.1,1-3.93,1-4,.64.29.11,2.34-.32,4.54s-.71,3.56-.95,5.68c-.73,4.2-.71,8.65-1.2,11.08S137.36,359.6,137.63,357.87Z" style="fill:#263238"></path><path d="M138,357.94a.33.33,0,0,1-.14,0,12,12,0,0,0-7.77-.55.37.37,0,1,1-.22-.71,12.42,12.42,0,0,1,8.31.59.37.37,0,0,1,.18.5A.38.38,0,0,1,138,357.94Z" style="fill:#f0f0f0"></path><path d="M138.94,354.42a.28.28,0,0,1-.13,0,15.66,15.66,0,0,0-9.07-.73.38.38,0,0,1-.46-.27.37.37,0,0,1,.27-.45,16.15,16.15,0,0,1,9.56.77.36.36,0,0,1,.19.49A.36.36,0,0,1,138.94,354.42Z" style="fill:#f0f0f0"></path><path d="M129.13,350.82a.37.37,0,0,1-.32-.24.38.38,0,0,1,.22-.48c4.46-1.67,10.45.24,10.64.34a.37.37,0,0,1,.17.5.38.38,0,0,1-.49.17s-5.91-1.87-10.06-.31A.29.29,0,0,1,129.13,350.82Z" style="fill:#f0f0f0"></path><path d="M129.76,347.65a.39.39,0,0,1-.32-.23.38.38,0,0,1,.21-.49c4.9-1.93,10.08.62,10.26.72a.37.37,0,1,1-.37.65s-5-2.47-9.62-.67A.41.41,0,0,1,129.76,347.65Z" style="fill:#f0f0f0"></path><path d="M129.94,343.81a.4.4,0,0,1-.32-.23.39.39,0,0,1,.21-.49c4.59-1.89,10.13.71,10.33.82a.36.36,0,0,1,.15.5.38.38,0,0,1-.51.15s-5.43-2.54-9.69-.78A.47.47,0,0,1,129.94,343.81Z" style="fill:#ebebeb"></path><path d="M158.58,253.66,161,277.52s-.37,7.48-.14,14.2,1.86,35.35,3.22,42.49c7.58,4.62,17.93.31,17.93.31s2-48,2.33-57.48c.43-12.53.11-49.05-.8-63.23l-51.59-.35s.32,9.81-.21,21.28-2,45.6-2,45.6c-3.55,17.12-2,31.78-1.64,58.47,7.19,4.55,15.46,1.59,15.46,1.59s6.16-32.57,8.45-46.46c.85-5.18,4.52-28.47,6.66-40.28" style="fill:#455a64"></path><path d="M176.37,237l.27,18.37c-.08,2.93.2,9.36.09,12.28s-.06,4.88-.2,8.89-.95,26.66-1.06,32.53c1.24-6.45,1.87-25.75,2.38-32.71.18-6.29-.07-12.49-.37-21S176.78,242.88,176.37,237Z" style="fill:#37474f"></path><path d="M150,232.75c-1.85,9.71-4.47,34.69-5,41.36s-5.67,33.15-6,39.87c.87-6.68,6.75-33,7.36-39.76S149.1,245,150,232.75Z" style="fill:#37474f"></path><path d="M162.58,236l-4,17.71L161,277.52l-.35-19.6,4.55-19.83a12.64,12.64,0,0,0,9.87-9.2C170.54,234.41,162.58,236,162.58,236Z" style="fill:#37474f"></path></g><g id="freepik--top--inject-71"><path d="M185,167.55c3.08,3.71,8.17,8.76,13.14,14.46l1.05-1c2.25-2.12,4.49-4.26,6.68-6.44,1.14-1.14,2.28-2.28,3.37-3.47.41-.44.82-.89,1.2-1.35,1-1.22.75-3,.8-4.41a21.41,21.41,0,0,1,.76-5.41c.18-.57.39-1.13.58-1.69a16.34,16.34,0,0,0,.73-3.72,2.28,2.28,0,0,1,.2-1c.38-.7,1.23-.37,1.68.06a2.92,2.92,0,0,1,.73,1.81c.19,1.41-.06,2.81,0,4.22,0,.53.22,1.17.73,1.28a.88.88,0,0,0,.78-.25,11,11,0,0,0,1.53-2.1l1.6-2.42c.94-1.41,1.85-2.85,2.91-4.16,1.39-1.72,2.48-1.93,3-1.26.32.37-.4,1.65-1.89,4.37s-2.69,4.48-2.51,4.6,1.16-1.9,3.15-4.35c1.84-2.25,2.77-3.22,4-3.62s1.55.46,1.05,1.22c-.61.95-1.27,2.09-3.81,5.5a25.18,25.18,0,0,0-2.19,3.22c.15.24,1.64-1.52,3.81-3.37a25.72,25.72,0,0,1,4-3.06.7.7,0,0,1,1,.88,16.17,16.17,0,0,1-2.24,3c-1.22,1.45-1.78,1.91-2.78,3-.68.71-1.56,1.66-1.46,1.79s4.15-2.61,5.48-3.09c1.49-.53,1.76.68.86,1.61-.53.55-2.58,2.18-4.44,4.07-1.34,1.37-2.85,3.22-3.64,4-3.89,3.91-4.53,3.58-6.26,5.58s-4.72,6.79-8.41,11.68c-3.05,4-6.35,8-7.67,9.32-3.94,4-6.39,2.06-11.18-1.86a107.11,107.11,0,0,1-13.77-14.6l-9.83-21.16C175,159,179.73,161.16,185,167.55Z" style="fill:#ffa8a7"></path><path d="M217.63,163.17s0,0,0,.05a7.93,7.93,0,0,1,1,4,7,7,0,0,1-.31,1.82c-.1.29-.23.57-.35.85a12.86,12.86,0,0,0-.71,1.38c0,.08,0,.22.13.16a2.52,2.52,0,0,0,.76-.83,6.61,6.61,0,0,0,.62-1.1,6.39,6.39,0,0,0,.61-2.38A4.65,4.65,0,0,0,217.63,163.17Z" style="fill:#f28f8f"></path><path d="M172.54,159.29c4.64.76,7.48,2.06,12.08,6.92s13.67,15,13.67,15l8.61-7.64a7.86,7.86,0,0,0,3.24,4.92,9.1,9.1,0,0,0,5.76,1.68s-4.92,7.32-7.58,11-5.89,7.71-8.8,8.49-5-1.17-8.42-4-18.78-17.87-18.78-17.87Z" style="fill:#37474f"></path><path d="M130.82,161.13c3.7-1,18.25-5,18.84-5.18l12.83,1.53s9.64,1.56,10,1.81c5.89,2.84,8.86,13.78,8.58,28.68,4,9.95,2.74,33.54,2.74,33.54s-4.56,4-20.28,5.41c-20,1.75-31.65-5.59-31.65-5.59-.25-7.84-.51-13.13-.45-18.11.08-6.59.16-14.24-.4-17.11C128.27,171.5,130.82,161.13,130.82,161.13Z" style="fill:#263238"></path><path d="M167.69,133.49c7.18-5.4,1.75-16.29-6.6-17.14-25-2.44-25.05,15.71-14.36,32.09l-.36-6.17C154.59,143.27,161.43,138,167.69,133.49Z" style="fill:#e0e0e0"></path><path d="M152.41,122.15a7.08,7.08,0,0,0-1.38-.21,2.09,2.09,0,0,0-1.33.28c-.71.52-.59,1.57-.4,2.41a9.22,9.22,0,0,1,.31,2.9,5.85,5.85,0,0,1-2.39,3.63,18.26,18.26,0,0,1,.16,6.38,3.48,3.48,0,0,1-.51,1.28,1.69,1.69,0,0,1-1.17.71,1.06,1.06,0,0,1-1.12-.81,14.28,14.28,0,0,0-1-1.8,3.81,3.81,0,0,0-.57-.69c-1-.86-3.9-1.91-5.25,1s1.18,7.1,3.53,7.72c4,1.07,4.92-1.55,4.92-1.55l-.07,12.73c1.14,3.24,11.71,5.52,15,9.66,1.84-3.82,3.12-6.39,1.29-9.37V152.1s.55.2,3.24-.3c2.09-.39,3.82-2.26,4.69-5.31a44.31,44.31,0,0,0,.59-17.68,13.8,13.8,0,0,0-1.84-4.38,11.52,11.52,0,0,0-1.25-1.71c-.73-.79-1.55-2-2.89-1.44a2.74,2.74,0,0,0-1,.82,6.47,6.47,0,0,1-2.8,1.88C158.19,124.85,155.18,122.83,152.41,122.15Z" style="fill:#ffa8a7"></path><path d="M162.42,152.1c-3.73-.32-8.91-.92-11-2-1.54-.77-3.94-2.58-4.34-3.43a8.74,8.74,0,0,0,3,4.29c4.07,2.93,12.36,3,12.36,3Z" style="fill:#f28f8f"></path><path d="M147.52,133.54a24.45,24.45,0,0,0,1.52,5c.74,1.85,1.75,3.74,4.06,4a7.48,7.48,0,0,0,3.27-.49c1-.36,2-.82,3.11-1.13a11.41,11.41,0,0,1,6-.09c.73.19,1.45.45,2.2.6a4.19,4.19,0,0,0,2.25-.08c1.86-.68,1.5-2.85,1.52-4.38s.05-3.23,0-4.84c0,0,1.47,7.83.71,12-.51,2.79-1,5.32-3.41,6.93s-7.38,2.22-13.24.89-8.54-4.76-9.1-6.78c-1.73-6.12-1.15-6.42-3.32-8.92C142.07,135.14,147.52,133.54,147.52,133.54Z" style="fill:#e0e0e0"></path><path d="M151.69,133.48a.36.36,0,0,1,0-.09s.05,0,.08-.07.22,0,.3-.06l.24,0a2.57,2.57,0,0,1,.48,0,5.71,5.71,0,0,1,.92.16c.15,0,.09.35-.05.31a3.53,3.53,0,0,0-1-.11l-.48,0-.25,0c-.09,0-.19.05-.26,0S151.68,133.55,151.69,133.48Z" style="fill:#f28f8f"></path><path d="M153,134.36a1.26,1.26,0,0,1,.39,0,.32.32,0,0,1,.14,0,.66.66,0,0,1,.17.12c.06,0,.05.2,0,.22l-.36.09c-.1,0-.21,0-.31.06l-.08,0s-.08,0,0,0a.51.51,0,0,0-.17.07l-.13,0a.28.28,0,0,1-.22,0,.17.17,0,0,1-.12-.16C152.24,134.56,152.72,134.41,153,134.36Z" style="fill:#f28f8f"></path><path d="M152.88,135.86a1.93,1.93,0,0,1,.89-.53s.07,0,.09,0a.16.16,0,0,1,0,.09.22.22,0,0,1-.1.2l-.21.09-.11.05-.05,0h0l0,0-.18.14-.18.14a.11.11,0,0,1-.18,0A.26.26,0,0,1,152.88,135.86Z" style="fill:#ffa8a7"></path><path d="M169.42,132.85l.11-.07.13-.06.25-.12a1.69,1.69,0,0,1,.44-.12.15.15,0,0,1,.18.15.33.33,0,0,1-.17.28,2,2,0,0,1-.49.14l-.24,0h-.19c-.05,0-.07-.07-.08-.11A.13.13,0,0,1,169.42,132.85Z" style="fill:#f28f8f"></path><path d="M169.54,134a.16.16,0,0,0,0,.1.12.12,0,0,0,.1,0h.12l.09,0h0l-.05,0,.09,0,.06,0h0a.24.24,0,0,0,.28-.1.51.51,0,0,0,.07-.15.29.29,0,0,0,0-.16.38.38,0,0,0-.16-.12.41.41,0,0,0-.19,0,.74.74,0,0,0-.33.09l-.09.09A.25.25,0,0,0,169.54,134Z" style="fill:#f28f8f"></path><path d="M158.51,143.06a1,1,0,0,1,.13-.41.83.83,0,0,1,.5-.45.44.44,0,0,1,.34,0l.07.06a.14.14,0,0,1,0,.09s-.06,0-.1.07a.83.83,0,0,0-.54.38c-.06.12-.07.26-.13.37s-.1.12-.17.08S158.51,143.13,158.51,143.06Z" style="opacity:0.1"></path><path d="M158,133.53a1.33,1.33,0,0,1-1.3,1.38,1.35,1.35,0,0,1-1.39-1.3,1.33,1.33,0,0,1,1.3-1.37A1.35,1.35,0,0,1,158,133.53Z" style="fill:#263238"></path><path d="M157.11,129.79l-3.27,1.3a1.73,1.73,0,0,1,1-2.26A1.75,1.75,0,0,1,157.11,129.79Z" style="fill:#455a64"></path><path d="M159.66,143l3.76.59a1.86,1.86,0,0,1-2.15,1.55A1.92,1.92,0,0,1,159.66,143Z" style="fill:#b16668"></path><path d="M162.18,145a2,2,0,0,0-2.34-1.34l-.13,0a1.93,1.93,0,0,0,1.56,1.4A1.85,1.85,0,0,0,162.18,145Z" style="fill:#f28f8f"></path><path d="M169.61,131.23,166.37,130a1.71,1.71,0,0,1,2.2-.94A1.67,1.67,0,0,1,169.61,131.23Z" style="fill:#455a64"></path><path d="M168.66,133.59a1.35,1.35,0,0,1-1.32,1.38,1.36,1.36,0,0,1-1.4-1.3,1.34,1.34,0,0,1,1.31-1.38A1.36,1.36,0,0,1,168.66,133.59Z" style="fill:#263238"></path><polygon points="161.62 139.38 166.37 137.49 160.93 130.74 161.62 139.38" style="fill:#f28f8f"></polygon><path d="M161.13,165.83c-1.62-.92-5-4-6.53-2s-2.67,4.16-3.83,3.84-5.48-3.09-7-6a14.63,14.63,0,0,1-1.45-3.94s1.14-1.71,1.86-3.11c.64-1.24,1-2.47,2-2.54v3.38s.74,1.57,4.15,2.79C154.89,159.8,159,161.56,161.13,165.83Z" style="fill:#37474f"></path><path d="M161.13,165.83c.94-.84,1.43-3.31,3-2.9s3.82,3.76,3.86,3-1-6.43-2.23-8.09-2.27-4.59-3.34-4.52v3.17a13.53,13.53,0,0,1,.26,3.59C162.48,161.39,161.31,164.53,161.13,165.83Z" style="fill:#37474f"></path><g id="freepik--arm--inject-71"><g id="freepik--arm--inject-71"><path d="M137.51,240c-2.15-2.19-2.76-5.63-5.08-7.67-.71-.62-1.54-1.07-2.28-1.66a2.62,2.62,0,0,1-1.16-2.2c0-.48-.38-27.68-.38-27.68a122,122,0,0,0,5.31-17.63c1.56-12.57,0-19.08-3.4-21.59-5.94,2.47-6.83,4.39-8.19,8.66-.87,2.77-1.91,6.9-3.16,12.66-1.93,8.91-1.87,8.1-3,14.54a59.53,59.53,0,0,0,.06,13.92c.78,7,2.25,18.16,2.4,19.15.49,3.23.31,7.94,1.06,9.75s1.76,4.06,2.51,5.46a3.51,3.51,0,0,0,2.21,1.7,25.68,25.68,0,0,0,2.82,3.75,2.56,2.56,0,0,0,2.54.69,28.55,28.55,0,0,0,2.49,2.54c1.79,1.65,1.94,1.12,2.24.75a2,2,0,0,0,.12-2.3c-.6-.89-2.47-2.65-3-3.36a15.4,15.4,0,0,1-1.16-2.57s.54.71,1.06,1.42a27.91,27.91,0,0,0,2.82,2.55c1.34,1.21,2.42,1.85,2.89,1.37a2.26,2.26,0,0,0-.21-2.62c-.67-1-3.47-3.34-3.85-4.41a22.31,22.31,0,0,1-1.44-4.22c-.13-.52-.87-2.7.48-2.12a2,2,0,0,1,.73.67,7.84,7.84,0,0,0,2.12,2,3.52,3.52,0,0,0,2.82.43.88.88,0,0,0,.39-.22.78.78,0,0,0,.06-.9,3,3,0,0,0-.63-.71Z" style="fill:#ffa8a7"></path><path d="M129.72,251.89a16.13,16.13,0,0,1-2.61-3.69,20.11,20.11,0,0,1-1.68-4.21c.61,1.38,1.22,2.75,1.94,4.06A32.88,32.88,0,0,0,129.72,251.89Z" style="fill:#f28f8f"></path><path d="M124.36,247.45a7.81,7.81,0,0,1-1.24-1.89,10.21,10.21,0,0,1-.76-2.13c.39.65.69,1.33,1,2Z" style="fill:#f28f8f"></path><path d="M130.44,247a20.06,20.06,0,0,1-2-3.35,8.21,8.21,0,0,0,2.49,4.57Z" style="fill:#f28f8f"></path></g><path d="M130.82,161.13c-5.23,1.16-7.34,3.38-8.6,5.62-1.54,2.74-2.17,5.95-4.7,16.39s-3.29,15-3.27,17.18a61.23,61.23,0,0,0,1.24,12.21c.75,4.39,1.75,9.82,2.88,16.51,3.11,1.05,9.9-.52,11.31-2.59-.21-4.55-.22-8.46-.37-13.61-.2-6.42-.09-11.42-.09-11.42l5.54-19.56S137.68,165.82,130.82,161.13Z" style="fill:#37474f"></path></g><path d="M198.29,181.23c-3,2.59-5.3,5.53-5.49,9.57a10.75,10.75,0,0,1,4.51-10.66Z" style="fill:#263238"></path></g></g></g><g id="freepik--character-1--inject-71"><g id="freepik--character--inject-71"><g id="freepik--bottom--inject-71"><path d="M46.86,323.59a3.68,3.68,0,0,0-2.29,1.88c-.39,1.5.26,4.06,1.17,6.49s1.22,3.41.61,5.28a17.13,17.13,0,0,0-1.18,7.59c.32,3.41,1.88,7.82,6.95,11.5,4.14,3,6.42,2.06,7.79,1.8a3.47,3.47,0,0,0,2.08-1.4Z" style="fill:#263238"></path><path d="M110.21,269.55c-.48-8.12-1.59-18.84-2.65-28.12a85.46,85.46,0,0,0-4.45-19.25c-4.61,7.95-12.66,17-12.66,17l-19-.43,10.85,36.17c-6.91,4.37-10.94,9.35-15.35,18.1-2.83,5.64-4.82,9.93-7.81,16.49a46.16,46.16,0,0,1-5.73,9.59c-1.67,1.85-3.72,1.64-5.76,3.52l0,0a5.15,5.15,0,0,0-1.45,5.05c.08.23.16.45.23.71A31.63,31.63,0,0,1,48,334.5c.19,2.07-.45,3.7-1.27,6.4A11.56,11.56,0,0,0,48,349.4c1.06,1.85,4.45,5.8,8,7.2,5.7,2.22,7.78-.7,7.09-3.42s-1.93-4.92-2.41-6.9a16.55,16.55,0,0,1-.4-7.11,78,78,0,0,1,2.48-8.9c.68-2.27.76-4.28,8.63-11.24,0,0,21-17.18,27.09-22.73C109.87,285.88,111.06,284.09,110.21,269.55Z" style="fill:#c8856a"></path><path d="M47.28,348.58c4.36-3.62,11.08-2.45,14.12-.22,2.26,4.37,3.71,9.27-1.63,9.27C52.24,357.63,47.28,348.58,47.28,348.58Z" style="fill:#37474f"></path><path d="M47.51,332.77c2-1.07,6.4-6.92,5-13.1-1,.81-3.15,1.12-4.35,2.07s-2.67,2.13-2.59,4.36S47.51,332.77,47.51,332.77Z" style="fill:#37474f"></path><path d="M103.11,222.18s3.38,4.91,5.5,20.1,3,35.15,2.66,38.7-3.6,8.06-7.41,11.63S67.1,329.18,67.1,329.18s-4.49,1.29-10.52-5.24c-4-4.32-3.1-7.82-3.1-7.82s2.84-5.55,5.21-10.85,8.85-18.74,14.62-24.81,7.11-6.07,7.11-6.07l-11-36.4Z" style="fill:#455a64"></path><path d="M72,324.33c8.84-8.85,21.85-21.84,28.3-28.2a274.86,274.86,0,0,0-5.86-43c5.61-4.75,6.43-9.1,6.73-13.2l-10.68-.74-19-.43,0,.06,3.14,10.49a8.66,8.66,0,0,1-.14,5.24l6,19.84s-1.33,0-7.11,6.07a55.92,55.92,0,0,0-6.91,9.76l3.76,11.12C67.52,307.56,70.46,318.3,72,324.33Z" style="fill:#263238"></path><path d="M80.3,369.69a8.06,8.06,0,0,0,.26,2.39c.61.85,1.72,1.28,4.1,2.63a10.61,10.61,0,0,1,4.52,4.4,21.7,21.7,0,0,0,3.56,4.78c2.65,2.45,6.17,3.87,12.79,3.71a13.33,13.33,0,0,0,8.66-3.61,3,3,0,0,0,.17-2.81L82.23,367.1l-1.36,1.38A1.91,1.91,0,0,0,80.3,369.69Z" style="fill:#263238"></path><path d="M107.46,374.71a29.83,29.83,0,0,1-4.54-3.7c-2.13-2.16-6.81-8.46-6.94-13.47-.29-11,.85-31.4,1-39.78.28-22.55-.42-25.46-1.86-39.63l-4-27s6.5-2.27,10.28-11.87c1.89-4.78,1.09-11.29,1.7-17,0,0-5.49,3.51-18.35,3.17C71,225,68.2,217.57,68.2,217.57c-1.28,3.44-3,6.46-6.62,16.08-1.19,3.1-4,13.1-2.41,20.1,1.54,6.68,2.59,10,5.85,19.75,3.73,11.12,9.74,27.9,9.74,27.9-1.29,7.63-.87,11.75,2.58,27.8,1.5,7,2.86,15.48,3.67,19.59a70,70,0,0,1,1.33,8.76c.06,5.28-4,10.42.5,13.74.9.65,3.48,2.25,4.42,2.83,3.06,1.89,3.69,5.43,6.44,7.74a15.56,15.56,0,0,0,6.61,3.44,15.09,15.09,0,0,0,7.48.06,14,14,0,0,0,4.56-1.74c.76-.45,2.69-2.12,2-4.1C114,378.66,108.87,375.6,107.46,374.71Z" style="fill:#c8856a"></path><path d="M94.29,382.71c1.48-4.86,9.67-8.35,12.87-8.25,2,1.28,6.29,3.63,7,4.37s1.08,4.37-3.68,6.12A16.47,16.47,0,0,1,94.29,382.71Z" style="fill:#37474f"></path><path d="M86,373.67c.3-3.34.27-9-4.37-11.4-.81,1.4-2.16,5.43-.79,8.31A9.05,9.05,0,0,0,86,373.67Z" style="fill:#37474f"></path><path d="M103.11,222.18c1.33,4,2.33,22-10.31,29.81,0,0,3.93,22.61,4.82,34.62s.77,23.12.94,33.64,0,40.28,0,40.28c-1.22,3.61-14,3.61-17.86-1.5,0,0-1.71-9.42-3.13-17.73-1.28-7.55-5-21.8-5.44-30.18s.29-10.47.29-10.47L61.3,266.16c-3.75-10.07-6.69-25.06,6.9-48.59Z" style="fill:#455a64"></path></g><g id="freepik--top--inject-71"><path d="M65.91,155c-1.75,8-4.93,18.44-7.68,24.11s-5.9,11.74-4.84,14.61,7.86,10.15,29.33,10,24.92-8.37,26.19-11.61-1.81-7.15-3.4-11.5S100,162.62,100,155Z" style="fill:#2A53E1"></path><path d="M65.91,155c-1.75,8-4.93,18.44-7.68,24.11s-5.9,11.74-4.84,14.61,7.86,10.15,29.33,10,24.92-8.37,26.19-11.61-1.81-7.15-3.4-11.5S100,162.62,100,155Z" style="fill:#fff;opacity:0.4"></path><path d="M126.78,211.82c-1.2-2-7-10.51-7-10.51s-4-5.79-6.43-9.15-4.68-6.28-6.73-7.89-4.91-2.08-9.22-2.28l.81,17.75,10.32,11.95,9.9,12.72,10.25-1.8C130.29,219.56,128.82,215.23,126.78,211.82Z" style="fill:#2A53E1"></path><path d="M126.78,211.82c-1.2-2-7-10.51-7-10.51s-4-5.79-6.43-9.15-4.68-6.28-6.73-7.89-4.91-2.08-9.22-2.28l.81,17.75,10.32,11.95,9.9,12.72,10.25-1.8C130.29,219.56,128.82,215.23,126.78,211.82Z" style="opacity:0.15"></path><g style="opacity:0.2"><path d="M122.93,213.45a5.12,5.12,0,0,1,3.33-.42,4.42,4.42,0,0,0-3.43-.89C120.87,212.5,122.93,213.45,122.93,213.45Z"></path></g><path d="M58.69,277c0-10.48-3-29.79.21-39.13s6.42-15.47,6.51-18.43c0,0-3.08-17-3.46-20.54-1-9.14.72-13.47,2.56-14.45a65.63,65.63,0,0,1,6.73-2.2c6.33-1.8,12.52-1.86,18.42-1.78a66.11,66.11,0,0,1,7.76,1.5,34.09,34.09,0,0,1,6,5.78c4.68,5.44,7.8,10.37,7.05,16a13.41,13.41,0,0,1-3.1,6.58c-.37,2.71-1,10.38-1,10.38.07,3,.64,7.15,2.16,14.41,0,0,3.5,30.32,3.5,46.76-.31,4.12-.54,9.41-.54,9.41-.34,8.6-36.88,23.78-55.81,1C57.36,286.63,58.69,280.91,58.69,277Z" style="fill:#e0e0e0"></path><path d="M100.14,293.94c0-11.31-2-29.16-4.91-34.69s2.13-2.75,4.91-7.26c3.08-5,5.31-10.44,5.72-5.79s-1.8,33.78-2.64,40.93S100.14,300.75,100.14,293.94Z" style="opacity:0.05"></path><path d="M64.57,185.05c-8.7,2.46-9.94,4.55-12,11.42-1.64,5.39-3.5,13-5.3,19-1,3.38-2.44,7.65-1.75,13.76.56,4.93,2.9,23.69,3.08,23.77.1,1.05.19,2.05.23,2.54.27,3.31-.42,6,1.21,11.48.76,2.56,1.87,5.7,4.5,6.92a7.81,7.81,0,0,1,1.81.89,7,7,0,0,1,.75.87,4.86,4.86,0,0,0,1.06.91,1.38,1.38,0,0,0,.7.25c.4,0,.75-.27,1.14-.28a1.44,1.44,0,0,1,1.09.61,6.58,6.58,0,0,0,.84,1,1,1,0,0,0,1.2.08,1.2,1.2,0,0,0,.33-.83c.27-2.94-1.72-5.66-2.61-8.34-.29-.88-1.21-3.15-.44-4,.52-.58,1.31,1.41,2.73,2.53s3.6.07,2.55-.86-1.55-2.82-2.92-5.44-2.91-3.31-3.38-5.41c-.17-.74.86-28.82.86-28.82l7.1-21.7C67.8,201.71,70,190.32,64.57,185.05Z" style="fill:#c8856a"></path><path d="M65.14,184.2c-5.23,1.14-9.72,3-11.91,9S46.39,216.26,45.72,219s-1.15,5.15-.41,12.59,1.42,11.66,1.42,11.66A14.39,14.39,0,0,0,54,244.43c4.5-.28,6-1.72,6-1.72l.59-15.63s5.74-16.93,6.76-20.09S70.78,189.74,65.14,184.2Z" style="fill:#2A53E1"></path><path d="M65.14,184.2c-5.23,1.14-9.72,3-11.91,9S46.39,216.26,45.72,219s-1.15,5.15-.41,12.59,1.42,11.66,1.42,11.66A14.39,14.39,0,0,0,54,244.43c4.5-.28,6-1.72,6-1.72l.59-15.63s5.74-16.93,6.76-20.09S70.78,189.74,65.14,184.2Z" style="opacity:0.15"></path><g id="freepik--head--inject-71"><path d="M101.93,146.63a1.48,1.48,0,0,0,0-.19,5,5,0,0,0-2.49-3.31,7.25,7.25,0,0,0-3.28-.92c-1-.06-2.07.19-3.12.07-1.49-.18-5.74-.59-7.26-.71a20.19,20.19,0,0,0-9.26,1.33,15.47,15.47,0,0,0-9.16,10,16.55,16.55,0,0,0,1.21,11.72c1.91,3.94,4.26,5.81,7.17,9.1l2.88.06c1-2.42,3.42-1.91,5.68-2.43,1.44-.61,2.29-2.2,3.73-2.82s3.16-.1,4.73-.35a21.06,21.06,0,0,1,3-.49,10.81,10.81,0,0,0,3.66-.56,4.54,4.54,0,0,0,3.09-3.67c.11-1.55-.49-3,.07-4.52.41-1.12,1.27-2.08,1.44-3.26.23-1.57-.81-3-1.66-4.35a3.65,3.65,0,0,1-.62-1.38,4.88,4.88,0,0,1,.14-1.52A5.91,5.91,0,0,0,101.93,146.63Z" style="fill:#263238"></path><path d="M68.87,162.15c1.56-2.22,5.17-2.21,6.72,1.3,1.09,0,2.82-.27,2.14-5.87-.13-6.78,6.31-12.54,12-8,2.06-3.84,6.68-2.45,8.45,1.2,1,2.29,1.31,3.08,1,7.47-.06.74.87,2.28.87,5.57,0,8.13-2.09,10.6-4.44,12.29-1.41,1-3,1.54-6,1.38l.08,2c.1,1.26,0,3.08,1.23,3.35a16.45,16.45,0,0,0,1.69.29,25.14,25.14,0,0,1,5,5.5,82.76,82.76,0,0,1-3.07,9.79,130.63,130.63,0,0,0-18.31-8.71c-2.45-3-3.9-4.76-4.56-5.56-.29-.33-.34-.4-.34-.4a22,22,0,0,0,2.69-.57c1.91-.49,2-1.86,2-3.37s-.32-9-.32-9c-.05.56-2.74,2.19-5.28-.65S67.46,164.17,68.87,162.15Z" style="fill:#c8856a"></path><path d="M97.56,155.8l-2.94-1.69a1.62,1.62,0,0,1,2.27-.67A1.78,1.78,0,0,1,97.56,155.8Z" style="fill:#263238"></path><path d="M82.48,156.61l2.87-1.89a1.65,1.65,0,0,0-2.33-.54A1.8,1.8,0,0,0,82.48,156.61Z" style="fill:#263238"></path><path d="M94.37,159.3a1.46,1.46,0,0,0,1.35,1.51,1.38,1.38,0,0,0,1.48-1.3A1.47,1.47,0,0,0,95.85,158,1.37,1.37,0,0,0,94.37,159.3Z" style="fill:#263238"></path><path d="M84.11,159.86a1.46,1.46,0,0,0,1.35,1.51,1.37,1.37,0,0,0,1.48-1.3,1.45,1.45,0,0,0-1.35-1.5A1.36,1.36,0,0,0,84.11,159.86Z" style="fill:#263238"></path><polygon points="95.45 163.92 91.04 166.19 89.86 157.59 95.45 163.92" style="fill:#af6152"></polygon><path d="M89.52,177.51c-5.4-.38-10.1-1.86-11.51-5.11a5.88,5.88,0,0,0,2.49,4,19.79,19.79,0,0,0,9.09,2.64Z" style="fill:#af6152"></path><path d="M87.19,167.84l4.51,1.23a2.28,2.28,0,0,1-2.83,1.61A2.35,2.35,0,0,1,87.19,167.84Z" style="fill:#af6152"></path><path d="M90,170.7a2.54,2.54,0,0,0-2.68-2l-.17,0a2.4,2.4,0,0,0,1.73,1.92A2.5,2.5,0,0,0,90,170.7Z" style="fill:#f28f8f"></path></g><path d="M93,142.28C88.58,141.57,74,145.13,72.69,157s2,22,6.57,24.53,9.52.95,10.4-1a47.88,47.88,0,0,1,11.39,1.27s6.18,16-6.69,19.66-27.8-3.57-30.23-17.23a124.64,124.64,0,0,1,.31-21c.81-10,4.34-17.74,12.5-21.33C86.14,137.78,93,142.28,93,142.28Z" style="fill:#2A53E1"></path><path d="M93,142.28C88.58,141.57,74,145.13,72.69,157s2,22,6.57,24.53,9.52.95,10.4-1a47.88,47.88,0,0,1,11.39,1.27s6.18,16-6.69,19.66-27.8-3.57-30.23-17.23a124.64,124.64,0,0,1,.31-21c.81-10,4.34-17.74,12.5-21.33C86.14,137.78,93,142.28,93,142.28Z" style="fill:#fff;opacity:0.6000000000000001"></path><path d="M122.25,207.07c1.07,1.37,2.34,6.64-2.51,12.48s-11.28,10.85-21.19,12.14-20.15-2.25-19.68-9,9.08-9.09,12.89-10.91,8.89-9.75,16.36-10.07S122.25,207.07,122.25,207.07Z" style="fill:#fafafa"></path><path d="M122,216.16c-3.68,2.73-13.21,8.21-17.37,8.91s-9-.3-12-3.42c-.58-.6-1.24-1.33-2.07-1.24s-1.42,1.2-1.28,2.12A10,10,0,0,0,90.32,225a2.56,2.56,0,0,1,0,2.62,2.78,2.78,0,0,1-1.68.83,14.45,14.45,0,0,1-7.38-.44c3.55,3.14,10.49,4.52,17.29,3.64,9.91-1.29,16.34-6.31,21.19-12.14A17,17,0,0,0,122,216.16Z" style="fill:#ebebeb"></path><path d="M125.74,199.09c.22,2.81-2,6.65-3.49,7.19a9.89,9.89,0,0,1-5.61,2.89c-4.23.75-7.85-.33-9.92-3.63a7.52,7.52,0,0,1-.86-4.23,5.86,5.86,0,0,1,1.61-3.53c.69-.92.53-1.38,1-2.43a9.06,9.06,0,0,1,1.59-2.68,7.69,7.69,0,0,1,2.54-1.71,9.11,9.11,0,0,1,2.9-.69A9.37,9.37,0,0,1,125.74,199.09Z" style="fill:#c8856a"></path><path d="M115.47,190.27a9.11,9.11,0,0,0-2.9.69,8.7,8.7,0,0,0-1.49.83c1.38-.09.58,2,2.92,3.2s5.61.61,6.65,1-.07,2.45-.58,4a1.34,1.34,0,0,0,1.27,1.89,1.47,1.47,0,0,1,1.9.6c1.15,1.64-.42,3.26-.42,3.26H123a9.63,9.63,0,0,0,2.74-6.69A9.37,9.37,0,0,0,115.47,190.27Z" style="fill:#af6152"></path><path d="M122.85,202a1.79,1.79,0,0,0-2.17.21c-.06.07-.05.34.09.31a4.82,4.82,0,0,1,1.19-.23,1.53,1.53,0,0,1,1,.35c.65.53.44,1.4.13,2.07a2.88,2.88,0,0,1-1.52,1.62,1.35,1.35,0,0,1-1.69-.62c-.07-.13-.22-.06-.21.08a1.48,1.48,0,0,0,1.61,1.23,2.44,2.44,0,0,0,1.82-1.11,4,4,0,0,0,.79-2.18A2,2,0,0,0,122.85,202Z" style="fill:#af6152"></path><path d="M116.73,201.17c0,.17-.25-.29-.86-.61a1.76,1.76,0,0,0-1.22-.18l-.29.08c-.15.06-.15-.16.13-.38a1.35,1.35,0,0,1,.59-.28,1.38,1.38,0,0,1,1.62,1.08A1.5,1.5,0,0,1,116.73,201.17Z" style="fill:#37474f"></path><path d="M110.34,198.75c0,.15-.2-.29-.71-.65a1.62,1.62,0,0,0-1.06-.29l-.27.05c-.14,0-.12-.16.16-.33a1.12,1.12,0,0,1,.55-.18,1.16,1.16,0,0,1,1.33,1.13A1.22,1.22,0,0,1,110.34,198.75Z" style="fill:#37474f"></path><path d="M111.1,200.49c-.51-.19-1.28.22-.84.58s1.69,1.1,1.75.78A1.83,1.83,0,0,0,111.1,200.49Z" style="fill:#af6152"></path><path d="M111.3,203.73l2.08.28a1.05,1.05,0,0,1-2.08-.28Z" style="fill:#af6152"></path><g id="freepik--arm--inject-71"><path d="M124.34,227.09c-2.32,1.9-7.57,6.18-18.87,8.63-6,1.3-13.33,1.21-17.22-.82-1.41-1-4.93-1.58-5.34-3.19-.16-.64-1-1.14-1.4-1.72a4.21,4.21,0,0,1-.52-2.17c3.62,2.53,11.22,1.51,12.64.82a1.57,1.57,0,0,0,.94-1.22,2.17,2.17,0,0,0-.63-1.44c-1.24-1.49-3-2.73-3.46-4.7a1.32,1.32,0,0,1,.17-1.15c.26-.3.76-.53,1.09-.31a16.41,16.41,0,0,0,3.51,2,15.66,15.66,0,0,1,4.28,2.8c.77.66,1.26,1.6,2.29,1.89a6.1,6.1,0,0,0,3.27-.33c5.36-1.64,8-5.16,10.22-6.77,1.6-1.35,6.35-5.25,7.62-6a5.22,5.22,0,0,1,3.93,2.08,11.07,11.07,0,0,1,1.91,3.39C129.58,222.58,128.68,223.53,124.34,227.09Z" style="fill:#c8856a"></path><path d="M122.93,213.45a36.4,36.4,0,0,0-5.41,4.06c2.91,2,5.65,7.34,4.89,11.09,3.79-2.56,7.08-4.65,7-9.43C129.36,219.17,127.1,212.76,122.93,213.45Z" style="fill:#2A53E1"></path><path d="M122.93,213.45a36.79,36.79,0,0,0-5.41,4.06c2.91,2,5.65,7.34,4.89,11.09,3.79-2.56,7.08-4.65,7-9.43C129.36,219.17,127.1,212.76,122.93,213.45Z" style="opacity:0.15"></path></g></g></g></g><g id="freepik--character-3--inject-71"><g id="freepik--character--inject-71"><g id="freepik--arm--inject-71"><g id="freepik--arm--inject-71"><path d="M340.45,279.16c-.69-.64-1-.61-1-.61.27-.52,0-2.05-1.92-2.66,0,0,1-1.2-1.86-2.52-3.22-1.49-6.91-1.59-8.94-1.7-.77-.08-1.46-.57-.53-.92,1.23-.48,2.66-.65,3.69-1.55a2.38,2.38,0,0,0,.68-.92,1.75,1.75,0,0,0,0-1.13c-.24-.8-1.57-.54-2.34-.42-3,.51-5.83.13-8.67,1.48-.9.43-2.42,1.09-3.39.81-5.79-1.62-12.69-4.65-22.32-8.19,0,0-7-7.53-12.39-13.24-8-8.41-8.87-8.06-17.7-9.75V252s9.33,9.64,17.23,17.53c4.33,4.33,5.76,5.33,11,6.2,8.74,1.46,9.7,1.57,18.31,3.18a18.83,18.83,0,0,1,7.92,3.08,8.15,8.15,0,0,0,3.37,1.11c2.93.2,5.07-.32,7.62-.21a29.85,29.85,0,0,1,6,.73c1.68.24,2.41-.16,2.69-1s-1.74-1.55-1.74-1.55a8.34,8.34,0,0,0,3.05.16C340.4,280.8,341.14,279.81,340.45,279.16Z" style="fill:#ffbda7"></path><path d="M263.58,236.91c4.11,1.05,8.53,1.16,12.16,4.45s18.36,19.13,18.36,19.13l13.66,5.38a8.32,8.32,0,0,0-3.51,5.22,19.13,19.13,0,0,0,0,6.82s-9-1.54-13.25-2.1c-3.92-.52-5.8-1.67-9.31-4.85s-18.14-18-18.14-18Z" style="fill:#f5f5f5"></path><path d="M332.41,283.18a18,18,0,0,1,2.31.39c1,.24,2.13.55,2.94-.32a1.72,1.72,0,0,0,.4-.77.92.92,0,0,0-.38-.79,3.52,3.52,0,0,0-.56-.39l1.13.09a2.69,2.69,0,0,0,1.9-.5,1.7,1.7,0,0,0,.65-.81,1,1,0,0,0-.29-1.08,5.13,5.13,0,0,0-.84-.58,1.48,1.48,0,0,0-.09-1.1,2.56,2.56,0,0,0-.69-.87,2.86,2.86,0,0,0-1.16-.63,1.3,1.3,0,0,0-.36-1.38,5.09,5.09,0,0,0-1.23-.94,13.8,13.8,0,0,0-3.5-1.3,37.15,37.15,0,0,0-6-.54,43.1,43.1,0,0,1,6,.72,13.82,13.82,0,0,1,3.43,1.31,4.68,4.68,0,0,1,1.16.9,1,1,0,0,1,.27,1.21h0a1.51,1.51,0,0,1-1.52.5c-.35-.05-2.08-.43-2.43-.49a23.81,23.81,0,0,0-4.91-.25,26.67,26.67,0,0,1,4.9.49c.34.06,2,.43,2.4.49a1.75,1.75,0,0,0,1.71-.49,2.62,2.62,0,0,1,1.1.61,2.27,2.27,0,0,1,.6.78,1.15,1.15,0,0,1,.07.9h0a1.07,1.07,0,0,1-1,.5,4.67,4.67,0,0,1-1.28-.12,17.62,17.62,0,0,0-2.62-.53,23.65,23.65,0,0,0-2.66-.22h-2.66l2.66.08a23.16,23.16,0,0,1,2.64.29,17.89,17.89,0,0,1,2.58.61,4.74,4.74,0,0,0,1.36.17,1.44,1.44,0,0,0,1.08-.43,4.43,4.43,0,0,1,.8.53c.51.36.19,1.07-.32,1.4a2.35,2.35,0,0,1-1.7.47c-.62,0-1.33-.13-2-.23-1.25-.13-1.51-.18-2.76-.22s-2.51-.06-3.75,0c1.25,0,2.49.05,3.74.14s1.5.14,2.72.32a4.58,4.58,0,0,1,1.34.73.73.73,0,0,1,.31.58,1.46,1.46,0,0,1-.34.65c-.69.78-1.73.52-2.73.28a15,15,0,0,0-2.33-.32,31.47,31.47,0,0,0-3.21-.22A31.08,31.08,0,0,1,332.41,283.18Z" style="fill:#f0997a"></path><path d="M317.75,276.12c2,1.39,5.5.22,7.48-1.25C323.3,277.25,320.52,278.54,317.75,276.12Z" style="fill:#f0997a"></path></g></g><path d="M281,281.92l2,49.36s-17.7-4.38-33.55-1.67-19.66,6.4-19.66,6.4L240,255l36.61,1.11S281,262.14,281,281.92Z" style="fill:#ebebeb"></path><g id="freepik--bottom--inject-71"><path d="M233,431.75c-.17,3.59-.81,5.43-2.43,7.36a7.49,7.49,0,0,1-7.51,2.15c-2.84-.74-5.8-2.82-6.46-5.83a16.82,16.82,0,0,1,.63-8.26Z" style="fill:#263238"></path><path d="M223.42,373.34c2.06-9.74,4.34-14.1,4.78-16.31,0,0,3-23,4.39-42.59.66-9.42.42-15.76,6.73-26.7L276,296.55c.45,5,3.89,39.17,2.2,68.63-1.4,24.17-3.21,32.06-3.4,36.1-.1,2.29-.05,3.81.05,7a4.47,4.47,0,0,0,.92,3.16,22.24,22.24,0,0,0,4.15,3.21c2.86,1.85,4.17,2.84,7.43,4a7.62,7.62,0,0,1,1.82.8,2,2,0,0,1,1,1.53c0,.87-.8,1.55-1.63,2-2.94,1.52-6.64,1.23-9.87.29s-6.23-2.45-9.47-3.33c-2.25-.61-4.63-.92-6.7-1.95a3.31,3.31,0,0,1-1.61-1.4,3.2,3.2,0,0,1-.15-1.71,37.25,37.25,0,0,0,.45-5.87c-.06-2.41-.44-6.87-.64-9.28-.18-2-2.82-16.6-2.41-25.61a55.33,55.33,0,0,0-.3-8.25l-3.26-32c-1.49,5.35-7,20.84-8.74,27.91-2.11,8.65-3.25,19.1-7.65,34.92-1.24,4.46-3.52,9.83-4.09,12.52-.24,3.42-1.53,12.37-3.21,16.14-2.56,5.72-10.37,5.53-11,.57-.56-4.22,2.35-15.26,2.48-18S221,384.69,223.42,373.34Z" style="fill:#ffbda7"></path><path d="M221.15,411.06c-.63,3.56-1.17,6.26-1.58,8.32-1.18,3.52-1.64,5.22-2.31,7.51-1.09,3.73-.88,7.08.29,9.08,1.75,3,8.8,6,12.52,2.22,3-3.12,2.9-4.61,2.9-9.26,0-1.46,0-2.77,0-4,.09-4.16.17-5,.86-7.6.4-1.5,0-3.79.35-5.39s.5-2.49-.1-2.77c0,0-.31,2.23-.7,3.83s-.63,3-1,4.44c-.42,1.82-.76,3.64-1.34,5.43-.06.19-.17.43-.39.45s-.45-.27-.46-.53a1,1,0,0,0-.29-.81,3.41,3.41,0,0,0-1-.55,10.06,10.06,0,0,0-2.23-.53,10.54,10.54,0,0,0-3.31-.13,2,2,0,0,0-.9.34c-.24.18-.32.44-.52.64a.5.5,0,0,1-.62.1.53.53,0,0,1-.15-.31,6.64,6.64,0,0,1,0-1.26c.1-2.33.27-4.61.6-6.92a31,31,0,0,0,.57-5.5A6.63,6.63,0,0,0,221.15,411.06Z" style="fill:#37474f"></path><path d="M258.62,417.24l37.4,7.34a2.39,2.39,0,0,1-.29,2.36c-1.37,1.55-6,3.65-11.66,3a21.72,21.72,0,0,1-10.9-4.31,15.64,15.64,0,0,0-3.52-1.93,20.9,20.9,0,0,0-4.8-.76,29.34,29.34,0,0,1-3.77-1,8.24,8.24,0,0,1-2.51-1.22,8.46,8.46,0,0,1-.17-1.92C258.44,418.39,258.53,417.71,258.62,417.24Z" style="fill:#263238"></path><path d="M267.22,414a12,12,0,0,0-4.31-2.53,2.27,2.27,0,0,1-1.75-2.47,2.07,2.07,0,0,0-1.26.13,1.6,1.6,0,0,0-.47,1.2c-.1,1-.23,1.53-.42,2.61-.42,2.4-1,3.15-.61,6,1.67,2,6.86,3,9.62,3.3,4.33.52,7.82,3.93,11.09,4.95,6,1.87,11.86.87,14.14-.21,2.63-1.25,4.11-3.31,1.94-4.8-1.32-.91-8.82-4.54-10.16-5.23-1.08-.55-2.1-1.19-3.15-1.78a1.54,1.54,0,0,0-.56-.23,2,2,0,0,0-.72.06,22,22,0,0,0-3.83,1.25c-.42.19-.88.44-1,.85-.23.72,1.29,2,.37,2.21s-2.24-.8-2.9-1.13A20,20,0,0,1,267.3,414Z" style="fill:#37474f"></path><path d="M275.93,286l.39,3.65c3.53,20.13,3.86,46.81,3.48,54.91-1.11,23.9-4.26,66-4.26,66s-1,2.35-7.94,2.89a15.71,15.71,0,0,1-8.47-1.36s-2.49-28.57-2.88-35.47a68.68,68.68,0,0,1,.19-8.86,56.45,56.45,0,0,0-.13-11l-1.88-20.41s-6.93,28.27-7.6,31.7c-3.35,17.26-11.45,49.25-11.45,49.25a29.7,29.7,0,0,1-10.76.58c-5.1-.88-6.25-2.64-6.25-2.64s3.16-36,3.95-43c1.07-9.32,2.06-13.66,2.78-17.48.85-4.49,1.26-21.42,1.84-31.27a156.58,156.58,0,0,1,1.51-16.75c1.74-10.31,6.87-16.52,8.82-20.32l.3-2C243.33,288.92,265.15,291.73,275.93,286Z" style="fill:#455a64"></path><path d="M254.43,336.33l5.44-19.26s7.05-1.32,10.52-5c0,0-.78,4.7-8.09,7.1L257.16,336l-1,19.78Z" style="fill:#37474f"></path></g><g id="freepik--top--inject-71"><g id="freepik--chest--inject-71"><path d="M246.25,237.1l-9.57,2.56c-1.9.64.25,11.88-.28,24.75-.55,13.21-4.3,34.55-4.3,34.55s9,3.75,25,3.48c15.86-.27,20.6-5.21,20.6-5.21l-2.13-15.6.2-11.83s5.93-6.93,2.76-14.77-14.76-17.19-14.76-17.19L258,235.76Z" style="fill:#2A53E1"></path><path d="M245.29,268.43a10.56,10.56,0,0,0,17.81-.5s-1.1,6.62-9,6.77S245.29,268.43,245.29,268.43Z" style="opacity:0.15"></path></g><path d="M257.62,236.16c4,3.3,10.11,7.74,13.76,12.51,7.37,9.64,9,18.52,9.56,29.73.11-16.75,4.78-22.69-15.42-40a25.79,25.79,0,0,0-7.64-4.44Z" style="fill:#e0e0e0"></path><path d="M244.33,234c.29,4.15,4.66,14.53,5.06,25.84s-1.86,76.93-1.86,76.93-14.25,1.82-23.07-3.2c1.7-31.52,4.59-35.77,8.6-48,2.87-8.8-1.85-17.88-2.49-28.23a43.55,43.55,0,0,1,2.16-16.63,75.14,75.14,0,0,0,8.37-3.28A10.31,10.31,0,0,0,244.33,234Z" style="fill:#f0f0f0"></path><path d="M243.85,236c.28,1.33.73,2.95,1.24,4.82,1.38,5,3.27,11.88,3.52,19C249,270.36,247,329,246.77,336c-1,.09-2.91.25-5.34.25-4.69,0-11.24-.56-16.16-3.19,1.47-26.77,3.78-33.48,7-42.74.5-1.46,1-3,1.56-4.62,1.89-5.78.63-11.58-.69-17.73a71.87,71.87,0,0,1-1.76-10.79,44,44,0,0,1,2-16,67.78,67.78,0,0,0,8.15-3.22,9.4,9.4,0,0,0,2.36-2m.48-2a10.31,10.31,0,0,1-3.23,3.38,75.14,75.14,0,0,1-8.37,3.28,43.55,43.55,0,0,0-2.16,16.63c.64,10.35,5.36,19.43,2.49,28.23-4,12.28-6.9,16.53-8.6,48,5.11,2.91,12,3.52,17,3.52a53.59,53.59,0,0,0,6.1-.32s2.26-65.61,1.86-76.93-4.77-21.69-5.06-25.84Z" style="fill:#ebebeb"></path><g id="freepik--arm--inject-71"><g id="freepik--arm--inject-71"><path d="M162.66,285c.67-.67,1-.65,1-.65-.28-.51-.06-2.05,1.83-2.73,0,0-1-1.17,1.77-2.58,3.17-1.6,6.86-1.83,8.88-2,.77-.1,1.44-.61.5-.94-1.25-.43-2.69-.55-3.74-1.42a2.32,2.32,0,0,1-.71-.9,1.66,1.66,0,0,1,0-1.12c.21-.81,1.55-.6,2.32-.5,3.05.4,5.83-.08,8.71,1.18.93.4,2.46,1,3.42.69,5.73-1.82,12.53-5.09,22-9,0,0,6.7-7.77,11.93-13.66,7.7-8.68,8-8.71,12.85-10,2.57,5.44,2.7,11.89-.4,19.66,0,0-3.6,4-11.22,12.18-4.18,4.48-5.57,5.52-10.77,6.58-8.68,1.76-9.64,1.9-18.19,3.8A19,19,0,0,0,185,287a8,8,0,0,1-3.33,1.22c-2.92.31-5.08-.14-7.62.06a29.17,29.17,0,0,0-6,.94c-1.68.29-2.42-.08-2.72-.92s1.67-1.61,1.67-1.61a8.45,8.45,0,0,1-3,.27C162.76,286.62,162,285.66,162.66,285Z" style="fill:#ffbda7"></path><path d="M233.55,240.33c-4.45,1.43-6.77,2.14-9.3,5.08-3.19,3.71-15.92,19.32-15.92,19.32l-13.46,5.85a8.31,8.31,0,0,1,3.69,5.09,19.11,19.11,0,0,1,.2,6.82s9-1.85,13.17-2.56c3.9-.66,5.74-1.87,9.14-5.16s11.56-12.18,11.56-12.18C237.15,257.61,236.84,243.58,233.55,240.33Z" style="fill:#f5f5f5"></path><path d="M170.83,288.73a17.88,17.88,0,0,0-2.29.47c-1,.27-2.11.62-2.95-.22a1.59,1.59,0,0,1-.42-.75.9.9,0,0,1,.35-.81,2.6,2.6,0,0,1,.54-.4l-1.13.13a2.73,2.73,0,0,1-1.92-.44,1.74,1.74,0,0,1-.67-.79,1,1,0,0,1,.25-1.09,5.09,5.09,0,0,1,.82-.6,1.48,1.48,0,0,1,.06-1.1,2.49,2.49,0,0,1,.65-.91,3.24,3.24,0,0,1,1.14-.67,1.29,1.29,0,0,1,.31-1.38,5.15,5.15,0,0,1,1.2-1,13.91,13.91,0,0,1,3.46-1.41,35.78,35.78,0,0,1,6-.75,42.6,42.6,0,0,0-6,.92,13.86,13.86,0,0,0-3.39,1.43,4.67,4.67,0,0,0-1.12.95,1,1,0,0,0-.23,1.21h0a1.5,1.5,0,0,0,1.54.44c.35-.05,2.06-.5,2.41-.56a23.55,23.55,0,0,1,4.9-.43,27.13,27.13,0,0,0-4.88.66c-.34.08-2,.5-2.38.57a1.74,1.74,0,0,1-1.74-.43,2.88,2.88,0,0,0-1.07.65,2.17,2.17,0,0,0-.57.81,1.14,1.14,0,0,0,0,.9h0a1,1,0,0,0,1,.47,4.34,4.34,0,0,0,1.28-.17,17.54,17.54,0,0,1,2.6-.61,23.63,23.63,0,0,1,2.65-.31l2.66-.09-2.66.17a21,21,0,0,0-2.62.39,19,19,0,0,0-2.56.69,5.15,5.15,0,0,1-1.35.22,1.5,1.5,0,0,1-1.1-.39,4.56,4.56,0,0,0-.78.56c-.49.38-.15,1.07.37,1.38a2.36,2.36,0,0,0,1.71.41c.62-.06,1.33-.17,2-.29a25.92,25.92,0,0,1,2.76-.32c1.25-.08,2.5-.15,3.75-.11-1.25,0-2.5.14-3.74.27a27.26,27.26,0,0,0-2.71.42,4.31,4.31,0,0,0-1.31.77.71.71,0,0,0-.29.59,1.47,1.47,0,0,0,.36.64c.72.75,1.75.45,2.74.19a13.89,13.89,0,0,1,2.32-.4,31.28,31.28,0,0,1,3.2-.34A31.19,31.19,0,0,0,170.83,288.73Z" style="fill:#f0997a"></path><path d="M185.24,281.16c-2,1.47-5.49.42-7.52-1C179.73,282.49,182.55,283.69,185.24,281.16Z" style="fill:#f0997a"></path></g></g><path d="M244.83,229.58a115.65,115.65,0,0,1-7-11.26c-2.4-4.64-2.57-11.35,1.89-12.66.42-5.24,7.43-11.77,20-9.18,12.34,2.55,11.48,12.1,10.6,14.91a15.91,15.91,0,0,1-3.76,5.54Z" style="fill:#263238"></path><path d="M268.23,213.77c.19-4.65-1.36-7.42-2.54-8.3-2.44-1.83-4.46-1.45-7.56,1.21-2.36-2.28-6.45-2.62-8.51-.71-1.23,1.15-2.44,3.51-2.14,4.83,1.27,5.15-.28,6.48-1.54,7.11.89,2.8-.6,3.13-1.23,1.69a3.09,3.09,0,0,0-5.37-.43c-1.73,2.14-.35,5.9,1.67,7.38s3.67.46,3.8,0c0,1.13,0,11.08,0,11.08a45.67,45.67,0,0,0,15.79,8.65c.28-3.62.33-5.21-1.37-8l-.31-4.79a11.28,11.28,0,0,0,5.36-1.24c2.66-1.23,4.81-3.92,4.79-12.94C269.07,216.64,268.11,215.17,268.23,213.77Z" style="fill:#ffbda7"></path><path d="M266,211.8l-3.26-.63a1.59,1.59,0,0,1,1.88-1.34A1.75,1.75,0,0,1,266,211.8Z" style="fill:#263238"></path><path d="M251.39,212.08l3.1-1.17a1.58,1.58,0,0,0-2.08-1A1.73,1.73,0,0,0,251.39,212.08Z" style="fill:#263238"></path><path d="M255.11,223.72l4.65,1.44a2.34,2.34,0,0,1-3,1.65A2.56,2.56,0,0,1,255.11,223.72Z" style="fill:#b16668"></path><path d="M257.86,226.88a2.17,2.17,0,0,0-2.25-2.08,1.83,1.83,0,0,0-.52.09,2.53,2.53,0,0,0,1.71,1.92A2.27,2.27,0,0,0,257.86,226.88Z" style="fill:#ffa8a7"></path><polygon points="258.51 213.91 259.46 222.73 263.84 221.4 258.51 213.91" style="fill:#f0997a"></polygon><path d="M258.92,233.44c-3.19-.11-10.38-1.84-12.13-6,0,0,.31,3,4.27,5.26,3.12,1.77,7.95,2.15,7.95,2.15Z" style="fill:#f0997a"></path><path d="M255.5,215.39a1.41,1.41,0,1,1-1.33-1.48A1.42,1.42,0,0,1,255.5,215.39Z" style="fill:#263238"></path><path d="M265.63,215.58a1.41,1.41,0,1,1-1.12-1.65A1.42,1.42,0,0,1,265.63,215.58Z" style="fill:#263238"></path><path d="M238.47,238.49a15,15,0,0,0,4.29-3.78c1-1.18,1.45-2.13,2.07-2.12v2.14s4.86,11.48,4.84,21.46h0c.11,6.83-.29,15.49-.29,15.49-2.05-4.83-7.15-13.41-7.15-13.41l2.61-6.26C243.18,245.83,239.61,241.79,238.47,238.49Z" style="fill:#e0e0e0"></path><path d="M242.76,251.74l-1.13,0c0-.6-.24-1.89-.5-3.52-.29-1.82-.53-3.84-.7-5.88.47.79,1,1.64,1.46,2.55.12,1.33.25,2.43.36,3.16C242.52,249.76,242.73,251.08,242.76,251.74Z" style="fill:#2A53E1"></path><path d="M239.86,278.5h-.09l0-.8a5,5,0,0,0,2.6-1,9.41,9.41,0,0,1-2.16-2c-1.28-1.65-4.08-13.47-3.22-16.22.73-2.31,3-7.4,5-7.49h.05c2,0,4.67,4.82,5.58,7,1.09,2.67-.69,14.68-1.83,16.43a9.42,9.42,0,0,1-2,2.14,5,5,0,0,0,2.68.75l.09.79a6.21,6.21,0,0,1-3.47-1A6.29,6.29,0,0,1,239.86,278.5Zm2.23-26.64h0c-1.18,0-3.31,3.83-4.28,6.93-.79,2.52,1.9,14,3.09,15.5a9.21,9.21,0,0,0,2.23,1.95,9.16,9.16,0,0,0,2.06-2.14c1.06-1.63,2.77-13.25,1.76-15.7C245.7,255.41,243.29,251.86,242.09,251.86Z" style="fill:#455a64"></path><path d="M247.73,277.76a1.17,1.17,0,1,1-1.21-1.11A1.16,1.16,0,0,1,247.73,277.76Z" style="fill:#263238"></path><path d="M241,278.05a1.17,1.17,0,1,1-1.22-1.11A1.17,1.17,0,0,1,241,278.05Z" style="fill:#263238"></path><path d="M247.86,263.3l-.67,0A.26.26,0,0,1,247,263a13.55,13.55,0,0,0-.21-4.51c-1.17-2.86-3.61-6.46-4.67-6.41s-3.17,3.83-4.1,6.79a13.29,13.29,0,0,0,.18,4.5.27.27,0,0,1-.22.3l-.66.1a.26.26,0,0,1-.3-.22,13.54,13.54,0,0,1-.14-5c.5-1.59,2.84-7.52,5.19-7.62s5.19,5.61,5.82,7.15a13.5,13.5,0,0,1,.3,5A.27.27,0,0,1,247.86,263.3Z" style="fill:#2A53E1"></path></g></g></g><g id="freepik--Symbol--inject-71"><g id="freepik--medical-symbol--inject-71"><polygon points="368.08 391.35 358.07 377.23 367.17 363.06 377.14 357.31 379.33 360.4 387.59 355.62 404.77 365.53 404.77 381.96 415.22 379.29 424.32 403.97 414.31 409.73 424.32 423.85 415.22 438.02 405.25 443.77 403.06 440.69 394.8 445.46 377.62 435.55 377.62 419.12 367.17 421.79 358.07 397.11 368.08 391.35" style="fill:#2A53E1"></polygon><polygon points="368.08 391.35 358.07 377.23 367.17 363.06 377.14 357.31 379.33 360.4 387.59 355.62 404.77 365.53 404.77 381.96 415.22 379.29 424.32 403.97 414.31 409.73 424.32 423.85 415.22 438.02 405.25 443.77 403.06 440.69 394.8 445.46 377.62 435.55 377.62 419.12 367.17 421.79 358.07 397.11 368.08 391.35" style="fill:#fff;opacity:0.8"></polygon><polygon points="379.33 360.4 377.62 361.37 377.62 377.8 367.17 363.06 377.14 357.31 379.33 360.4" style="fill:#2A53E1"></polygon><polygon points="415.22 379.29 405.25 385.04 394.8 387.72 404.77 381.96 415.22 379.29" style="fill:#2A53E1;opacity:0.5"></polygon><polygon points="404.77 365.53 394.8 371.29 394.8 387.72 404.77 381.96 404.77 365.53" style="fill:#2A53E1"></polygon><polygon points="415.22 379.29 405.25 385.04 414.35 409.72 424.32 403.97 415.22 379.29" style="fill:#2A53E1"></polygon><polygon points="402.42 412.77 414.35 409.72 424.32 423.85 414.35 429.61 402.42 412.77" style="fill:#2A53E1"></polygon><polygon points="424.32 423.85 414.35 429.61 405.25 443.77 415.22 438.02 424.32 423.85" style="fill:#2A53E1"></polygon><polygon points="424.32 423.85 414.35 429.61 405.25 443.77 415.22 438.02 424.32 423.85" style="opacity:0.2"></polygon><polygon points="394.8 445.46 403.06 440.69 394.8 429.03 394.8 445.46" style="fill:#2A53E1"></polygon><polygon points="394.8 445.46 403.06 440.69 394.8 429.03 394.8 445.46" style="opacity:0.30000000000000004"></polygon><polygon points="358.07 397.11 370 394.06 368.08 391.35 358.07 397.11" style="fill:#2A53E1"></polygon><polygon points="374.21 394.57 361.59 376.77 368.15 366.56 378.97 381.82 380.63 380.86 380.63 364.9 393.45 372.31 393.45 390.18 404.82 387.27 412.31 407.59 401.54 410.35 399.87 411.31 412.49 429.11 405.93 439.32 395.11 424.06 393.45 425.01 393.45 440.97 380.63 433.57 380.63 415.69 369.26 418.6 361.77 398.29 372.55 395.53 374.21 394.57" style="fill:#fafafa"></polygon><path d="M393.45,425l11.37,16,1.11-1.73-10.82-15.26Zm-31.68-26.72-1.84.47,7.67,20.8L379,416.65v17.88l14.48,8.36V441l-12.82-7.4V415.69l-11.37,2.91Zm12.44-3.72-12.62-17.8,6.56-10.21-.55-.77-7.67,11.94,12.62,17.8ZM379,381.82l1.66-1V364.91L379,364Zm20.9,29.49,12.62-3.23-.18-.49-10.78,2.76Z" style="fill:#2A53E1"></path><path d="M393.45,425l11.37,16,1.11-1.73-10.82-15.26Zm-31.68-26.72-1.84.47,7.67,20.8L379,416.65v17.88l14.48,8.36V441l-12.82-7.4V415.69l-11.37,2.91Zm12.44-3.72-12.62-17.8,6.56-10.21-.55-.77-7.67,11.94,12.62,17.8ZM379,381.82l1.66-1V364.91L379,364Zm20.9,29.49,12.62-3.23-.18-.49-10.78,2.76Z" style="fill:#fff;opacity:0.7000000000000001"></path><polygon points="380.63 433.57 378.97 434.53 378.97 416.65 380.63 415.69 380.63 433.57" style="fill:#2A53E1;opacity:0.35000000000000003"></polygon><polygon points="369.26 418.6 367.6 419.56 359.93 398.76 361.77 398.29 369.26 418.6" style="fill:#2A53E1;opacity:0.35000000000000003"></polygon><polygon points="393.45 425.01 395.11 424.06 405.93 439.32 404.82 441.05 393.45 425.01" style="fill:#2A53E1;opacity:0.35000000000000003"></polygon><polygon points="361.59 376.77 359.93 377.73 367.6 365.79 368.15 366.56 361.59 376.77" style="fill:#2A53E1;opacity:0.35000000000000003"></polygon><polygon points="378.97 381.82 380.63 380.86 380.63 364.9 378.97 363.95 378.97 381.82" style="fill:#2A53E1;opacity:0.35000000000000003"></polygon><polygon points="399.87 411.31 401.54 410.35 412.31 407.59 412.49 408.08 399.87 411.31" style="fill:#2A53E1;opacity:0.35000000000000003"></polygon><path d="M386.43,430.33l.09.1,0,4.12Z" style="fill:#455a64"></path><path d="M386.65,418.18l0,4.13,0,2.46-.05,4.14-.12-.19,0-3.89,0-2.52,0-4.61Z" style="fill:#455a64"></path><path d="M386.84,400.59l-.06,5.91-.1,9-.42-.59-.06-5.33,0-3.07-.07-6.64.55.54Z" style="fill:#455a64"></path><path d="M388.07,380.76c0,.91-.43,1.43-1,1.4l-.06,6.06,0,2.61-.07,6.46-.82-.92-.06-5.71-.05-4.4-.05-4.76a4.07,4.07,0,0,1-1-2.58c0-1.17.71-1.71,1.59-1.2A3.82,3.82,0,0,1,388.07,380.76Z" style="fill:#455a64"></path><path d="M391.43,390.18a11.11,11.11,0,0,0-4.06-2.91l0,3.19a15.22,15.22,0,0,1,3.55,2,2.12,2.12,0,0,0,.25,1.44c.43.68,2.25,2.93,3.1,3.13S394.48,393.77,391.43,390.18Zm1,3.51a.88.88,0,0,1-.35-.68c0-.27.16-.39.35-.27a.84.84,0,0,1,.36.68C392.76,393.68,392.6,393.8,392.4,393.69Zm-5.15,4.54c-.13-.13-.25-.27-.38-.41l-.8-.9-.39-.44c-1.12-1.33-1.94-2.61-1.94-3.85,0-1.82.78-2.49,1.87-2.51l0-3.4c-2.41-.44-4.49.47-4.49,3.85s2.3,6.05,4.62,8.38c.13.13.26.25.38.38l.76.74.38.37c1.75,1.73,3.2,3.27,3.2,4.75,0,1.69-1.55,1.81-3.28,1.85l0,1.94c2.2-.05,4.72,0,4.72-3S389.44,400.61,387.25,398.23Zm-.2,18.35-.38-.51-.4-.57-.39-.53c-1.07-1.53-2-3-2-4.34,0-1.12.81-1.46,1.91-1.59l0-2c-1.66.1-3.13.5-3.13,2.57,0,2.53,1.67,4.88,3.23,6.94l.38.51.38.49.37.51a6.24,6.24,0,0,1,1.55,3.22c0,1.18-.74,1.39-1.6,1.5v1.33c1.22-.12,2.62-.12,2.62-2.5C389.59,420.16,388.36,418.38,387.05,416.58ZM386.9,430c-.13-.15-.25-.31-.37-.47l-.12-.15c-.13-.19-.26-.38-.38-.58a5.63,5.63,0,0,1-.84-2.95,1.36,1.36,0,0,1,.79-1.45V423c-.83.17-1.53.59-1.53,2.06a7.42,7.42,0,0,0,1.6,4.27c.12.16.25.32.38.47l.1.11a4.68,4.68,0,0,0,.38.39,6.05,6.05,0,0,0,1.14.87C387.66,430.78,387.27,430.39,386.9,430Z" style="fill:#455a64"></path><polygon points="394.8 371.29 377.62 361.37 387.59 355.62 404.77 365.53 394.8 371.29" style="fill:#2A53E1;opacity:0.6000000000000001"></polygon></g></g><g id="freepik--Heart--inject-71"><g id="freepik--heart--inject-71"><path d="M157.55,362.23h0l-.06-.06a7.51,7.51,0,0,0-1.07-.78c-1.34-.79-7.41-4.27-7.72-4.47-3.21-2-8.29-1.59-12.82.7-6.47,3.27-11.87,10.18-16,21.69,0,0-4.17-3-5.53-3.74-3.35-1.83-7.26-.94-11.67,1.93-5,3.23-8.36,7.43-11.45,13.77l-.06.12h0a41.17,41.17,0,0,0-4.29,17.31c-.05,13.31,5.45,19.65,12.54,24.42,2,1.36,7.37,4.23,7.9,4.59a44.81,44.81,0,0,0,14,6.11l7,1.63,7-9.7a225.25,225.25,0,0,0,14-22.26c7.09-12.95,12.58-25.65,12.53-38.9C161.8,368.9,160.19,364.65,157.55,362.23Z" style="fill:#2A53E1"></path><path d="M157.55,362.23h0l-.06-.06a7.51,7.51,0,0,0-1.07-.78c-1.34-.79-7.41-4.27-7.72-4.47-3.21-2-8.29-1.59-12.82.7-6.47,3.27-11.87,10.18-16,21.69,0,0-4.17-3-5.53-3.74-3.35-1.83-7.26-.94-11.67,1.93-5,3.23-8.36,7.43-11.45,13.77l-.06.12h0a41.17,41.17,0,0,0-4.29,17.31c-.05,13.31,5.45,19.65,12.54,24.42,2,1.36,7.37,4.23,7.9,4.59a44.81,44.81,0,0,0,14,6.11l7,1.63,7-9.7a225.25,225.25,0,0,0,14-22.26c7.09-12.95,12.58-25.65,12.53-38.9C161.8,368.9,160.19,364.65,157.55,362.23Z" style="opacity:0.15"></path><path d="M157.55,362.23h0l-.06-.06a7.51,7.51,0,0,0-1.07-.78c-1.34-.79-7.41-4.27-7.72-4.47-3.21-2-8.29-1.59-12.82.7-6.47,3.27-11.87,10.18-16,21.69,0,0-4.17-3-5.53-3.74-3.35-1.83-7.26-.94-11.67,1.93-5,3.23-8.36,7.43-11.45,13.77l-.06.12h0c-.13.27-.24.55-.37.83l53,30.6c1.88-3.05,3.72-6.15,5.46-9.33,7.09-12.95,12.58-25.65,12.53-38.9C161.8,368.9,160.19,364.65,157.55,362.23Z" style="fill:#2A53E1"></path><path d="M157.55,362.23h0l-.06-.06a7.51,7.51,0,0,0-1.07-.78c-1.34-.79-7.41-4.27-7.72-4.47-3.21-2-8.29-1.59-12.82.7-6.47,3.27-11.87,10.18-16,21.69,0,0-4.17-3-5.53-3.74-3.35-1.83-7.26-.94-11.67,1.93-5,3.23-8.36,7.43-11.45,13.77l-.06.12h0c-.13.27-.24.55-.37.83l53,30.6c1.88-3.05,3.72-6.15,5.46-9.33,7.09-12.95,12.58-25.65,12.53-38.9C161.8,368.9,160.19,364.65,157.55,362.23Z" style="fill:#2A53E1"></path><path d="M119.89,379.31h0l7.1,9.26L138.44,375l-12.94-7.47A57,57,0,0,0,119.89,379.31Z" style="fill:#2A53E1"></path><path d="M119.89,379.31h0l7.1,9.26L138.44,375l-12.94-7.47A57,57,0,0,0,119.89,379.31Z" style="opacity:0.15"></path><path d="M161.82,374.6c.05,13.26-5.44,25.95-12.53,38.9-.12.21-.23.42-.35.62a222.31,222.31,0,0,1-12.33,19.76c-.43.63-.87,1.26-1.31,1.88l-7,9.7-7-1.63a44.81,44.81,0,0,1-14-6.11c-7.09-4.77-12.58-11.11-12.53-24.42A41,41,0,0,1,99.09,396l0-.12c3.1-6.35,6.48-10.55,11.45-13.78,3.41-2.21,6.51-3.25,9.3-2.77h0c2.77.48,5.21,2.47,7.3,6.31,4.19-12.55,9.8-20,16.59-23.42,4.38-2.21,9.26-2.7,12.48-.9l.33.2a3.28,3.28,0,0,1,.31.2l.3.23.29.24.06.06h0C160.19,364.65,161.8,368.9,161.82,374.6Z" style="fill:#2A53E1"></path><path d="M161.82,374.6c.05,13.26-5.44,25.95-12.53,38.9-.12.21-.23.42-.35.62a222.31,222.31,0,0,1-12.33,19.76c-.43.63-.87,1.26-1.31,1.88l-7,9.7-7-1.63a44.81,44.81,0,0,1-14-6.11c-7.09-4.77-12.58-11.11-12.53-24.42A41,41,0,0,1,99.09,396l0-.12c3.1-6.35,6.48-10.55,11.45-13.78,3.41-2.21,6.51-3.25,9.3-2.77h0c2.77.48,5.21,2.47,7.3,6.31,4.19-12.55,9.8-20,16.59-23.42,4.38-2.21,9.26-2.7,12.48-.9l.33.2a3.28,3.28,0,0,1,.31.2l.3.23.29.24.06.06h0C160.19,364.65,161.8,368.9,161.82,374.6Z" style="fill:#fff;opacity:0.30000000000000004"></path><path d="M127.19,385.62a16.84,16.84,0,0,0-3.27-4.13,7.75,7.75,0,0,0-4.68-2,10.27,10.27,0,0,0-5,1,24.35,24.35,0,0,0-4.51,2.65,29.18,29.18,0,0,0-7.16,7.58,47.93,47.93,0,0,0-4.7,9.39,40.28,40.28,0,0,0-2.45,10.2,38.21,38.21,0,0,0,.45,10.46,24.2,24.2,0,0,0,4,9.65,30.25,30.25,0,0,0,7.56,7.32,29.49,29.49,0,0,1-7.92-7.06,24.54,24.54,0,0,1-4.27-9.77c-.22-.87-.31-1.76-.46-2.65s-.16-1.78-.23-2.67-.06-1.78,0-2.68.06-1.79.14-2.68A41.86,41.86,0,0,1,97,399.78a49.29,49.29,0,0,1,4.87-9.54,28.22,28.22,0,0,1,7.45-7.68,23.66,23.66,0,0,1,4.69-2.62,10.82,10.82,0,0,1,5.3-.92,8.08,8.08,0,0,1,2.6.74,12.31,12.31,0,0,1,1.16.7,10.69,10.69,0,0,1,1,.85A15.9,15.9,0,0,1,127.19,385.62Z" style="fill:#2A53E1"></path><g style="opacity:0.6000000000000001"><path d="M127.19,385.62a16.84,16.84,0,0,0-3.27-4.13,7.75,7.75,0,0,0-4.68-2,10.27,10.27,0,0,0-5,1,24.35,24.35,0,0,0-4.51,2.65,29.18,29.18,0,0,0-7.16,7.58,47.93,47.93,0,0,0-4.7,9.39,40.28,40.28,0,0,0-2.45,10.2,38.21,38.21,0,0,0,.45,10.46,24.2,24.2,0,0,0,4,9.65,30.25,30.25,0,0,0,7.56,7.32,29.49,29.49,0,0,1-7.92-7.06,24.54,24.54,0,0,1-4.27-9.77c-.22-.87-.31-1.76-.46-2.65s-.16-1.78-.23-2.67-.06-1.78,0-2.68.06-1.79.14-2.68A41.86,41.86,0,0,1,97,399.78a49.29,49.29,0,0,1,4.87-9.54,28.22,28.22,0,0,1,7.45-7.68,23.66,23.66,0,0,1,4.69-2.62,10.82,10.82,0,0,1,5.3-.92,8.08,8.08,0,0,1,2.6.74,12.31,12.31,0,0,1,1.16.7,10.69,10.69,0,0,1,1,.85A15.9,15.9,0,0,1,127.19,385.62Z" style="fill:#fff"></path></g><path d="M139.18,381.55a1.17,1.17,0,0,0-1.18-.78,1.19,1.19,0,0,0-1.08.92l-9.1,41.73-7.47-21.53a1.19,1.19,0,0,0-1.11-.79h0a1.16,1.16,0,0,0-1.1.77l-5.62,15.28-15.44,8.91c.32.75.66,1.45,1,2.13l16-9.21a1.2,1.2,0,0,0,.51-.62l4.63-12.59L127,428.15a1.2,1.2,0,0,0,1.18.79,1.18,1.18,0,0,0,1.08-.93l9.12-41.79,5.34,15a1.2,1.2,0,0,0,.7.71,1.17,1.17,0,0,0,1-.09l12.73-7.35c.39-1.12.76-2.23,1.1-3.35l-13.78,7.95Z" style="fill:#fff"></path></g></g></svg>
