<svg xmlns="http://www.w3.org/2000/svg" viewBox="0 0 500 500"><g id="freepik--background-complete--inject-4"><path d="M62.15,266.41a6.7,6.7,0,0,0,.72,1.79,3.84,3.84,0,0,0,1.75,1.43,4.05,4.05,0,0,0,3,0A4.66,4.66,0,0,0,70.31,267a5.2,5.2,0,0,0-.3-4.38,5.76,5.76,0,0,0-4-3,7,7,0,0,0-5.49,1.45,7.22,7.22,0,0,0-2.76,5.56,9.07,9.07,0,0,0,9.3,9.1,11.44,11.44,0,0,0,11-10.26,14.17,14.17,0,0,0-2-8.48,13.13,13.13,0,0,0-7.07-5.51,16.57,16.57,0,0,0-9.39-.07,15.69,15.69,0,0,0-4.32,2A15.25,15.25,0,0,0,52,256.65a17,17,0,0,0-2.18,4.1,18.86,18.86,0,0,0-.93,4.5A17.92,17.92,0,0,0,50.14,274a16.38,16.38,0,0,0,5.34,6.59,20.24,20.24,0,0,0,15.27,3.22,20,20,0,0,0,3.55-1c.55-.24,1.08-.53,1.62-.79l.79-.4.72-.5a19.27,19.27,0,0,0,4.86-4.6,20.88,20.88,0,0,0,3.83-10.82c0-.43,0-.85.08-1.26s-.06-.82-.08-1.22a12.85,12.85,0,0,0-.25-2.29l-.42-2.08c-.21-.64-.42-1.25-.61-1.83a19.11,19.11,0,0,0-1.29-3A13.68,13.68,0,0,0,82.37,252a9.46,9.46,0,0,1-1-1.72,9.09,9.09,0,0,1,1.26,1.54,12.76,12.76,0,0,1,1.33,2,18.44,18.44,0,0,1,1.45,3c.22.58.45,1.2.7,1.85s.32,1.39.5,2.14a15.63,15.63,0,0,1,.32,2.36c0,.42.08.84.11,1.27L87,265.81a21.53,21.53,0,0,1-3.8,11.41,20.39,20.39,0,0,1-5.09,5l-.76.54c-.28.16-.56.29-.84.44-.57.28-1.13.6-1.72.86a20,20,0,0,1-3.8,1.1,22.14,22.14,0,0,1-8.24,0,20.39,20.39,0,0,1-8.1-3.36,17.87,17.87,0,0,1-5.87-7.16,19.6,19.6,0,0,1-1.45-9.52,20.37,20.37,0,0,1,1-4.89,18.27,18.27,0,0,1,2.39-4.51,16.62,16.62,0,0,1,3.75-3.59,17.38,17.38,0,0,1,4.77-2.2,18.23,18.23,0,0,1,10.3.1,14.71,14.71,0,0,1,7.88,6.19,15.61,15.61,0,0,1,2.15,9.44,12.84,12.84,0,0,1-12.5,11.48,10.37,10.37,0,0,1-10.54-10.51,8.4,8.4,0,0,1,3.29-6.41,8,8,0,0,1,6.37-1.54,6.69,6.69,0,0,1,4.6,3.59,6,6,0,0,1,.2,5.07,5.33,5.33,0,0,1-3.16,2.86,4.56,4.56,0,0,1-3.4-.14,4.22,4.22,0,0,1-1.83-1.69,3.91,3.91,0,0,1-.47-1.44A1.31,1.31,0,0,1,62.15,266.41Z" style="fill:#e0e0e0"></path><path d="M313.7,226l1.59,2.91a7.39,7.39,0,0,0,2.94,3l2.92,1.59-2.92,1.59a7.42,7.42,0,0,0-2.94,2.94l-1.59,2.91L312.11,238a7.42,7.42,0,0,0-2.94-2.94l-2.91-1.59,2.91-1.59a7.39,7.39,0,0,0,2.94-3Z" style="fill:#ebebeb"></path><path d="M49.94,159.24l1.62,3a7.54,7.54,0,0,0,3,3l3,1.62-3,1.62a7.51,7.51,0,0,0-3,3l-1.62,3-1.62-3a7.53,7.53,0,0,0-3-3l-3-1.62,3-1.62a7.57,7.57,0,0,0,3-3Z" style="fill:#ebebeb"></path><path d="M370.36,80.53l1,1.79a4.55,4.55,0,0,0,1.82,1.82l1.8,1-1.8,1a4.55,4.55,0,0,0-1.82,1.82l-1,1.79-1-1.79a4.59,4.59,0,0,0-1.81-1.82l-1.8-1,1.8-1a4.59,4.59,0,0,0,1.81-1.82Z" style="fill:#ebebeb"></path><path d="M117.21,34.15l.81,1.49a3.69,3.69,0,0,0,1.49,1.49l1.48.81-1.48.81a3.77,3.77,0,0,0-1.49,1.5l-.81,1.48-.81-1.48a3.86,3.86,0,0,0-1.5-1.5l-1.48-.81,1.48-.81a3.77,3.77,0,0,0,1.5-1.49Z" style="fill:#ebebeb"></path><circle cx="419.56" cy="143.61" r="48.13" transform="translate(181.54 517.77) rotate(-76.43)" style="fill:#fff"></circle><path d="M467.69,143.61s0-.27-.06-.78-.08-1.29-.15-2.29q0-.75-.09-1.68c-.07-.62-.2-1.29-.31-2s-.23-1.51-.37-2.35-.41-1.69-.62-2.62a45.84,45.84,0,0,0-5.33-12.78,47.61,47.61,0,0,0-12.19-13.6L446.5,104c-.73-.48-1.5-.91-2.26-1.38a26.68,26.68,0,0,0-2.33-1.35l-2.49-1.2-1.27-.6-1.33-.48-2.69-1c-.92-.3-1.88-.49-2.83-.75a23,23,0,0,0-2.9-.66,44.44,44.44,0,0,0-6-.7c-1,0-2.08-.14-3.13-.12l-3.17.16c-.53,0-1.06,0-1.6.11l-1.59.24c-1.07.18-2.15.3-3.22.52a51.14,51.14,0,0,0-6.39,1.88l-1.59.58-.8.3-.76.37-3.1,1.49c-1,.55-2,1.19-3,1.78-.49.32-1,.58-1.48.94l-1.41,1a54.83,54.83,0,0,0-5.43,4.62l-2.43,2.68-.62.67-.55.73L381,115.31l-1.1,1.47-1,1.58-1,1.58-.48.8c-.15.27-.27.55-.41.83-.54,1.12-1.08,2.25-1.63,3.38s-.86,2.36-1.3,3.55a47.42,47.42,0,0,0,0,30.21c.44,1.18.87,2.37,1.3,3.54s1.09,2.26,1.63,3.38l.4.84.49.79,1,1.59,1,1.58L381,171.9l1.09,1.47.55.72.61.68,2.44,2.68a53.71,53.71,0,0,0,5.43,4.62l1.41,1.05c.47.36,1,.62,1.48.94,1,.59,2,1.23,3,1.78l3.1,1.49.76.37.8.3,1.59.58a51.14,51.14,0,0,0,6.39,1.88c1.07.22,2.15.34,3.22.52l1.6.25c.53.07,1.07.06,1.6.1l3.17.16c1,0,2.09-.08,3.12-.12a44.58,44.58,0,0,0,6.06-.7,23.45,23.45,0,0,0,2.9-.66c.95-.26,1.9-.45,2.82-.75l2.7-1,1.33-.48,1.26-.6,2.49-1.2c.83-.37,1.56-.91,2.34-1.35s1.52-.9,2.25-1.38l2.07-1.55a47.61,47.61,0,0,0,12.19-13.6,45.84,45.84,0,0,0,5.33-12.78,25.15,25.15,0,0,0,.62-2.62c.14-.84.26-1.62.37-2.35s.24-1.39.31-2,.06-1.18.09-1.68c.07-1,.11-1.76.15-2.29s.06-.77.06-.77,0,.26,0,.78-.05,1.29-.09,2.29c0,.5,0,1.06-.07,1.68s-.18,1.29-.28,2-.23,1.52-.35,2.36a24.74,24.74,0,0,1-.61,2.64A45.42,45.42,0,0,1,461,168.26,48,48,0,0,1,448.8,182l-2.09,1.56c-.73.48-1.5.93-2.26,1.4s-1.52,1-2.36,1.37l-2.5,1.21-1.28.61-1.34.49-2.71,1c-.93.31-1.89.51-2.85.77a22.08,22.08,0,0,1-2.92.67,45.33,45.33,0,0,1-6.11.73c-1.05,0-2.1.14-3.16.12l-3.2-.15c-.53,0-1.08,0-1.61-.11l-1.62-.24c-1.07-.18-2.17-.3-3.25-.52a50.39,50.39,0,0,1-6.45-1.89l-1.61-.58c-.27-.1-.54-.19-.8-.3l-.78-.38-3.13-1.5c-1-.55-2-1.2-3-1.8-.5-.31-1-.58-1.5-.94l-1.43-1.06a55.93,55.93,0,0,1-5.49-4.66l-2.46-2.71-.62-.68-.56-.74-1.11-1.48-1.11-1.49-1-1.59-1-1.6-.49-.81-.41-.84L375,162.46c-.43-1.2-.87-2.39-1.31-3.59a47.88,47.88,0,0,1,0-30.54l1.32-3.58,1.64-3.41c.14-.29.27-.57.42-.85l.48-.8,1-1.61,1-1.59L380.6,115l1.11-1.49.55-.73.62-.68,2.46-2.71a56,56,0,0,1,5.5-4.66l1.42-1.06c.47-.36,1-.63,1.5-.94,1-.6,2-1.25,3-1.8l3.13-1.5.78-.38c.26-.11.53-.2.8-.3l1.61-.58a48.78,48.78,0,0,1,6.45-1.88c1.08-.23,2.18-.35,3.25-.53l1.62-.24c.53-.07,1.08-.07,1.61-.1l3.2-.16c1.06,0,2.11.09,3.15.13a43.42,43.42,0,0,1,6.11.72,23.94,23.94,0,0,1,2.93.67c.95.26,1.92.46,2.84.77l2.72,1,1.34.49,1.28.61,2.5,1.21c.84.38,1.57.92,2.35,1.37s1.54.92,2.27,1.4l2.08,1.56A47.84,47.84,0,0,1,461,119a45.42,45.42,0,0,1,5.27,12.88,24.74,24.74,0,0,1,.61,2.64c.12.84.24,1.63.35,2.36s.22,1.4.28,2,.05,1.18.07,1.68c0,1,.07,1.76.09,2.3S467.69,143.61,467.69,143.61Z" style="fill:#e0e0e0"></path><path d="M381.63,189.8a6.68,6.68,0,1,1-6.67-6.68A6.68,6.68,0,0,1,381.63,189.8Z" style="fill:#fff"></path><path d="M381.63,189.8c-.05,0,0-.59-.3-1.6a6.68,6.68,0,0,0-2.45-3.56,6.48,6.48,0,0,0-6.12-.88,6.44,6.44,0,0,0,0,12.09,6.54,6.54,0,0,0,6.13-.88,6.71,6.71,0,0,0,2.44-3.56c.27-1,.25-1.61.3-1.61a1.34,1.34,0,0,1,0,.43,5.63,5.63,0,0,1-.15,1.23,6.59,6.59,0,0,1-2.41,3.8,6.79,6.79,0,0,1-6.51,1,6.76,6.76,0,0,1-3.23-2.4,6.9,6.9,0,0,1,0-8.2,6.88,6.88,0,0,1,9.74-1.35,6.59,6.59,0,0,1,2.41,3.8,5.5,5.5,0,0,1,.15,1.23A1.24,1.24,0,0,1,381.63,189.8Z" style="fill:#e0e0e0"></path><path d="M424.88,144.61a6.88,6.88,0,0,0-.77-1.85,4.08,4.08,0,0,0-1.83-1.45,4.19,4.19,0,0,0-3.11.06,4.83,4.83,0,0,0-2.75,2.72,5.41,5.41,0,0,0,.39,4.54,6,6,0,0,0,4.22,3,7.24,7.24,0,0,0,5.67-1.58,7.51,7.51,0,0,0,2.76-5.82,9.42,9.42,0,0,0-9.8-9.27,11.84,11.84,0,0,0-11.26,10.82,14.6,14.6,0,0,0,2.19,8.75,13.67,13.67,0,0,0,7.42,5.59,17.2,17.2,0,0,0,9.72-.1,14.86,14.86,0,0,0,7.88-5.53,17.63,17.63,0,0,0,2.18-4.28,19.26,19.26,0,0,0,.89-4.68,18.63,18.63,0,0,0-1.49-9.08,17.07,17.07,0,0,0-5.65-6.72,19.68,19.68,0,0,0-7.83-3.16,23.56,23.56,0,0,0-8,0,19,19,0,0,0-11.8,7.77,21.23,21.23,0,0,0-3.81,11.25,22.71,22.71,0,0,0,1.48,9,28.42,28.42,0,0,0,2.65,5.19,11.6,11.6,0,0,1,1.1,1.73,8.68,8.68,0,0,1-1.36-1.55,24.21,24.21,0,0,1-2.95-5.14,22.76,22.76,0,0,1-1.79-9.22A21.93,21.93,0,0,1,403,133.8a20.92,20.92,0,0,1,5.15-5.23,19.9,19.9,0,0,1,3.41-1.93,20.89,20.89,0,0,1,3.9-1.25,24.8,24.8,0,0,1,8.52-.14,21.13,21.13,0,0,1,8.42,3.33,18.47,18.47,0,0,1,6.19,7.28,20.22,20.22,0,0,1,1.66,9.81,21.19,21.19,0,0,1-.95,5.07,19,19,0,0,1-2.39,4.69,17.08,17.08,0,0,1-3.81,3.78,17.6,17.6,0,0,1-4.88,2.35,18.68,18.68,0,0,1-10.63.08,15.15,15.15,0,0,1-8.25-6.24,16.12,16.12,0,0,1-2.39-9.71,13.27,13.27,0,0,1,12.7-12.07,10.75,10.75,0,0,1,8,3.21,10.62,10.62,0,0,1,3.06,7.45,8.7,8.7,0,0,1-3.28,6.67,8.23,8.23,0,0,1-6.54,1.7A6.92,6.92,0,0,1,416,149a6.15,6.15,0,0,1-.29-5.23,5.45,5.45,0,0,1,3.22-3,4.65,4.65,0,0,1,3.5.08,4.36,4.36,0,0,1,1.92,1.71,3.91,3.91,0,0,1,.51,1.48A1.14,1.14,0,0,1,424.88,144.61Z" style="fill:#e0e0e0"></path><path d="M308.83,44.58a7,7,0,0,0,0-1.47,2.94,2.94,0,0,0-.82-1.49,3.05,3.05,0,0,0-2.09-.83,3.51,3.51,0,0,0-2.58,1,3.84,3.84,0,0,0-1,3.11,4.31,4.31,0,0,0,1.93,3.21,5.23,5.23,0,0,0,4.2.54,5.36,5.36,0,0,0,3.46-3A6.8,6.8,0,0,0,308,36.7a8.58,8.58,0,0,0-10.57,4,10.61,10.61,0,0,0-1,6.45A9.88,9.88,0,0,0,299.75,53a12.59,12.59,0,0,0,6.51,2.73,10.82,10.82,0,0,0,6.83-1.42,13.09,13.09,0,0,0,2.69-2.22,14.48,14.48,0,0,0,1.94-2.87,13.71,13.71,0,0,0,1.63-6.5,12.41,12.41,0,0,0-1.83-6.12,15.29,15.29,0,0,0-9.73-6.64,13.79,13.79,0,0,0-2.76-.34c-.46,0-.91.06-1.36.08l-.67.05-.65.14a14.67,14.67,0,0,0-4.72,1.81,15.75,15.75,0,0,0-5.82,6.46l-.42.86c-.11.29-.2.59-.3.88a9.38,9.38,0,0,0-.5,1.68c-.11.55-.22,1.07-.32,1.58s-.07,1-.1,1.46a15.18,15.18,0,0,0,0,2.46,11.17,11.17,0,0,0,.22,1.81,5,5,0,0,1,.16,1.51,5.77,5.77,0,0,1-.47-1.45,9.48,9.48,0,0,1-.37-1.82,13.72,13.72,0,0,1-.18-2.53c0-.48,0-1,0-1.52s.17-1.08.26-1.66a11.39,11.39,0,0,1,.46-1.78c.09-.3.18-.62.28-.93l.42-.92a16.53,16.53,0,0,1,6-7,15.6,15.6,0,0,1,5.06-2l.71-.16.73-.07c.48,0,1-.1,1.48-.11a15.76,15.76,0,0,1,3,.32,16.53,16.53,0,0,1,10.69,7.16,13.81,13.81,0,0,1,2.09,6.83,15.13,15.13,0,0,1-1.76,7.24,16,16,0,0,1-2.15,3.19,14,14,0,0,1-3,2.53,12.8,12.8,0,0,1-3.75,1.47,13.17,13.17,0,0,1-4.06.17,14,14,0,0,1-7.34-3.1,11.41,11.41,0,0,1-3.83-6.77A12.08,12.08,0,0,1,296.15,40a10,10,0,0,1,12.38-4.54A8.13,8.13,0,0,1,313.11,40a8,8,0,0,1-.12,6.07,6.57,6.57,0,0,1-4.28,3.64,6.24,6.24,0,0,1-5-.79,5.21,5.21,0,0,1-2.25-4,4.63,4.63,0,0,1,1.37-3.71,4.11,4.11,0,0,1,3.13-1.11,3.54,3.54,0,0,1,2.4,1.12,3.22,3.22,0,0,1,.79,1.76,2.73,2.73,0,0,1-.1,1.16C308.92,44.47,308.85,44.58,308.83,44.58Z" style="fill:#e0e0e0"></path><path d="M70.6,73.81a6.4,6.4,0,0,0-.8-1.15,2.81,2.81,0,0,0-1.45-.74,2.89,2.89,0,0,0-2.1.45,3.31,3.31,0,0,0-1.5,2.19,3.71,3.71,0,0,0,.84,3,4.15,4.15,0,0,0,3.23,1.52,5,5,0,0,0,3.63-1.8A5.16,5.16,0,0,0,73.58,73a6.49,6.49,0,0,0-7.8-5,8.21,8.21,0,0,0-6.29,8.77,10.23,10.23,0,0,0,2.59,5.68,9.39,9.39,0,0,0,5.75,2.87A12.08,12.08,0,0,0,74.46,84a11.78,11.78,0,0,0,2.76-2,11.12,11.12,0,0,0,1.92-2.76,12.24,12.24,0,0,0,1-3.19,14.18,14.18,0,0,0,0-3.32,13.1,13.1,0,0,0-2.16-6,11.87,11.87,0,0,0-4.7-3.9A14.69,14.69,0,0,0,62,62.7a13.27,13.27,0,0,0-2.38,1.2c-.36.24-.69.53-1,.78l-.51.4-.44.45a14.11,14.11,0,0,0-2.8,4,15,15,0,0,0-1.2,8.24l.12.91c.06.29.15.58.22.86a10.34,10.34,0,0,0,.5,1.6L55,82.53l.69,1.22a13.7,13.7,0,0,0,1.34,2A11.32,11.32,0,0,0,58.2,87c.64.69,1,1.07.93,1.12a5.3,5.3,0,0,1-1.15-.9A9.17,9.17,0,0,1,56.71,86a13.82,13.82,0,0,1-1.49-1.93l-.78-1.23c-.22-.47-.45-1-.68-1.46a9.93,9.93,0,0,1-.59-1.67c-.08-.29-.18-.59-.27-.89l-.16-1A15.89,15.89,0,0,1,53.8,69a15.23,15.23,0,0,1,3-4.35l.48-.5.54-.44c.37-.29.74-.61,1.13-.88a14.48,14.48,0,0,1,2.59-1.36,15.86,15.86,0,0,1,12.36,0,13.3,13.3,0,0,1,5.33,4.35,14.55,14.55,0,0,1,2.46,6.72,15.35,15.35,0,0,1,0,3.71,14,14,0,0,1-1.08,3.64,12.39,12.39,0,0,1-2.22,3.18,12.91,12.91,0,0,1-3.16,2.31,13.49,13.49,0,0,1-7.52,1.44A11,11,0,0,1,61,83.48a11.72,11.72,0,0,1-3-6.59,9.7,9.7,0,0,1,1.92-6.68,9.58,9.58,0,0,1,5.56-3.57,7.81,7.81,0,0,1,6.13,1.25,7.67,7.67,0,0,1,3.15,4.92A6.27,6.27,0,0,1,73.28,78a6,6,0,0,1-4.46,2.07,5,5,0,0,1-3.91-2A4.47,4.47,0,0,1,64,74.4a4,4,0,0,1,1.92-2.55,3.36,3.36,0,0,1,2.51-.39,3.09,3.09,0,0,1,1.58,1,2.61,2.61,0,0,1,.53,1C70.62,73.68,70.63,73.81,70.6,73.81Z" style="fill:#e0e0e0"></path><rect x="162.55" y="435.56" width="29.46" height="35.03" style="fill:#f5f5f5"></rect><rect x="30.42" y="433.27" width="133.15" height="39.51" style="fill:#e0e0e0"></rect><path d="M192.9,436.6H160v-3.33H192.9a1.67,1.67,0,0,1,1.67,1.66h0A1.67,1.67,0,0,1,192.9,436.6Z" style="fill:#e0e0e0"></path><path d="M192.9,472.79H160v-3.33H192.9a1.67,1.67,0,0,1,1.67,1.66h0A1.67,1.67,0,0,1,192.9,472.79Z" style="fill:#e0e0e0"></path><rect x="137.36" y="433.27" width="15.73" height="39.51" style="fill:#ebebeb"></rect><rect x="43.08" y="433.71" width="15.73" height="39.51" style="fill:#ebebeb"></rect><path d="M192,441.35c0,.1-6.37.18-14.24.18s-14.24-.08-14.24-.18,6.37-.17,14.24-.17S192,441.25,192,441.35Z" style="fill:#e0e0e0"></path><path d="M192,446.6c0,.1-6.37.18-14.24.18s-14.24-.08-14.24-.18,6.37-.17,14.24-.17S192,446.51,192,446.6Z" style="fill:#e0e0e0"></path><path d="M192,453.07c0,.1-6.37.17-14.24.17s-14.24-.07-14.24-.17,6.37-.18,14.24-.18S192,453,192,453.07Z" style="fill:#e0e0e0"></path><path d="M192,459.54c0,.09-6.37.17-14.24.17s-14.24-.08-14.24-.17,6.37-.18,14.24-.18S192,459.44,192,459.54Z" style="fill:#e0e0e0"></path><path d="M192,466c0,.1-6.37.18-14.24.18s-14.24-.08-14.24-.18,6.37-.17,14.24-.17S192,465.91,192,466Z" style="fill:#e0e0e0"></path><rect x="69.01" y="449.51" width="59.9" height="7.11" style="fill:#ebebeb"></rect><rect x="144.31" y="411.79" width="29.91" height="21.34" style="fill:#fafafa"></rect><rect x="17.34" y="411.01" width="127.31" height="22.89" style="fill:#f5f5f5"></rect><path d="M143.72,412.56h32.15a.77.77,0,0,0,.78-.77h0a.78.78,0,0,0-.78-.78H143.72Z" style="fill:#f5f5f5"></path><path d="M143.72,432.36h32.51a.42.42,0,0,1,.42.42v.71a.42.42,0,0,1-.42.42H143.72a0,0,0,0,1,0,0v-1.55A0,0,0,0,1,143.72,432.36Z" style="fill:#f5f5f5"></path><path d="M174.22,415.84c0,.1-6.62.18-14.79.18s-14.79-.08-14.79-.18,6.62-.17,14.79-.17S174.22,415.75,174.22,415.84Z" style="fill:#e0e0e0"></path><path d="M174.22,419.88c0,.1-6.62.18-14.79.18s-14.79-.08-14.79-.18,6.62-.17,14.79-.17S174.22,419.78,174.22,419.88Z" style="fill:#e0e0e0"></path><path d="M174.22,423.92c0,.09-6.62.17-14.79.17s-14.79-.08-14.79-.17,6.62-.18,14.79-.18S174.22,423.82,174.22,423.92Z" style="fill:#e0e0e0"></path><path d="M174.22,428c0,.09-6.62.17-14.79.17s-14.79-.08-14.79-.17,6.62-.18,14.79-.18S174.22,427.86,174.22,428Z" style="fill:#e0e0e0"></path><rect x="169.25" y="354.37" width="28.7" height="54.38" style="fill:#ebebeb"></rect><rect x="34.53" y="352.46" width="134.72" height="58.96" style="fill:#e0e0e0"></rect><path d="M200.19,411.42H165.56V407.6h34.63a1.92,1.92,0,0,1,1.92,1.91h0A1.91,1.91,0,0,1,200.19,411.42Z" style="fill:#e0e0e0"></path><path d="M165.56,352.46H201a1.1,1.1,0,0,1,1.1,1.1v1.62a1.1,1.1,0,0,1-1.1,1.1H165.56a0,0,0,0,1,0,0v-3.82A0,0,0,0,1,165.56,352.46Z" style="fill:#e0e0e0"></path><path d="M198,361.66c0,.1-6.43.17-14.35.17s-14.35-.07-14.35-.17,6.42-.16,14.35-.16S198,361.57,198,361.66Z" style="fill:#e0e0e0"></path><path d="M198,368.64c0,.09-6.43.16-14.35.16s-14.35-.07-14.35-.16,6.42-.17,14.35-.17S198,368.55,198,368.64Z" style="fill:#e0e0e0"></path><path d="M198,375.61c0,.09-6.43.17-14.35.17s-14.35-.08-14.35-.17,6.42-.16,14.35-.16S198,375.52,198,375.61Z" style="fill:#e0e0e0"></path><path d="M198,382.59c0,.09-6.43.16-14.35.16s-14.35-.07-14.35-.16,6.42-.17,14.35-.17S198,382.5,198,382.59Z" style="fill:#e0e0e0"></path><path d="M198,389.56c0,.09-6.43.17-14.35.17s-14.35-.08-14.35-.17,6.42-.16,14.35-.16S198,389.47,198,389.56Z" style="fill:#e0e0e0"></path><path d="M198,396.54c0,.09-6.43.16-14.35.16s-14.35-.07-14.35-.16,6.42-.17,14.35-.17S198,396.45,198,396.54Z" style="fill:#e0e0e0"></path><path d="M198,403.51c0,.09-6.43.17-14.35.17s-14.35-.08-14.35-.17,6.42-.16,14.35-.16S198,403.42,198,403.51Z" style="fill:#e0e0e0"></path><path d="M426.27,325.32c7.81-4,17-4.55,25.69-3.12,4.66.77,9.51,2.16,12.68,5.66s3.78,9.66.14,12.67c-2.17,1.79-5.19,2.06-8,2-6.78-.08-14.32-1.27-19.74,2.81-3.1,2.33-5.16,6.21-8.86,7.35s-7.7-1-9.62-4.28-2-7.35-1.09-11A16.84,16.84,0,0,1,426.27,325.32Z" style="fill:#ebebeb"></path><path d="M408.37,290.77c4.78,6.82,14.07,4.56,18.37.4s6.12-10.2,7.78-16c3.78-13.15,7.6-26.94,4.79-40.34-.84-4-2.34-8-5.16-11s-7.14-4.74-11.09-3.7c-4.68,1.24-7.59,5.83-9.69,10.19a96,96,0,0,0-9.51,41.26c0,6.65.76,13.62,4.51,19.11" style="fill:#ebebeb"></path><path d="M395.25,300.56c5.19-6.16,6.18-15.13,3.87-22.85s-7.52-14.27-13.53-19.62a72.91,72.91,0,0,0-24.23-14.3c-3.51-1.23-7.2-2.2-10.9-1.85s-7.42,2.24-9.15,5.53c-2.55,4.86-.1,10.76,2.54,15.58a185,185,0,0,0,15.92,24.23c4.77,6.15,10.23,12.22,17.5,15s14.82,2.45,18.68-2.59" style="fill:#ebebeb"></path><path d="M408.05,393.69a15.06,15.06,0,0,0,.43-3.1c.22-2.26.5-5.09.83-8.46a120.54,120.54,0,0,1,1.9-12.41,95.5,95.5,0,0,1,4.51-14.65,53.61,53.61,0,0,1,7.48-13.25,27.84,27.84,0,0,1,9.46-7.86,26.16,26.16,0,0,1,8-2.48,15.34,15.34,0,0,0,3.09-.45,14.73,14.73,0,0,0-3.15,0,24.43,24.43,0,0,0-8.3,2.16,27.93,27.93,0,0,0-10,7.93,52.64,52.64,0,0,0-7.76,13.52,91.08,91.08,0,0,0-4.48,14.89,106.45,106.45,0,0,0-1.65,12.57c-.26,3.59-.37,6.5-.42,8.51A14.42,14.42,0,0,0,408.05,393.69Z" style="fill:#e0e0e0"></path><path d="M408.63,387.18a6,6,0,0,0,.09-1.44c0-1.08,0-2.44,0-4.11,0-3.57,0-8.74.18-15.12.31-12.76,1.41-26.49,3.53-45.85,2-18.2,4.71-39.39,7.56-53.16.61-3.14,1.22-6,1.8-8.42s1-4.61,1.48-6.34.71-2.94,1-4a5.88,5.88,0,0,0,.25-1.41,6.18,6.18,0,0,0-.5,1.34c-.31,1-.71,2.34-1.19,4s-1.08,3.83-1.69,6.29-1.33,5.27-2,8.4a467.6,467.6,0,0,0-7.94,49.33C409,336,408.07,353.7,408,366.5c-.07,6.39.06,11.57.23,15.14.1,1.67.18,3,.25,4.11A6.51,6.51,0,0,0,408.63,387.18Z" style="fill:#e0e0e0"></path><path d="M408.72,353.11a27.73,27.73,0,0,0,0-4.3c-.16-2.76-.54-6.75-1.32-11.64a152,152,0,0,0-3.78-17,139.36,139.36,0,0,0-7.1-20.07c-5.88-14-13.87-25.37-20.83-32.44a51.65,51.65,0,0,0-4.9-4.55c-.75-.64-1.42-1.27-2.09-1.78s-1.32-.9-1.9-1.31a26.57,26.57,0,0,0-3.62-2.31c-.21.28,5.12,3.41,11.86,10.58s14.47,18.48,20.31,32.32a159.14,159.14,0,0,1,7.13,19.88,171.5,171.5,0,0,1,4,16.8c.89,4.84,1.4,8.79,1.71,11.52A27.71,27.71,0,0,0,408.72,353.11Z" style="fill:#e0e0e0"></path><polygon points="375.79 413.21 379.2 459.98 439.29 459.98 442.7 413.21 375.79 413.21" style="fill:#e0e0e0"></polygon><rect x="369.98" y="394.78" width="79.89" height="18.44" style="fill:#e0e0e0"></rect><polygon points="369.98 458.19 369.98 463.3 373.74 463.3 448.55 463.3 448.55 458.19 369.98 458.19" style="fill:#ebebeb"></polygon><polygon points="377.42 472.3 373.74 463.3 445.69 463.3 441.4 472.3 377.42 472.3" style="fill:#e0e0e0"></polygon><path d="M441.59,428.5a2.94,2.94,0,0,1-.29.43l-.89,1.19c-.86,1.09-2,2.59-3.5,4.48l-.16.19-.15-.2-8.6-11.9h.5l-8.47,12-.27.38-.29-.36c-3.13-3.71-6.52-7.75-10-11.94H410l-.56.69c-3.11,3.91-6.12,7.69-9,11.26l-.29.37-.28-.39-8.47-12,.49,0-10.43,11.89-.19.21-.14-.24-3.26-5.49c-.35-.59-.62-1.07-.84-1.46a2.42,2.42,0,0,1-.26-.52,2,2,0,0,1,.35.46l.93,1.41,3.43,5.39-.33,0,10.27-12,.26-.3.23.33,8.55,11.93-.58,0,9-11.27.55-.7.29-.35.29.35c3.51,4.2,6.9,8.24,10,12l-.56,0c3.09-4.31,6-8.32,8.55-11.93l.25-.35.25.35,8.41,12h-.3l3.64-4.36,1-1.13C441.45,428.61,441.57,428.49,441.59,428.5Z" style="fill:#f5f5f5"></path><path d="M443.54,412.9c0,.21-15.06.38-33.63.38s-33.62-.17-33.62-.38,15-.37,33.62-.37S443.54,412.7,443.54,412.9Z" style="fill:#f5f5f5"></path><path d="M446.57,463.81c0,.2-16.36.37-36.54.37s-36.54-.17-36.54-.37,16.35-.38,36.54-.38S446.57,463.6,446.57,463.81Z" style="fill:#f5f5f5"></path></g><g id="freepik--Table--inject-4"><path d="M457.52,472.3c0,.14-92.92.26-207.51.26s-207.53-.12-207.53-.26S135.38,472,250,472,457.52,472.15,457.52,472.3Z" style="fill:#263238"></path></g><g id="freepik--Character--inject-4"><path d="M336.59,145a11.59,11.59,0,0,0,.15-1.33,8.73,8.73,0,0,0-.8-3.8c-1.34-3.2-4.84-7.09-10.08-11-10.49-7.91-27.7-16.36-49.75-24.35a499.23,499.23,0,0,0-79.6-21.06,376.89,376.89,0,0,0-48.3-5.71,171.48,171.48,0,0,0-25.69.53,64.39,64.39,0,0,0-12.85,2.54,24.1,24.1,0,0,0-6,2.78,8.82,8.82,0,0,0-3.89,5,8.8,8.8,0,0,0,1.2,6.24,24,24,0,0,0,4,5.15,64.69,64.69,0,0,0,10.32,8.08,172.56,172.56,0,0,0,22.7,12.05,377.47,377.47,0,0,0,45.7,16.67,498.61,498.61,0,0,0,80.56,17.08c23.28,2.81,42.45,3,55.38.69,6.44-1.14,11.32-3,14-5.29a8.84,8.84,0,0,0,2.43-3,11.37,11.37,0,0,0,.46-1.25s0,.11-.08.33a5.63,5.63,0,0,1-.34.94,8.43,8.43,0,0,1-2.4,3.09c-2.64,2.3-7.54,4.24-14,5.41-13,2.39-32.16,2.24-55.46-.52a495.5,495.5,0,0,1-80.66-17,374.55,374.55,0,0,1-45.77-16.67,173.08,173.08,0,0,1-22.77-12.08,64.81,64.81,0,0,1-10.41-8.14,24.46,24.46,0,0,1-4.14-5.27,9.34,9.34,0,0,1-1.25-6.62,9.37,9.37,0,0,1,4.11-5.32,24.57,24.57,0,0,1,6.08-2.84,64.43,64.43,0,0,1,12.95-2.57,172.64,172.64,0,0,1,25.77-.52A377.29,377.29,0,0,1,196.59,83a495.36,495.36,0,0,1,79.65,21.19c22.05,8,39.25,16.55,49.75,24.52,5.23,4,8.73,7.9,10,11.14a8.62,8.62,0,0,1,.76,3.84,5.76,5.76,0,0,1-.12,1C336.62,144.88,336.59,145,336.59,145Z" style="fill:#FF725E"></path><path d="M322.39,75.82s-.21-.4-.6-1.2a10.74,10.74,0,0,0-.93-1.35,5.2,5.2,0,0,0-.73-.77,10.34,10.34,0,0,0-.89-.83,20,20,0,0,0-5.63-3,40.78,40.78,0,0,0-8.5-1.86c-13.07-1.65-32.26.17-55.18,5.3-11.47,2.57-23.91,6-37,10.31s-27,9.51-41.2,15.79a329.25,329.25,0,0,0-43.13,22.67A148.76,148.76,0,0,0,108,136.37a56.48,56.48,0,0,0-8.7,9.81,23.23,23.23,0,0,0-2.9,5.89,9.24,9.24,0,0,0,4.13,11.33,23.54,23.54,0,0,0,6,2.64,57.3,57.3,0,0,0,13,1.88,148.81,148.81,0,0,0,25.7-1.49,327.31,327.31,0,0,0,47.58-10.51c14.92-4.38,28.85-9.34,41.67-14.52s24.53-10.59,34.95-16c20.82-10.88,36.65-21.87,45.57-31.56a41.12,41.12,0,0,0,5.3-6.91A19.83,19.83,0,0,0,322.66,81a11.22,11.22,0,0,0,.15-1.2,4.85,4.85,0,0,0,.05-1.06,9.75,9.75,0,0,0-.15-1.63c-.22-.86-.32-1.31-.32-1.31s.14.44.37,1.29a8.72,8.72,0,0,1,.18,1.65,4.27,4.27,0,0,1,0,1.06,9.13,9.13,0,0,1-.14,1.22A19.62,19.62,0,0,1,320.4,87a40.68,40.68,0,0,1-5.28,7c-8.9,9.76-24.73,20.81-45.55,31.74-10.42,5.46-22.12,10.91-35,16.1S207.85,152,192.92,156.38a328,328,0,0,1-47.65,10.56,149.73,149.73,0,0,1-25.79,1.5,58,58,0,0,1-13.1-1.9,24.82,24.82,0,0,1-6.16-2.7,9.76,9.76,0,0,1-4.34-11.92,24.32,24.32,0,0,1,3-6,57.3,57.3,0,0,1,8.79-9.9,149.43,149.43,0,0,1,20.66-15.49A328.38,328.38,0,0,1,171.5,97.82c14.24-6.27,28.1-11.46,41.26-15.76s25.6-7.71,37.09-10.26c23-5.09,42.18-6.86,55.28-5.14a40.25,40.25,0,0,1,8.53,1.92,19.7,19.7,0,0,1,5.65,3c.34.27.61.58.89.84a5.73,5.73,0,0,1,.72.79,9.65,9.65,0,0,1,.92,1.38C322.21,75.4,322.39,75.82,322.39,75.82Z" style="fill:#FF725E"></path><path d="M339,108.38s0-.27-.22-.74a2.52,2.52,0,0,0-1.58-1.4,2.92,2.92,0,0,0-3,1.07,3.37,3.37,0,0,0,.18,4.16,3.89,3.89,0,0,0,2.18,1.33,4.39,4.39,0,0,0,2.76-.39,4.76,4.76,0,0,0,2.58-5.21,6,6,0,0,0-4.54-4.75,7.29,7.29,0,0,0-6.78,2.36,7.55,7.55,0,0,0-1.72,3.36,8.46,8.46,0,0,0,.08,3.68,8.55,8.55,0,0,0,4,5.53,9.78,9.78,0,0,0,6.19,1.1,10,10,0,0,0,5.1-2.13,9.55,9.55,0,0,0,2.73-3.69,11.22,11.22,0,0,0,.86-3.4c.17-1.93,0-3,0-3a12,12,0,0,1-.63,6.52,9.71,9.71,0,0,1-2.77,3.86,10.32,10.32,0,0,1-5.27,2.28,10.12,10.12,0,0,1-6.49-1.12,8.94,8.94,0,0,1-4.29-5.82,8.73,8.73,0,0,1-.09-3.91,8,8,0,0,1,1.83-3.6,7.77,7.77,0,0,1,7.28-2.5,6.44,6.44,0,0,1,4.9,5.15,5.23,5.23,0,0,1-2.86,5.69,4.8,4.8,0,0,1-3,.4,4.21,4.21,0,0,1-2.38-1.51,4.11,4.11,0,0,1-.87-2.41,3.22,3.22,0,0,1,.75-2.15,3.12,3.12,0,0,1,3.32-1.08,2.57,2.57,0,0,1,1.62,1.55A1.94,1.94,0,0,1,339,108.38Z" style="fill:#263238"></path><path d="M211,54.19a6.67,6.67,0,0,0,.12.77,2.52,2.52,0,0,0,1.38,1.6,3,3,0,0,0,3.15-.66,3.36,3.36,0,0,0,.37-4.14,3.73,3.73,0,0,0-2-1.62,4.34,4.34,0,0,0-2.78,0A4.76,4.76,0,0,0,208,55a6,6,0,0,0,3.86,5.31,7.29,7.29,0,0,0,7-1.43,7.56,7.56,0,0,0,2.15-3.1,8.31,8.31,0,0,0,.42-3.66,8.48,8.48,0,0,0-3.26-6,9.67,9.67,0,0,0-6-1.92,9.8,9.8,0,0,0-5.33,1.43,9.52,9.52,0,0,0-3.21,3.28,11.37,11.37,0,0,0-1.3,3.26,29.6,29.6,0,0,0-.44,3,10.51,10.51,0,0,1,.24-3,11,11,0,0,1,1.25-3.35,9.73,9.73,0,0,1,3.26-3.45,10.25,10.25,0,0,1,5.53-1.56,10.13,10.13,0,0,1,6.28,2,9.25,9.25,0,0,1,3,10.23,8.1,8.1,0,0,1-2.3,3.32,7.77,7.77,0,0,1-7.54,1.51A6.43,6.43,0,0,1,207.54,55a5.21,5.21,0,0,1,3.6-5.25,4.82,4.82,0,0,1,3.05,0,4.22,4.22,0,0,1,2.16,1.81,4,4,0,0,1,.53,2.5,3.23,3.23,0,0,1-1,2,3.15,3.15,0,0,1-3.44.63A2.55,2.55,0,0,1,211,55,1.84,1.84,0,0,1,211,54.19Z" style="fill:#263238"></path><path d="M80.35,121.07l1,1.86a4.76,4.76,0,0,0,1.88,1.87l1.85,1-1.85,1a4.76,4.76,0,0,0-1.88,1.87l-1,1.86-1-1.86a4.76,4.76,0,0,0-1.88-1.87l-1.85-1,1.85-1a4.76,4.76,0,0,0,1.88-1.87Z" style="fill:#FF725E"></path><path d="M328.4,168.09l1.18,2.17a5.62,5.62,0,0,0,2.19,2.19l2.17,1.19-2.17,1.18a5.62,5.62,0,0,0-2.19,2.19l-1.18,2.17L327.21,177a5.62,5.62,0,0,0-2.19-2.19l-2.17-1.18,2.17-1.19a5.62,5.62,0,0,0,2.19-2.19Z" style="fill:#FF725E"></path><path d="M117.21,189.87l1.18,2.16a5.58,5.58,0,0,0,2.19,2.2l2.17,1.18-2.17,1.19a5.62,5.62,0,0,0-2.19,2.19L117.21,201,116,198.79a5.62,5.62,0,0,0-2.19-2.19l-2.17-1.19,2.17-1.18A5.58,5.58,0,0,0,116,192Z" style="fill:#FF725E"></path><path d="M339.38,78.17l.74,1.36a3.43,3.43,0,0,0,1.38,1.37l1.36.75-1.36.74a3.52,3.52,0,0,0-1.38,1.38l-.74,1.36-.74-1.36a3.52,3.52,0,0,0-1.38-1.38l-1.36-.74,1.36-.75a3.43,3.43,0,0,0,1.38-1.37Z" style="fill:#FF725E"></path><path d="M243.25,35l.74,1.36a3.41,3.41,0,0,0,1.37,1.37l1.36.75-1.36.74A3.5,3.5,0,0,0,244,40.63L243.25,42l-.75-1.36a3.43,3.43,0,0,0-1.37-1.38l-1.36-.74,1.36-.75a3.35,3.35,0,0,0,1.37-1.37Z" style="fill:#FF725E"></path><path d="M168.31,51.8l1.24,2.28a5.78,5.78,0,0,0,2.3,2.3l2.28,1.25-2.28,1.24a5.81,5.81,0,0,0-2.3,2.31l-1.24,2.27-1.25-2.27a5.81,5.81,0,0,0-2.3-2.31l-2.28-1.24,2.28-1.25a5.78,5.78,0,0,0,2.3-2.3Z" style="fill:#FF725E"></path><path d="M88.59,189a7.64,7.64,0,0,0-.23-.74,2.49,2.49,0,0,0-1.58-1.4,2.92,2.92,0,0,0-3,1.07,3.37,3.37,0,0,0,.18,4.16,3.84,3.84,0,0,0,2.18,1.34,4.41,4.41,0,0,0,2.76-.4,4.75,4.75,0,0,0,2.57-5.21,6,6,0,0,0-4.54-4.74,7.28,7.28,0,0,0-6.77,2.35,7.65,7.65,0,0,0-1.72,3.36,8.35,8.35,0,0,0,.08,3.69,8.48,8.48,0,0,0,4,5.52,9.66,9.66,0,0,0,6.19,1.1,10,10,0,0,0,5.1-2.13,9.52,9.52,0,0,0,2.73-3.68,11,11,0,0,0,.86-3.4,27.71,27.71,0,0,0,0-3,10.62,10.62,0,0,1,.16,3,10.84,10.84,0,0,1-.79,3.5,9.66,9.66,0,0,1-2.76,3.85,10.31,10.31,0,0,1-5.28,2.28,10.2,10.2,0,0,1-6.49-1.11A9,9,0,0,1,78,192.56a8.88,8.88,0,0,1-.09-3.91,8.11,8.11,0,0,1,1.84-3.59A7.76,7.76,0,0,1,87,182.55a6.43,6.43,0,0,1,4.9,5.15,5.2,5.2,0,0,1-2.86,5.69,4.79,4.79,0,0,1-3,.4,4.2,4.2,0,0,1-2.38-1.5,4.08,4.08,0,0,1-.86-2.41,3.29,3.29,0,0,1,.74-2.16,3.14,3.14,0,0,1,3.32-1.08,2.55,2.55,0,0,1,1.62,1.55A1.87,1.87,0,0,1,88.59,189Z" style="fill:#263238"></path><path d="M284.61,204.78c1.13-13.5,2.18-27.1,1-40.6s-4.81-27-12.31-38.31c-1.14-1.71-10-12.9-12-12.23-1.39.47,5,11.35,4.6,12.75-4.1,13.41-2.63,28,1.66,41.37s10,24.91,17.06,37" style="fill:#263238"></path><path d="M209.26,104.54l-3,.88a60.78,60.78,0,0,0-42.48,70.64c6,28.86,12.93,60.66,17.54,75.73,9.54,31.2,40.5,27.06,40.5,27.06s.35,11.63.35,11.63l29.53,33.46,51-35.29L274.07,154.13C267.37,120.8,242.39,96.92,209.26,104.54Z" style="fill:#ffbf9d"></path><path d="M221.8,278.85a80.67,80.67,0,0,0,39-24.11s-1.07,26.78-38.76,32.61Z" style="fill:#ff9a6c"></path><path d="M174.46,187.94c.72.42,3.38-3.08,8.2-4.47s9,0,9.39-.76c.18-.34-.69-1.22-2.56-1.89a12.7,12.7,0,0,0-7.73-.12,12.36,12.36,0,0,0-6.31,4.29C174.3,186.56,174.11,187.76,174.46,187.94Z" style="fill:#263238"></path><path d="M222,175.27c.73.42,3.39-3.08,8.2-4.47s9,0,9.39-.76c.18-.34-.68-1.23-2.55-1.9a12.79,12.79,0,0,0-7.73-.11,12.23,12.23,0,0,0-6.32,4.29C221.8,173.88,221.61,175.09,222,175.27Z" style="fill:#263238"></path><path d="M215.5,217.29c-.06-.28-3.2.07-8.23.87-1.26.23-2.5.33-3-.45s-.42-2.28-.24-3.88q.42-5,.89-10.42c1.16-14.8,1.61-26.82,1-26.86s-2,11.92-3.16,26.72c-.26,3.64-.5,7.11-.73,10.43-.06,1.53-.4,3.35.77,5a3.18,3.18,0,0,0,2.54,1.21,8.82,8.82,0,0,0,2.18-.32C212.53,218.43,215.56,217.56,215.5,217.29Z" style="fill:#263238"></path><path d="M242,156.86c-.39-1.4-5.43-1.11-11.24-2.25s-10.45-3.07-11.31-1.91c-.39.56.34,1.89,2.16,3.35a19.9,19.9,0,0,0,17.18,3.17C241,158.51,242.17,157.52,242,156.86Z" style="fill:#263238"></path><path d="M170.1,173.86c1.31.82,4.93-1.41,9.65-2.77s8.94-1.68,9.54-3.08c.25-.67-.68-1.59-2.72-2.15a15.71,15.71,0,0,0-8.36.38,15.48,15.48,0,0,0-7.1,4.33C169.75,172.16,169.51,173.44,170.1,173.86Z" style="fill:#263238"></path><path d="M278.29,178.06c.47-.38,19.66-12.65,25.23,9s-19.15,24-19.34,23.39S278.29,178.06,278.29,178.06Z" style="fill:#ffbf9d"></path><path d="M290.55,199.26c.07-.09.44.17,1.15.3a3.93,3.93,0,0,0,2.83-.67c2.07-1.43,3.05-5.55,2.15-9.47a12.73,12.73,0,0,0-2.44-5.11c-1.07-1.41-2.38-2.26-3.58-2.16a2,2,0,0,0-2,1.6c-.14.68.11,1.08,0,1.14s-.56-.24-.62-1.18a2.49,2.49,0,0,1,.5-1.57,3,3,0,0,1,1.94-1.09c1.7-.31,3.6.83,4.8,2.34a13.22,13.22,0,0,1,2.86,5.68c1,4.39-.19,9-3.08,10.75a4.17,4.17,0,0,1-3.59.32C290.72,199.78,290.48,199.32,290.55,199.26Z" style="fill:#ff9a6c"></path><path d="M168.85,136.7c-4-1.06,3.71-15,11.35-21.07,11.55-9.14,30.52-17.72,43.37-17.3,15.47.5,29.26,4.71,39.79,16.06s17.06,26,20.37,41.11c1,4.61,1.72,9.5.23,14-1.83,5.54-6.88,10-5,16.53a9.34,9.34,0,0,1-.6,7.17c-2.92,5.2-8.75,2.45-12-1-6.87-7.3-9.92-17.29-12.75-26.9-2-6.84-4-13.82-3.75-20.94.16-3.87,1-7.7,1-11.58s-1.2-8-4.22-10.43a13.88,13.88,0,0,0-2.2-1.34,23.28,23.28,0,0,0-23.47,1.3c-11.12,7.35-30.34,19-36.81,16.18-9.31-4-12.14-7.42-12.14-7.42Z" style="fill:#263238"></path><path d="M225.82,233.45c.74.22,1.93-4.76,7-7.29s10.29-.73,10.49-1.41c.14-.3-1-1.25-3.18-1.84a12.77,12.77,0,0,0-8.69.89,11.17,11.17,0,0,0-5.58,6.19C225.21,232,225.47,233.4,225.82,233.45Z" style="fill:#263238"></path><path d="M192,196.56c-.07,0-.08-.35-.44-.84a1.84,1.84,0,0,0-2.23-.55,2.12,2.12,0,0,0-1.18,1.22,2.39,2.39,0,0,0,.2,2,2.62,2.62,0,0,0,1.86,1.3,3.21,3.21,0,0,0,2.47-.72,3.28,3.28,0,0,0,1.18-2.55,4.16,4.16,0,0,0-4.33-4.06,5.3,5.3,0,0,0-5,4.83,6.65,6.65,0,0,0,1,3.92,6.1,6.1,0,0,0,3.32,2.49,7.72,7.72,0,0,0,4.39-.05,7.51,7.51,0,0,0,2-.95,7.26,7.26,0,0,0,1.55-1.53,8.12,8.12,0,0,0,1-1.92,9.78,9.78,0,0,0,.41-2.13,8.54,8.54,0,0,0-.67-4.14A7.76,7.76,0,0,0,195,189.8a9.64,9.64,0,0,0-7.27-1.44,8.71,8.71,0,0,0-5.46,3.51,10,10,0,0,0-1.81,5.21,10.31,10.31,0,0,0,.62,4.2,10.17,10.17,0,0,0,.62,1.45,8.41,8.41,0,0,0,.56,1c.33.54.48.85.44.88s-.28-.21-.7-.7a6.45,6.45,0,0,1-.7-1,8.44,8.44,0,0,1-.78-1.45,10.44,10.44,0,0,1-.93-4.46,10.82,10.82,0,0,1,1.77-5.81,10.23,10.23,0,0,1,2.52-2.57,4,4,0,0,1,.81-.52c.28-.15.56-.32.86-.46a10.21,10.21,0,0,1,1.92-.6,10.9,10.9,0,0,1,8.36,1.53,9.23,9.23,0,0,1,3.08,3.62,10.67,10.67,0,0,1,.36,7.38A9.57,9.57,0,0,1,198,202a8.83,8.83,0,0,1-1.91,1.9,9.05,9.05,0,0,1-2.45,1.17,9.2,9.2,0,0,1-5.3,0,7.6,7.6,0,0,1-4.15-3.15,8,8,0,0,1-1.18-4.88,6.68,6.68,0,0,1,6.43-6.06,5.43,5.43,0,0,1,5.59,5.44,4.42,4.42,0,0,1-1.7,3.4,4.2,4.2,0,0,1-3.34.84,3.54,3.54,0,0,1-2.45-1.88,3.14,3.14,0,0,1-.12-2.67,2.75,2.75,0,0,1,1.66-1.5,2.37,2.37,0,0,1,1.77.07,2.09,2.09,0,0,1,.94.89C192.14,196.19,192,196.57,192,196.56Z" style="fill:#263238"></path><path d="M235.66,185.61c-.07,0-.09-.35-.44-.84a1.83,1.83,0,0,0-2.23-.55,2.12,2.12,0,0,0-1.18,1.22,2.35,2.35,0,0,0,.2,2,2.62,2.62,0,0,0,1.86,1.3,3.18,3.18,0,0,0,2.47-.73,3.24,3.24,0,0,0,1.18-2.54,4.16,4.16,0,0,0-4.33-4.06,5.28,5.28,0,0,0-5,4.83,6.65,6.65,0,0,0,1,3.92,6.1,6.1,0,0,0,3.32,2.49,7.72,7.72,0,0,0,4.39,0,7.51,7.51,0,0,0,2-1,7.26,7.26,0,0,0,1.55-1.53,7.8,7.8,0,0,0,1-1.93,8.55,8.55,0,0,0,.41-2.12,8.43,8.43,0,0,0-.66-4.14,7.76,7.76,0,0,0-2.55-3.06,9.64,9.64,0,0,0-7.27-1.44,8.71,8.71,0,0,0-5.46,3.51,10,10,0,0,0-1.81,5.21,10.31,10.31,0,0,0,.62,4.2,10.69,10.69,0,0,0,.62,1.45,7.53,7.53,0,0,0,.56,1c.33.55.48.86.44.89s-.28-.21-.7-.71a5.32,5.32,0,0,1-.7-1,8.19,8.19,0,0,1-.78-1.46,10.21,10.21,0,0,1-.93-4.45,10.74,10.74,0,0,1,1.77-5.81,10.23,10.23,0,0,1,2.52-2.57,4,4,0,0,1,.81-.52c.28-.15.56-.32.86-.46a10.21,10.21,0,0,1,1.92-.6,10.9,10.9,0,0,1,8.36,1.53,9.16,9.16,0,0,1,3.08,3.62,10.64,10.64,0,0,1,.36,7.37A9.45,9.45,0,0,1,241.7,191a8.56,8.56,0,0,1-1.91,1.89,8.79,8.79,0,0,1-2.45,1.18,9.28,9.28,0,0,1-5.3,0,7.6,7.6,0,0,1-4.15-3.15,8.08,8.08,0,0,1-1.19-4.88,6.77,6.77,0,0,1,2.17-4.33,6.65,6.65,0,0,1,4.27-1.73,5.42,5.42,0,0,1,5.59,5.44,4.42,4.42,0,0,1-1.7,3.4,4.2,4.2,0,0,1-3.34.84,3.54,3.54,0,0,1-2.45-1.88,3.14,3.14,0,0,1-.12-2.67,2.77,2.77,0,0,1,1.66-1.51,2.41,2.41,0,0,1,1.77.08,2.13,2.13,0,0,1,.94.88C235.8,185.23,235.69,185.62,235.66,185.61Z" style="fill:#263238"></path><path d="M223.35,135.61a16.9,16.9,0,0,0,1.89-.24,4.84,4.84,0,0,0,3.12-7.1,12.61,12.61,0,0,0-1.11-1.55s.76.3,1.43,1.37a5,5,0,0,1-3.36,7.64A3,3,0,0,1,223.35,135.61Z" style="fill:#263238"></path><path d="M242.27,129.19a3.71,3.71,0,0,1-1.66,1.5,6.79,6.79,0,0,1-5.35.38,8.11,8.11,0,0,1-4.13-3.44,5,5,0,0,1-.84-2.07c.09,0,.38.77,1.15,1.86a8.41,8.41,0,0,0,4,3.16,6.92,6.92,0,0,0,5-.22A15.1,15.1,0,0,0,242.27,129.19Z" style="fill:#263238"></path><path d="M235.75,143.32c-.08,0-.35-.69-1.08-1.66a8.1,8.1,0,0,0-3.7-2.74,8.2,8.2,0,0,0-4.61-.2c-1.17.29-1.83.69-1.88.61a4.08,4.08,0,0,1,1.78-1,7.58,7.58,0,0,1,8.71,3.08A3.93,3.93,0,0,1,235.75,143.32Z" style="fill:#263238"></path><path d="M238.27,141.88a2.85,2.85,0,0,1-1-1.53,5.24,5.24,0,0,1,3.82-7,3,3,0,0,1,1.83,0c0,.09-.7,0-1.74.33a5.2,5.2,0,0,0-3.56,6.56C237.9,141.28,238.34,141.82,238.27,141.88Z" style="fill:#263238"></path><path d="M118.5,233.84s25.4-51.5,27.14-53.57,11-23.61,11-23.61l12.94-15.46s6.07.91,2.21,8.76l-5.49,10.46,20.17-20.24s6,.69,3.65,7c-1.73,4.72-7.89,12-7.89,12l18.1-15.72s7.53,1.17,3.92,9.07c-2.35,5.13-23.45,28.45-23.45,28.45s10.53-6.5,13.85-8.66,6.76-6.85,9.22-6.41,6.74,4.25.34,11.51-24.38,18.83-27,20.26l-2.62,1.44s-3.12,8.07-7.51,12c0,0-7.22,22.88-10.86,29.18a31.33,31.33,0,0,1-10.45,10.48l-11.11,30L102.92,258.9Z" style="fill:#ffbf9d"></path><path d="M118.5,233.84s-.33.57-1,1.67l-3,4.86L103,259l0-.16,31.76,21.86-.27.09c3.32-9,7.06-19.14,11.08-30a.16.16,0,0,1,.08-.1h0a32.13,32.13,0,0,0,8-7,24.41,24.41,0,0,0,3-4.64c.82-1.69,1.57-3.44,2.27-5.23,2.83-7.17,5.37-14.79,7.9-22.67a.26.26,0,0,1,.07-.11,24,24,0,0,0,4.22-5.38,47.93,47.93,0,0,0,3.22-6.5.22.22,0,0,1,.11-.12c1.33-.75,2.69-1.44,4-2.25s2.6-1.65,3.9-2.5q3.9-2.57,7.77-5.34c2.58-1.85,5.15-3.77,7.66-5.81a47.52,47.52,0,0,0,7-6.73,12,12,0,0,0,2.28-4.25,4.69,4.69,0,0,0-.89-4.46,4.63,4.63,0,0,0-2-1.3,2.63,2.63,0,0,0-2.21.36,25.56,25.56,0,0,0-3.88,3.16,24.58,24.58,0,0,1-4,3.18l-4.36,2.73-8.8,5.5a.26.26,0,0,1-.33-.39l4.87-5.46c4.66-5.29,9.25-10.57,13.57-16,1.07-1.34,2.12-2.7,3.13-4.08a15.33,15.33,0,0,0,2.41-4.41,5.67,5.67,0,0,0-.3-4.71,6.09,6.09,0,0,0-4-2.48l.21-.06-18.11,15.71a.25.25,0,0,1-.35-.35,64.78,64.78,0,0,0,6.87-9.82,13.84,13.84,0,0,0,1.14-2.67,5.94,5.94,0,0,0,.28-2.79,3.6,3.6,0,0,0-1.36-2.31,5.57,5.57,0,0,0-2.53-1.06l.2-.07-20.18,20.23a.22.22,0,0,1-.32,0,.21.21,0,0,1,0-.26q2.74-5.22,5.36-10.2a16.55,16.55,0,0,0,1-2.56,12,12,0,0,0,.3-1.32,6.57,6.57,0,0,0,0-1.33,3.65,3.65,0,0,0-1-2.31,4.35,4.35,0,0,0-2.23-1.19l.19-.07-12.95,15.45,0,0c-2.63,6.08-5.18,11.86-7.72,17.28-.64,1.35-1.27,2.68-1.94,4-.33.65-.67,1.28-1,1.9a18.82,18.82,0,0,0-1.12,1.8c-1.37,2.46-2.61,4.89-3.83,7.23-4.83,9.39-8.9,17.54-12.24,24.2l-7.69,15.36-2,4c-.45.9-.7,1.35-.7,1.35s.21-.47.65-1.38l2-4L128.7,213c3.31-6.68,7.36-14.84,12.16-24.24,1.21-2.35,2.44-4.78,3.81-7.25.33-.61.76-1.27,1.13-1.82s.71-1.24,1-1.88c.66-1.29,1.29-2.62,1.93-4,2.52-5.42,5.06-11.2,7.68-17.29l0,0,12.92-15.48h0a.2.2,0,0,1,.19-.07,4.82,4.82,0,0,1,2.48,1.3,4.12,4.12,0,0,1,1.16,2.58,6.84,6.84,0,0,1,0,1.43,12.55,12.55,0,0,1-.31,1.38,16.73,16.73,0,0,1-1.06,2.64q-2.62,5-5.36,10.21l-.36-.27L186.28,140h0a.25.25,0,0,1,.2-.06,6,6,0,0,1,2.77,1.16,4.1,4.1,0,0,1,1.55,2.6,6.43,6.43,0,0,1-.3,3,14.07,14.07,0,0,1-1.18,2.76,64.12,64.12,0,0,1-6.92,9.91L182,159l18.1-15.72h0a.25.25,0,0,1,.2-.06,7.83,7.83,0,0,1,2.44.92,5.26,5.26,0,0,1,1.92,1.8,6.15,6.15,0,0,1,.35,5.13A12.39,12.39,0,0,1,204,153.5c-.44.76-.94,1.46-1.43,2.17-1,1.39-2.07,2.76-3.15,4.11-4.33,5.39-8.92,10.67-13.58,16L181,181.21l-.33-.4,8.8-5.5c2.89-1.88,5.95-3.43,8.34-5.85a25.53,25.53,0,0,1,4-3.23,4.34,4.34,0,0,1,1.24-.49,2.64,2.64,0,0,1,1.37.09,5.08,5.08,0,0,1,2.19,1.45,5.2,5.2,0,0,1,1,4.93,12.5,12.5,0,0,1-2.38,4.43,47.52,47.52,0,0,1-7.1,6.81c-2.52,2.05-5.1,4-7.68,5.83s-5.19,3.63-7.8,5.34q-2,1.29-3.92,2.5c-1.31.83-2.68,1.52-4,2.26l.11-.12a47.27,47.27,0,0,1-3.26,6.57,24.27,24.27,0,0,1-4.32,5.49l.07-.11c-2.54,7.89-5.09,15.51-7.93,22.69-.71,1.8-1.46,3.56-2.29,5.26a24.23,24.23,0,0,1-3.07,4.72,32.36,32.36,0,0,1-8.13,7.11l.09-.11-11.14,30a.18.18,0,0,1-.23.11l0,0-31.69-22a.13.13,0,0,1,0-.17c5-8,8.93-14.27,11.6-18.52l3-4.83C118.14,234.39,118.5,233.84,118.5,233.84Z" style="fill:#ff9a6c"></path><path d="M185.13,155.93a13.37,13.37,0,0,1-1.11,1.4c-.74.89-1.84,2.15-3.22,3.68-2.76,3.06-6.66,7.22-11.25,11.52a124.61,124.61,0,0,1-10.16,8.63l0,0h0a20.74,20.74,0,0,0-6.14,2.89c-1.35.93-2,1.57-2.06,1.53s.14-.19.45-.5a16.8,16.8,0,0,1,1.47-1.23,19.69,19.69,0,0,1,6.17-3.1l-.07,0c2.92-2.28,6.42-5.27,10.05-8.68,4.58-4.29,8.52-8.4,11.34-11.39l3.34-3.56A10.24,10.24,0,0,1,185.13,155.93Z" style="fill:#ff9a6c"></path><path d="M167.27,159.2a16,16,0,0,1-1.9,2.39c-1.23,1.42-3,3.35-5,5.43l-5.11,5.28a19.61,19.61,0,0,1-2.19,2.13,16.22,16.22,0,0,1,1.92-2.38c1.24-1.41,3-3.32,5-5.39l5.08-5.32A19.31,19.31,0,0,1,167.27,159.2Z" style="fill:#ff9a6c"></path><path d="M159.54,191.3a90,90,0,0,0,21.72-10.56" style="fill:#ffbf9d"></path><path d="M181.26,180.74a3.63,3.63,0,0,1-.74.6c-.5.37-1.23.87-2.16,1.46a74.59,74.59,0,0,1-7.49,4.18A76.33,76.33,0,0,1,163,190.3c-1,.36-1.88.63-2.47.79a3,3,0,0,1-.94.21,34.1,34.1,0,0,1,3.29-1.35c2-.81,4.81-2,7.81-3.43s5.64-2.93,7.53-4A28.35,28.35,0,0,1,181.26,180.74Z" style="fill:#ff9a6c"></path><path d="M115.16,237.74c-1.11,1.48-34,51-34,51s-31.08,48.41-35.61,62c-6.63,19.88-8.11,54.36,13.33,63.6s28.83,9.54,54.71-.44a179.09,179.09,0,0,0,44.74-25.58l-5.08-90.09L132.37,309l18-48.22Z" style="fill:#FF725E"></path><path d="M391.56,314.46s16.71,13.37,22.76,58.92c3.82,28.75,14.65,98.91,14.65,98.91H365.78s-12.66-90.24-11.36-91.6S391.56,314.46,391.56,314.46Z" style="fill:#FF725E"></path><path d="M153.24,298.28,221.61,284s5.33,28.32,41.09,22.15c36.78-6.34,37.23-31.62,37.23-31.62s61.35,21.06,73.23,26.37a53,53,0,0,1,18.4,13.54s-21.8,84.59-22.48,85.65-1.35,72.62-3.05,72.27-203.54-1.08-203.54-1.08l-6.14-84.77-21-72.85Z" style="fill:#FF725E"></path><path d="M141.69,285.05a5,5,0,0,1-.28.83l-.91,2.36c-.78,2.06-1.93,5-3.27,8.71-2.71,7.36-6.2,17.63-9.94,29-1.85,5.71-3.83,11.06-4.94,16.13-.61,2.52-1.16,4.92-1.79,7.15a58.5,58.5,0,0,1-2.08,6.1c-.72,1.82-1.31,3.49-1.81,5a33.52,33.52,0,0,1-1.53,3.71c-.47,1-.86,1.75-1.13,2.26a5.6,5.6,0,0,1-.43.77,4.64,4.64,0,0,1,.34-.81c.25-.57.6-1.34,1-2.31a34,34,0,0,0,1.43-3.71c.47-1.49,1-3.18,1.75-5A89,89,0,0,0,121.88,342c1.09-5.09,3.07-10.48,4.91-16.17,3.75-11.38,7.29-21.64,10.09-29,1.39-3.68,2.59-6.62,3.43-8.65l1-2.33A4.84,4.84,0,0,1,141.69,285.05Z" style="fill:#263238"></path><path d="M158.88,421.38a2.77,2.77,0,0,1-.08-.59c0-.42-.09-1-.16-1.71-.12-1.53-.29-3.71-.51-6.43-.4-5.55-1-13.34-1.63-22.46v0c-1.26-5.67-2.72-11.88-4.46-18.34-3.56-13.38-7.77-25.23-11.78-33.36a74,74,0,0,0-5.34-9.3c-.73-1-1.36-1.79-1.75-2.34l-.44-.61c-.1-.14-.15-.21-.14-.22l.18.19.49.58c.41.52,1.07,1.26,1.82,2.29a66.59,66.59,0,0,1,5.51,9.25c4.11,8.12,8.39,20,12,33.39,1.74,6.46,3.2,12.69,4.43,18.37v0h0c.59,9.14,1.09,16.93,1.45,22.48.15,2.73.28,4.9.37,6.44,0,.72.06,1.29.08,1.72A4.38,4.38,0,0,1,158.88,421.38Z" style="fill:#263238"></path><path d="M365.78,472.29a1.39,1.39,0,0,1,0-.33c0-.24,0-.56,0-1,0-.88,0-2.13,0-3.72,0-3.27,0-7.94,0-13.69.1-11.6.23-27.57.37-45.22v0h0l0-.28c2.37-17.56,4.52-33.46,6.08-45,.8-5.73,1.45-10.38,1.9-13.63.23-1.58.41-2.82.54-3.7.07-.4.12-.72.16-1a1.12,1.12,0,0,1,.07-.33,1.63,1.63,0,0,1,0,.33c0,.25-.06.57-.1,1-.11.88-.26,2.13-.45,3.72-.41,3.25-1,7.91-1.74,13.65l-5.92,45,0,.28v0c-.2,17.66-.39,33.62-.52,45.22-.1,5.76-.17,10.43-.22,13.69,0,1.59-.07,2.84-.09,3.72,0,.41,0,.73,0,1A1.39,1.39,0,0,1,365.78,472.29Z" style="fill:#263238"></path><path d="M220.11,305.58a14.82,14.82,0,0,1,7.28-8.84,45.13,45.13,0,0,0-4.13,4A44.12,44.12,0,0,0,220.11,305.58Z" style="fill:#263238"></path><path d="M230.41,312.08a11.41,11.41,0,0,1,4.36-9.4,18.88,18.88,0,0,0-4.36,9.4Z" style="fill:#263238"></path><path d="M243.94,317.79a62.83,62.83,0,0,1,0-11.42,62.83,62.83,0,0,1,0,11.42Z" style="fill:#263238"></path><path d="M260.37,317.2a13.69,13.69,0,0,1-2.47-4.86A13.53,13.53,0,0,1,257,307c.16,0,.43,2.39,1.36,5.21S260.51,317.12,260.37,317.2Z" style="fill:#263238"></path><path d="M276.84,315.08a75.11,75.11,0,0,1-5.11-11.38,76.31,76.31,0,0,1,5.11,11.38Z" style="fill:#263238"></path><path d="M292.87,308c-.13.08-1.64-2.3-3.86-4.94s-4.27-4.57-4.17-4.68a27.59,27.59,0,0,1,8,9.62Z" style="fill:#263238"></path><path d="M305,298.12c-.12.11-2.23-2.16-5.34-4.33s-5.94-3.41-5.88-3.56a6.6,6.6,0,0,1,1.92.69,26.11,26.11,0,0,1,4.26,2.45,26.54,26.54,0,0,1,3.75,3.18A6.62,6.62,0,0,1,305,298.12Z" style="fill:#263238"></path><path d="M311.68,285.94a26.17,26.17,0,0,0-6.29-3.56,27.25,27.25,0,0,0-7.14-1.21,6.48,6.48,0,0,1,2.16-.21,15.89,15.89,0,0,1,5.15.93,16.27,16.27,0,0,1,4.59,2.52A6,6,0,0,1,311.68,285.94Z" style="fill:#263238"></path><path d="M212.16,295.37a16.45,16.45,0,0,1,5.12-3.38,16.66,16.66,0,0,1,5.89-1.76c0,.16-2.63.8-5.67,2.23S212.25,295.5,212.16,295.37Z" style="fill:#263238"></path><path d="M202.11,457.71s.09-.06.28-.16l.84-.42,3.28-1.58,12.07-5.75c10.19-4.88,24.21-11.71,39.58-19.5s29.16-15.07,39.11-20.41l11.78-6.34,3.21-1.71.84-.44.29-.13s-.09.07-.27.18l-.81.48-3.16,1.8c-2.75,1.56-6.75,3.77-11.7,6.48-9.91,5.42-23.68,12.76-39.06,20.56S229,445.34,218.74,450.13c-5.11,2.4-9.26,4.31-12.14,5.61l-3.32,1.48-.87.38A1.61,1.61,0,0,1,202.11,457.71Z" style="fill:#263238"></path></g></svg>
