<svg xmlns="http://www.w3.org/2000/svg" viewBox="0 0 500 500"><g id="freepik--background-complete--inject-27"><rect y="382.4" width="500" height="0.25" style="fill:#ebebeb"></rect><rect x="416.78" y="398.49" width="33.12" height="0.25" style="fill:#ebebeb"></rect><rect x="322.53" y="401.21" width="8.69" height="0.25" style="fill:#ebebeb"></rect><rect x="396.59" y="389.21" width="19.19" height="0.25" style="fill:#ebebeb"></rect><rect x="52.46" y="390.89" width="43.19" height="0.25" style="fill:#ebebeb"></rect><rect x="104.56" y="390.89" width="6.33" height="0.25" style="fill:#ebebeb"></rect><rect x="131.47" y="395.11" width="93.68" height="0.25" style="fill:#ebebeb"></rect><path d="M237,337.8H43.91a5.71,5.71,0,0,1-5.7-5.71V60.66A5.71,5.71,0,0,1,43.91,55H237a5.71,5.71,0,0,1,5.71,5.71V332.09A5.71,5.71,0,0,1,237,337.8ZM43.91,55.2a5.46,5.46,0,0,0-5.45,5.46V332.09a5.46,5.46,0,0,0,5.45,5.46H237a5.47,5.47,0,0,0,5.46-5.46V60.66A5.47,5.47,0,0,0,237,55.2Z" style="fill:#ebebeb"></path><path d="M453.31,337.8H260.21a5.72,5.72,0,0,1-5.71-5.71V60.66A5.72,5.72,0,0,1,260.21,55h193.1A5.71,5.71,0,0,1,459,60.66V332.09A5.71,5.71,0,0,1,453.31,337.8ZM260.21,55.2a5.47,5.47,0,0,0-5.46,5.46V332.09a5.47,5.47,0,0,0,5.46,5.46h193.1a5.47,5.47,0,0,0,5.46-5.46V60.66a5.47,5.47,0,0,0-5.46-5.46Z" style="fill:#ebebeb"></path><rect x="284.91" y="134.4" width="72.31" height="60.03" style="fill:#e6e6e6"></rect><rect x="293.05" y="130.26" width="56.03" height="68.31" transform="translate(485.48 -156.64) rotate(90)" style="fill:#f0f0f0"></rect><rect x="310.43" y="148.41" width="21.26" height="8.51" style="fill:#fafafa"></rect><polygon points="335.04 163.08 333.04 173.89 309.09 173.89 307.09 163.08 309.56 163.08 311.09 171.35 331.04 171.35 332.57 163.08 335.04 163.08" style="fill:#e6e6e6"></polygon><rect x="313.41" y="162.36" width="15.31" height="3.36" style="fill:#e6e6e6"></rect><rect x="359.59" y="134.4" width="72.31" height="60.03" style="fill:#e6e6e6"></rect><rect x="367.73" y="130.26" width="56.03" height="68.31" transform="translate(560.17 -231.33) rotate(90)" style="fill:#f0f0f0"></rect><rect x="385.12" y="148.41" width="21.26" height="8.51" style="fill:#fafafa"></rect><polygon points="409.72 163.08 407.72 173.89 383.77 173.89 381.77 163.08 384.24 163.08 385.77 171.35 405.72 171.35 407.25 163.08 409.72 163.08" style="fill:#e6e6e6"></polygon><rect x="388.09" y="162.36" width="15.31" height="3.36" style="fill:#e6e6e6"></rect><rect x="284.91" y="71.88" width="72.31" height="60.03" style="fill:#e6e6e6"></rect><rect x="293.05" y="67.74" width="56.03" height="68.31" transform="translate(422.96 -219.17) rotate(90)" style="fill:#f0f0f0"></rect><rect x="310.43" y="85.89" width="21.26" height="8.51" style="fill:#fafafa"></rect><polygon points="335.04 100.56 333.04 111.37 309.09 111.37 307.09 100.56 309.56 100.56 311.09 108.83 331.04 108.83 332.57 100.56 335.04 100.56" style="fill:#e6e6e6"></polygon><rect x="313.41" y="99.83" width="15.31" height="3.36" style="fill:#e6e6e6"></rect><rect x="359.59" y="71.88" width="72.31" height="60.03" style="fill:#e6e6e6"></rect><rect x="367.73" y="67.74" width="56.03" height="68.31" transform="translate(497.64 -293.85) rotate(90)" style="fill:#f0f0f0"></rect><rect x="385.12" y="85.89" width="21.26" height="8.51" style="fill:#fafafa"></rect><polygon points="409.72 100.56 407.72 111.37 383.77 111.37 381.77 100.56 384.24 100.56 385.77 108.83 405.72 108.83 407.25 100.56 409.72 100.56" style="fill:#e6e6e6"></polygon><rect x="388.09" y="99.83" width="15.31" height="3.36" style="fill:#e6e6e6"></rect><rect x="284.91" y="197.15" width="72.31" height="60.03" style="fill:#e6e6e6"></rect><rect x="293.05" y="193.01" width="56.03" height="68.31" transform="translate(548.23 -93.9) rotate(90)" style="fill:#f0f0f0"></rect><rect x="310.43" y="211.16" width="21.26" height="8.51" style="fill:#fafafa"></rect><polygon points="335.04 225.83 333.04 236.64 309.09 236.64 307.09 225.83 309.56 225.83 311.09 234.1 331.04 234.1 332.57 225.83 335.04 225.83" style="fill:#e6e6e6"></polygon><rect x="313.41" y="225.1" width="15.31" height="3.36" style="fill:#e6e6e6"></rect><rect x="359.59" y="197.15" width="72.31" height="60.03" style="fill:#e6e6e6"></rect><rect x="367.73" y="193.01" width="56.03" height="68.31" transform="translate(622.91 -168.58) rotate(90)" style="fill:#f0f0f0"></rect><rect x="385.12" y="211.16" width="21.26" height="8.51" style="fill:#fafafa"></rect><polygon points="409.72 225.83 407.72 236.64 383.77 236.64 381.77 225.83 384.24 225.83 385.77 234.1 405.72 234.1 407.25 225.83 409.72 225.83" style="fill:#e6e6e6"></polygon><rect x="388.09" y="225.1" width="15.31" height="3.36" style="fill:#e6e6e6"></rect><rect x="284.91" y="259.9" width="72.31" height="60.03" style="fill:#e6e6e6"></rect><rect x="293.05" y="255.75" width="56.03" height="68.31" transform="translate(610.97 -31.15) rotate(90)" style="fill:#f0f0f0"></rect><rect x="310.43" y="273.9" width="21.26" height="8.51" style="fill:#fafafa"></rect><polygon points="335.04 288.57 333.04 299.38 309.09 299.38 307.09 288.57 309.56 288.57 311.09 296.84 331.04 296.84 332.57 288.57 335.04 288.57" style="fill:#e6e6e6"></polygon><rect x="313.41" y="287.85" width="15.31" height="3.36" style="fill:#e6e6e6"></rect><rect x="359.59" y="259.9" width="72.31" height="60.03" style="fill:#e6e6e6"></rect><rect x="367.73" y="255.75" width="56.03" height="68.31" transform="translate(685.66 -105.84) rotate(90)" style="fill:#f0f0f0"></rect><rect x="385.12" y="273.9" width="21.26" height="8.51" style="fill:#fafafa"></rect><polygon points="409.72 288.57 407.72 299.38 383.77 299.38 381.77 288.57 384.24 288.57 385.77 296.84 405.72 296.84 407.25 288.57 409.72 288.57" style="fill:#e6e6e6"></polygon><rect x="388.09" y="287.85" width="15.31" height="3.36" style="fill:#e6e6e6"></rect><rect x="284.91" y="322.64" width="72.31" height="60.03" style="fill:#e6e6e6"></rect><rect x="293.05" y="318.5" width="56.03" height="68.31" transform="translate(673.72 31.59) rotate(90)" style="fill:#f0f0f0"></rect><rect x="310.43" y="336.65" width="21.26" height="8.51" style="fill:#fafafa"></rect><polygon points="335.04 351.32 333.04 362.13 309.09 362.13 307.09 351.32 309.56 351.32 311.09 359.59 331.04 359.59 332.57 351.32 335.04 351.32" style="fill:#e6e6e6"></polygon><rect x="313.41" y="350.59" width="15.31" height="3.36" style="fill:#e6e6e6"></rect><rect x="359.59" y="322.64" width="72.31" height="60.03" style="fill:#e6e6e6"></rect><rect x="367.73" y="318.5" width="56.03" height="68.31" transform="translate(748.41 -43.09) rotate(90)" style="fill:#f0f0f0"></rect><rect x="385.12" y="336.65" width="21.26" height="8.51" style="fill:#fafafa"></rect><polygon points="409.72 351.32 407.72 362.13 383.77 362.13 381.77 351.32 384.24 351.32 385.77 359.59 405.72 359.59 407.25 351.32 409.72 351.32" style="fill:#e6e6e6"></polygon><rect x="388.09" y="350.59" width="15.31" height="3.36" style="fill:#e6e6e6"></rect><path d="M111.84,246.46H94.91a6.28,6.28,0,0,0-6.27,6.27v2.09H92v-2.09a2.9,2.9,0,0,1,2.9-2.9h16.93a2.9,2.9,0,0,1,2.89,2.9v2.09h3.37v-2.09A6.27,6.27,0,0,0,111.84,246.46Z" style="fill:#e0e0e0"></path><path d="M131.89,257.23v23.31a2.39,2.39,0,0,1-2.4,2.4H84a2.4,2.4,0,0,1-2.4-2.39V257.22a2.41,2.41,0,0,1,2.4-2.4h45.51A2.4,2.4,0,0,1,131.89,257.23Z" style="fill:#e6e6e6"></path><path d="M125.48,257.23v23.31a2.4,2.4,0,0,1-2.4,2.4H77.57a2.39,2.39,0,0,1-2.4-2.39V257.22a2.4,2.4,0,0,1,2.4-2.4h45.51A2.41,2.41,0,0,1,125.48,257.23Z" style="fill:#f5f5f5"></path><path d="M198.77,281.27H196.3v-29.6a12.39,12.39,0,0,0-11.55-12.49A12.17,12.17,0,0,0,172,250.74a.6.6,0,0,1-.59.58h-1.27a.61.61,0,0,1-.61-.62,14.65,14.65,0,0,1,14.37-14c8.18-.14,14.88,6.83,14.88,15Z" style="fill:#f0f0f0"></path><rect x="251.74" y="284.5" width="17.57" height="97.33" style="fill:#e6e6e6"></rect><rect x="66.14" y="284.5" width="190.4" height="97.33" style="fill:#f5f5f5"></rect><polygon points="256.53 304.76 66.14 304.76 66.14 306.41 112.91 306.41 112.91 381.82 114.56 381.82 114.56 306.41 160.06 306.41 160.06 381.82 161.71 381.82 161.71 306.41 207.21 306.41 207.21 381.82 208.86 381.82 208.86 306.41 256.53 306.41 256.53 304.76" style="fill:#e0e0e0"></polygon><path d="M108.17,348h0a1.64,1.64,0,0,1-1.64-1.65V339a1.63,1.63,0,0,1,1.64-1.64h0a1.64,1.64,0,0,1,1.65,1.64v7.42A1.65,1.65,0,0,1,108.17,348Z" style="fill:#e6e6e6"></path><path d="M119.3,348h0a1.65,1.65,0,0,1-1.65-1.65V339a1.64,1.64,0,0,1,1.65-1.64h0A1.64,1.64,0,0,1,121,339v7.42A1.65,1.65,0,0,1,119.3,348Z" style="fill:#e6e6e6"></path><path d="M202.47,348h0a1.65,1.65,0,0,1-1.65-1.65V339a1.64,1.64,0,0,1,1.65-1.64h0a1.64,1.64,0,0,1,1.65,1.64v7.42A1.65,1.65,0,0,1,202.47,348Z" style="fill:#e6e6e6"></path><path d="M213.6,348h0a1.65,1.65,0,0,1-1.65-1.65V339a1.64,1.64,0,0,1,1.65-1.64h0a1.64,1.64,0,0,1,1.65,1.64v7.42A1.65,1.65,0,0,1,213.6,348Z" style="fill:#e6e6e6"></path><rect x="251.59" y="282.36" width="21.84" height="4.26" style="fill:#e0e0e0"></rect><rect x="62.02" y="282.36" width="196.16" height="4.26" style="fill:#ebebeb"></rect><path d="M221.5,282.85h-65a1.58,1.58,0,0,1-1.58-1.58h0a1.58,1.58,0,0,1,1.58-1.59h65a1.59,1.59,0,0,1,1.58,1.59h0A1.58,1.58,0,0,1,221.5,282.85Z" style="fill:#e6e6e6"></path><rect x="202.52" y="277.02" width="2.46" height="3.13" style="fill:#e0e0e0"></rect><polygon points="206.04 277.8 201.46 277.8 202.35 272.32 205.15 272.32 206.04 277.8" style="fill:#f0f0f0"></polygon><rect x="190.05" y="277.02" width="2.46" height="3.13" style="fill:#e0e0e0"></rect><polygon points="193.57 277.8 188.99 277.8 189.88 272.32 192.68 272.32 193.57 277.8" style="fill:#f0f0f0"></polygon><path d="M214.09,274.16h0a2.35,2.35,0,0,1-2.35-2.35V252.73h4.71v19.08A2.36,2.36,0,0,1,214.09,274.16Z" style="fill:#f5f5f5"></path><path d="M217,253.38h-5.73a1,1,0,0,1-1-1h0a1,1,0,0,1,1-1H217a1,1,0,0,1,1,1h0A1,1,0,0,1,217,253.38Z" style="fill:#f5f5f5"></path><path d="M224.31,274.16h0a2.35,2.35,0,0,1-2.35-2.35V252.73h4.7v19.08A2.35,2.35,0,0,1,224.31,274.16Z" style="fill:#f5f5f5"></path><path d="M227.17,253.38h-5.73a1,1,0,0,1-1-1h0a1,1,0,0,1,1-1h5.73a1,1,0,0,1,1,1h0A1,1,0,0,1,227.17,253.38Z" style="fill:#f5f5f5"></path><path d="M234.52,274.16h0a2.35,2.35,0,0,1-2.35-2.35V252.73h4.71v19.08A2.36,2.36,0,0,1,234.52,274.16Z" style="fill:#f5f5f5"></path><path d="M237.39,253.38h-5.73a1,1,0,0,1-1-1h0a1,1,0,0,1,1-1h5.73a1,1,0,0,1,1,1h0A1,1,0,0,1,237.39,253.38Z" style="fill:#f5f5f5"></path><path d="M244.74,274.16h0a2.36,2.36,0,0,1-2.36-2.35V252.73h4.71v19.08A2.35,2.35,0,0,1,244.74,274.16Z" style="fill:#f5f5f5"></path><path d="M247.6,253.38h-5.73a1,1,0,0,1-1-1h0a1,1,0,0,1,1-1h5.73a1,1,0,0,1,1,1h0A1,1,0,0,1,247.6,253.38Z" style="fill:#f5f5f5"></path><path d="M206.47,254.78v26.89h2.19V279h41.51v2.69h2.19V254.78Zm43.7,22H208.66V257h41.51V276.8Z" style="fill:#ebebeb"></path><rect x="48.04" y="102.25" width="104.7" height="82.41" transform="translate(243.85 43.06) rotate(90)" style="fill:#e6e6e6"></rect><rect x="61.06" y="92.98" width="78.66" height="100.95" transform="translate(200.78 286.91) rotate(180)" style="fill:#f0f0f0"></rect><path d="M81.33,140.31c3,3.37,3.81-3.33,3.81-3.33l8.71-14.8,1.9,15.2L89.2,184.49s-6,1.78-6.39,2.79,10.28,1.28,11.43,0-1.15-2.79-1.15-2.79l8.25-39,.13.62,8.12,38.33s-2.28,1.52-1.13,2.79,11.8,1,11.42,0-6.38-2.79-6.38-2.79L107,137.38l1.88-15.2,8.72,14.8s.76,6.7,3.81,3.33-2.29-6.41-2.29-6.41l-9.48-16.45-5.22-1.81-1.16-1.45s6.71-12-1.74-12.28h-.25c-8.44.24-1.74,12.28-1.74,12.28l-1.16,1.45-5.23,1.81L83.62,133.9S78.29,137,81.33,140.31Z" style="fill:#fafafa"></path><path d="M101.47,101.91v44.25l8.12,38.33s-2.28,1.52-1.13,2.79,11.8,1,11.42,0-6.38-2.79-6.38-2.79L107,137.38l1.88-15.2,8.72,14.8s.76,6.7,3.81,3.33-2.29-6.41-2.29-6.41l-9.48-16.45-5.22-1.81-1.16-1.45S109.92,102.15,101.47,101.91Z" style="fill:#e6e6e6"></path><rect x="73.19" y="104.73" width="10.89" height="4.24" transform="translate(157.27 213.71) rotate(180)" style="fill:#e6e6e6"></rect><rect x="69.5" y="123.81" width="10.89" height="4.24" transform="translate(149.89 251.87) rotate(180)" style="fill:#e6e6e6"></rect><rect x="121.21" y="143.85" width="10.89" height="4.24" transform="translate(253.3 291.94) rotate(180)" style="fill:#e6e6e6"></rect><rect x="116.86" y="104.57" width="10.89" height="4.24" transform="translate(244.6 213.39) rotate(180)" style="fill:#e6e6e6"></rect><rect x="73.19" y="150.89" width="10.89" height="4.24" transform="translate(157.27 306.02) rotate(180)" style="fill:#e6e6e6"></rect><rect x="118.22" y="167.12" width="10.89" height="4.24" transform="translate(247.33 338.49) rotate(180)" style="fill:#e6e6e6"></rect><rect x="67.75" y="171.37" width="10.89" height="4.24" transform="translate(146.38 346.98) rotate(180)" style="fill:#e6e6e6"></rect><rect x="136.83" y="104.15" width="105.7" height="79.59" transform="translate(45.73 333.62) rotate(-90)" style="fill:#e6e6e6"></rect><rect x="151.76" y="92.98" width="75.84" height="101.94" style="fill:#f0f0f0"></rect><path d="M164.1,170.41c1.08-4.4,4.63-7.62,8-10.43s7.21-5.59,10.05-9.13a14.22,14.22,0,0,0,3.25-11.34c-.68-4.4-2.75-8.44-4.58-12.45-2-4.46-4.43-9.51-3.35-14.53a.84.84,0,0,0-1.63-.37c-1.9,8.84,5,16.94,7.34,25,1.26,4.41.81,8.57-2,12.26s-6.54,6.26-10,9.15c-3.67,3.08-7.46,6.6-8.65,11.44a.84.84,0,0,0,1.63.37Z" style="fill:#e0e0e0"></path><path d="M178.57,173.74c1.9-8.84-5-16.94-7.34-25-1.26-4.41-.81-8.57,2-12.26s6.54-6.26,10-9.15c3.67-3.09,7.46-6.6,8.65-11.44a.84.84,0,0,0-1.63-.37c-1.08,4.4-4.63,7.62-8,10.43s-7.21,5.59-10.05,9.13A14.22,14.22,0,0,0,169,146.39c.68,4.4,2.75,8.44,4.58,12.45,2,4.45,4.43,9.51,3.35,14.53a.84.84,0,0,0,1.63.37Z" style="fill:#e0e0e0"></path><path d="M178.82,113.28l9.88,2.27a.42.42,0,0,0,.19-.81L179,112.47a.42.42,0,0,0-.18.81Z" style="fill:#e0e0e0"></path><path d="M178.42,117.26l8.89,2a.42.42,0,0,0,.19-.82l-8.89-2a.42.42,0,0,0-.19.82Z" style="fill:#e0e0e0"></path><path d="M179.51,121.58l4.94,1.14a.42.42,0,0,0,.18-.82l-4.94-1.13a.42.42,0,0,0-.18.81Z" style="fill:#e0e0e0"></path><path d="M178,133.45l2.57.59a.42.42,0,0,0,.19-.81l-2.57-.59a.42.42,0,0,0-.19.81Z" style="fill:#e0e0e0"></path><path d="M175.2,136.87l6.43,1.48a.42.42,0,0,0,.18-.81l-6.42-1.48a.42.42,0,0,0-.19.81Z" style="fill:#e0e0e0"></path><path d="M172.58,140.34l9.89,2.27a.42.42,0,0,0,.18-.81l-9.88-2.27a.42.42,0,0,0-.19.81Z" style="fill:#e0e0e0"></path><path d="M171.69,144.2l9.89,2.28a.42.42,0,0,0,.18-.81l-9.88-2.28a.42.42,0,0,0-.19.81Z" style="fill:#e0e0e0"></path><path d="M172.53,148.47,179,150a.42.42,0,0,0,.18-.81l-6.42-1.48a.42.42,0,0,0-.19.81Z" style="fill:#e0e0e0"></path><path d="M173.57,152.78l2.57.59a.42.42,0,0,0,.18-.81l-2.56-.59a.42.42,0,0,0-.19.81Z" style="fill:#e0e0e0"></path><path d="M175.53,172.73l-9.88-2.28a.42.42,0,0,0-.19.81l9.88,2.28a.42.42,0,0,0,.19-.81Z" style="fill:#e0e0e0"></path><path d="M175.93,168.75,167,166.7a.42.42,0,0,0-.19.81l8.9,2.05a.42.42,0,0,0,.19-.81Z" style="fill:#e0e0e0"></path><path d="M174.84,164.43l-4.94-1.14a.42.42,0,0,0-.19.81l4.94,1.14a.42.42,0,0,0,.19-.81Z" style="fill:#e0e0e0"></path><path d="M202.86,152.75A13,13,0,0,0,190,164.24H172.35a1.5,1.5,0,0,0,0,3H190a13,13,0,1,0,12.89-14.49Z" style="fill:#fafafa"></path><path d="M209.55,111.58a10.18,10.18,0,0,0-10.11,9H185.63a1.18,1.18,0,0,0,0,2.35h13.81a10.17,10.17,0,1,0,10.11-11.35Z" style="fill:#fafafa"></path><path d="M205.47,173.85l-.26-2.08h0l-.09,0-.06,0-.1,0-.4-.12-.13,0a4.41,4.41,0,0,1-.54-.24l-.15-.07-.29-.17-.14-.08-.14-.1-.13-.09-.12-.08-.15-.12-.13-.1a5.7,5.7,0,0,1-.7-.69l-.21-.19,2.64,4.65a.61.61,0,0,0,.52.31A.62.62,0,0,0,205.47,173.85Z" style="fill:#f0f0f0"></path><path d="M205.36,173l-.15-1.2h0l-.09,0-.06,0-.1,0-.4-.12-.13,0a4.41,4.41,0,0,1-.54-.24l-.15-.07-.29-.17-.14-.08-.14-.1-.13-.09-.12-.08-.15-.12-.13-.1a5.7,5.7,0,0,1-.7-.69l-.21-.19,1.33,2.35A5.19,5.19,0,0,0,205.36,173Z" style="fill:#e6e6e6"></path><path d="M211.87,166.42a8.88,8.88,0,0,0-.38-1.56,9.72,9.72,0,0,0-16.63-3.17h0l-.29.36h0a3.82,3.82,0,0,0-.71,2.23,3.87,3.87,0,0,0,3.87,3.87l.33,0a2.52,2.52,0,0,0,3.22,2,1.13,1.13,0,0,1,1.16.35,5.4,5.4,0,0,0,9.46-3.56A4.1,4.1,0,0,0,211.87,166.42Z" style="fill:#e0e0e0"></path><g style="opacity:0.6000000000000001"><path d="M208.92,170.56a6.38,6.38,0,0,0-3.85-1.3h-1.59a.28.28,0,0,0,0,.56h1.59a5.85,5.85,0,0,1,3.5,1.17l.26.22a.26.26,0,0,0,.18.07.27.27,0,0,0,.21-.09.28.28,0,0,0,0-.39Z" style="fill:#fafafa"></path><path d="M205.54,165h.17l.69.53a.27.27,0,0,0,.17.06.29.29,0,0,0,.22-.11.28.28,0,0,0,0-.39l-.61-.47.59-.6.21-.21a.28.28,0,0,0-.41-.37l-.19.19c-.42.42-.66.66-.79.81-.63,0-1.22,0-1.75,0a2.72,2.72,0,0,0,.11-1,.28.28,0,1,0-.55.05,2.08,2.08,0,0,1-.17,1,9.53,9.53,0,0,0-1.92.33,4.83,4.83,0,0,1-.78-2.1.26.26,0,0,0-.3-.24.29.29,0,0,0-.25.31,5.63,5.63,0,0,0,.78,2.21,5,5,0,0,0-1.63,1,3.36,3.36,0,0,0-1.82-1.27.26.26,0,0,0-.34.19.28.28,0,0,0,.19.34,2.8,2.8,0,0,1,1.58,1.16,3.46,3.46,0,0,0-.61,1.14.28.28,0,0,0,.18.34l.09,0a.29.29,0,0,0,.26-.2C199.47,164.92,203.74,164.9,205.54,165Z" style="fill:#fafafa"></path><path d="M200.54,159.17c.67.18,1,.54,1.11,1.05a.43.43,0,0,0,0,.05,5.73,5.73,0,0,0-.06,2.58l0,.06a.27.27,0,0,0,.09.21.31.31,0,0,0,.18.07.28.28,0,0,0,.21-.1.34.34,0,0,0,.05-.34c-.24-1.43-.21-3.2,1.36-3.53a.28.28,0,1,0-.12-.54,2.2,2.2,0,0,0-1.39.89,2,2,0,0,0-1.31-.94.29.29,0,0,0-.34.2A.27.27,0,0,0,200.54,159.17Z" style="fill:#fafafa"></path><path d="M209.67,166.91a3.46,3.46,0,0,0-2-5,.29.29,0,0,0-.35.18.28.28,0,0,0,.18.35,2.92,2.92,0,0,1,.7,5.24.28.28,0,0,0-.09.38.31.31,0,0,0,.24.13.28.28,0,0,0,.15,0,3.35,3.35,0,0,0,.81-.74,1.74,1.74,0,0,1,.52,2.09.29.29,0,0,0,.12.38.31.31,0,0,0,.13,0,.29.29,0,0,0,.25-.15A2.3,2.3,0,0,0,209.67,166.91Z" style="fill:#fafafa"></path><path d="M197.25,161.67a2.07,2.07,0,0,1,1.82-.28.29.29,0,0,0,.35-.19.28.28,0,0,0-.18-.34,2.63,2.63,0,0,0-2.31.36,2.66,2.66,0,0,0-1.06,1.74,1.55,1.55,0,0,0-1.1.28,1.62,1.62,0,0,0-.67,1.29.28.28,0,0,0,.28.28h0a.29.29,0,0,0,.28-.28,1,1,0,0,1,.43-.84,1,1,0,0,1,.94-.13.28.28,0,0,0,.25,0,.3.3,0,0,0,.12-.22A2.07,2.07,0,0,1,197.25,161.67Z" style="fill:#fafafa"></path></g><path d="M215.35,121.76c0,2.48-2.76,4.5-6.17,4.5s-6.17-2-6.17-4.5,2.77-4.5,6.17-4.5S215.35,119.27,215.35,121.76Z" style="fill:#e6e6e6"></path><circle cx="206.94" cy="121.76" r="3.25" style="fill:#fafafa"></circle><path d="M209.18,121.76c0,1.23-1,.7-2.24.7s-2.24.53-2.24-.7,1-.71,2.24-.71S209.18,120.52,209.18,121.76Z" style="fill:#e6e6e6"></path></g><g id="freepik--Shadow--inject-27"><ellipse id="freepik--path--inject-27" cx="250" cy="416.24" rx="193.89" ry="11.32" style="fill:#f5f5f5"></ellipse></g><g id="freepik--speech-bubble-2--inject-27"><path d="M326.73,130.19h-27a9.27,9.27,0,0,0-9.27,9.27v11.19a9.27,9.27,0,0,0,9.27,9.26h11.54l3.11,9.79,3.13-9.79h9.17a9.27,9.27,0,0,0,9.27-9.26V139.46A9.27,9.27,0,0,0,326.73,130.19Z" style="fill:#407BFF"></path><path d="M302.75,144.41a1.87,1.87,0,1,1-1.87-1.87A1.87,1.87,0,0,1,302.75,144.41Z" style="fill:#fff"></path><circle cx="309.13" cy="144.41" r="1.87" style="fill:#fff"></circle><path d="M319.25,144.41a1.87,1.87,0,1,1-1.87-1.87A1.87,1.87,0,0,1,319.25,144.41Z" style="fill:#fff"></path><circle cx="325.63" cy="144.41" r="1.87" style="fill:#fff"></circle></g><g id="freepik--speech-bubble-1--inject-27"><path d="M154.73,199h-22a9.27,9.27,0,0,0-9.27,9.27v11.18a9.27,9.27,0,0,0,9.27,9.27h8.54l3.11,9.78,3.13-9.78h7.18a9.27,9.27,0,0,0,9.26-9.27V208.31A9.27,9.27,0,0,0,154.73,199Z" style="fill:#407BFF"></path><path d="M143.46,218.22c3.18,4.17-6.44,9.34-11.38,4.15-2.27-2.38-2-4.44-1-5.39,1.8-1.59,4.15.15,6.12.27C140.05,217.41,142.22,216.59,143.46,218.22Z" style="fill:#407BFF"></path><path d="M143.46,218.22c3.18,4.17-6.44,9.34-11.38,4.15-2.27-2.38-2-4.44-1-5.39,1.8-1.59,4.15.15,6.12.27C140.05,217.41,142.22,216.59,143.46,218.22Z" style="fill:#fff;opacity:0.5"></path><path d="M139.09,218.18a5.56,5.56,0,0,1,2.57-.18,1.35,1.35,0,0,1,.92,1,1.77,1.77,0,0,1-.24,1.35,4,4,0,0,1-2.07,1.66,6.36,6.36,0,0,1-2.62.42,6.61,6.61,0,0,1-1.32-.16,4.71,4.71,0,0,1-1.26-.49,5.46,5.46,0,0,1-1.94-1.82,3.61,3.61,0,0,1-.5-1.25,1.55,1.55,0,0,1,0-.71,2,2,0,0,1,.31-.62.93.93,0,0,1,.63-.36,1.38,1.38,0,0,1,.67.15c.4.17.72.47,1.13.6a8.9,8.9,0,0,1-1.19-.46,1.08,1.08,0,0,0-.58-.07.66.66,0,0,0-.43.3,1.86,1.86,0,0,0,.31,2.17,5.28,5.28,0,0,0,1.83,1.59,4.48,4.48,0,0,0,1.12.43,9.9,9.9,0,0,0,1.22.14,6.4,6.4,0,0,0,2.42-.34,3.86,3.86,0,0,0,1.93-1.38,1.43,1.43,0,0,0,.28-1.08,1.1,1.1,0,0,0-.71-.85A6,6,0,0,0,139.09,218.18Z" style="fill:#fff;opacity:0.5"></path><path d="M144.33,204.94c1.95,2.62-1.83,7.93-5,6.95-2.34-.72-2.88-3.91-.91-6.16S143.14,203.33,144.33,204.94Z" style="fill:#407BFF"></path><path d="M144.33,204.94c1.95,2.62-1.83,7.93-5,6.95-2.34-.72-2.88-3.91-.91-6.16S143.14,203.33,144.33,204.94Z" style="fill:#fff;opacity:0.5"></path><path d="M144.26,207.18a1.68,1.68,0,0,0-.75-1.67,2.2,2.2,0,0,0-1.8-.29,3.78,3.78,0,0,0-1.63.94A4.51,4.51,0,0,0,139,207.7a3.56,3.56,0,0,0-.32,1.84,1.94,1.94,0,0,0,.28.86,1.64,1.64,0,0,0,.64.64,2.37,2.37,0,0,0,1.85.09,2.62,2.62,0,0,0,.84-.48,3.87,3.87,0,0,0,.68-.72,3.33,3.33,0,0,1-1.48,1.32,2.43,2.43,0,0,1-2,0,2.17,2.17,0,0,1-1.16-1.7,3.84,3.84,0,0,1,.33-2,4.45,4.45,0,0,1,3-2.62,2.43,2.43,0,0,1,2,.43A1.73,1.73,0,0,1,144.26,207.18Z" style="fill:#fff;opacity:0.5"></path><path d="M149.92,220.05c-4.69-2.21-3.37-12.47,1.79-13.47,3.82-.74,6.95,3.32,5.88,7.94S152.78,221.39,149.92,220.05Z" style="fill:#407BFF"></path><path d="M149.92,220.05c-4.69-2.21-3.37-12.47,1.79-13.47,3.82-.74,6.95,3.32,5.88,7.94S152.78,221.39,149.92,220.05Z" style="fill:#fff;opacity:0.5"></path><path d="M148.34,216.86a2.66,2.66,0,0,0,2.29,1.77,3.45,3.45,0,0,0,2.74-.94,6.07,6.07,0,0,0,1.58-2.53,7.35,7.35,0,0,0,.37-3,5.89,5.89,0,0,0-.92-2.81,3,3,0,0,0-1.05-1A2.66,2.66,0,0,0,152,208a3.78,3.78,0,0,0-2.64,1.26,3.93,3.93,0,0,0-.82,1.3,5.63,5.63,0,0,0-.41,1.51,5.34,5.34,0,0,1,1.07-2.95,3.88,3.88,0,0,1,2.8-1.55,3.43,3.43,0,0,1,2.88,1.51,6.2,6.2,0,0,1,1.07,3.09,7,7,0,0,1-2.25,5.92,3.83,3.83,0,0,1-3.09.88A2.75,2.75,0,0,1,148.34,216.86Z" style="fill:#fff;opacity:0.5"></path></g><g id="freepik--character-3--inject-27"><path d="M306.07,218.23c-6.32,1.32-13.05,26.71-13.05,26.71l5.64,6.09,10.09-18.52Z" style="fill:#407BFF"></path><path d="M308.75,232.51l-.21.39-8.44,15.47L298.66,251l-5.64-6.1s6.72-25.37,13-26.71Z" style="fill:#fff;opacity:0.7000000000000001"></path><path d="M308.54,232.9l-8.44,15.47c0-.25,0-.54,0-.84.76-11.77,7.32-18,7.32-18A11.54,11.54,0,0,1,308.54,232.9Z" style="opacity:0.1"></path><path d="M353.09,283s-19.37-5.14-42.84,2.4c0,0-3.78-49.18-3.33-55.93s36.24-4.78,36.24-4.78.92,19.68,3.23,31.55S354.27,280.69,353.09,283Z" style="fill:#407BFF"></path><path d="M353.09,283s-19.37-5.14-42.84,2.4c0,0-3.78-49.18-3.33-55.93s36.24-4.78,36.24-4.78.92,19.68,3.23,31.55S354.27,280.69,353.09,283Z" style="fill:#fff;opacity:0.5"></path><polygon points="298.94 410.82 305.25 412.6 306.76 402.77 307.57 397.51 301.25 395.72 300.17 402.77 298.94 410.82" style="fill:#b55b52"></polygon><polygon points="335.26 411.33 341.78 412.19 341.84 402.77 341.88 396.91 335.36 396.06 335.31 402.77 335.26 411.33" style="fill:#b55b52"></polygon><polygon points="335.36 396.06 335.31 402.77 341.84 402.77 341.88 396.91 335.36 396.06" style="opacity:0.2"></polygon><polygon points="300.17 402.77 306.76 402.77 307.57 397.51 301.25 395.72 300.17 402.77" style="opacity:0.2"></polygon><path d="M299,409.83l7.18-.19a.56.56,0,0,1,.57.43l1.51,5.78a.94.94,0,0,1-.9,1.19c-2.59,0-6.34,0-9.59.06-3.81.1-6.22-.08-10.69,0-2.69.07-3.54-2.63-2.42-2.9,5.1-1.26,8.43-1,12.78-3.86A3.06,3.06,0,0,1,299,409.83Z" style="fill:#263238"></path><path d="M298.4,410.75h0c-1.05.24-2.93.54-3.67-.07a.91.91,0,0,1-.32-.75.5.5,0,0,1,.24-.42c.79-.47,3.47.8,3.78,1a.16.16,0,0,1,.09.15A.17.17,0,0,1,298.4,410.75Zm-3.55-1-.06,0a.21.21,0,0,0-.09.17.55.55,0,0,0,.21.49c.42.35,1.5.38,2.94.1C296.79,410.08,295.34,409.58,294.85,409.76Z" style="fill:#407BFF"></path><path d="M298.4,410.75h-.12c-.8-.33-2.42-1.71-2.33-2.45,0-.17.14-.39.56-.45a1.15,1.15,0,0,1,.88.25,4.43,4.43,0,0,1,1.11,2.49.18.18,0,0,1-.06.14Zm-2-2.55c-.13.05-.14.12-.14.14-.06.45,1.05,1.53,1.88,2a3.74,3.74,0,0,0-.94-2,.85.85,0,0,0-.64-.18Z" style="fill:#407BFF"></path><path d="M335.52,409.83l7.18-.2a.58.58,0,0,1,.57.44l1.51,5.77a.94.94,0,0,1-.9,1.19c-2.59,0-6.34,0-9.59.07-3.81.1-6.22-.09-10.69,0-2.69.08-3.54-2.62-2.42-2.89,5.1-1.26,8.43-1,12.78-3.86A2.94,2.94,0,0,1,335.52,409.83Z" style="fill:#263238"></path><path d="M334.91,410.75h0c-1.05.24-2.93.55-3.67-.06a.91.91,0,0,1-.32-.75.5.5,0,0,1,.24-.42c.79-.47,3.47.8,3.78.94a.18.18,0,0,1,.09.16A.17.17,0,0,1,334.91,410.75Zm-3.55-1-.06,0c-.06,0-.08.08-.09.17a.55.55,0,0,0,.21.49c.41.34,1.5.38,2.94.1C333.3,410.08,331.85,409.58,331.36,409.76Z" style="fill:#407BFF"></path><path d="M334.91,410.75h-.12c-.8-.34-2.42-1.71-2.33-2.45,0-.18.14-.39.56-.45a1.18,1.18,0,0,1,.88.24,4.46,4.46,0,0,1,1.11,2.49.2.2,0,0,1-.06.15Zm-2-2.56c-.13.05-.14.12-.14.15-.06.45,1.05,1.53,1.88,2a3.74,3.74,0,0,0-.94-2,.85.85,0,0,0-.64-.18Z" style="fill:#407BFF"></path><path d="M348.69,268.1c3.45,15-2.46,132.66-2.46,132.66H334.78l-4.9-98.08-18,98.08-12.23-.89c8-76,15.06-121.34,15.06-121.34l0-5.73Z" style="fill:#263238"></path><path d="M342.52,212.69a143.19,143.19,0,0,0,.55,21.45c.47,5,1.13,9.68,1.84,13.93,1.64,10,3.51,17.43,3.78,20l-34,4.7c-12.41-34.69-7.74-53.1-7.74-53.1l7.8-4.45s1.14-.3,1.72-.43a125.34,125.34,0,0,1,14.47-2c.92-.08,1.85-.14,2.76-.18C338.33,212.43,342.52,212.69,342.52,212.69Z" style="fill:#407BFF"></path><path d="M329.72,212.66s-7.81,6.16-10.16,6.13c-1.64,0-4-2.71-4-2.71A7,7,0,0,0,318.1,214c1.63-2.23.69-5-.64-7.43l6.85-9.51a44,44,0,0,0,.88,6.89h0C326,207.69,327.35,211.3,329.72,212.66Z" style="fill:#b55b52"></path><path d="M325.19,204h0c-.71,4.16-2.53,9-7.09,10,1.63-2.23.69-5-.64-7.43l6.85-9.51A44,44,0,0,0,325.19,204Z" style="opacity:0.2"></path><path d="M304.78,193.29c-.27,2.58,1.14,7.47,4.2,5.17S305.26,188.87,304.78,193.29Z" style="fill:#263238"></path><path d="M322.89,193.07c1.62,6.15,2.88,9.67.84,13.74-3.07,6.13-11.46,5.75-14.89.2-3.09-5-5.22-14.22-.08-18.52A8.77,8.77,0,0,1,322.89,193.07Z" style="fill:#b55b52"></path><path d="M317.85,190.56l-1.39-6.95s7.29-2,7.72,1.82c4.5,1.21,4.75,10.62-.13,14.85-3.5-1.81-5.23-10.34-5.23-10.34C318.53,190.15,318.19,190.36,317.85,190.56Z" style="fill:#263238"></path><path d="M326.87,197.33a6,6,0,0,1-1.73,4.26c-1.51,1.49-3.3.39-3.76-1.57-.41-1.76-.12-4.65,1.81-5.4A2.74,2.74,0,0,1,326.87,197.33Z" style="fill:#b55b52"></path><path d="M314.26,197.69c.16.49,0,1-.3,1.08s-.71-.22-.87-.71,0-1,.29-1.07S314.09,197.2,314.26,197.69Z" style="fill:#263238"></path><path d="M308.68,199.47c.16.49,0,1-.29,1.08s-.72-.22-.88-.71,0-1,.29-1.07S308.52,199,308.68,199.47Z" style="fill:#263238"></path><path d="M310.53,199.15a17.78,17.78,0,0,1-1.06,4.81,3,3,0,0,0,2.48-.35Z" style="fill:#a02724"></path><path d="M315.38,195.35a.28.28,0,0,1-.3,0,2.5,2.5,0,0,0-2.18-.37.3.3,0,1,1-.23-.56,3,3,0,0,1,2.75.44.3.3,0,0,1,0,.52Z" style="fill:#263238"></path><path d="M305.64,198.33a.32.32,0,0,1-.17,0,.3.3,0,0,1-.26-.34,3,3,0,0,1,1.55-2.29.3.3,0,0,1,.4.15.3.3,0,0,1-.14.4,2.36,2.36,0,0,0-1.21,1.83A.29.29,0,0,1,305.64,198.33Z" style="fill:#263238"></path><path d="M313.67,206.68a.3.3,0,0,1-.15-.05.25.25,0,0,1,0-.35,7.36,7.36,0,0,1,2.89-2.1.26.26,0,0,1,.33.13.25.25,0,0,1-.13.33,7,7,0,0,0-2.69,1.94A.26.26,0,0,1,313.67,206.68Z" style="fill:#263238"></path><path d="M319.56,191.35s-1.87,1.23-3.1-.35c0,0-2.92,1.09-3-1.14,0,0-1.31,1.88-2.73.74,0,0-1.52,2.25-2.86,1.08,0,0-1,2.19-2.09,1.35l-.94,2s-2.41-.5-1.12-2.6c0,0-1.65-1.76-.38-3.34,0,0-.46-3.11,1.89-3,0,0,.06-2.57,2.88-1.53,0,0,.43-2.42,3.11-1.28,0,0,1.21-3.17,4-.84,0,0,2.37-2.38,4,0a4,4,0,0,1,2.86-.3,2.94,2.94,0,0,1,2,2.42,2.66,2.66,0,0,1,2.5.84c1.38,1.24.64,3.41.64,3.41s2.57,1.69.64,3.42S319.56,191.35,319.56,191.35Z" style="fill:#263238"></path><path d="M319.56,218.79s1.9,1.73,4.08,3.41c2.61-1.74,8.67-6.29,7.93-9.72-.51-1-3.23-1.29-3.23-1.29S325.91,215.28,319.56,218.79Z" style="fill:#407BFF"></path><path d="M319.56,218.79a18.51,18.51,0,0,0-3.12,4.27c-2.21-1.08-1.95-7.67-1.29-8.48a7.32,7.32,0,0,1,3.42-1.34A6,6,0,0,0,319.56,218.79Z" style="fill:#407BFF"></path><g style="opacity:0.2"><path d="M319.56,218.79s1.9,1.73,4.08,3.41c2.61-1.74,8.67-6.29,7.93-9.72-.51-1-3.23-1.29-3.23-1.29S325.91,215.28,319.56,218.79Z" style="fill:#fff"></path><path d="M319.56,218.79a18.51,18.51,0,0,0-3.12,4.27c-2.21-1.08-1.95-7.67-1.29-8.48a7.32,7.32,0,0,1,3.42-1.34A6,6,0,0,0,319.56,218.79Z" style="fill:#fff"></path></g><path d="M331.57,212.48a146.21,146.21,0,0,0,3.33,25.14.08.08,0,0,1,0,0c2.51,11.22,8.81,30.45,17,47.61,0,0,2.34-1,2.81-2.29s-6.33-17.63-8-30-2.59-40.48-2.59-40.48a40.9,40.9,0,0,0-8.49-.33C334.42,212.21,333.05,212.31,331.57,212.48Z" style="fill:#407BFF"></path><path d="M331.57,212.48a146.21,146.21,0,0,0,3.33,25.14.08.08,0,0,1,0,0l4.49-17.94-4.75-.45,4.75-2.8-3.74-4.31C334.42,212.21,333.05,212.31,331.57,212.48Z" style="fill:#fff;opacity:0.4"></path><path d="M331.57,212.48a146.21,146.21,0,0,0,3.33,25.14.08.08,0,0,1,0,0c2.51,11.22,8.81,30.45,17,47.61,0,0,2.34-1,2.81-2.29s-6.33-17.63-8-30-2.59-40.48-2.59-40.48a40.9,40.9,0,0,0-8.49-.33C334.42,212.21,333.05,212.31,331.57,212.48Z" style="fill:#fff;opacity:0.7000000000000001"></path><path d="M310,287.12l1.22.88a401.83,401.83,0,0,1-1.05-43.93c0-1.21.08-2.38.12-3.49.91-21.23,4.2-25.09,4.42-25.33l-3.08,1.06-5.58,1.92C304.42,236.35,310,287.12,310,287.12Z" style="fill:#407BFF"></path><path d="M310,287.12l1.22.88a401.83,401.83,0,0,1-1.05-43.93c0-1.21.08-2.38.12-3.49.91-21.23,4.2-25.09,4.42-25.33l-3.08,1.06-5.58,1.92C304.42,236.35,310,287.12,310,287.12Z" style="fill:#fff;opacity:0.7000000000000001"></path><path d="M311.42,222.69l-3.53,2.21s.92,10.39,2.42,15.68c.91-21.23,4.2-25.09,4.42-25.33l-3.08,1.06a20.72,20.72,0,0,0-4.2,5.44Z" style="fill:#fff;opacity:0.4"></path><path d="M343.16,227.82a18.43,18.43,0,0,0,2,7c-.15-2.48-.28-4.93-.4-7.27A3.85,3.85,0,0,0,343.16,227.82Z" style="opacity:0.2"></path><path d="M326,323.55l3.84-20.87-.74-11S323.88,310.79,326,323.55Z" style="opacity:0.2"></path><path d="M296,224.49c2.17-.14,2.29,2.53,1.29,3.51s-4.34.28-4.29-1.21S294.08,224.62,296,224.49Z" style="fill:#407BFF"></path><path d="M296,224.49c2.17-.14,2.29,2.53,1.29,3.51s-4.34.28-4.29-1.21S294.08,224.62,296,224.49Z" style="fill:#fff;opacity:0.5"></path><path d="M298.24,226.58s11.08,23.26,16.85,28.11H296L281.8,229.54Z" style="fill:#fff"></path><path d="M277.71,226.69l17.85-1.56a2.8,2.8,0,0,1,2.78,1.58l14.93,31a.73.73,0,0,1-.61,1.05l-17.76,1.2a2.8,2.8,0,0,1-2.71-1.56l-15.08-30.61A.74.74,0,0,1,277.71,226.69Z" style="fill:#263238"></path><path d="M277.71,226.69l17.85-1.56a2.8,2.8,0,0,1,2.78,1.58l14.93,31a.73.73,0,0,1-.61,1.05l-17.76,1.2a2.8,2.8,0,0,1-2.71-1.56l-15.08-30.61A.74.74,0,0,1,277.71,226.69Z" style="fill:#fff;opacity:0.2"></path><path d="M281.87,244.72l1.73,3.77c3,3.66,5.94.87,5.94.87l2.28-.5c.77-.17,1-1.06.51-2.11l-1.19-2.64a3.53,3.53,0,0,0-2.77-2.15l-2.19,0a2.63,2.63,0,0,0-1.6.54Z" style="fill:#b55b52"></path><path d="M296.11,244.55l-.15.63-18.37,1.4s.88-9.05-.33-15.4c-.86-4.51,1.12-4.88,1.12-4.88l17.67-1.82h0C294.11,225.22,297.74,236.87,296.11,244.55Z" style="fill:#fff"></path><polygon points="312.72 401.73 298.4 401.73 298.93 398.03 313.26 398.03 312.72 401.73" style="fill:#407BFF"></polygon><rect x="333.73" y="398.02" width="13.79" height="3.71" style="fill:#407BFF"></rect><path d="M346.19,248c-.4.16-.81.3-1.22.42a25.41,25.41,0,0,1-6.75,1,27.63,27.63,0,0,1-4.67-.26c-16.59-2.52-17.09-5.92-17.09-5.92s10.39-.7,15.32-3.67c1.05-.63,3.29-1.53,4.13-3,3.12-5.38,3.84-14.88,3.84-14.88s.93,1.13,2.68,2.93c.73.73,1.53,1.57,2.35,2.5,0,.12,0,.24,0,.36.13,2.34.26,4.8.4,7.27h0C345.48,239.41,345.81,244.06,346.19,248Z" style="opacity:0.1"></path><path d="M301.85,245.43a.49.49,0,0,1-.28-.09.5.5,0,0,1-.14-.69l8.07-12.09a.5.5,0,0,1,.69-.14.49.49,0,0,1,.14.69l-8.07,12.1A.49.49,0,0,1,301.85,245.43Z" style="fill:#263238"></path><path d="M315.47,237.81l.18,4.2c-1.38,4.21-6.48,1.49-6.48,1.49l-3-.32a2.22,2.22,0,0,1-1.85-2.21l-.15-2.94a2.34,2.34,0,0,1,2-2.57l2.61-.15a4.65,4.65,0,0,1,2.2.42Z" style="fill:#b55b52"></path><path d="M344.15,212.48c9.93,2.77,1.72,33.28-1.92,34.3-6.89,1.93-27.5-1.85-27.5-1.85l-.05-8s19.85,1.94,21.52,1.2c2.16-1,3.21-12.49,3.68-17.93A10,10,0,0,1,344.15,212.48Z" style="fill:#407BFF"></path><path d="M344.15,212.48c9.93,2.77,1.72,33.28-1.92,34.3-6.89,1.93-27.5-1.85-27.5-1.85l-.05-8s19.85,1.94,21.52,1.2c2.16-1,3.21-12.49,3.68-17.93A10,10,0,0,1,344.15,212.48Z" style="fill:#fff;opacity:0.7000000000000001"></path></g><g id="freepik--character-2--inject-27"><path d="M342.09,412.38v-7.06h-3.17l1.44,7.23a.87.87,0,0,0,.86.7h0A.87.87,0,0,0,342.09,412.38Z" style="fill:#263238"></path><rect x="335.56" y="311.12" width="6.59" height="94.76" transform="translate(677.71 717.01) rotate(180)" style="fill:#263238"></rect><rect x="335.56" y="311.12" width="6.59" height="94.76" transform="translate(677.71 717.01) rotate(180)" style="fill:#fff;opacity:0.4"></rect><rect x="338.85" y="311.12" width="3.3" height="94.76" transform="translate(681 717.01) rotate(180)" style="fill:#fff;opacity:0.2"></rect><rect x="334.37" y="403.55" width="8.72" height="2.33" transform="translate(677.46 809.43) rotate(180)" style="fill:#263238"></rect><path d="M338.29,408.74h3c1.83,0,3.31,1.88,3.31,4.2s-1.48,4.2-3.31,4.2h-3c-1.83,0-3.31-1.88-3.31-4.2S336.46,408.74,338.29,408.74Z" style="fill:#263238"></path><path d="M341.61,412.94c0-2.32-1.49-4.2-3.32-4.2s-3.31,1.88-3.31,4.2,1.48,4.2,3.31,4.2S341.61,415.26,341.61,412.94Z" style="fill:#fff;opacity:0.2"></path><path d="M338.73,412.38v-7.06h-3.17l1.44,7.23a.88.88,0,0,0,.86.7h0A.87.87,0,0,0,338.73,412.38Z" style="fill:#263238"></path><path d="M415.13,412.38v-7.06H412l1.45,7.23a.87.87,0,0,0,.85.7h0A.87.87,0,0,0,415.13,412.38Z" style="fill:#263238"></path><rect x="408.6" y="311.12" width="6.59" height="94.76" transform="translate(823.8 717.01) rotate(180)" style="fill:#263238"></rect><rect x="408.6" y="311.12" width="6.59" height="94.76" transform="translate(823.8 717.01) rotate(180)" style="fill:#fff;opacity:0.4"></rect><rect x="411.9" y="311.12" width="3.3" height="94.76" transform="translate(827.09 717.01) rotate(180)" style="fill:#fff;opacity:0.2"></rect><rect x="407.41" y="403.55" width="8.72" height="2.33" transform="translate(823.55 809.43) rotate(180)" style="fill:#263238"></rect><path d="M411.34,408.74h3c1.83,0,3.31,1.88,3.31,4.2s-1.48,4.2-3.31,4.2h-3c-1.83,0-3.32-1.88-3.32-4.2S409.51,408.74,411.34,408.74Z" style="fill:#263238"></path><path d="M414.65,412.94c0-2.32-1.48-4.2-3.31-4.2s-3.32,1.88-3.32,4.2,1.49,4.2,3.32,4.2S414.65,415.26,414.65,412.94Z" style="fill:#fff;opacity:0.2"></path><path d="M411.77,412.38v-7.06H408.6l1.45,7.23a.87.87,0,0,0,.85.7h0A.87.87,0,0,0,411.77,412.38Z" style="fill:#263238"></path><rect x="193.06" y="388.15" width="218.72" height="4.22" transform="translate(604.83 780.52) rotate(180)" style="fill:#263238"></rect><rect x="193.06" y="388.15" width="218.72" height="4.22" transform="translate(604.83 780.52) rotate(180)" style="fill:#fff;opacity:0.4"></rect><path d="M198,412.38v-7.06h-3.17l1.45,7.23a.87.87,0,0,0,.85.7h0A.87.87,0,0,0,198,412.38Z" style="fill:#263238"></path><rect x="191.47" y="311.12" width="6.59" height="94.76" transform="translate(389.54 717.01) rotate(180)" style="fill:#263238"></rect><rect x="191.47" y="311.12" width="6.59" height="94.76" transform="translate(389.54 717.01) rotate(180)" style="fill:#fff;opacity:0.4"></rect><rect x="194.77" y="311.12" width="3.3" height="94.76" transform="translate(392.83 717.01) rotate(180)" style="fill:#fff;opacity:0.2"></rect><rect x="190.28" y="403.55" width="8.72" height="2.33" transform="translate(389.29 809.43) rotate(180)" style="fill:#263238"></rect><path d="M194.21,408.74h3c1.83,0,3.31,1.88,3.31,4.2s-1.48,4.2-3.31,4.2h-3c-1.83,0-3.32-1.88-3.32-4.2S192.38,408.74,194.21,408.74Z" style="fill:#263238"></path><path d="M197.52,412.94c0-2.32-1.48-4.2-3.31-4.2s-3.32,1.88-3.32,4.2,1.49,4.2,3.32,4.2S197.52,415.26,197.52,412.94Z" style="fill:#fff;opacity:0.2"></path><path d="M194.64,412.38v-7.06h-3.17l1.45,7.23a.87.87,0,0,0,.85.7h0A.87.87,0,0,0,194.64,412.38Z" style="fill:#263238"></path><path d="M271.05,412.38v-7.06h-3.18l1.45,7.23a.87.87,0,0,0,.85.7h0A.87.87,0,0,0,271.05,412.38Z" style="fill:#263238"></path><rect x="264.51" y="311.12" width="6.59" height="94.76" transform="translate(535.62 717.01) rotate(180)" style="fill:#263238"></rect><rect x="264.51" y="311.12" width="6.59" height="94.76" transform="translate(535.62 717.01) rotate(180)" style="fill:#fff;opacity:0.4"></rect><rect x="267.81" y="311.12" width="3.3" height="94.76" transform="translate(538.92 717.01) rotate(180)" style="fill:#fff;opacity:0.2"></rect><rect x="263.33" y="403.55" width="8.72" height="2.33" transform="translate(535.38 809.43) rotate(180)" style="fill:#263238"></rect><path d="M267.25,408.74h3c1.83,0,3.32,1.88,3.32,4.2s-1.49,4.2-3.32,4.2h-3c-1.83,0-3.31-1.88-3.31-4.2S265.42,408.74,267.25,408.74Z" style="fill:#263238"></path><path d="M270.56,412.94c0-2.32-1.48-4.2-3.31-4.2s-3.31,1.88-3.31,4.2,1.48,4.2,3.31,4.2S270.56,415.26,270.56,412.94Z" style="fill:#fff;opacity:0.2"></path><path d="M267.69,412.38v-7.06h-3.18l1.45,7.23a.87.87,0,0,0,.86.7h0A.87.87,0,0,0,267.69,412.38Z" style="fill:#263238"></path><rect x="191.74" y="303.69" width="223.46" height="16.3" transform="translate(606.93 623.68) rotate(180)" style="fill:#263238"></rect><rect x="191.74" y="303.69" width="223.46" height="16.3" transform="translate(606.93 623.68) rotate(180)" style="fill:#fff;opacity:0.4"></rect><rect x="338.45" y="303.69" width="76.75" height="16.3" transform="translate(753.64 623.68) rotate(180)" style="fill:#fff;opacity:0.2"></rect><rect x="184.69" y="301.07" width="240.53" height="12.86" transform="translate(609.91 615) rotate(180)" style="fill:#263238"></rect><rect x="184.69" y="301.07" width="240.53" height="12.86" transform="translate(609.91 615) rotate(180)" style="fill:#fff;opacity:0.6000000000000001"></rect><rect x="341.88" y="301.07" width="83.34" height="12.86" transform="translate(767.09 615) rotate(180)" style="fill:#fff;opacity:0.2"></rect><path d="M284.05,281.91s-33.9.23-48.91,4.92S220.82,300.59,225.7,302c21.49,6.17,83-.06,83-.06Z" style="fill:#eec1bb"></path><path d="M323.3,284s23.21.91,34.34,3.29c9.54,2,31.14,5.94,38.49,7.26h0c2.56.45,6.87-9.18,6.88-11.84s3.42-3.32,3.84,2.42c.38,5.25-2.31,8.24-1.39,11.06,1.17,3.58-1,5.4-3,5.4-3.26,0-4.47-1.3-8.25-1.3v0c-8.59,1.41-26.74,3.92-35.2,1.6-7.39-2-38.39-.82-38.39-.82Z" style="fill:#eec1bb"></path><path d="M323.3,284s23.21.91,34.34,3.29c9.54,2,31.14,5.94,38.49,7.26h0c2.56.45,6.87-9.18,6.88-11.84s3.42-3.32,3.84,2.42c.38,5.25-2.31,8.24-1.39,11.06,1.17,3.58-1,5.4-3,5.4-3.26,0-4.47-1.3-8.25-1.3v0c-8.59,1.41-26.74,3.92-35.2,1.6-7.39-2-38.39-.82-38.39-.82Z" style="opacity:0.1"></path><path d="M311.08,284s19.11.91,28.27,3.29c9.53,2.47,33.75,7.71,33.75,7.71l.19,4.43s-23.55,5.52-32.84,2.42c-6.08-2-31.74.19-31.74.19Z" style="fill:#eec1bb"></path><path d="M235.72,294.19s20.71-4.65,35.61-2.39-7.71,9.27-7.71,9.27Z" style="opacity:0.2"></path><path d="M230.6,289.77c8.22.9,16.64,2.28,24.78,3.3,5.33.49,19.35.63,24.95.8s11.28.3,16.92.54a2.8,2.8,0,0,1,.26,5.58q-8.44,1.14-16.9,1.91c-8.64.75-17.05,1.47-25.82,1.4a215.35,215.35,0,0,1-25.68-2.37c-7.22-1.32-5.83-11.79,1.49-11.16Z" style="fill:#ebc0bb"></path><path d="M296.87,294.72l5.93-2.26L301,300.17s-5.61,1.05-5.91-1.88Z" style="fill:#eec1bb"></path><polygon points="308.06 295.14 306.3 301.44 301.03 300.17 302.8 292.46 308.06 295.14" style="fill:#eec1bb"></polygon><path d="M207.78,285.65a.24.24,0,0,1-.05.14.28.28,0,0,1-.39.07,2.68,2.68,0,0,1-1.23-2.26.27.27,0,0,1,.29-.27.3.3,0,0,1,.28.3,2.12,2.12,0,0,0,1,1.76A.27.27,0,0,1,207.78,285.65Z" style="fill:#263238"></path><path d="M209.22,284.46a18.07,18.07,0,0,0,4.1-2.55,2.76,2.76,0,0,1,.48,2.3Z" style="fill:#d4827d"></path><path d="M207.42,300.54c5.33-.62,9.83-1.58,9.83-1.58s2.31-2.08,2.61-2.41a7.57,7.57,0,0,0,1.86-7.56,7.92,7.92,0,0,0-6.21-5.5c-5.37-1-14.19.31-16.45,6.28A7.88,7.88,0,0,0,207.42,300.54Z" style="fill:#eec1bb"></path><path d="M209,283.19s.21.64-.61,1a1.65,1.65,0,0,0,.2-.77Z" style="fill:#263238"></path><path d="M204.14,284.76s-.38.9-.23,1.15c1.82,3.12,10.05,4.4,12.77,8.57a5.56,5.56,0,0,0,.57,4.48s-7.72,3.64-14.5,2.37-5.68-12-4.25-14.22c0,0-.92,1.08-1.07,0S201.4,283.46,204.14,284.76Z" style="fill:#263238"></path><path d="M207.84,293a6.4,6.4,0,0,0,3.78-2.08c1.21-1.43-.06-2.65-2-2.68-1.71,0-4.4.69-4.86,2.33S206,293.27,207.84,293Z" style="fill:#eec1bb"></path><path d="M218.41,296c0,.83.19,1.29.5,1.46a8,8,0,0,0,1-.9,7.57,7.57,0,0,0,1.86-7.56A10.07,10.07,0,0,0,218.41,296Z" style="opacity:0.2"></path><path d="M218.53,294.61a7.93,7.93,0,0,1,3.51-2.9,14,14,0,0,0,1.78.55c1.69.33,4.11-1.26,5.41-2.33l-.8,11.39c-3.12-2.55-7-2.9-11.18-2.36A10.52,10.52,0,0,1,218.53,294.61Z" style="fill:#eec1bb"></path><polygon points="412.79 288.55 409.39 286.34 406.77 286.79 406.77 289.31 410.51 292.15 412.79 288.55" style="fill:#407BFF"></polygon><polygon points="412.79 288.55 409.39 286.34 406.77 286.79 406.77 289.31 410.51 292.15 412.79 288.55" style="fill:#fff;opacity:0.7000000000000001"></polygon><path d="M405,284.88c-.9,0-2.18-.65-2.18-1.25a.12.12,0,0,1,.13-.12.12.12,0,0,1,.12.12c0,.39,1.05,1,1.93,1a1.1,1.1,0,0,0,.72-.21,1,1,0,0,0,.29-.78.12.12,0,0,1,.13-.12.12.12,0,0,1,.12.12,1.22,1.22,0,0,1-.38,1A1.34,1.34,0,0,1,405,284.88Z" style="fill:#263238"></path><path d="M407.35,287.39l-.07,0a4.4,4.4,0,0,1-1.82-2.74.13.13,0,0,1,.11-.14.12.12,0,0,1,.14.11,4.25,4.25,0,0,0,1.71,2.56.13.13,0,0,1,0,.18A.12.12,0,0,1,407.35,287.39Z" style="fill:#263238"></path><path d="M379.39,289C353,287.27,341,279.87,317.28,281s-46.06-.85-53.66-.6c-9.7.32-19.59,1.47-27.11,4.78-1.78.79-10.23,5.16-12.74,3.77-1.7-.95-1.06-3.85-5.36-5.66-.49-.21-1.42-.06-3.14-.55-.63-.17-1.26-1.17-1.88-1.33s-2.22,1.32-2.77,1.19a15.6,15.6,0,0,0-4.11.09c-5.32,1.17-7,8-7.57,12.62-.44,3.55-10.06.55-15,5.25-2.05,2-.1,6.22-1.66,10.33,0,0,33.11.73,56.85-.65a311.33,311.33,0,0,1,45.15.21c7.86.58,51.77,0,51.77,0s-4.81-7.16,5.81-9.42,10.57-7.78,15.63-9.17,14.24,3,19.31,1.54a18.63,18.63,0,0,1,10.59-.43h0S388.77,289.6,379.39,289Z" style="fill:#407BFF"></path><path d="M379.39,289C353,287.27,341,279.87,317.28,281s-46.06-.85-53.66-.6c-9.7.32-19.59,1.47-27.11,4.78-1.78.79-10.23,5.16-12.74,3.77-1.7-.95-1.06-3.85-5.36-5.66-.49-.21-1.42-.06-3.14-.55-.63-.17-1.26-1.17-1.88-1.33s-2.22,1.32-2.77,1.19a15.6,15.6,0,0,0-4.11.09c-5.32,1.17-7,8-7.57,12.62-.44,3.55-10.06.55-15,5.25-2.05,2-.1,6.22-1.66,10.33,0,0,33.11.73,56.85-.65a311.33,311.33,0,0,1,45.15.21c7.86.58,51.77,0,51.77,0s-4.81-7.16,5.81-9.42,10.57-7.78,15.63-9.17,14.24,3,19.31,1.54a18.63,18.63,0,0,1,10.59-.43h0S388.77,289.6,379.39,289Z" style="fill:#fff;opacity:0.6000000000000001"></path><path d="M370.55,294.58c2.56.45,6.87-9.18,6.89-11.84s3.41-3.32,3.83,2.42c.39,5.25-2.31,8.24-1.39,11.06,1.17,3.58-1.05,5.4-3.05,5.4-3.26,0-4.47-1.3-8.24-1.3Z" style="fill:#eec1bb"></path><path d="M308.71,298.32s.26-4.32-1.32-4.88-6.38-3.32-8.43-2.83S291,293,285.65,293.44s-37-3.93-44.32-2.25c0,0,7.08-1.38,20.85-.64s17.55,2.35,23.47,1.35,13-2.64,17.15-2.91,9.14,2.68,10.33,4.66.39,4,3.76,4.67,21.16,3.15,19.78,3.3-53.81,0-53.81,0S307.06,299.81,308.71,298.32Z" style="opacity:0.1"></path><path d="M226.73,289.76s-6.9,5.38-5.18,10.19c0,0-23.62,2.67-26.77.11-4.37-3.55,20.35,1.75,22.47-1.1,2.81-3.79.64-12.71,3-12.73s2.12,2.75,3,3.34A4,4,0,0,0,226.73,289.76Z" style="opacity:0.1"></path></g><g id="freepik--character-1--inject-27"><polygon points="72.5 297.8 75.75 297.8 84.8 350.91 81.55 350.91 72.5 297.8" style="fill:#263238"></polygon><polygon points="84.56 297.8 87.81 297.8 96.86 350.91 93.61 350.91 84.56 297.8" style="fill:#263238"></polygon><polygon points="96.63 297.8 99.88 297.8 108.93 350.91 105.68 350.91 96.63 297.8" style="fill:#263238"></polygon><polygon points="72.5 297.8 75.75 297.8 84.8 350.91 81.55 350.91 72.5 297.8" style="fill:#fff;isolation:isolate;opacity:0.4"></polygon><polygon points="84.56 297.8 87.81 297.8 96.86 350.91 93.61 350.91 84.56 297.8" style="fill:#fff;isolation:isolate;opacity:0.4"></polygon><polygon points="96.63 297.8 99.88 297.8 108.93 350.91 105.68 350.91 96.63 297.8" style="fill:#fff;isolation:isolate;opacity:0.4"></polygon><polygon points="100.28 352.29 100.55 364.03 101.78 417.14 105.86 417.14 107.09 364.03 107.36 352.29 100.28 352.29" style="fill:#263238"></polygon><polygon points="100.28 352.29 100.55 364.03 101.78 417.14 105.86 417.14 107.09 364.03 107.36 352.29 100.28 352.29" style="fill:#fff;isolation:isolate;opacity:0.4"></polygon><polygon points="100.28 352.29 100.55 364.35 107.09 364.35 107.36 352.29 100.28 352.29" style="isolation:isolate;opacity:0.2"></polygon><polygon points="78.12 416.95 81.89 353.12 88.05 353.12 82.78 416.95 78.12 416.95" style="fill:#263238"></polygon><polygon points="82.79 416.95 78.13 416.95 81.55 358.85 81.89 353.04 88.05 353.04 87.57 358.85 82.79 416.95" style="fill:#fff;isolation:isolate;opacity:0.4"></polygon><polygon points="88.05 353.04 87.57 359.07 81.55 359.07 81.89 353.04 88.05 353.04" style="isolation:isolate;opacity:0.2"></polygon><polygon points="124.87 416.95 119.59 353.12 125.75 353.12 129.52 416.95 124.87 416.95" style="fill:#263238"></polygon><polygon points="124.86 416.95 120.07 358.85 119.59 353.04 125.76 353.04 126.1 358.85 129.52 416.95 124.86 416.95" style="fill:#fff;isolation:isolate;opacity:0.4"></polygon><polygon points="119.59 353.04 120.07 359.07 126.1 359.07 125.76 353.04 119.59 353.04" style="isolation:isolate;opacity:0.2"></polygon><path d="M78.59,346.5h50.47a0,0,0,0,1,0,0v4.24a4.57,4.57,0,0,1-4.57,4.57H83.16a4.57,4.57,0,0,1-4.57-4.57V346.5A0,0,0,0,1,78.59,346.5Z" transform="translate(207.64 701.82) rotate(180)" style="fill:#263238"></path><path d="M78.12,303.94c5.23-3.17,12.49-3.17,19.43,0,3.51,1.53,7.66,2,9.5-.24h0c3.13-3.27-2.36-12.93-12.9-16-7.55-2.17-15-2.17-21.39,0-8.89,3-9.16,12.71-4.27,16h0A9,9,0,0,0,78.12,303.94Z" style="fill:#263238"></path><rect x="76.17" y="350.91" width="55.3" height="4.41" rx="1.84" transform="translate(207.64 706.23) rotate(180)" style="fill:#263238"></rect><rect x="76.17" y="350.91" width="55.3" height="4.41" rx="1.84" transform="translate(207.64 706.23) rotate(180)" style="fill:#fff;isolation:isolate;opacity:0.6000000000000001"></rect><path d="M145,253.13c-7-1.47-12.58,3.46-14,9.45s3.39,12.46,8.86,14.83a53.82,53.82,0,0,0,8.18,3A9.37,9.37,0,0,1,149,276s-.19,2.89.9,4.44c0,0-1.09-1.95,2.47-7.23s4.88-8.59,1.35-13.73S147.6,253.69,145,253.13Z" style="fill:#263238"></path><path d="M159.5,303.13l7.25-4.1-4.55-5.69s-5.47,2.15-5.46,7Z" style="fill:#ebb376"></path><polygon points="169.94 294.03 165.53 290.6 162.2 293.34 166.75 299.03 169.94 294.03" style="fill:#ebb376"></polygon><path d="M138,283.38c3.22,2.22,5.2,18.95,7.2,19s11.95-4.7,11.95-4.7l3.08,6.44s-15,9.44-18.67,8.86S132.1,297,132.1,297Z" style="fill:#407BFF"></path><path d="M160.25,304.1s-15,9.44-18.67,8.86c-1.17-.19-2.55-1.85-3.89-4a86,86,0,0,1-5.58-11.9l2.31-5.34,3.6-8.3c3.23,2.22,5.2,18.95,7.2,19s11.95-4.7,11.95-4.7Z" style="fill:#fff;opacity:0.6000000000000001"></path><path d="M137.79,289.75s2.27,10.56-.1,19.17a86,86,0,0,1-5.58-11.9l2.31-5.34A11.66,11.66,0,0,1,137.79,289.75Z" style="opacity:0.2"></path><path d="M134.54,280s6,9.32-3.95,39.14c-1.17,3.5-.22,14.31-.22,14.31l-18-7.05S116.28,286.75,134.54,280Z" style="fill:#407BFF"></path><path d="M134.54,280s6,9.32-3.95,39.14c-1.17,3.5-.22,14.31-.22,14.31l-18-7.05S116.28,286.75,134.54,280Z" style="fill:#fff;opacity:0.7000000000000001"></path><path d="M134.54,280s6,9.32-3.95,39.14c-1.17,3.5-.22,14.31-.22,14.31l-18-7.05S116.28,286.75,134.54,280Z" style="opacity:0.4"></path><path d="M134.54,280s4.21,3.07,4.45,4.95c.62,5-8.52,34.87-8.52,34.87S134.65,296.29,134.54,280Z" style="fill:#407BFF"></path><path d="M139,284.94c.18,1.48-.49,5.11-1.51,9.51-.48,2.05-1,4.27-1.63,6.52h0c-2.35,9-5.2,18.31-5.36,18.83.07-.4,1.31-7.44,2.39-16.36v-.06a1.52,1.52,0,0,0,0-.21c0-.41.11-.83.16-1.25.27-2.3.52-4.7.74-7.13.46-5.05.77-10.21.74-14.8,0,0,.41.29,1,.76C136.78,281.78,138.83,283.65,139,284.94Z" style="fill:#fff;opacity:0.7000000000000001"></path><path d="M134.18,279.11a8.63,8.63,0,0,1,2.65,5.46l-1.47,1.18,1.32,4.19s-1.87,8.89-3.82,13.55C132.86,303.49,134.55,285.13,134.18,279.11Z" style="fill:#407BFF"></path><path d="M136.83,284.57l-1.47,1.18,1.31,4.19s-.42,2.05-1.08,4.68c-.57,2.25-1.29,4.92-2.07,7.14-.21.61-.43,1.19-.65,1.72,0,0,0,0,0,0v-.06a1.52,1.52,0,0,0,0-.21c0-.26,0-.69.11-1.24.13-1.56.35-4.17.56-7.12a156.56,156.56,0,0,0,.6-15.7,7.2,7.2,0,0,1,1.35,1.64A9.27,9.27,0,0,1,136.83,284.57Z" style="fill:#fff;opacity:0.6000000000000001"></path><path d="M160.69,371.61c-3.7,20.38-5.78,37.8-5.78,37.8L150,410c-.59-9.28-.33-23.55.15-36.54.6-16.23,1.52-30.48,1.52-30.48-5,0-9.87.06-14.53.15-16.81.31-30.33,1-30.33,1l15.2-29.62,2.52,8.36s40,5,43.89,15.63C169.56,341.56,163.84,354.2,160.69,371.61Z" style="fill:#ebb376"></path><path d="M158.9,409.43a9.72,9.72,0,0,1-2.37-.45.18.18,0,0,1-.07-.05s0,0,0,0h0a.19.19,0,0,1,0-.13c0-.07.33-1.61,1.14-2.08a1,1,0,0,1,.82-.1c.31.1.48.26.5.48s-.34.71-.79,1a2.52,2.52,0,0,1,1.36,0,.68.68,0,0,1,.4.38.63.63,0,0,1-.06.71A1.22,1.22,0,0,1,158.9,409.43Zm-1.77-.65c1,.25,2.13.43,2.39.15.06-.06,0-.17,0-.32a.32.32,0,0,0-.2-.19A4.1,4.1,0,0,0,157.13,408.78Zm.93-1.88a.68.68,0,0,0-.33.09,2.81,2.81,0,0,0-.87,1.47c.86-.48,1.67-1.08,1.65-1.36,0-.08-.17-.14-.24-.17Z" style="fill:#577afa"></path><path d="M150.19,373.49c.6-16.23,1.52-30.48,1.52-30.48-5,0-9.87.06-14.53.15l-3.26-12,16.6-1.53s8.92,4.75,8.78,11C159.2,345.07,153.62,362.93,150.19,373.49Z" style="isolation:isolate;opacity:0.2"></path><path d="M119,324.3a22.9,22.9,0,0,0,2.7-10.86l-22.93-6.5s-13.4,29.14-4.59,38.1c2,2,5.79,2.89,9.71,2.85,0,0,10.52,1.2,31.22-1.74,0,0-6.71,36.77-8.53,57.59l3.9.48s23.24-58.63,23.06-65.71S144.61,330,119,324.3Z" style="fill:#ebb376"></path><path d="M137.44,415.81a7.87,7.87,0,0,0-2.53-1.37h0s-2.75-2.74-4.08-11l-3.61-1a3.08,3.08,0,0,0-3.28,1.29,1.87,1.87,0,0,0-.23.47,21.72,21.72,0,0,0-.38,2.67,74.89,74.89,0,0,0,0,9h.65l.26-5.67c.09-1.93,1.57.33,2,2.4s1.32,4.28,5.54,4.39C136.64,417.21,138.69,417,137.44,415.81Z" style="fill:#263238"></path><path d="M161.14,415.81a7.87,7.87,0,0,0-2.53-1.37h0s-2.76-2.74-4.08-11l-3.61-1a3.08,3.08,0,0,0-3.28,1.29,1.58,1.58,0,0,0-.23.47A21.72,21.72,0,0,0,147,407a73.42,73.42,0,0,0-.06,9h.66l.26-5.67c.09-1.93,1.57.33,2,2.4s1.32,4.28,5.54,4.39C160.34,417.21,162.38,417,161.14,415.81Z" style="fill:#263238"></path><path d="M126.7,402.46c1.74.94,3,9.8,6.61,9.47,0,0-2.1-7.6-1.83-10.26Z" style="fill:#ebb376"></path><path d="M150.52,402.47c2.17.53,3.81,9.11,6.49,9.46,0,0-1.95-6.4-1-11.95a6.49,6.49,0,0,0-3.55,0A3.3,3.3,0,0,0,150.52,402.47Z" style="fill:#ebb376"></path><path d="M131.91,347.7s-3.59-19.43,25.67-17.1a158.29,158.29,0,0,0-32.41-8.32l-3.11-7.71-23.29-7.63s-13.83,28.49-5.65,38.45S131.91,347.7,131.91,347.7Z" style="fill:#407BFF"></path><path d="M136.54,294.65c-2.9,5.94-13.72,18.59-13.72,18.59l-25.3-6.12c4.68-5.48,9.3-17.75,15.21-33.47a5.94,5.94,0,0,1,8.68-3.2c.87.51,1.79,1.08,2.7,1.69a81.26,81.26,0,0,1,9.32,6.87c.94.84,1.9,1.74,2.8,2.62C139.48,284.8,138.51,290.62,136.54,294.65Z" style="fill:#263238"></path><path d="M135,264.63l.1.55,1.5,7.93h0l-.06,0h0a7.6,7.6,0,0,0-2.93,2.82c-.54,1.12-.41,2.43.92,4,0,0,.56,1.61-3.48,2.37-2.6-7.5-5.83-9.24-5.83-9.24C129,272.92,133.07,267.68,135,264.63Z" style="fill:#ebb376"></path><path d="M135.11,265.18l1.5,7.93-.06,0h0a7.6,7.6,0,0,0-2.93,2.82C132.74,273.32,132.21,268.15,135.11,265.18Z" style="opacity:0.2"></path><path d="M130.34,280.67c-2.19-1.18-5,1.36-5,1.36s-2.29-6.89-2-10.38a24.77,24.77,0,0,0,2.55.18S130,278.67,130.34,280.67Z" style="fill:#263238"></path><path d="M132.82,281.87s1,.27,1.36,3.34a7.78,7.78,0,0,0,.21-7.33,2.3,2.3,0,0,0-1.06-.83,2.31,2.31,0,0,0,.26,1.48C134.12,279.66,132.82,281.87,132.82,281.87Z" style="fill:#263238"></path><path d="M130.34,280.67c-2.19-1.18-5,1.36-5,1.36s-2.29-6.89-2-10.38a24.77,24.77,0,0,0,2.55.18S130,278.67,130.34,280.67Z" style="fill:#fff;opacity:0.2"></path><path d="M132.82,281.87s1,.27,1.36,3.34a7.78,7.78,0,0,0,.21-7.33,2.3,2.3,0,0,0-1.06-.83,2.31,2.31,0,0,0,.26,1.48C134.12,279.66,132.82,281.87,132.82,281.87Z" style="fill:#fff;opacity:0.2"></path><path d="M140,258.58c-4.32,4.34-6.24,6.07-6.68,10.53-.66,6.72,5.24,11.27,10.68,8.36,4.9-2.61,11.15-9.26,9.28-15.49A7.84,7.84,0,0,0,140,258.58Z" style="fill:#ebb376"></path><path d="M147.59,270.33c-.38.35-.52.84-.32,1.1s.68.18,1.06-.17.52-.84.31-1.09S148,270,147.59,270.33Z" style="fill:#263238"></path><path d="M148.53,270.07l1,.7S148.45,270.94,148.53,270.07Z" style="fill:#263238"></path><path d="M145.54,269.58a15,15,0,0,0-1.3,3.61c-.88-.08-1.37-1.16-1.37-1.16Z" style="fill:#d58745"></path><path d="M139.74,268.57a4.67,4.67,0,0,0-.56-.64.13.13,0,0,0-.2,0,.17.17,0,0,0,0,.22,4.27,4.27,0,0,1,1.31,3.45.16.16,0,0,0,.12.18.15.15,0,0,0,.16-.13A4.51,4.51,0,0,0,139.74,268.57Z" style="fill:#263238"></path><path d="M144.5,263.89a.28.28,0,0,0,.15.17,2.17,2.17,0,0,1,1.34,1.6.27.27,0,0,0,.33.23.32.32,0,0,0,.25-.36,2.78,2.78,0,0,0-1.67-2,.31.31,0,0,0-.39.17A.31.31,0,0,0,144.5,263.89Z" style="fill:#263238"></path><path d="M151.71,270.08a.29.29,0,0,0,.16.15.31.31,0,0,0,.37-.21,3.14,3.14,0,0,0-.32-2.77.27.27,0,0,0-.4,0,.31.31,0,0,0-.05.43,2.5,2.5,0,0,1,.22,2.19A.33.33,0,0,0,151.71,270.08Z" style="fill:#263238"></path><path d="M144.15,266.64l1,.69S144.07,267.5,144.15,266.64Z" style="fill:#263238"></path><path d="M144.69,267a1.61,1.61,0,0,0-1.48-1.73,1.71,1.71,0,0,1,.95,1.6Z" style="fill:#263238"></path><path d="M151.91,262.25a12.85,12.85,0,0,1-11.45,0l-3.63,1.33s-2-4.63,4.59-8.89,17,6.95,11.1,14A6.81,6.81,0,0,0,151.91,262.25Z" style="fill:#263238"></path><path d="M139.22,256.4s-9.67,4-8.88,13.18l1.77,2a11.55,11.55,0,0,1,1.46-6.31s-.64,3.77.44,5.75c0,0-.37-7.39,3.72-11.09Z" style="fill:#263238"></path><path d="M135,260.35a4.9,4.9,0,0,0,.13,3.75c.72,1.5,2.39,1,3.27-.46.8-1.31,1.39-3.67.14-4.67S135.52,258.8,135,260.35Z" style="fill:#ebb376"></path><polygon points="100.14 305.35 98.86 308.92 122.06 314.57 123.68 312.38 100.14 305.35" style="fill:#263238"></polygon><polygon points="100.14 305.35 98.86 308.92 122.06 314.57 123.68 312.38 100.14 305.35" style="fill:#fff;opacity:0.2"></polygon><path d="M116.81,313.42l-4.17-1a.36.36,0,0,1-.25-.5l1.08-2.52a.36.36,0,0,1,.45-.2l4.16,1.36a.35.35,0,0,1,.21.5l-1.07,2.15A.36.36,0,0,1,116.81,313.42Z" style="fill:#fff"></path><path d="M123.28,271.64s-.11,1.36-.53,3.71c-.08.43-.16.9-.26,1.4l0,.13c-.08.36-.15.74-.24,1.13,0,.2-.09.41-.14.61a4,4,0,0,1-.13.55c-.37,1.58-.85,3.36-1.45,5.31-.13.41-.26.84-.41,1.27-.4,1.24-.86,2.53-1.37,3.86-.73,1.87-1.57,3.84-2.53,5.87-.3.62-.61,1.26-.94,1.89-.06.1-.11.21-.16.31l-.61,1.16a0,0,0,0,1,0,0c-.07.15-.15.3-.23.44l-.11.22a82.17,82.17,0,0,1-7,10.69l-.77,1q-.39.49-.81,1c-.32.4-.66.8-1,1.2l-.68.78c-.57.66-1.17,1.31-1.79,2-.31.33-.62.65-.94,1,0,0-.29.47-.75,1.3l-.34.61c-.18.32-.38.69-.58,1.1s-.28.54-.43.84l-.22.45c-.16.31-.3.64-.46,1s-.32.69-.47,1-.32.73-.47,1.11c-.24.57-.47,1.16-.7,1.77-.15.41-.3.83-.44,1.26-.3.84-.57,1.72-.81,2.62a11.37,11.37,0,0,1-1.49,0l-.65-.05c-1.72-.2-4.09-.75-5.46-2.32,0,0,1.34-9.54,8.58-21.58,0,0,4.76-10.09,9.24-19.48q.73-1.51,1.44-3l1-2.17c.23-.47.46-.94.67-1.39.65-1.36,1.27-2.64,1.83-3.78.19-.39.37-.75.53-1.1s.33-.69.49-1,.3-.62.44-.89c.41-.83.74-1.49,1-1.91a5.5,5.5,0,0,1,.87-1.23,4.91,4.91,0,0,1,3.58-1.42l.44,0a1.24,1.24,0,0,1,.27,0,1.33,1.33,0,0,1,.28,0l.35.06.31.07a8.51,8.51,0,0,1,1,.3l.31.13a7,7,0,0,1,1.57.91,4.55,4.55,0,0,1,.69.61A4.34,4.34,0,0,1,123.28,271.64Z" style="fill:#407BFF"></path><path d="M123.28,271.64s-.11,1.36-.53,3.71c-.08.43-.16.9-.26,1.4l0,.13c-.08.36-.15.74-.24,1.13,0,.2-.09.41-.14.61a4,4,0,0,1-.13.55c-.37,1.58-.85,3.36-1.45,5.31-.13.41-.26.84-.41,1.27-.4,1.24-.86,2.53-1.37,3.86-.73,1.87-1.57,3.84-2.53,5.87-.3.62-.62,1.26-.94,1.89-.06.1-.11.21-.16.31l-.61,1.16a0,0,0,0,1,0,0,.06.06,0,0,0,0,0,.93.93,0,0,0-.1.2l-.12.2-.11.22a82.17,82.17,0,0,1-7,10.69l-.77,1q-.39.49-.81,1c-.32.4-.66.8-1,1.2l-.68.78c-.57.66-1.17,1.31-1.79,2-.3.33-.61.65-.93,1,0,0-.29.47-.76,1.3l-.34.61c-.18.32-.38.69-.58,1.1s-.28.54-.43.84l-.22.45-.46,1-.47,1c-.15.36-.32.73-.47,1.11-.23.57-.47,1.16-.7,1.77-.15.41-.3.83-.44,1.26-.3.84-.57,1.72-.81,2.62a11.37,11.37,0,0,1-1.49,0l-.65-.05c-1.72-.2-4.09-.75-5.46-2.32,0,0,1.34-9.54,8.58-21.58,0,0,4.76-10.09,9.24-19.48q.73-1.51,1.44-3l1-2.17c.23-.47.46-.94.67-1.39.65-1.36,1.27-2.64,1.83-3.78.19-.39.37-.75.53-1.1s.33-.69.49-1,.3-.62.44-.89c.41-.83.73-1.49,1-1.91a5.62,5.62,0,0,1,.88-1.23,4.91,4.91,0,0,1,3.58-1.42l.44,0a1.24,1.24,0,0,1,.27,0,1.33,1.33,0,0,1,.28,0l.35.06.31.07a8.51,8.51,0,0,1,1,.3l.31.13a7,7,0,0,1,1.57.91,6.08,6.08,0,0,1,.47.39l.22.22A4.34,4.34,0,0,1,123.28,271.64Z" style="fill:#fff;opacity:0.7000000000000001"></path><path d="M122.37,270.8a2.17,2.17,0,0,1,2.45.5s0,11.53-10.47,27.79c0,0,4.11-7.8,3.94-19.68l3.27-2.23-2.42-3.56S120.8,271.37,122.37,270.8Z" style="fill:#407BFF"></path><path d="M124.82,271.3s0,8.14-6.2,20.39c-1.18,2.3-2.56,4.75-4.22,7.32,0,0,0-.07.06-.11a.14.14,0,0,1,0-.06,40.5,40.5,0,0,0,3.13-10.51,49,49,0,0,0,.68-8.92l3.27-2.23-2.42-3.56s1.66-2.26,3.23-2.82a.59.59,0,0,1,.17,0A2.1,2.1,0,0,1,124.82,271.3Z" style="fill:#fff;opacity:0.6000000000000001"></path><path d="M162.52,287.66l1.77,2.68-1.6,1.1-2.13-2.62S161.36,287.38,162.52,287.66Z" style="fill:#263238"></path><path d="M163.53,284l4.08,1.42-.5,1.86-3.92-.85A2.32,2.32,0,0,1,163.53,284Z" style="fill:#263238"></path><path d="M162.52,287.66l1.77,2.68-1.6,1.1-2.13-2.62S161.36,287.38,162.52,287.66Z" style="fill:#fff;opacity:0.05"></path><path d="M163.53,284l4.08,1.42-.5,1.86-3.92-.85A2.32,2.32,0,0,1,163.53,284Z" style="fill:#fff;opacity:0.05"></path><polygon points="162.06 285.04 161.55 286.68 159.63 288.16 157.4 288.32 151.46 280.42 150.97 279.77 151.47 278.29 146.87 272.07 149.65 269.98 154.12 276.37 155.79 276.51 156.19 277.05 162.06 285.04" style="fill:#263238"></polygon><polygon points="162.06 285.04 161.55 286.68 159.63 288.16 157.4 288.32 151.46 280.42 150.97 279.77 151.47 278.29 146.87 272.07 149.65 269.98 154.12 276.37 155.79 276.51 156.19 277.05 162.06 285.04" style="fill:#fff;opacity:0.5"></polygon><polygon points="156.19 277.05 151.46 280.42 150.97 279.77 151.47 278.29 146.87 272.07 149.65 269.98 154.12 276.37 155.79 276.51 156.19 277.05" style="fill:#263238"></polygon><polygon points="161.26 288.01 162.83 287.77 163.59 286.67 162.94 284.38 161.26 288.01" style="fill:#263238"></polygon><polygon points="156.19 277.05 151.46 280.42 150.97 279.77 151.47 278.29 146.87 272.07 149.65 269.98 154.12 276.37 155.79 276.51 156.19 277.05" style="fill:#fff;opacity:0.2"></polygon><polygon points="161.26 288.01 162.83 287.77 163.59 286.67 162.94 284.38 161.26 288.01" style="fill:#fff;opacity:0.1"></polygon><polygon points="159.23 288.59 162.73 282.62 164.13 283.45 160.6 289.62 159.23 288.59" style="fill:#263238"></polygon><polygon points="159.23 288.59 162.73 282.62 164.13 283.45 160.6 289.62 159.23 288.59" style="fill:#fff;opacity:0.2"></polygon><polygon points="157.46 291.07 159.4 294.53 159.82 294.29 157.68 290.79 157.46 291.07" style="fill:#263238"></polygon><polygon points="157.46 291.07 159.4 294.53 159.82 294.29 157.68 290.79 157.46 291.07" style="fill:#fff;opacity:0.2"></polygon><polygon points="163.22 307.13 171.88 302.15 172.38 303.08 163.93 307.98 163.22 307.13" style="fill:#263238"></polygon><polygon points="163.22 307.13 171.88 302.15 172.38 303.08 163.93 307.98 163.22 307.13" style="fill:#fff;opacity:0.1"></polygon><polygon points="167.49 295.01 168.36 296.59 164.2 298.87 163.09 297.34 167.49 295.01" style="fill:#263238"></polygon><polygon points="167.49 295.01 168.36 296.59 164.2 298.87 163.09 297.34 167.49 295.01" style="fill:#fff;opacity:0.05"></polygon><polygon points="157.54 298.29 158.81 300.45 173.08 292.55 171.58 290.4 157.54 298.29" style="fill:#263238"></polygon><polygon points="163.33 298.99 168.6 296.1 169.28 297.32 164.12 300.19 163.33 298.99" style="fill:#263238"></polygon><polygon points="157.54 298.29 158.81 300.45 173.08 292.55 171.58 290.4 157.54 298.29" style="fill:#fff;opacity:0.2"></polygon><polygon points="163.33 298.99 168.6 296.1 169.28 297.32 164.12 300.19 163.33 298.99" style="fill:#fff;opacity:0.1"></polygon><path d="M149.58,285.3l4.62-2.21,4.42,8.29-4.05,2.35-.13-.07a2.37,2.37,0,0,0-2.28,0l-.76.44a1.21,1.21,0,0,0-.56,1.4h0a14,14,0,0,0,4.63,6.91h0a1,1,0,0,0,1.18.08l1.14-.75a2,2,0,0,0,.87-1.6h0l6.15-3.36.44.8-2.94,1.66V303l2.56,5.21-2.55,1.46s-9.69-1.77-13.25-9.12S149.58,285.3,149.58,285.3Z" style="fill:#263238"></path><path d="M149.58,285.3l4.62-2.21,4.42,8.29-4.05,2.35-.13-.07a2.37,2.37,0,0,0-2.28,0l-.76.44a1.21,1.21,0,0,0-.56,1.4h0a14,14,0,0,0,4.63,6.91h0a1,1,0,0,0,1.18.08l1.14-.75a2,2,0,0,0,.87-1.6h0l6.15-3.36.44.8-2.94,1.66V303l2.56,5.21-2.55,1.46s-9.69-1.77-13.25-9.12S149.58,285.3,149.58,285.3Z" style="fill:#fff;opacity:0.7000000000000001"></path><path d="M156.51,291.2a1.37,1.37,0,1,1-1.55-1.15A1.37,1.37,0,0,1,156.51,291.2Z" style="fill:#263238"></path><polygon points="166.65 304.68 167.67 306.21 172.82 303.29 171.88 301.79 166.65 304.68" style="fill:#263238"></polygon><path d="M156.8,284.75a2.33,2.33,0,1,1-2.64-2A2.32,2.32,0,0,1,156.8,284.75Z" style="fill:#263238"></path><path d="M156.51,291.2a1.37,1.37,0,1,1-1.55-1.15A1.37,1.37,0,0,1,156.51,291.2Z" style="fill:#fff;opacity:0.1"></path><polygon points="166.65 304.68 167.67 306.21 172.82 303.29 171.88 301.79 166.65 304.68" style="fill:#fff;opacity:0.2"></polygon><path d="M156.8,284.75a2.33,2.33,0,1,1-2.64-2A2.32,2.32,0,0,1,156.8,284.75Z" style="fill:#fff;opacity:0.2"></path><path d="M155.65,284.92a1.17,1.17,0,1,1-1.32-1A1.16,1.16,0,0,1,155.65,284.92Z" style="fill:#fff;opacity:0.5"></path><rect x="160.15" y="309.78" width="12.7" height="1.48" style="fill:#263238"></rect><rect x="160.15" y="309.78" width="12.7" height="1.48" style="fill:#fff;opacity:0.1"></rect><path d="M153.24,311.26l3.91-6.81a2.32,2.32,0,0,1,2.11-1.15h0a2.3,2.3,0,0,1,2.18,2.2l.23,5.76Z" style="fill:#263238"></path><path d="M153.24,311.26l3.91-6.81a2.32,2.32,0,0,1,2.11-1.15h0a2.3,2.3,0,0,1,2.18,2.2l.23,5.76Z" style="fill:#fff;opacity:0.5"></path><circle cx="159.02" cy="305.81" r="1.37" style="fill:#263238"></circle><rect x="149.92" y="311.04" width="25.67" height="2.02" style="fill:#263238"></rect><circle cx="159.02" cy="305.81" r="1.37" style="fill:#fff;opacity:0.1"></circle><rect x="149.92" y="311.04" width="25.67" height="2.02" style="fill:#fff;opacity:0.2"></rect><path d="M143.21,286.05l7.27-4.07,2.5,6.84s-4.68,3.56-8.82,1Z" style="fill:#ebb376"></path><polygon points="156.41 281.84 157.05 287.39 152.98 288.82 150.48 281.98 156.41 281.84" style="fill:#ebb376"></polygon><path d="M140.94,287.7c-.92,1.9-1.95,3.95-3,6h0l-2.44.27-.49,0h-.05c.47-1.5,1.25-4,2.1-6.83l.23,0,1.79.22Z" style="opacity:0.2"></path><path d="M115.43,269.21c6.14-3.11,10.7,17.84,13,19.23s16.77-4.69,16.77-4.69l2,8.57s-15.45,8-20.46,7.43c-7.53-.82-12.08-11.28-13.91-21.32C112,273.93,113.8,270,115.43,269.21Z" style="fill:#407BFF"></path><path d="M115.43,269.21c6.14-3.11,10.7,17.84,13,19.23s16.77-4.69,16.77-4.69l2,8.57s-15.45,8-20.46,7.43c-7.53-.82-12.08-11.28-13.91-21.32C112,273.93,113.8,270,115.43,269.21Z" style="fill:#fff;opacity:0.7000000000000001"></path><rect x="169.03" y="315.62" width="4.35" height="101.51" transform="translate(342.4 732.76) rotate(180)" style="fill:#263238"></rect><rect x="125.53" y="315.62" width="4.35" height="101.51" transform="translate(255.42 732.76) rotate(180)" style="fill:#263238"></rect><rect x="202.22" y="315.62" width="4.35" height="101.51" transform="translate(408.79 732.76) rotate(180)" style="fill:#263238"></rect><rect x="169.03" y="315.62" width="4.35" height="101.51" transform="translate(342.4 732.76) rotate(180)" style="fill:#fff;opacity:0.6000000000000001"></rect><rect x="125.53" y="315.62" width="4.35" height="101.51" transform="translate(255.42 732.76) rotate(180)" style="fill:#fff;opacity:0.6000000000000001"></rect><rect x="202.22" y="315.62" width="4.35" height="101.51" transform="translate(408.79 732.76) rotate(180)" style="fill:#fff;opacity:0.6000000000000001"></rect><rect x="124.74" y="313.76" width="82.21" height="5.82" transform="translate(331.7 633.33) rotate(180)" style="fill:#263238"></rect><rect x="124.74" y="313.76" width="82.21" height="5.82" transform="translate(331.7 633.33) rotate(180)" style="fill:#fff;opacity:0.6000000000000001"></rect><path d="M122.74,314.91H209a1.15,1.15,0,0,0,1.15-1.15h0A1.15,1.15,0,0,0,209,312.6H122.74a1.15,1.15,0,0,0-1.15,1.16h0A1.15,1.15,0,0,0,122.74,314.91Z" style="fill:#263238"></path><path d="M122.74,314.91H209a1.15,1.15,0,0,0,1.15-1.15h0A1.15,1.15,0,0,0,209,312.6H122.74a1.15,1.15,0,0,0-1.15,1.16h0A1.15,1.15,0,0,0,122.74,314.91Z" style="fill:#fff;opacity:0.7000000000000001"></path><rect x="158.73" y="315.62" width="4.35" height="101.51" transform="translate(321.81 732.76) rotate(180)" style="fill:#263238"></rect><rect x="158.73" y="315.62" width="4.35" height="101.51" transform="translate(321.81 732.76) rotate(180)" style="fill:#fff;opacity:0.6000000000000001"></rect></g></svg>
