<svg xmlns="http://www.w3.org/2000/svg" viewBox="0 0 500 500"><g id="freepik--background-complete--inject-20"><rect y="382.4" width="500" height="0.25" style="fill:#ebebeb"></rect><rect x="416.78" y="398.49" width="33.12" height="0.25" style="fill:#ebebeb"></rect><rect x="322.53" y="401.21" width="8.69" height="0.25" style="fill:#ebebeb"></rect><rect x="396.59" y="389.21" width="19.19" height="0.25" style="fill:#ebebeb"></rect><rect x="52.46" y="390.89" width="43.19" height="0.25" style="fill:#ebebeb"></rect><rect x="104.56" y="390.89" width="6.33" height="0.25" style="fill:#ebebeb"></rect><rect x="131.47" y="395.11" width="93.68" height="0.25" style="fill:#ebebeb"></rect><path d="M237,337.8H43.91a5.71,5.71,0,0,1-5.7-5.71V60.66A5.71,5.71,0,0,1,43.91,55H237a5.71,5.71,0,0,1,5.71,5.71V332.09A5.71,5.71,0,0,1,237,337.8ZM43.91,55.2a5.46,5.46,0,0,0-5.45,5.46V332.09a5.46,5.46,0,0,0,5.45,5.46H237a5.47,5.47,0,0,0,5.46-5.46V60.66A5.47,5.47,0,0,0,237,55.2Z" style="fill:#ebebeb"></path><path d="M453.31,337.8H260.21a5.72,5.72,0,0,1-5.71-5.71V60.66A5.72,5.72,0,0,1,260.21,55h193.1A5.71,5.71,0,0,1,459,60.66V332.09A5.71,5.71,0,0,1,453.31,337.8ZM260.21,55.2a5.47,5.47,0,0,0-5.46,5.46V332.09a5.47,5.47,0,0,0,5.46,5.46h193.1a5.47,5.47,0,0,0,5.46-5.46V60.66a5.47,5.47,0,0,0-5.46-5.46Z" style="fill:#ebebeb"></path><path d="M172,168.76c19.42-32.48,57.49-20.59,77.41,4.19,19.26-25.29,57-38.16,77.27-6.19C360.8,220.66,292.5,271.88,260.19,292c-3.66,2.32-6.69,4.22-9.21,5.72-2.57-1.44-5.65-3.26-9.36-5.48C208.8,273,139.2,223.52,172,168.76Z" style="fill:#e0e0e0"></path><polygon points="216.08 255.34 200.13 172.63 186.7 233.12 173.45 190.13 166.13 206.34 126.24 206.34 126.24 203.5 164.3 203.5 173.96 182.13 186.26 222.03 200.32 158.65 216.28 241.41 228.85 185.24 238.98 224.93 251.32 177.77 265.43 217.48 276.2 166.17 291.78 238.06 307.55 173.73 317.47 214.47 327.15 190.59 334.78 203.5 371.58 203.5 371.58 206.34 333.16 206.34 327.62 196.97 316.79 223.69 307.54 185.69 291.61 250.68 276.25 179.77 266.13 227.94 251.74 187.41 238.94 236.28 229.03 197.43 216.08 255.34" style="fill:#f0f0f0"></polygon><polygon points="305.84 94.45 295.96 94.45 295.96 84.57 289.66 84.57 289.66 94.45 279.78 94.45 279.78 100.74 289.66 100.74 289.66 110.63 295.96 110.63 295.96 100.74 305.84 100.74 305.84 94.45" style="fill:#f0f0f0"></polygon><polygon points="92.63 153.73 82.75 153.73 82.75 143.84 76.45 143.84 76.45 153.73 66.57 153.73 66.57 160.02 76.45 160.02 76.45 169.9 82.75 169.9 82.75 160.02 92.63 160.02 92.63 153.73" style="fill:#f0f0f0"></polygon><polygon points="79.6 283.28 69.72 283.28 69.72 273.4 63.42 273.4 63.42 283.28 53.54 283.28 53.54 289.57 63.42 289.57 63.42 299.46 69.72 299.46 69.72 289.57 79.6 289.57 79.6 283.28" style="fill:#f0f0f0"></polygon><polygon points="359.4 121.32 354.5 121.32 354.5 116.41 351.37 116.41 351.37 121.32 346.46 121.32 346.46 124.44 351.37 124.44 351.37 129.35 354.5 129.35 354.5 124.44 359.4 124.44 359.4 121.32" style="fill:#f0f0f0"></polygon><polygon points="430.72 188.6 425.81 188.6 425.81 183.69 422.69 183.69 422.69 188.6 417.78 188.6 417.78 191.72 422.69 191.72 422.69 196.63 425.81 196.63 425.81 191.72 430.72 191.72 430.72 188.6" style="fill:#f0f0f0"></polygon><polygon points="446.28 292.4 441.37 292.4 441.37 287.49 438.25 287.49 438.25 292.4 433.34 292.4 433.34 295.52 438.25 295.52 438.25 300.43 441.37 300.43 441.37 295.52 446.28 295.52 446.28 292.4" style="fill:#f0f0f0"></polygon><polygon points="119.73 89.6 114.83 89.6 114.83 84.69 111.7 84.69 111.7 89.6 106.79 89.6 106.79 92.73 111.7 92.73 111.7 97.64 114.83 97.64 114.83 92.73 119.73 92.73 119.73 89.6" style="fill:#f0f0f0"></polygon><polygon points="89 353.22 84.09 353.22 84.09 348.31 80.96 348.31 80.96 353.22 76.06 353.22 76.06 356.35 80.96 356.35 80.96 361.25 84.09 361.25 84.09 356.35 89 356.35 89 353.22" style="fill:#f0f0f0"></polygon><polygon points="175.19 341.14 167.85 341.14 167.85 333.8 163.18 333.8 163.18 341.14 155.84 341.14 155.84 345.81 163.18 345.81 163.18 353.16 167.85 353.16 167.85 345.81 175.19 345.81 175.19 341.14" style="fill:#f0f0f0"></polygon><polygon points="463.25 237.1 455.91 237.1 455.91 229.76 451.23 229.76 451.23 237.1 443.89 237.1 443.89 241.77 451.23 241.77 451.23 249.12 455.91 249.12 455.91 241.77 463.25 241.77 463.25 237.1" style="fill:#f0f0f0"></polygon><polygon points="205.07 112.39 197.73 112.39 197.73 105.05 193.06 105.05 193.06 112.39 185.72 112.39 185.72 117.07 193.06 117.07 193.06 124.41 197.73 124.41 197.73 117.07 205.07 117.07 205.07 112.39" style="fill:#f0f0f0"></polygon><polygon points="415.19 107.65 407.85 107.65 407.85 100.31 403.17 100.31 403.17 107.65 395.83 107.65 395.83 112.33 403.17 112.33 403.17 119.67 407.85 119.67 407.85 112.33 415.19 112.33 415.19 107.65" style="fill:#f0f0f0"></polygon><polygon points="290.93 364.35 284.9 364.35 284.9 358.32 281.06 358.32 281.06 364.35 275.04 364.35 275.04 368.19 281.06 368.19 281.06 374.21 284.9 374.21 284.9 368.19 290.93 368.19 290.93 364.35" style="fill:#f0f0f0"></polygon></g><g id="freepik--Shadow--inject-20"><ellipse id="freepik--path--inject-20" cx="250" cy="419.84" rx="193.89" ry="14.92" style="fill:#f5f5f5"></ellipse></g><g id="freepik--speech-bubble--inject-20"><circle cx="140.46" cy="131.14" r="26.14" transform="translate(-19.44 237.71) rotate(-76.72)" style="fill:#407BFF"></circle><polygon points="153.49 127.99 143.61 127.99 143.61 118.11 137.32 118.11 137.32 127.99 127.43 127.99 127.43 134.28 137.32 134.28 137.32 144.17 143.61 144.17 143.61 134.28 153.49 134.28 153.49 127.99" style="fill:#fff;opacity:0.8"></polygon><polygon points="129.34 148.77 128.71 165.78 138.45 151.82 129.34 148.77" style="fill:#407BFF"></polygon></g><g id="freepik--medicines-bottles--inject-20"><path d="M412.56,298.31V282.55h-32v15.76a15.18,15.18,0,0,1-7,12.78h0a15.14,15.14,0,0,0-7,12.78v92.69A3.44,3.44,0,0,0,370,420h53.1a3.44,3.44,0,0,0,3.44-3.44V323.87a15.15,15.15,0,0,0-7-12.78h0A15.17,15.17,0,0,1,412.56,298.31Z" style="fill:#407BFF"></path><path d="M426.57,323.86v92.71a3.44,3.44,0,0,1-3.44,3.43H370a3.44,3.44,0,0,1-3.44-3.43V323.86a15.19,15.19,0,0,1,7-12.77,15.17,15.17,0,0,0,6.84-10.51,15.59,15.59,0,0,0,.17-2.28V282.55h32V298.3a15.19,15.19,0,0,0,7,12.79A15.14,15.14,0,0,1,426.57,323.86Z" style="opacity:0.2"></path><rect x="379.84" y="341.07" width="46.74" height="44.71" style="fill:#fff;opacity:0.7000000000000001"></rect><path d="M426.57,323.86v92.71a3.44,3.44,0,0,1-3.44,3.43H370a3.44,3.44,0,0,1-3.44-3.43v-5.44a7.64,7.64,0,0,0,6.38,3.53l39.12.35a3,3,0,0,0,3-3V323.27a9.57,9.57,0,0,0-4.39-8.06,9.57,9.57,0,0,1-4.41-8.06v-1.77c-12.32,0-20.74-2.52-25.82-4.8a15.59,15.59,0,0,0,.17-2.28V286.46h32V298.3a15.19,15.19,0,0,0,7,12.79A15.14,15.14,0,0,1,426.57,323.86Z" style="opacity:0.1"></path><path d="M392,301.79c.06-.4.12-.8.16-1.21.07-.74.11-1.51.11-2.28v-1.4H387v1.4a14.32,14.32,0,0,1-.18,2.28c-.06.41-.15.81-.25,1.21Z" style="fill:#fff;opacity:0.2"></path><path d="M384.4,316.58a14.47,14.47,0,0,1,3.32-5.49,15.55,15.55,0,0,0,3.77-7h-5.66a15.19,15.19,0,0,1-5.85,7,15.12,15.12,0,0,0-7,12.77v85a3.45,3.45,0,0,0,3.44,3.44h9c-1.23,0-2.22-1.55-2.22-3.44v-85A22.23,22.23,0,0,1,384.4,316.58Z" style="fill:#fff;opacity:0.2"></path><path d="M416.47,276.33v15.45a2.18,2.18,0,0,1-2.18,2.18H378.88a2.18,2.18,0,0,1-2.07-1.51,1.89,1.89,0,0,1-.11-.67V276.33a2.18,2.18,0,0,1,2.18-2.19h35.41A2.18,2.18,0,0,1,416.47,276.33Z" style="fill:#407BFF"></path><path d="M416.47,276.33v15.45a2.18,2.18,0,0,1-2.18,2.18H378.88a2.18,2.18,0,0,1-2.07-1.51,1.89,1.89,0,0,1-.11-.67V276.33a2.18,2.18,0,0,1,2.18-2.19h35.41A2.18,2.18,0,0,1,416.47,276.33Z" style="fill:#fff;opacity:0.5"></path><path d="M412.13,274.83v15.44a2.17,2.17,0,0,1-2.19,2.18H376.81a1.89,1.89,0,0,1-.11-.67V276.33a2.18,2.18,0,0,1,2.18-2.19H412A1.92,1.92,0,0,1,412.13,274.83Z" style="fill:#fff;opacity:0.2"></path><path d="M321.71,337.6h47.83a0,0,0,0,1,0,0v80a2.42,2.42,0,0,1-2.42,2.42h-43a2.42,2.42,0,0,1-2.42-2.42v-80A0,0,0,0,1,321.71,337.6Z" style="fill:#263238"></path><path d="M369.54,337.61v79.3a3.09,3.09,0,0,1-3.09,3.09H324.8a3.09,3.09,0,0,1-3.09-3.09v-79.3Z" style="fill:#fff;opacity:0.7000000000000001"></path><rect x="321.71" y="360.87" width="30.17" height="36.1" style="fill:#fff;opacity:0.7000000000000001"></rect><path d="M369.54,338.69v78.22a3.09,3.09,0,0,1-3.09,3.09H324.8a3.09,3.09,0,0,1-3.09-3.09h30.1a2.48,2.48,0,0,0,2.48-2.48V350.71c-23.74,0-31.06-3.65-32.58-3.95v-9Z" style="opacity:0.1"></path><rect x="320.07" y="333.48" width="51.09" height="13.26" rx="1.52" style="fill:#407BFF"></rect><path d="M321.61,333.48a1.53,1.53,0,0,0-1.54,1.52v9.39h2.47v-9.08a.64.64,0,0,1,1.28,0v9.08h3.28v-9.08a.64.64,0,1,1,1.28,0v9.08h3.29v-9.08a.64.64,0,0,1,1.28,0v9.08h3.29v-9.08a.64.64,0,1,1,1.27,0v9.08h3.29v-9.08a.64.64,0,0,1,1.28,0v9.08h3.29v-9.08a.64.64,0,1,1,1.27,0v9.08h3.29v-9.08a.64.64,0,0,1,1.28,0v9.08h3.29v-9.08a.64.64,0,0,1,1.28,0v9.08h3.28v-9.08a.64.64,0,0,1,1.28,0v9.08h3.29v-9.08a.64.64,0,1,1,1.28,0v9.08h1a1.53,1.53,0,0,0,1.52-1.52v-9.39Z" style="fill:#fff;opacity:0.2"></path><rect x="325.9" y="350.55" width="5.33" height="4.24" style="fill:#fff;opacity:0.30000000000000004"></rect><path d="M331.23,413.06v-56H325.9v56a2,2,0,0,0,2,1.95h5.21A1.93,1.93,0,0,1,331.23,413.06Z" style="fill:#fff;opacity:0.30000000000000004"></path></g><g id="freepik--Pills--inject-20"><path d="M254.69,414.87a8.08,8.08,0,0,0,10.46,4.58l31.55-12.34a8.06,8.06,0,0,0-5.88-15l-31.55,12.33a8.08,8.08,0,0,0-4.58,10.45Z" style="fill:#407BFF"></path><path d="M272.55,407.89A8.06,8.06,0,0,0,283,412.47l13.71-5.36a8.06,8.06,0,0,0-5.88-15l-13.7,5.36a8,8,0,0,0-4.57,10.44Z" style="fill:#263238;opacity:0.7000000000000001"></path><path d="M254.69,414.87a8.08,8.08,0,0,0,10.46,4.58l31.55-12.34a7.94,7.94,0,0,0,4.19-3.76,8,8,0,0,1-2.05,1.17l-31.55,12.34A8.07,8.07,0,0,1,257,406.11a4.81,4.81,0,0,1,.25-.51,8.39,8.39,0,0,0-2.39,3.1A8,8,0,0,0,254.69,414.87Z" style="opacity:0.1"></path><path d="M261.41,408.83l23.15-9.05a1.28,1.28,0,0,0,.73-1.65h0a1.28,1.28,0,0,0-1.65-.72l-23.16,9.06a1.26,1.26,0,0,0-.72,1.64h0A1.26,1.26,0,0,0,261.41,408.83Z" style="fill:#fff;opacity:0.30000000000000004"></path><path d="M287.86,398.49a3.26,3.26,0,1,0,1.85-4.23A3.27,3.27,0,0,0,287.86,398.49Z" style="fill:#fff;opacity:0.30000000000000004"></path><path d="M324.19,411.93a8.07,8.07,0,0,1-8.08,8.07H282.24a8.07,8.07,0,0,1,0-16.13h33.87a8.09,8.09,0,0,1,8.08,8.06Z" style="fill:#407BFF"></path><path d="M305,411.93A8.06,8.06,0,0,1,297,420H282.24a8.07,8.07,0,0,1,0-16.13H297a8.07,8.07,0,0,1,8.05,8.06Z" style="fill:#fff;opacity:0.7000000000000001"></path><path d="M324.19,411.93a8.07,8.07,0,0,1-8.08,8.07H282.24a7.94,7.94,0,0,1-5.27-2,7.87,7.87,0,0,0,2.33.35h33.88a8.07,8.07,0,0,0,5.71-13.77,3.89,3.89,0,0,0-.43-.38,8.19,8.19,0,0,1,3.36,2A8,8,0,0,1,324.19,411.93Z" style="opacity:0.1"></path><path d="M315.74,408.76H290.87a1.27,1.27,0,0,1-1.27-1.28h0a1.27,1.27,0,0,1,1.27-1.27h24.87a1.27,1.27,0,0,1,1.27,1.27h0A1.27,1.27,0,0,1,315.74,408.76Z" style="fill:#fff;opacity:0.30000000000000004"></path><circle cx="284.07" cy="408.76" r="3.26" style="fill:#fff;opacity:0.30000000000000004"></circle></g><g id="freepik--Gut--inject-20"><path d="M418.73,173.87c-9.72,42.88-33.17,60.08-58,61.91-8.6.63-14.37-.74-18.24-2.8-7.3-3.88-7.83-10.24-7.83-10.24s-10.88,7.21-24.6,5.49c-10.73-1.33-13.42-10.82-14.09-14.91a14.19,14.19,0,0,1-.22-1.85c-11.43-11.62-22.3-89.06-8.58-100.87S386.7,99,398.15,99.49,428.46,131,418.73,173.87Z" style="fill:#407BFF"></path><path d="M353.24,179.28c-5.43,11.76-17.14,37.05-16,43.85.45,2.7,2.26,6.43,5.27,9.85-7.3-3.88-7.83-10.24-7.83-10.24s-10.88,7.21-24.6,5.49c-10.73-1.33-13.42-10.82-14.09-14.91l4.64-.95s-.41,11.75,10.3,13.57,19.16.73,23.17-6.79,4.5-35.07,10.4-45.88S358.67,167.52,353.24,179.28Z" style="opacity:0.2"></path><path d="M294.9,194c-.86-7.06,15.73-17.81,12.3-20.73s-7.15,7.78-12.52,11.63-4.93-3.1-4.93-3.1C288.51,186.44,295.76,201.06,294.9,194Z" style="opacity:0.2"></path><path d="M313.11,129c3.52,9.39,6.1,25.76,12.1,24.73s-8.5-33.07-17.55-36.79H294.9S309.6,119.65,313.11,129Z" style="opacity:0.2"></path><path d="M382.41,167.31c-5.19,1.11-8.12.43-9.56-.95-.05-.21-.1-.42-.16-.62a22.92,22.92,0,0,0-.95-2.47,6.64,6.64,0,0,1,2.66-4.73c3.76-2.62,2.12-15.46,6.87-19.43s12.87-5,9.44-10-13.45,5.89-14.88,17.45c-.94,7.67-4,10.14-8.44,10.48-4.17-4-10.29-5.89-18.18-4.13-3.67-3.47-3.54-14.24-4.73-19.61-1.33-6-7.83-5.16-4.68,0,2.65,4.36,4.43,16.22,1.16,22.44a46.87,46.87,0,0,0-13.09,8.55h0s-2.67,2.7-6.1-2.13-15.16-8-20.3-8.59a8.61,8.61,0,0,0-1.89,0,1.41,1.41,0,0,0,.17,2.8c9.44-3.32,21.93,8,23.72,13h0a19.86,19.86,0,0,0-3.52,8.38,201.79,201.79,0,0,1-5,23c-2.21,8.3,6.58,6.87,6.58-10.29s14.3-40.72,38.89-31.94-5.72,44.31-3.72,49.71,2.29,3.88,5.44-5.8c2.58-8,10.2-21,11.07-30.84,4.78-2.29,16.1,1.71,23,0S395.85,164.45,382.41,167.31Z" style="opacity:0.2"></path><path d="M379.22,182.14c-2.62,2,5.77,22.06,4.34,29.2s-8.87,12.23-8.87,12.23l5.72-.45s-11.18,11.16,1.43,0S384.59,178.12,379.22,182.14Z" style="opacity:0.2"></path><path d="M420.48,145.29c-1.17-1.15-9.07-6.49-9.07-6.49-2.44,7.07-17.84,1.95-19,8.51s5.54,0,12.87,0,8,9,8,9S421.65,146.43,420.48,145.29Z" style="opacity:0.2"></path><path d="M361.61,137.68c4-.68,1.74-18.64,14.1-19.65s-8.54-16.27-8.54-16.27L358,117C363.79,119.64,357.6,138.36,361.61,137.68Z" style="opacity:0.2"></path><path d="M441.41,178.26a9.26,9.26,0,0,1,.54,1.42c1.33,4.2,0,8.73-3,12.47a2.27,2.27,0,0,0-.41,2.11,9.63,9.63,0,0,1,.36,1.5c.84,5.18-2,10.27-7,13.64a2.34,2.34,0,0,0-.95,2.37,11.74,11.74,0,0,1,0,3.6c-.74,4.79-4.47,8.54-9.58,10.4a2.39,2.39,0,0,0-1.54,2.16,10.94,10.94,0,0,1-.78,3.76c-1.93,4.83-6.93,7.73-12.86,8.1a2.32,2.32,0,0,0-1.79,1.08c-.1.13-.19.28-.31.41a11.46,11.46,0,0,1-8.68,4.33,2.35,2.35,0,0,0-1.52.68c-2.81,2.71-7.18,3.54-11.65,2.46l-.19.14c-3.29,2.15-7.57,2-11.49,0a2.34,2.34,0,0,0-2.88.48,10.08,10.08,0,0,1-6.06,3.57,23.1,23.1,0,0,1,1,3.77,18.12,18.12,0,0,1-.6,8.92c-1.06,2.88-3.43,3-4.46,5.55L355,277.53c-.43,1.07-.86,2.12-1.29,3.18,0,.1-.08.22-.13.32a21.88,21.88,0,0,0-1.45,4.57,15.61,15.61,0,0,1-1.74.5,14.42,14.42,0,0,1-5.32.15c-.1-2.24,2-4,2.51-6.15,1.31-5.76-3.28-9.36-6.23-13.22-3.39-4.46-3.43-11.71-1.26-16.69a2.4,2.4,0,0,0,0-1.93,20.29,20.29,0,0,1-1.19-4.25c-.09-.55-.15-1.1-.2-1.64h0a19,19,0,0,1,0-2.92c.45-6.57,4.21-11.91,9.55-12.77a4.72,4.72,0,0,1,.63-.08,2.23,2.23,0,0,0,1.56-.8,10.13,10.13,0,0,1,6.18-3.72,9.9,9.9,0,0,1,5.88.93,2.41,2.41,0,0,0,2.39-.21l.13-.09a10.66,10.66,0,0,1,9.36-.86,2.42,2.42,0,0,0,2.71-.88,10.93,10.93,0,0,1,6.53-4,2.38,2.38,0,0,0,1.51-1.06,13.74,13.74,0,0,1,8.62-5.71c0-.18,0-.35.05-.52a12.91,12.91,0,0,1,6.79-9.12,2.18,2.18,0,0,0,1.1-1.67,13.61,13.61,0,0,1,3.49-7.6,2.37,2.37,0,0,0,.56-1.94c-.66-4.12,1-8.4,4.28-11.86a12.5,12.5,0,0,1-.55-1.41A12.69,12.69,0,0,1,411,165.68a2.32,2.32,0,0,0,0-2.36,10.34,10.34,0,0,1-1.08-2.39,11.88,11.88,0,0,1,.28-7.76,2.34,2.34,0,0,0-.11-1.85,9.94,9.94,0,0,1-.63-1.54,12.85,12.85,0,0,1,1.94-11,2.29,2.29,0,0,0,0-2.51q-.17-.24-.3-.48a12.71,12.71,0,0,1-.7-10.61,2.31,2.31,0,0,0-.62-2.46,10.73,10.73,0,0,1-2.06-2.57,11.24,11.24,0,0,1-1.36-3.88c-.49-.65-.91-1.19-1.4-1.85a14.09,14.09,0,0,1-2.05-1.12,2.34,2.34,0,0,0-2.63,0,11.79,11.79,0,0,1-6.64,2.12,11.61,11.61,0,0,1-6.09-1.77,2.27,2.27,0,0,0-2.79.3,12.32,12.32,0,0,1-8.61,3.74,11.56,11.56,0,0,1-4.09-.77,2.29,2.29,0,0,0-2.35.39,12.15,12.15,0,0,1-8,3.16,11.73,11.73,0,0,1-5.38-1.36,2.39,2.39,0,0,0-2.85.42,12.38,12.38,0,0,1-8.82,3.93,11.86,11.86,0,0,1-7.27-2.58,2.43,2.43,0,0,0-3,0,11.51,11.51,0,0,1-14,.4,2.38,2.38,0,0,0-2.7,0,11.79,11.79,0,0,1-6.74,2.18,12.33,12.33,0,0,1-8.58-3.7,2.38,2.38,0,0,0-2.67-.45,11.19,11.19,0,0,1-2.85.93,2.32,2.32,0,0,0-1.77,1.58,11.56,11.56,0,0,1-.91,2,11.15,11.15,0,0,1-2.05,2.57,2.34,2.34,0,0,0-.64,2.47,12.62,12.62,0,0,1-.69,10.6c-.09.17-.19.32-.29.48a2.27,2.27,0,0,0,0,2.52,12.82,12.82,0,0,1,1.93,11,11.56,11.56,0,0,1-.63,1.54,2.41,2.41,0,0,0-.11,1.86,12,12,0,0,1,.29,7.75,11.1,11.1,0,0,1-1.09,2.4,2.27,2.27,0,0,0,0,2.36,12.68,12.68,0,0,1,1.54,10.37,11.3,11.3,0,0,1-.55,1.4c3.28,3.46,4.94,7.75,4.29,11.86a2.32,2.32,0,0,0,.55,2,13.67,13.67,0,0,1,3.5,7.59,2.18,2.18,0,0,0,1.09,1.68c6,3.4,9.88,13.41,2.69,17.68-.45.27-.9.5-1.37.73-1.45.67-3,1.17-4.45,1.78-4.58,1.88-7.46,5.83-11.28,6.86-2.05.55-4.37.25-7.37-1.66-4.44-2.85-9.51-8.59-8.53-14.16a2.36,2.36,0,0,0-1-2.37c-5-3.36-7.84-8.47-7-13.64a14.7,14.7,0,0,1,.36-1.49,2.31,2.31,0,0,0-.39-2.12c-3.09-3.74-4.38-8.26-3.06-12.48a14.19,14.19,0,0,1,.55-1.41c-3.71-3.91-5.37-8.88-3.93-13.46a11.49,11.49,0,0,1,1.08-2.39,2.25,2.25,0,0,0,0-2.36,12.7,12.7,0,0,1-1.53-10.36,9.78,9.78,0,0,1,.63-1.56,2.38,2.38,0,0,0,.11-1.85,12,12,0,0,1-.29-7.76,11.18,11.18,0,0,1,2.47-4.26,2.38,2.38,0,0,0,.29-2.89c-3-4.7-3.57-10.09-1.1-14.36a10.89,10.89,0,0,1,2.05-2.56,2.33,2.33,0,0,0,.63-2.48,12.67,12.67,0,0,1,.7-10.59,12.18,12.18,0,0,1,7-5.46,2.31,2.31,0,0,0,1.51-1.6c1.35-5.51,4.87-9.77,9.74-10.91a11.45,11.45,0,0,1,4.55-.14,2.17,2.17,0,0,0,1.88-.55,11.79,11.79,0,0,1,17,.16,2.41,2.41,0,0,0,2.7.44A11.23,11.23,0,0,1,311,85.9a11.78,11.78,0,0,1,6.74,2.17,2.35,2.35,0,0,0,2.7,0,11.76,11.76,0,0,1,6.74-2.17,11.92,11.92,0,0,1,7.26,2.57,2.38,2.38,0,0,0,3,0,12,12,0,0,1,7.27-2.57,11.51,11.51,0,0,1,5.38,1.35,2.41,2.41,0,0,0,2.86-.41,12.38,12.38,0,0,1,8.81-3.94,11.14,11.14,0,0,1,4.09.78,2.3,2.3,0,0,0,2.35-.41,12.2,12.2,0,0,1,8-3.14,11.68,11.68,0,0,1,6.08,1.76,2.25,2.25,0,0,0,2.79-.31,12.35,12.35,0,0,1,8.62-3.73A11.73,11.73,0,0,1,400.3,80,2.35,2.35,0,0,0,403,80a11.73,11.73,0,0,1,6.63-2.11A12.64,12.64,0,0,1,419,82.36a2.28,2.28,0,0,0,1.52.8,11.2,11.2,0,0,1,1.52.25c4.88,1.14,8.41,5.4,9.76,10.91a2.23,2.23,0,0,0,1.49,1.59,12.23,12.23,0,0,1,7.06,5.47A12.62,12.62,0,0,1,441,112a2.34,2.34,0,0,0,.64,2.47,11.15,11.15,0,0,1,2.05,2.57c2.46,4.27,1.86,9.65-1.1,14.36a2.37,2.37,0,0,0,.29,2.89,11.44,11.44,0,0,1,2.47,4.26,12,12,0,0,1-.28,7.76,2.3,2.3,0,0,0,.11,1.85,11.17,11.17,0,0,1,.63,1.55A12.66,12.66,0,0,1,444.25,160a2.25,2.25,0,0,0,0,2.36,11.44,11.44,0,0,1,1.08,2.39C446.78,169.38,445.11,174.35,441.41,178.26Z" style="fill:#407BFF"></path><g style="opacity:0.2"><path d="M350.64,252.77h-.08a.56.56,0,0,1-.47-.64c.86-5.44,3.44-10,6-14.22a15.25,15.25,0,0,1,2.9-3.77c2.34-2,5.56-1.56,8.4-1.19.66.09,1.31.17,1.92.22a53.31,53.31,0,0,0,13.29-.31c12.76-2.11,18.39-11.72,24.36-21.91,3.24-5.52,6.59-11.23,11.18-15.72,7.22-7,8.7-22.86,7.47-29.37a206.32,206.32,0,0,1-2.93-23.15,102,102,0,0,1,.09-11.44c.3-6.51.6-13.25-1.13-18.88a17.23,17.23,0,0,0-17.31-12.14c-5.31.26-10.85,1.61-16.21,2.92-3.23.79-6.57,1.6-9.8,2.16-11.08,1.91-19.6,2.44-27.63,1.71a223,223,0,0,0-31.69-.6,101.69,101.69,0,0,1-12-.35c-6.21-.43-12.63-.88-18.79.61-5.48,1.33-7.77,7-9.79,12.07l-.48,1.18c-3.52,8.64-1.09,17.67.51,23.65l.28,1c.94,3.57-.35,9.53-1.6,15.3a73.22,73.22,0,0,0-1.8,10.64c-.73,15,6.64,27.71,13.77,40,1.61,2.79,3.28,5.68,4.83,8.54a.56.56,0,1,1-1,.53c-1.53-2.85-3.2-5.72-4.81-8.51C281,198.69,273.5,185.8,274.24,170.5a73.35,73.35,0,0,1,1.83-10.83c1.22-5.64,2.48-11.47,1.6-14.77l-.27-1c-1.55-5.75-4.13-15.38-.47-24.36l.48-1.18c2-5,4.52-11.27,10.57-12.74,6.32-1.53,12.83-1.08,19.13-.64a99.52,99.52,0,0,0,11.84.35,224,224,0,0,1,31.86.61c7.92.71,16.35.19,27.33-1.7,3.19-.55,6.51-1.36,9.72-2.15,5.41-1.32,11-2.69,16.43-2.95A18.39,18.39,0,0,1,422.72,112c1.79,5.82,1.48,12.66,1.18,19.27a97.72,97.72,0,0,0-.09,11.31,206.37,206.37,0,0,0,2.91,23c1.27,6.71-.28,23.07-7.78,30.39-4.49,4.37-7.8,10-11,15.48-5.84,10-11.87,20.25-25.15,22.44a54.46,54.46,0,0,1-13.56.33c-.63-.05-1.29-.14-2-.23-2.74-.35-5.58-.72-7.53.94a14.13,14.13,0,0,0-2.67,3.49c-2.51,4.12-5,8.58-5.86,13.81A.58.58,0,0,1,350.64,252.77Z" style="fill:#fff"></path></g><path d="M350.37,286.1a14.42,14.42,0,0,1-5.32.15c-.1-2.24,2-4,2.51-6.15,1.31-5.76-3.28-9.36-6.23-13.22-3.39-4.46-3.43-11.71-1.26-16.69a2.4,2.4,0,0,0,0-1.93,20.29,20.29,0,0,1-1.19-4.25c-.09-.55-.15-1.1-.2-1.64a4.48,4.48,0,0,0,3.37,3.58c7.06,2.11-1.9,4.4-1.9,9.16s2.28,13.54,8,16.2S346.13,282,348,284.1A12.74,12.74,0,0,0,350.37,286.1Z" style="opacity:0.2"></path><path d="M413.58,133.29c1.35,3.42,5.73,4.21,2.3,5.81s-4.77,9.43-1.14,13.05-4.4,3.43-2.49,7.63,8.39,3.28,5.34,7.84-5.53,8.75-3.82,10.65-1.33.3-3.24,3.87-2.28,7.71,1.34,10.5-3.81-1-6.1,1.65-1.15,6.21,0,8.16-2.29-3.28-5.34,0-5,4.57-4.77,9-2.86-1.39-4.38.94,1.9,8-3.81,9.57-8.39-1.45-9.92,1.19-1.34,6.06-3.24,4-3.81-4.38-6.49-2.48-2.85,3.43-4.57,1.72-8-3.62-9.91-1.14,1.56,5.72-.94,5.34-7.09-2.43-9.55,0a19.08,19.08,0,0,0-4.15,8.9c.45-6.57,4.21-11.91,9.55-12.77a4.72,4.72,0,0,1,.63-.08,2.23,2.23,0,0,0,1.56-.8,10.13,10.13,0,0,1,6.18-3.72,9.9,9.9,0,0,1,5.88.93,2.41,2.41,0,0,0,2.39-.21l.13-.09a10.66,10.66,0,0,1,9.36-.86,2.42,2.42,0,0,0,2.71-.88,10.93,10.93,0,0,1,6.53-4,2.38,2.38,0,0,0,1.51-1.06,13.74,13.74,0,0,1,8.62-5.71c0-.18,0-.35.05-.52a12.91,12.91,0,0,1,6.79-9.12,2.18,2.18,0,0,0,1.1-1.67,13.61,13.61,0,0,1,3.49-7.6,2.37,2.37,0,0,0,.56-1.94c-.66-4.12,1-8.4,4.28-11.86a12.5,12.5,0,0,1-.55-1.41A12.69,12.69,0,0,1,411,165.68a2.32,2.32,0,0,0,0-2.36,10.34,10.34,0,0,1-1.08-2.39,11.88,11.88,0,0,1,.28-7.76,2.34,2.34,0,0,0-.11-1.85,9.94,9.94,0,0,1-.63-1.54,12.85,12.85,0,0,1,1.94-11,2.29,2.29,0,0,0,0-2.51q-.17-.24-.3-.48a12.71,12.71,0,0,1-.7-10.61,2.31,2.31,0,0,0-.62-2.46,10.73,10.73,0,0,1-2.06-2.57,11.24,11.24,0,0,1-1.36-3.88c-.49-.65-.91-1.19-1.4-1.85a14.09,14.09,0,0,1-2.05-1.12,2.34,2.34,0,0,0-2.63,0,11.79,11.79,0,0,1-6.64,2.12,11.61,11.61,0,0,1-6.09-1.77,2.27,2.27,0,0,0-2.79.3,12.32,12.32,0,0,1-8.61,3.74,11.56,11.56,0,0,1-4.09-.77,2.29,2.29,0,0,0-2.35.39,12.15,12.15,0,0,1-8,3.16,11.73,11.73,0,0,1-5.38-1.36,2.39,2.39,0,0,0-2.85.42,12.38,12.38,0,0,1-8.82,3.93,11.86,11.86,0,0,1-7.27-2.58,2.43,2.43,0,0,0-3,0,11.51,11.51,0,0,1-14,.4,2.38,2.38,0,0,0-2.7,0,11.79,11.79,0,0,1-6.74,2.18,12.33,12.33,0,0,1-8.58-3.7,2.38,2.38,0,0,0-2.67-.45,11.19,11.19,0,0,1-2.85.93,2.32,2.32,0,0,0-1.77,1.58,11.56,11.56,0,0,1-.91,2,11.15,11.15,0,0,1-2.05,2.57,2.34,2.34,0,0,0-.64,2.47,12.62,12.62,0,0,1-.69,10.6c-.09.17-.19.32-.29.48a2.27,2.27,0,0,0,0,2.52,12.82,12.82,0,0,1,1.93,11,11.56,11.56,0,0,1-.63,1.54,2.41,2.41,0,0,0-.11,1.86,12,12,0,0,1,.29,7.75,11.1,11.1,0,0,1-1.09,2.4,2.27,2.27,0,0,0,0,2.36,12.68,12.68,0,0,1,1.54,10.37,11.3,11.3,0,0,1-.55,1.4c3.28,3.46,4.94,7.75,4.29,11.86a2.32,2.32,0,0,0,.55,2,13.67,13.67,0,0,1,3.5,7.59,2.18,2.18,0,0,0,1.09,1.68c6,3.4,9.88,13.41,2.69,17.68-.45.27-.9.5-1.37.73,1.53-3.53,2.73-8,1-11.24-3.24-6.27-8.39-3.42-9-6.08s4-1.78,1.9-6.23-4.18-3.3-4-5.21,1.71-2.87.19-6.67-9.92-2.38-9.92-5.1,7.25-.06,8-5-3.63-6.44-3.82-9.51,3.41-2.29,4-6.51-3.25-5-3.06-7.56,3.63-1,3.63-4.82-7.24-8.2-3.63-11.45,4.4-8.39,0-9.92,5.92-2.66,3.25-4.76-2.67-1-5.53-2.57-1.51-5.37-1.51-5.37,3.6,5.65,15.81,3.36c0,0,5.53,3.86,10.49,3.55s6.1-1.46,8.39-1.85,7.05,2.88,10.48.31,7.06-3.71,8.77-1.91,7.82,2.2,10.87,0,2.68-5,5-4.76,1.91,2.78,4.38,4.1a8.05,8.05,0,0,0,9-1.53c2.49-2.48,6.11.57,9.92-.19s6.1-5.73,8.2-5.73,4.29,2.51,8.77,3.35,10.86-5.63,10.86-5.63,2.49-2.1,4.77,1.33,7.31-1.66,7.62-2c-.12.42-2.28,7.06-8.38,7.55-6.29.51,1.14,7.82,6.3,6.92s6.66,2.36,2.85,3.88S412.25,129.87,413.58,133.29Z" style="opacity:0.2"></path><path d="M441.41,178.26a9.26,9.26,0,0,1,.54,1.42c1.33,4.2,0,8.73-3,12.47a2.27,2.27,0,0,0-.41,2.11,9.63,9.63,0,0,1,.36,1.5c.84,5.18-2,10.27-7,13.64a2.34,2.34,0,0,0-.95,2.37,11.74,11.74,0,0,1,0,3.6c-.74,4.79-4.47,8.54-9.58,10.4a2.39,2.39,0,0,0-1.54,2.16,10.94,10.94,0,0,1-.78,3.76c-1.93,4.83-6.93,7.73-12.86,8.1a2.32,2.32,0,0,0-1.79,1.08c-.1.13-.19.28-.31.41a11.46,11.46,0,0,1-8.68,4.33,2.35,2.35,0,0,0-1.52.68c-2.81,2.71-7.18,3.54-11.65,2.46l-.19.14c-3.29,2.15-7.57,2-11.49,0a2.34,2.34,0,0,0-2.88.48,10.08,10.08,0,0,1-6.06,3.57,23.1,23.1,0,0,1,1,3.77,18.12,18.12,0,0,1-.6,8.92c-1.06,2.88-3.43,3-4.46,5.55L355,277.53c-.43,1.07-.86,2.12-1.29,3.18-.66-2.53,1.42-4.29,1.93-8.44.65-5.26,5.86-5.63,5.73-10.87s-2.87-4.76-6.68-6.48-.38-3.24,2.67-3.24,7.06-1.72,7.25-4.57-5-.58-5.16-4.74,8.2,1.68,10.69,3.2,4.19,2.11,6.85,1.54,5.16-4.58,7.06-.39,5.54.2,6.49-2.29-2.67-6.47.19-5,3.81,2.71,7.25,2.93,2.66-2.7,4.18-6.43,3.44,1.24,7.63.45,9.29-4.7,6.87-9.88-7.06-2.67-6.3-7.25,6.3,3.06,10.14,3.87,8.74-10.34,6.64-13.28.39-2,5.16-3.55,4.57-5.91,5-8.58-3.05-3.81-1.53-6.29,4.19-2.67,4.77-7.24-5.53-5-3.24-6.11,3.81-3.43,5.15-7.43-3.63-4.19-1.91-7.44,3.62-5.9,3-11.06-2.48-1.33-7.82-2.36,4.19-2.79,7.44-4.12,1.34-5.72-1-7.44-2.6-2.67-2.42-6.09,5.37-7.21,0-10.57-.94-9.65-.18-11.75-.95-8.58-4.95-10.52-9.53.23-6.29-3,.38-4.77-2.67-9.53-7.06,1.33-8.58-1.35-1.14-3.23-7.25-4.76-4.19,4-7.63,3.62S400.3,80,393,79.89s-6.67,5.73-10.48,5.73-1.14-2.87-6.68-3.63S372,86,368,87.52s-2.47-2.68-7.42-2.41S357,91,354.29,92s-4.22-4.78-9.91-4.32-3.44,6.09-8,4.32-5.53-3.94-11.06-3.94-2.48,4.57-5.34,5.14-3.62-4.19-7.63-5.14-7.44,3-7.63,5.71-1.14-.19-1.14-4-4.38-6-11.44-3.81.58,13,0,13.3-3.82-4.92-6.86-9.3-6.49-1.15-6.49-1.15l-4,3.18c-4,3.19-.58,9-2.59,11.7s-4.28-2.11-7.52,0-2.29,7.62-2.1,9.63,3.62,6,1,5.23-2.11,1.91-4.58,4.69-1.91,6,1,8.47,8,5.72,2.86,5.72-3.62,5.72-5.06,9.83,4.1,2,4.49,4.09-2.48,2.1-4.13,4.94,2.79,5,3.36,8-1.71,1-3.05,5,1.91,8.17,3.82,10.27-.39,3.24-.77,7.63,2.49,3.8,5.34,7-3.29,3.7,0,10.87,5.35,1.9,9.16,3.19-2.29,4.82-3.24,8.05S278,231.09,287,231.3h0c-2.05.55-4.37.25-7.37-1.66-4.44-2.85-9.51-8.59-8.53-14.16a2.36,2.36,0,0,0-1-2.37c-5-3.36-7.84-8.47-7-13.64a14.7,14.7,0,0,1,.36-1.49,2.31,2.31,0,0,0-.39-2.12c-3.09-3.74-4.38-8.26-3.06-12.48a14.19,14.19,0,0,1,.55-1.41c-3.71-3.91-5.37-8.88-3.93-13.46a11.49,11.49,0,0,1,1.08-2.39,2.25,2.25,0,0,0,0-2.36,12.7,12.7,0,0,1-1.53-10.36,9.78,9.78,0,0,1,.63-1.56,2.38,2.38,0,0,0,.11-1.85,12,12,0,0,1-.29-7.76,11.18,11.18,0,0,1,2.47-4.26,2.38,2.38,0,0,0,.29-2.89c-3-4.7-3.57-10.09-1.1-14.36a10.89,10.89,0,0,1,2.05-2.56,2.33,2.33,0,0,0,.63-2.48,12.67,12.67,0,0,1,.7-10.59,12.18,12.18,0,0,1,7-5.46,2.31,2.31,0,0,0,1.51-1.6c1.35-5.51,4.87-9.77,9.74-10.91a11.45,11.45,0,0,1,4.55-.14,2.17,2.17,0,0,0,1.88-.55,11.79,11.79,0,0,1,17,.16,2.41,2.41,0,0,0,2.7.44A11.23,11.23,0,0,1,311,85.9a11.78,11.78,0,0,1,6.74,2.17,2.35,2.35,0,0,0,2.7,0,11.76,11.76,0,0,1,6.74-2.17,11.92,11.92,0,0,1,7.26,2.57,2.38,2.38,0,0,0,3,0,12,12,0,0,1,7.27-2.57,11.51,11.51,0,0,1,5.38,1.35,2.41,2.41,0,0,0,2.86-.41,12.38,12.38,0,0,1,8.81-3.94,11.14,11.14,0,0,1,4.09.78,2.3,2.3,0,0,0,2.35-.41,12.2,12.2,0,0,1,8-3.14,11.68,11.68,0,0,1,6.08,1.76,2.25,2.25,0,0,0,2.79-.31,12.35,12.35,0,0,1,8.62-3.73A11.73,11.73,0,0,1,400.3,80,2.35,2.35,0,0,0,403,80a11.73,11.73,0,0,1,6.63-2.11A12.64,12.64,0,0,1,419,82.36a2.28,2.28,0,0,0,1.52.8,11.2,11.2,0,0,1,1.52.25c4.88,1.14,8.41,5.4,9.76,10.91a2.23,2.23,0,0,0,1.49,1.59,12.23,12.23,0,0,1,7.06,5.47A12.62,12.62,0,0,1,441,112a2.34,2.34,0,0,0,.64,2.47,11.15,11.15,0,0,1,2.05,2.57c2.46,4.27,1.86,9.65-1.1,14.36a2.37,2.37,0,0,0,.29,2.89,11.44,11.44,0,0,1,2.47,4.26,12,12,0,0,1-.28,7.76,2.3,2.3,0,0,0,.11,1.85,11.17,11.17,0,0,1,.63,1.55A12.66,12.66,0,0,1,444.25,160a2.25,2.25,0,0,0,0,2.36,11.44,11.44,0,0,1,1.08,2.39C446.78,169.38,445.11,174.35,441.41,178.26Z" style="opacity:0.2"></path></g><g id="freepik--Probiotics--inject-20"><path d="M229.1,188.45l-.55.12a3.24,3.24,0,0,1-1.51,2.61l.16.54-.38-.41a3.34,3.34,0,0,1-1.51.38,3.3,3.3,0,0,1-1.5-.38l-.39.41.16-.54a3.25,3.25,0,0,1-1.5-2.61l-.26-.06h0l-.25-.05.52-.12h0l0-.31a3.25,3.25,0,0,1,1.47-2.29l-.16-.54.39.42a3.08,3.08,0,0,1,3,0l.15-.17.24-.25-.12.4,0,.14.27.19a2.33,2.33,0,0,1,.42.41.41.41,0,0,1,.09.1,3.18,3.18,0,0,1,.73,1.91Z" style="fill:#407BFF"></path><path d="M227.14,189.15l.3.4-.45-.22a2.83,2.83,0,0,1-2.49.89l-.2.46,0-.5a2.89,2.89,0,0,1-1.23-.6,3,3,0,0,1-.79-1.11l-.43,0h0l.27-.17,0,0,.09-.06a1.14,1.14,0,0,1-.06-.25,3.25,3.25,0,0,1,1.47-2.29l-.16-.54.39.42a3.08,3.08,0,0,1,3,0l.15-.17a.79.79,0,0,1,.12.15l0,.14.27.19a2.49,2.49,0,0,1,.22.43l.2,0a.41.41,0,0,1,.09.1l-.2.13A2.84,2.84,0,0,1,227.14,189.15Z" style="fill:#fff;opacity:0.2"></path><path d="M249.41,219.5l-.55.12a3.24,3.24,0,0,1-1.51,2.61l.16.54-.38-.41a3.34,3.34,0,0,1-1.51.38,3.3,3.3,0,0,1-1.5-.38l-.39.41.16-.54a3.25,3.25,0,0,1-1.5-2.61l-.26-.06h0l-.25-.05.52-.12h0l0-.31a3.25,3.25,0,0,1,1.47-2.29l-.16-.54.39.42a3.08,3.08,0,0,1,3,0l.15-.17.24-.25-.12.4,0,.14.27.19a2.33,2.33,0,0,1,.42.41.41.41,0,0,1,.09.1,3.18,3.18,0,0,1,.73,1.91Z" style="fill:#407BFF"></path><path d="M247.45,220.2l.3.4-.45-.22a2.83,2.83,0,0,1-2.49.89l-.2.46,0-.5a2.89,2.89,0,0,1-1.23-.6,3,3,0,0,1-.79-1.11l-.43,0h0l.27-.17,0,0,.09-.06a1.14,1.14,0,0,1-.06-.25,3.25,3.25,0,0,1,1.47-2.29l-.16-.54.39.42a3.08,3.08,0,0,1,3,0l.15-.17a.79.79,0,0,1,.12.15l0,.14.27.19a2.49,2.49,0,0,1,.22.43l.2,0a.41.41,0,0,1,.09.1l-.2.13A2.84,2.84,0,0,1,247.45,220.2Z" style="fill:#fff;opacity:0.2"></path><path d="M263,187.93l-.55.12a3.24,3.24,0,0,1-1.51,2.61l.16.54-.38-.41a3.34,3.34,0,0,1-1.51.38,3.3,3.3,0,0,1-1.5-.38l-.39.41.16-.54a3.25,3.25,0,0,1-1.5-2.61l-.26-.06h0l-.25,0,.52-.12h0l0-.31a3.25,3.25,0,0,1,1.47-2.29l-.16-.54.39.42a3.08,3.08,0,0,1,3,0l.15-.17.24-.25-.12.4,0,.14.27.19a2.33,2.33,0,0,1,.42.41.41.41,0,0,1,.09.1,3.18,3.18,0,0,1,.73,1.91Z" style="fill:#407BFF"></path><path d="M261.07,188.63l.3.4-.45-.22a2.83,2.83,0,0,1-2.49.89l-.2.46,0-.5a2.89,2.89,0,0,1-1.23-.6,3,3,0,0,1-.79-1.11l-.43,0h0l.27-.17,0,0,.09-.06a1.14,1.14,0,0,1-.06-.25,3.25,3.25,0,0,1,1.47-2.29l-.16-.54.39.42a3.08,3.08,0,0,1,3,0l.15-.17a.79.79,0,0,1,.12.15l0,.14.27.19a2.49,2.49,0,0,1,.22.43l.2,0a.41.41,0,0,1,.09.1l-.2.13A2.84,2.84,0,0,1,261.07,188.63Z" style="fill:#fff;opacity:0.2"></path><path d="M227.42,213.79a1,1,0,0,1-.33,0,1,1,0,0,1-.61-1.28c2.16-6.09-1.55-8.58-1.71-8.68a1,1,0,0,1,1.08-1.69c.05,0,5.22,3.39,2.51,11A1,1,0,0,1,227.42,213.79Z" style="fill:#407BFF"></path><path d="M246.05,205.16a1,1,0,0,1-1-.89c-.15-1.35-2-2.14-3.87-2.9-2.35-1-5.29-2.19-4.42-5.22a1,1,0,1,1,1.92.55c-.32,1.12.54,1.69,3.27,2.83,2.25.93,4.81,2,5.09,4.52a1,1,0,0,1-.89,1.11Z" style="fill:#407BFF"></path><path d="M238.36,183.18a1,1,0,0,1-.94-.65,4.44,4.44,0,0,1,.69-4,7.24,7.24,0,0,1,6.12-2.84,1,1,0,0,1,0,2,5.28,5.28,0,0,0-4.48,2,2.53,2.53,0,0,0-.46,2.2,1,1,0,0,1-.58,1.29A1.12,1.12,0,0,1,238.36,183.18Z" style="fill:#407BFF"></path><path d="M256.23,209.52a1,1,0,0,1-.69-.28,1,1,0,0,1,0-1.41,27.46,27.46,0,0,1,7.89-6.06,1,1,0,0,1,1.32.53,1,1,0,0,1-.53,1.31,26,26,0,0,0-7.24,5.6A1,1,0,0,1,256.23,209.52Z" style="fill:#407BFF"></path><g style="opacity:0.2"><path d="M227.42,213.29l-.17,0a.5.5,0,0,1-.3-.64c2.3-6.5-1.73-9.16-1.9-9.27a.49.49,0,0,1-.16-.69.51.51,0,0,1,.69-.16s4.89,3.18,2.31,10.45A.48.48,0,0,1,227.42,213.29Z" style="fill:#fff"></path></g><g style="opacity:0.2"><path d="M246.05,204.66a.49.49,0,0,1-.49-.44c-.18-1.65-2.21-2.49-4.18-3.31-2.28-.95-4.87-2-4.13-4.63a.51.51,0,0,1,.62-.34.5.5,0,0,1,.34.62c-.47,1.66,1,2.38,3.56,3.43,2.13.88,4.54,1.89,4.78,4.12a.5.5,0,0,1-.44.55Z" style="fill:#fff"></path></g><g style="opacity:0.2"><path d="M238.36,182.68a.49.49,0,0,1-.47-.32,3.94,3.94,0,0,1,.63-3.58,6.75,6.75,0,0,1,5.71-2.63.5.5,0,0,1,0,1,5.78,5.78,0,0,0-4.89,2.19,3.07,3.07,0,0,0-.52,2.67.5.5,0,0,1-.29.64Z" style="fill:#fff"></path></g><g style="opacity:0.2"><path d="M256.23,209a.45.45,0,0,1-.34-.14.49.49,0,0,1,0-.7,26.89,26.89,0,0,1,7.73-6,.5.5,0,0,1,.66.27.49.49,0,0,1-.27.65,26.46,26.46,0,0,0-7.4,5.72A.51.51,0,0,1,256.23,209Z" style="fill:#fff"></path></g></g><g id="freepik--Character--inject-20"><path d="M107.38,314s24,1,41.71-3.06c0,0,5.07-38.6,3.13-53.65s-43.34,5.59-43.34,5.59Z" style="fill:#407BFF"></path><path d="M107.38,314s24,1,41.71-3.06c0,0,5.07-38.6,3.13-53.65s-43.34,5.59-43.34,5.59Z" style="fill:#fff;opacity:0.5"></path><polygon points="177.21 411.5 183.73 410.08 182.31 394.58 175.79 395.99 177.21 411.5" style="fill:#e4897b"></polygon><path d="M150.49,254.63S165,288,176.61,319.3c7.45,20.1,8.42,83.62,8.42,83.62l-12.39.2s-9.9-66.28-12.18-71.06c-10.25-21.5-31.62-63.89-31.62-63.89Z" style="fill:#263238"></path><g style="opacity:0.1"><path d="M185,402.92l-12.39.2s-9.9-66.28-12.18-71.06c-3.12-6.54-7.26-15-11.52-23.61.89-19.34-6.1-32.67-6.1-32.67a27.86,27.86,0,0,0-5.75,8.83c-4.79-9.59-8.25-16.44-8.25-16.44l21.65-13.54S165,288,176.6,319.3C184.07,339.4,185,402.92,185,402.92Z" style="fill:#fff"></path></g><polygon points="98.17 410.49 104.49 412.61 111.19 398.55 104.86 396.44 98.17 410.49" style="fill:#e4897b"></polygon><path d="M145.1,259.41s1,68.22-1.26,83.7-33.19,63.08-33.19,63.08l-11.17-5.6s24.67-51,25.35-57.65-5.73-60.85-5.73-60.85Z" style="fill:#263238"></path><path d="M119.09,282.09s.24,2,.63,5.39c.52,4.5,1.3,11.35,2.09,18.76,1.65,15.38,3.39,33.09,3,36.7-.67,6.63-25.35,57.65-25.35,57.65l11.17,5.6s30.88-47.6,33.18-63.08,1.27-83.7,1.27-83.7Z" style="fill:#fff;opacity:0.1"></path><path d="M106.16,408.93,98,409a.59.59,0,0,0-.57.46l-1.36,5.94a1,1,0,0,0,1,1.18c2.62,0,4.53-.21,7.83-.22,2,0,8.14.2,10.94.19s3.19-2.78,2.05-3c-5.13-1.11-9-2.65-10.63-4.13A1.65,1.65,0,0,0,106.16,408.93Z" style="fill:#263238"></path><path d="M195.47,221.07l-2,.59s-5.86-.65-6.53,2.43l1,3.89,5.14,1.77a2.81,2.81,0,0,0,2.38-.27l3-1.86a2.78,2.78,0,0,0,1-3.66l-.77-1.5A2.8,2.8,0,0,0,195.47,221.07Z" style="fill:#e4897b"></path><polygon points="184.56 224.05 187.32 222.9 188.77 228.29 186.07 229.17 184.56 224.05" style="fill:#407BFF"></polygon><polygon points="184.56 224.05 187.32 222.9 188.77 228.29 186.07 229.17 184.56 224.05" style="fill:#fff;opacity:0.2"></polygon><path d="M187.1,229.23c-4.74,1.8-9.5,3.37-14.38,4.73-2.44.68-4.9,1.34-7.44,1.87-.62.14-1.27.27-1.92.39s-1.3.26-2,.34l-1,.15-1.12.1-.56.05c-.24,0-.54,0-.81,0a9.89,9.89,0,0,1-1.5-.15,20.39,20.39,0,0,1-4.64-1.38,40.56,40.56,0,0,1-3.8-1.82,74,74,0,0,1-6.76-4.18c-1.67-1.15-3.28-2.32-4.87-3.53-1.78-1.35-3.51-2.76-5.21-4.23-.7-.6-1.4-1.2-2.09-1.81l2.47-10.3c2.92.29,11.69,8.86,15.51,11.68,1.9,1.41,3.85,2.74,5.76,3.94,1,.59,1.93,1.12,2.85,1.57a13,13,0,0,0,2.44,1c.13,0,.3.08.35.08l.13,0h1.11l.82-.05c.56,0,1.13-.06,1.72-.12l1.76-.18c2.38-.28,4.81-.58,7.25-.94,4.87-.68,14.3-3,14.3-3Z" style="fill:#407BFF"></path><path d="M187.1,229.23c-4.74,1.8-9.5,3.36-14.38,4.73-2.44.67-4.9,1.34-7.44,1.87-.62.14-1.27.27-1.92.39s-1.3.25-2,.34l-1,.15-1.12.1-.56.05c-.24,0-.54,0-.81,0a9.89,9.89,0,0,1-1.5-.15,20.39,20.39,0,0,1-4.64-1.38,40.58,40.58,0,0,1-3.8-1.83l-.56-.31c-2.18-1.2-4.23-2.51-6.2-3.86-1.67-1.15-3.28-2.32-4.87-3.53l-.26-.2c-1.69-1.3-3.33-2.63-4.95-4-.7-.59-1.4-1.19-2.09-1.81l2.47-10.29c2.92.28,11.69,8.86,15.51,11.67,1.9,1.42,3.85,2.75,5.76,3.94,1,.6,1.93,1.13,2.85,1.58a12.71,12.71,0,0,0,2.44,1c.13,0,.3.08.35.08l.13,0h1.11l.82-.06c.56,0,1.13-.06,1.72-.11l1.76-.18c2.38-.28,4.81-.59,7.25-.94,4.87-.69,14.3-3,14.3-3Z" style="fill:#fff;opacity:0.7000000000000001"></path><path d="M147.34,233.18c-2.18-1.2-4.23-2.51-6.2-3.86-1.67-1.15-3.28-2.32-4.87-3.53l-.26-.2a17.63,17.63,0,0,1-1.22-7.43S144.59,224.73,147.34,233.18Z" style="opacity:0.2"></path><path d="M96.89,227.57a135.19,135.19,0,0,1,10.4,18.16c2.29,4.67,4.27,9.21,6,13.38,4,9.78,6.48,17.49,7.67,20l32.9-14.93c-8.64-39.71-23.16-54.41-23.16-54.41a35.61,35.61,0,0,0-9.65,1.95c-.57.22-1.14.46-1.73.71a132.32,132.32,0,0,0-13.39,7.31c-.81.49-1.62,1-2.4,1.54A29.58,29.58,0,0,0,96.89,227.57Z" style="fill:#407BFF"></path><path d="M119.16,219.88a15.09,15.09,0,0,1-12.55.51c1.14-2.74-.16-6.82-2-10.5a48.31,48.31,0,0,0-3.42-5.78l11.68,3.49c.39,2.28,1,4.41,2.38,5.61a4.79,4.79,0,0,0,4.2.91C121,215.22,123,218.08,119.16,219.88Z" style="fill:#e4897b"></path><path d="M119.26,219.83s-.62,2.51-1.51,5.1c-3.11-.18-10.63-1.07-11.91-4.48a3.69,3.69,0,0,1,.9-2.29A39.36,39.36,0,0,0,119.26,219.83Z" style="fill:#407BFF"></path><path d="M119.26,219.83a19.19,19.19,0,0,1,4.93,2.15c1.23-2.09-3.28-7.67-4.27-8a9.54,9.54,0,0,0-4.37-.46A10.39,10.39,0,0,1,119.26,219.83Z" style="fill:#407BFF"></path><g style="opacity:0.2"><path d="M119.26,219.83s-.62,2.51-1.51,5.1c-3.11-.18-10.63-1.07-11.91-4.48a3.69,3.69,0,0,1,.9-2.29A39.36,39.36,0,0,0,119.26,219.83Z" style="fill:#fff"></path><path d="M119.26,219.83a19.19,19.19,0,0,1,4.93,2.15c1.23-2.09-3.28-7.67-4.27-8a9.54,9.54,0,0,0-4.37-.46A10.39,10.39,0,0,1,119.26,219.83Z" style="fill:#fff"></path></g><path d="M115.24,213.21a20.61,20.61,0,0,1-10.64-3.32,48.31,48.31,0,0,0-3.42-5.78l11.68,3.49C113.25,209.88,113.85,212,115.24,213.21Z" style="opacity:0.2"></path><path d="M114.63,187.78c1.73,2,3.37,7-.58,6.85S111.66,184.28,114.63,187.78Z" style="fill:#263238"></path><path d="M99,198.1c2.19,6.2,3.16,9.93,7.26,12.23,6.18,3.45,13.13-1.75,12.83-8.49-.27-6.06-3.8-15.17-10.68-15.85A9.06,9.06,0,0,0,99,198.1Z" style="fill:#e4897b"></path><path d="M101.89,193,99,186.29s-7.4,2.5-5.53,6c-3.15,3.65,1.35,9,8,9.82,1.94-3.58-.78-9.08-.78-9.08C101.07,193.07,101.48,193.06,101.89,193Z" style="fill:#263238"></path><path d="M98.11,204.05a6.15,6.15,0,0,0,4,2.63c2.15.4,3-1.58,2.3-3.52-.67-1.74-2.6-4-4.68-3.56A2.83,2.83,0,0,0,98.11,204.05Z" style="fill:#e4897b"></path><path d="M109.1,197c.15.52.54.85.87.75s.49-.59.34-1.11-.54-.84-.87-.75S109,196.52,109.1,197Z" style="fill:#263238"></path><path d="M114.89,195.32c.15.51.54.84.88.75s.48-.6.34-1.11-.54-.85-.87-.75S114.75,194.8,114.89,195.32Z" style="fill:#263238"></path><path d="M113.12,196.12a18.32,18.32,0,0,0,3.71,3.49,3.18,3.18,0,0,1-2.32,1.14Z" style="fill:#de5753"></path><path d="M106.61,195.55a.33.33,0,0,0,.28-.16,2.52,2.52,0,0,1,1.85-1.33.31.31,0,0,0,.29-.33.3.3,0,0,0-.33-.29,3.11,3.11,0,0,0-2.36,1.64.31.31,0,0,0,.12.43A.28.28,0,0,0,106.61,195.55Z" style="fill:#263238"></path><path d="M117,192a.33.33,0,0,0,.12-.14.32.32,0,0,0-.18-.41,3.09,3.09,0,0,0-2.84.21.31.31,0,0,0,.35.52,2.41,2.41,0,0,1,2.26-.15A.3.3,0,0,0,117,192Z" style="fill:#263238"></path><path d="M99.76,196.89s3.56-3.32,4.48-6.61c0,0,4.26-.61,5.71.62a2.08,2.08,0,0,0-.75-2.71s3.13-.61,4.53,1.11a2.61,2.61,0,0,0,.27-3.14,3.52,3.52,0,0,1,2.77,1.86s.38-8-10.91-5.43a8.3,8.3,0,0,1,2.28-1.45s-8.56.13-13.22,5.29S93.51,196.33,99.76,196.89Z" style="fill:#263238"></path><path d="M112.25,204a4.85,4.85,0,0,1-1.11-.11.24.24,0,0,1-.19-.29.25.25,0,0,1,.3-.19,5.94,5.94,0,0,0,3.61-.53.26.26,0,0,1,.34.11.25.25,0,0,1-.11.33A6.13,6.13,0,0,1,112.25,204Z" style="fill:#263238"></path><polygon points="118.04 271.5 152.74 259.41 154.91 268.07 119.6 286.46 118.04 271.5" style="fill:#263238"></polygon><polygon points="118.04 271.5 152.74 259.41 154.91 268.07 119.6 286.46 118.04 271.5" style="fill:#fff;opacity:0.1"></polygon><path d="M105.13,220.2s12.63,21.76,11.7,45.08-5.57,54.81-5.57,54.81h-9.08s6.65-73.87-6.5-92.43C95.68,227.66,98.51,224.3,105.13,220.2Z" style="fill:#407BFF"></path><path d="M116.87,263.51c0,.59,0,1.18,0,1.77-.06,1.44-.13,2.92-.22,4.42-1.28,22.68-5.35,50.39-5.35,50.39h-9.08s3-33.65,1-61.23c-.3-3.91-.69-7.69-1.22-11.24-1.25-8.53-3.22-15.7-6.24-20,0,0,2.83-3.37,9.45-7.47a101.68,101.68,0,0,1,10.43,29.05c0,.14,0,.28.08.44A72.62,72.62,0,0,1,116.87,263.51Z" style="fill:#fff;opacity:0.7000000000000001"></path><path d="M105.83,219.29s8,14.45,9.87,30.77c0,0-6-10.16-9.87-15.35l2.38-3.13-5.34-2.81,1.21-7.91Z" style="fill:#407BFF"></path><path d="M105.83,219.29s8,14.45,9.87,30.77c0,0-6-10.16-9.87-15.35l2.38-3.13-5.34-2.81,1.21-7.91Z" style="fill:#fff;opacity:0.8"></path><path d="M116.87,263.51c0,.59,0,1.18,0,1.77-.06,1.44-.13,2.92-.22,4.42-7.72,1.44-11-3.16-13.47-10.84-.3-3.91-.69-7.69-1.22-11.24l8.61-4.17s3,5.23,3.92,5.71a2.18,2.18,0,0,0,1.11.08c0,.14,0,.28.08.44A72.62,72.62,0,0,1,116.87,263.51Z" style="opacity:0.2"></path><path d="M121,211.69a107.33,107.33,0,0,1,31.71,47.72s-6.81-40-21.3-50C131.44,209.45,124,209.87,121,211.69Z" style="fill:#407BFF"></path><path d="M121,211.69a107.33,107.33,0,0,1,31.71,47.72s-6.81-40-21.3-50C131.44,209.45,124,209.87,121,211.69Z" style="fill:#fff;opacity:0.7000000000000001"></path><path d="M118.82,212.62S133,221.83,141,234.71l-6.68-15.42-3,.48,1.59-4.11-11-4.44A4.31,4.31,0,0,0,118.82,212.62Z" style="fill:#407BFF"></path><path d="M118.82,212.62S133,221.83,141,234.71l-6.68-15.42-3,.48,1.59-4.11-11-4.44A4.31,4.31,0,0,0,118.82,212.62Z" style="fill:#fff;opacity:0.8"></path><rect x="198.71" y="206.19" width="10.9" height="18.54" transform="translate(93.79 491.01) rotate(-114.71)" style="fill:#263238"></rect><rect x="198.71" y="206.19" width="10.9" height="18.54" transform="translate(93.79 491.01) rotate(-114.71)" style="fill:#fff;opacity:0.1"></rect><rect x="196.64" y="218.04" width="18.55" height="2.49" transform="matrix(0.91, -0.42, 0.42, 0.91, -72.82, 106.18)" style="opacity:0.30000000000000004"></rect><path d="M228.7,165.93A36.39,36.39,0,1,0,277,183.78,36.39,36.39,0,0,0,228.7,165.93Zm1.8,3.92a32.08,32.08,0,1,1-15.72,42.55A32.08,32.08,0,0,1,230.5,169.85Z" style="fill:#263238"></path><path d="M228.7,165.93A36.39,36.39,0,1,0,277,183.78,36.39,36.39,0,0,0,228.7,165.93Zm1.8,3.92a32.08,32.08,0,1,1-15.72,42.55A32.08,32.08,0,0,1,230.5,169.85Z" style="fill:#fff;opacity:0.1"></path><path d="M227.32,162.93a36.39,36.39,0,1,0,48.27,17.84A36.38,36.38,0,0,0,227.32,162.93Zm1.8,3.92a32.07,32.07,0,1,1-15.73,42.55A32.08,32.08,0,0,1,229.12,166.85Z" style="fill:#263238"></path><path d="M227.32,162.93a36.39,36.39,0,1,0,48.27,17.84A36.38,36.38,0,0,0,227.32,162.93Zm1.8,3.92a32.07,32.07,0,1,1-15.73,42.55A32.08,32.08,0,0,1,229.12,166.85Z" style="fill:#fff;opacity:0.30000000000000004"></path><path d="M140.14,244.93h0a7.26,7.26,0,0,0,9.64,3.57l49.63-22.84a2.37,2.37,0,0,0,1.16-3.15l-4.1-8.9a2.37,2.37,0,0,0-3.14-1.17L143.7,235.29A7.26,7.26,0,0,0,140.14,244.93Z" style="fill:#263238"></path><path d="M140.14,244.93h0a7.26,7.26,0,0,0,9.64,3.57l49.63-22.84a2.37,2.37,0,0,0,1.16-3.15l-4.1-8.9a2.37,2.37,0,0,0-3.14-1.17L143.7,235.29A7.26,7.26,0,0,0,140.14,244.93Z" style="fill:#fff;opacity:0.30000000000000004"></path><path d="M139.71,243.76a8.74,8.74,0,0,0,.42,1.18,7.28,7.28,0,0,0,9.65,3.56l49.63-22.85a2.35,2.35,0,0,0,1.16-3.13l-1-2.26a2.37,2.37,0,0,1-1.15,3.14l-49.63,22.84A7.27,7.27,0,0,1,139.71,243.76Z" style="opacity:0.30000000000000004"></path><path d="M144.65,238.92a2.36,2.36,0,1,0,3.47,1A2.57,2.57,0,0,0,144.65,238.92Z" style="opacity:0.30000000000000004"></path><path d="M250.61,175.34c-2.87,2.59-2.45,7.73.94,11.49s8.46,4.7,11.33,2.11,2.45-7.73-.94-11.49S253.48,172.75,250.61,175.34Z" style="fill:#fff;opacity:0.4"></path><path d="M247.37,188.75a2,2,0,1,0,2.38.45A1.76,1.76,0,0,0,247.37,188.75Z" style="fill:#fff;opacity:0.4"></path><path d="M144.24,241.73s-6-1.13-6.42,2l1.31,3.76,5.87,1.48a2.08,2.08,0,0,0,1.41-.13L149,247.6a2.12,2.12,0,0,0,1.2-1.68l.28-2.6A2.11,2.11,0,0,0,148,241Z" style="fill:#e4897b"></path><polygon points="138.94 249.13 140.62 248.27 137.47 243.4 135.79 244.54 138.94 249.13" style="fill:#407BFF"></polygon><polygon points="138.94 249.13 140.62 248.27 137.47 243.4 135.79 244.54 138.94 249.13" style="fill:#fff;opacity:0.2"></polygon><path d="M95.68,227.66c-1.8,3.28,8.67,36.39,12.92,39.82,5.28,4.25,32-17.57,32-17.57l-4.68-6.09s-21.13,12.12-22,11.5-4.21-15.63-4.21-15.63-3.65-5.61-7.53-8.51A20,20,0,0,0,95.68,227.66Z" style="fill:#407BFF"></path><path d="M95.68,227.66c-1.8,3.28,8.67,36.39,12.92,39.82,5.28,4.25,32-17.57,32-17.57l-4.68-6.09s-21.13,12.12-22,11.5-4.21-15.63-4.21-15.63-3.65-5.61-7.53-8.51A20,20,0,0,0,95.68,227.66Z" style="fill:#fff;opacity:0.7000000000000001"></path><path d="M184.16,408.93,176,409a.58.58,0,0,0-.57.46l-1.37,5.94a1,1,0,0,0,1,1.18c2.62,0,4.53-.21,7.83-.22,2,0,8.14.2,10.94.19s3.19-2.78,2-3c-5.13-1.11-9-2.65-10.63-4.13A1.63,1.63,0,0,0,184.16,408.93Z" style="fill:#263238"></path></g></svg>
