<svg xmlns="http://www.w3.org/2000/svg" viewBox="0 0 500 500"><g id="freepik--background-complete--inject-93"><rect y="382.4" width="500" height="0.25" style="fill:#ebebeb"></rect><rect x="416.78" y="398.49" width="33.12" height="0.25" style="fill:#ebebeb"></rect><rect x="322.53" y="401.21" width="8.69" height="0.25" style="fill:#ebebeb"></rect><rect x="396.59" y="389.21" width="19.19" height="0.25" style="fill:#ebebeb"></rect><rect x="52.46" y="390.89" width="43.19" height="0.25" style="fill:#ebebeb"></rect><rect x="104.56" y="390.89" width="6.33" height="0.25" style="fill:#ebebeb"></rect><rect x="131.47" y="395.11" width="93.68" height="0.25" style="fill:#ebebeb"></rect><path d="M237,337.8H43.91a5.71,5.71,0,0,1-5.7-5.71V60.66A5.71,5.71,0,0,1,43.91,55H237a5.71,5.71,0,0,1,5.71,5.71V332.09A5.71,5.71,0,0,1,237,337.8ZM43.91,55.2a5.46,5.46,0,0,0-5.45,5.46V332.09a5.46,5.46,0,0,0,5.45,5.46H237a5.47,5.47,0,0,0,5.46-5.46V60.66A5.47,5.47,0,0,0,237,55.2Z" style="fill:#ebebeb"></path><path d="M453.31,337.8H260.21a5.72,5.72,0,0,1-5.71-5.71V60.66A5.72,5.72,0,0,1,260.21,55h193.1A5.71,5.71,0,0,1,459,60.66V332.09A5.71,5.71,0,0,1,453.31,337.8ZM260.21,55.2a5.47,5.47,0,0,0-5.46,5.46V332.09a5.47,5.47,0,0,0,5.46,5.46h193.1a5.47,5.47,0,0,0,5.46-5.46V60.66a5.47,5.47,0,0,0-5.46-5.46Z" style="fill:#ebebeb"></path><path d="M193.24,376.16h23.17L204.23,277a8.86,8.86,0,0,0-8.54-7.6H94.59l14.82,106.81Z" style="fill:#f5f5f5"></path><path d="M119.75,376.16H96.58L84.4,277a6.58,6.58,0,0,1,6.67-7.6h8a8.86,8.86,0,0,1,8.54,7.6Z" style="fill:#f0f0f0"></path><path d="M128.29,376l-4.2-48a4.59,4.59,0,0,0-4-4.14l-1.73-.22a6.13,6.13,0,0,1-5.33-5.55l-.77-8.75a6.14,6.14,0,0,1,6.11-6.67H79.67a6.14,6.14,0,0,0-6.11,6.67l.77,8.75a6.13,6.13,0,0,0,5.33,5.55l1.73.22a4.57,4.57,0,0,1,4,4.14l4.2,48a6.78,6.78,0,0,0,6.75,6.19H135A6.77,6.77,0,0,1,128.29,376Z" style="fill:#e6e6e6"></path><path d="M234.85,316.05a14.59,14.59,0,0,1,14.53-13.32H215.67a14.59,14.59,0,0,0-14.53,13.32l-3.33,38h33.71Z" style="fill:#e6e6e6"></path><path d="M264.36,302.73h-15a14.59,14.59,0,0,0-14.53,13.32l-3.33,38H151.23l-3.33-38a14.59,14.59,0,0,0-14.53-13.32h-15a6.14,6.14,0,0,0-6.11,6.67l.77,8.75a6.13,6.13,0,0,0,5.33,5.55l1.73.22a4.59,4.59,0,0,1,4,4.14l4.2,48a6.77,6.77,0,0,0,6.74,6.19H247.72a6.77,6.77,0,0,0,6.74-6.19l4.2-48a4.59,4.59,0,0,1,4-4.14l1.73-.22a6.13,6.13,0,0,0,5.33-5.55l.77-8.75A6.14,6.14,0,0,0,264.36,302.73Z" style="fill:#f0f0f0"></path><rect x="309.05" y="116.13" width="98.72" height="266.1" transform="translate(716.82 498.36) rotate(180)" style="fill:#ebebeb"></rect><rect x="376.33" y="145.39" width="22.72" height="99.29" transform="translate(775.38 390.07) rotate(180)" style="fill:#fafafa"></rect><path d="M391.36,264.74a4.53,4.53,0,1,0,4.53-4.53A4.52,4.52,0,0,0,391.36,264.74Z" style="fill:#e0e0e0"></path><rect x="339.46" y="97.88" width="37.89" height="8.94" transform="translate(716.82 204.71) rotate(180)" style="fill:#f5f5f5"></rect><rect x="72.29" y="128.6" width="89.31" height="70.29" transform="translate(280.69 46.8) rotate(90)" style="fill:#e6e6e6"></rect><rect x="83.4" y="120.69" width="67.09" height="86.1" style="fill:#f0f0f0"></rect><path d="M133.21,161.06c-2.6,2.87-3.25-2.84-3.25-2.84l-7.44-12.63-1.62,13,5.59,40.18s5.12,1.52,5.45,2.39-8.77,1.09-9.75,0,1-2.39,1-2.39l-7-33.22-.11.53-6.92,32.69s1.94,1.3,1,2.39-10.07.85-9.74,0,5.44-2.39,5.44-2.39l5.58-40.18-1.6-13-7.44,12.63s-.65,5.71-3.25,2.84,2-5.47,2-5.47l8.09-14,4.46-1.55,1-1.24s-5.72-10.27,1.48-10.47h.22c7.2.2,1.49,10.47,1.49,10.47l1,1.24,4.46,1.55,8.08,14S135.8,158.19,133.21,161.06Z" style="fill:#fafafa"></path><path d="M116,128.31v37.74l-6.92,32.69s1.94,1.3,1,2.39-10.07.85-9.74,0,5.44-2.39,5.44-2.39l5.58-40.18-1.6-13-7.44,12.63s-.65,5.71-3.25,2.84,2-5.47,2-5.47l8.09-14,4.46-1.55,1-1.24S108.82,128.51,116,128.31Z" style="fill:#e6e6e6"></path><rect x="130.86" y="130.72" width="9.29" height="3.62" style="fill:#e6e6e6"></rect><rect x="134.01" y="146.99" width="9.29" height="3.62" style="fill:#e6e6e6"></rect><rect x="89.9" y="164.08" width="9.29" height="3.62" style="fill:#e6e6e6"></rect><rect x="93.61" y="130.58" width="9.29" height="3.62" style="fill:#e6e6e6"></rect><rect x="130.86" y="170.08" width="9.29" height="3.62" style="fill:#e6e6e6"></rect><rect x="92.45" y="183.93" width="9.29" height="3.62" style="fill:#e6e6e6"></rect><rect x="135.5" y="187.55" width="9.29" height="3.62" style="fill:#e6e6e6"></rect><rect x="151.95" y="129.8" width="90.15" height="67.89" transform="translate(33.29 360.77) rotate(-90)" style="fill:#e6e6e6"></rect><rect x="164.69" y="120.27" width="64.68" height="86.95" style="fill:#f5f5f5"></rect><rect x="164.69" y="120.27" width="64.68" height="21.61" style="fill:#fafafa"></rect><rect x="164.69" y="161.87" width="64.68" height="23.76" style="fill:#fafafa"></rect><path d="M170.76,130.11a6.55,6.55,0,1,0,6.54-6.54A6.54,6.54,0,0,0,170.76,130.11Z" style="fill:#f5f5f5"></path><circle cx="219.4" cy="151.73" r="6.55" style="fill:#fafafa"></circle><circle cx="176.53" cy="174.83" r="6.55" style="fill:#f5f5f5"></circle><circle cx="218.63" cy="196.44" r="6.55" style="fill:#fafafa"></circle></g><g id="freepik--Shadow--inject-93"><ellipse id="freepik--path--inject-93" cx="250" cy="416.24" rx="193.89" ry="11.32" style="fill:#f5f5f5"></ellipse></g><g id="freepik--Plant--inject-93"><path d="M363.75,386.85c0-.32-1.08-31.92-6.2-36.9-4.93-4.79-10.62-.17-10.86,0l-.64-.77c.06,0,6.62-5.4,12.2,0,5.4,5.25,6.46,36.26,6.5,37.58Z" style="fill:#407BFF"></path><path d="M364.19,393.08c-.15-1.55-3.52-38,10.24-53.83l.76.66c-13.48,15.47-10,52.7-10,53.07Z" style="fill:#407BFF"></path><path d="M363.88,389.1l-1-.07c0-.43,2.69-42.71-7.36-51.94l.68-.74C366.59,345.91,364,387.34,363.88,389.1Z" style="fill:#407BFF"></path><path d="M365.19,389.07h-1c0-1.17.33-28.65,8.17-33.14a5.63,5.63,0,0,1,5.13-.5c4.75,2,7.1,10.4,7.2,10.75l-1,.27c0-.09-2.31-8.32-6.62-10.09a4.56,4.56,0,0,0-4.24.44C365.51,361,365.19,388.79,365.19,389.07Z" style="fill:#407BFF"></path><path d="M362.16,389.09l-1-.06c0-.21,1.17-21.63-4.6-29.16q-2.07-2.72-4.45-2.56c-3.74.26-6.9,5.77-6.93,5.83l-.87-.5c.14-.24,3.45-6,7.73-6.32,1.92-.14,3.72.85,5.32,2.94C363.35,367.08,362.21,388.2,362.16,389.09Z" style="fill:#407BFF"></path><path d="M363.23,392c-.16-2.08-3.79-51.11,2.62-59.77l.8.59c-6.18,8.37-2.46,58.6-2.42,59.11Z" style="fill:#407BFF"></path><path d="M379.19,360.48s-3.83,1.41-2.7,4.74S389.74,374,389.74,374s5.07-4.65.42-12.21S379.29,358.09,379.19,360.48Z" style="fill:#407BFF"></path><path d="M379.19,360.48s-3.83,1.41-2.7,4.74S389.74,374,389.74,374s5.07-4.65.42-12.21S379.29,358.09,379.19,360.48Z" style="fill:#fff;isolation:isolate;opacity:0.2"></path><path d="M362.54,354.13s4.08-.17,4.31,3.35S358,370.71,358,370.71s-6.47-2.34-5.08-11.11S361.53,352,362.54,354.13Z" style="fill:#407BFF"></path><path d="M362.54,354.13s4.08-.17,4.31,3.35S358,370.71,358,370.71s-6.47-2.34-5.08-11.11S361.53,352,362.54,354.13Z" style="fill:#fff;isolation:isolate;opacity:0.2"></path><path d="M359.09,337.31s2.72-.29,2.5-1.95-10.57-5.91-16.68,1c0,0,3.91,6.71,9.56,6.8S359.09,337.31,359.09,337.31Z" style="fill:#407BFF"></path><path d="M359.09,337.31s2.72-.29,2.5-1.95-10.57-5.91-16.68,1c0,0,3.91,6.71,9.56,6.8S359.09,337.31,359.09,337.31Z" style="fill:#fff;isolation:isolate;opacity:0.2"></path><path d="M364.15,333.29s-2.46,1.19-3.15-.33,5.84-10.61,14.67-8c0,0,.23,7.76-4.52,10.83S364.15,333.29,364.15,333.29Z" style="fill:#407BFF"></path><path d="M364.15,333.29s-2.46,1.19-3.15-.33,5.84-10.61,14.67-8c0,0,.23,7.76-4.52,10.83S364.15,333.29,364.15,333.29Z" style="fill:#fff;isolation:isolate;opacity:0.2"></path><path d="M351.28,359.14s1.88-1.52-.15-2.26-12-.53-12.06,9.32c0,0,11.57,1.92,13-1.83S351.28,359.14,351.28,359.14Z" style="fill:#407BFF"></path><path d="M351.28,359.14s1.88-1.52-.15-2.26-12-.53-12.06,9.32c0,0,11.57,1.92,13-1.83S351.28,359.14,351.28,359.14Z" style="fill:#fff;isolation:isolate;opacity:0.2"></path><path d="M374.88,337.07s-1.88-1.52.15-2.26,12-.53,12.06,9.31c0,0-11.57,1.93-13-1.82S374.88,337.07,374.88,337.07Z" style="fill:#407BFF"></path><path d="M374.88,337.07s-1.88-1.52.15-2.26,12-.53,12.06,9.31c0,0-11.57,1.93-13-1.82S374.88,337.07,374.88,337.07Z" style="fill:#fff;isolation:isolate;opacity:0.2"></path><path d="M368.76,345s-.16-1.84,1.32-1.12,6.67,6.31,1.3,11.61c0,0-7.23-5.35-5.93-8.14S368.76,345,368.76,345Z" style="fill:#407BFF"></path><path d="M368.76,345s-.16-1.84,1.32-1.12,6.67,6.31,1.3,11.61c0,0-7.23-5.35-5.93-8.14S368.76,345,368.76,345Z" style="fill:#fff;isolation:isolate;opacity:0.2"></path><path d="M349.6,347.62s1.13-1.47-.52-1.65-9,1.78-7.29,9.13c0,0,9-.68,9.36-3.73S349.6,347.62,349.6,347.62Z" style="fill:#407BFF"></path><path d="M349.6,347.62s1.13-1.47-.52-1.65-9,1.78-7.29,9.13c0,0,9-.68,9.36-3.73S349.6,347.62,349.6,347.62Z" style="fill:#fff;isolation:isolate;opacity:0.2"></path><polygon points="379.9 416.34 349.13 416.34 345.81 382.65 383.22 382.65 379.9 416.34" style="fill:#263238"></polygon><rect x="344.17" y="378.94" width="40.69" height="7.43" style="fill:#263238"></rect><rect x="344.17" y="378.94" width="40.69" height="7.43" style="fill:#fff;isolation:isolate;opacity:0.2"></rect></g><g id="freepik--Lungs--inject-93"><rect x="211.52" y="118.41" width="170.71" height="167.48" rx="7.84" style="fill:#407BFF"></rect><rect x="211.52" y="118.41" width="170.71" height="167.48" rx="7.84" style="fill:#fff;opacity:0.7000000000000001"></rect><rect x="216.13" y="119.8" width="161.48" height="164.71" rx="4.84" transform="translate(499.03 -94.72) rotate(90)" style="fill:#fff;opacity:0.2"></rect><path d="M360.78,272.62c-9.69,4.23-48.7-16.06-50.08-25s6.12-45,3.8-67.42c0-.25-.05-.5-.08-.74a18.9,18.9,0,0,1-7.06-4.8,43.92,43.92,0,0,1-5.07-6.23l-.57-.84c-.64-1-1.28-2-1.89-3-.17-.29-.34-.58-.5-.87-.55-1-1.08-1.95-1.6-2.94l-.45-.89c-.47-.94-.93-1.9-1.36-2.85-.35.84-.71,1.66-1.1,2.45-.14.31-.29.61-.44.9-.7,1.37-1.45,2.65-2.22,3.86l-.55.84c-.73,1.07-1.47,2.08-2.23,3l-.63.79a47.61,47.61,0,0,1-9.17,8.39c-.05.68-.14,1.33-.23,2.06-2.62,22.31,5,59.4,3.72,68.3s-40.44,29.2-50.13,25-14.46-56.55-2.66-86.61c12.9-32.73,37-48.66,47.19-41.45,4.54,3.21,4.91,8.26,3.76,19.05.52-.6,1-1.24,1.55-1.91s.9-1.22,1.33-1.88c.19-.27.37-.55.55-.84.49-.78,1-1.59,1.41-2.45.16-.3.31-.6.46-.9.44-.9.86-1.84,1.24-2.82.13-.33.25-.67.37-1,.35-1,.67-2,.94-3.06.1-.33.18-.67.26-1,.15-.65.29-1.31.41-2,.06-.33.12-.68.17-1,.1-.64.19-1.3.25-2,0-.33.07-.67.09-1s.08-1,.1-1.45c0-.31,0-.79,0-1.41,0-.3,0-.64,0-1,0-.59,0-1.25,0-2v-1c0-.74,0-1.51,0-2.29v-1c0-.57,0-1.14,0-1.69,0-.34,0-.68,0-1,0-.75,0-1.45,0-2.09q0-.53,0-1c0-.72,0-1.3,0-1.68h9.18v7.46c0,.34,0,.67,0,1,0,.53,0,1.05,0,1.54s0,.69,0,1c0,1,0,1.8,0,2.34,0,.2,0,.36,0,.47h.09a3,3,0,0,0,0,.52,12.37,12.37,0,0,0,.23,2.49c.06.32.12.65.2,1q.19.88.48,1.86c.09.32.19.65.3,1,.23.75.49,1.52.78,2.32.12.32.25.65.37,1,.38,1,.79,2,1.24,3,.14.33.29.65.44,1,.45,1,.92,2,1.42,3,.15.3.3.6.46.89.49,1,1,1.91,1.53,2.84l.49.87c.36.6.72,1.2,1.08,1.77q.27.45.54.87l.59.89a42,42,0,0,0,3.08,4.08h0c-1.56-13.41-1.7-19.19,3.35-22.77,10.23-7.21,34.29,8.72,47.19,41.45C375.28,216.07,370.46,268.4,360.78,272.62Z" style="fill:#407BFF"></path><path d="M287.88,157.38s0,.05,0,.08c-.45.87-.94,1.72-1.48,2.58l-.06.1,4.22,3c.77-1.22,1.44-2.38,2-3.55Z" style="fill:#fff;opacity:0.2"></path><path d="M298.59,144c-.15-.54-.29-1.07-.4-1.56l-.06-.3-5.94.45c0,.11,0,.23,0,.33,0,.5-.11,1-.2,1.61C294,144.37,296.43,144.17,298.59,144Z" style="fill:#fff;opacity:0.2"></path><path d="M295.15,148.09c.93-.05,3-.35,4.55-.6-.26-.71-.49-1.39-.68-2,0-.17-.1-.32-.15-.48-2.53.19-5.09.4-7.06.57l-.09.53c-.11.62-.24,1.22-.38,1.82C292.68,148,294.34,148.12,295.15,148.09Z" style="fill:#fff;opacity:0.2"></path><path d="M300.19,148.82l0-.1a19.69,19.69,0,0,1-4.82.82,27.36,27.36,0,0,1-4.29-.39.24.24,0,0,0,0,.09c-.26,1-.58,2-.94,3.06a21.53,21.53,0,0,0,5.41.58l.35-.85.37.82a22,22,0,0,0,5.2-1.06C301,150.85,300.6,149.89,300.19,148.82Z" style="fill:#fff;opacity:0.2"></path><path d="M305.42,159.84c-.51-.9-1-1.86-1.51-2.8l-4.47,2.71.06.1c.49,1,1,1.88,1.53,2.82l4.43-2.77Z" style="fill:#fff;opacity:0.2"></path><path d="M297.94,141.16c-.07-.4-.13-.8-.17-1.17h-.13V138.6l-5.25.21v.07c0,.57,0,1,0,1.35v.15c0,.43-.05.84-.08,1.21Z" style="fill:#fff;opacity:0.2"></path><path d="M303.38,156c-.46-.92-.92-1.89-1.39-2.94a17.2,17.2,0,0,1-4.95,1.6l.7,1.55c.4.88.82,1.76,1.26,2.63l4.45-2.7C303.43,156.1,303.4,156.06,303.38,156Z" style="fill:#fff;opacity:0.2"></path><path d="M289.54,153.76c-.35.88-.73,1.76-1.2,2.72l4.67,2.17v0c.33-.67.67-1.41,1.05-2.33l.6-1.44A13,13,0,0,1,289.54,153.76Z" style="fill:#fff;opacity:0.2"></path><path d="M297.64,137.6v-.11c0-.49,0-1.23,0-2.14l-5.22.41V136l0,1.86Z" style="fill:#fff;opacity:0.2"></path><path d="M283.58,163.88c-.28.35-.56.71-.84,1a6.92,6.92,0,0,1-2.08,1.8l-.87,7.86a44.77,44.77,0,0,0,3.61-2.94,43.55,43.55,0,0,0,3.79-4l.12-.15Z" style="fill:#fff;opacity:0.2"></path><path d="M307.2,162.82l-.16-.27c-.35-.55-.71-1.14-1.09-1.78l-4.42,2.77,0,0c.49.83,1,1.7,1.69,2.71Z" style="fill:#fff;opacity:0.2"></path><path d="M313.45,170.66l-1.93-1.92-.09-.1a45.16,45.16,0,0,1-3.25-4.3l-.43-.66-3.95,3.46.14.2a41.56,41.56,0,0,0,4.83,5.94,16.92,16.92,0,0,0,5.49,4Z" style="fill:#fff;opacity:0.2"></path><path d="M285.74,161c-.49.75-1,1.43-1.37,1.95l-.17.21,3.73,3.59c.66-.83,1.32-1.72,2-2.71l0-.07Z" style="fill:#fff;opacity:0.2"></path><path d="M297.66,134.34v-.21c0-.46,0-.95,0-1.5h-5.2v0l0,2.1Z" style="fill:#fff;opacity:0.2"></path><path d="M297.68,131.63h0V128.9l-5.2.75v.29c0,.57,0,1.15,0,1.69h5.21Z" style="fill:#fff;opacity:0.2"></path><path d="M297.68,127.88v-1.29l-5.19.18v.07c0,.58,0,1.2,0,1.8Z" style="fill:#fff;opacity:0.2"></path><path d="M359.09,256.23a5.26,5.26,0,0,1-1.23-2.89,25.52,25.52,0,0,0-.87-3.47,5.44,5.44,0,0,0-2.66-2.8A27.12,27.12,0,0,0,351,245.7a4.61,4.61,0,0,1-.66-.31c-.13-.07-.05,0-.15-.12L350,245c-.34-.44-.67-.91-1-1.38a25.08,25.08,0,0,1-1.7-2.91,10.68,10.68,0,0,1-1-2.72,5.44,5.44,0,0,0,.46-2.44,35.9,35.9,0,0,0-3.43-8.95c-1.65-3.06-4.77-4.66-6-7.77a12.31,12.31,0,0,0,5,3c1.65.47,3.24.72,4.65,1.27a7.19,7.19,0,0,1,1.9,1,4.52,4.52,0,0,1,1.25,1.6l.19.49.18.57.35,1.15.62,2.36a11.24,11.24,0,0,0,2.09,4.72,11.37,11.37,0,0,0,1.91,1.76c.69.51,1.49.91,2,1.32a20.65,20.65,0,0,1,3.32,3.28l.89-.45a8.23,8.23,0,0,0-1.66-2l-1.81-1.71c-.74-.59-1.42-.93-2-1.42a8.17,8.17,0,0,1-3.29-5.84l-.56-2.4-.31-1.21-.16-.6-.24-.66a6.28,6.28,0,0,0-1.66-2.29,9.21,9.21,0,0,0-2.34-1.39c-1.62-.68-3.28-1-4.75-1.48a9.49,9.49,0,0,1-3.74-2.33c-.56-.52-1.1-1.09-1.63-1.68-.37-.41-.69-.81-1.07-1.24-.7-4.17-1.81-11-3.33-16.9a15.65,15.65,0,0,0,1.67,1.69,6.86,6.86,0,0,0,1.18.82,7,7,0,0,0,1.31.54c.85.28,1.67.49,2.49.7,1.64.42,3.26.83,4.82,1.36a10.52,10.52,0,0,1,4.09,2.24l3.52,3.67.35.37c.76,1.28,1.32,4.35,1.71,6.45.16.87.3,1.64.43,2.2a6.94,6.94,0,0,0,2.29,3.19,5.39,5.39,0,0,1,1.67,2.1,13.78,13.78,0,0,1,.37,2.42c.12,1.33.23,2.48.82,3.07l.7-.7a5.58,5.58,0,0,1-.53-2.46,14.54,14.54,0,0,0-.39-2.6,6.28,6.28,0,0,0-2-2.56,6,6,0,0,1-2-2.69c-.13-.55-.27-1.3-.43-2.15-.26-1.45-.56-3.07-.95-4.47a6.49,6.49,0,0,0,.65.6,4.3,4.3,0,0,0,1.32.62,13.22,13.22,0,0,0,2.61.33,3.1,3.1,0,0,1,2,.69l.71-.71a4.13,4.13,0,0,0-2.62-1,12.14,12.14,0,0,1-2.4-.35,3.34,3.34,0,0,1-.94-.48,8.28,8.28,0,0,1-.83-.84l-1.7-1.86-3.39-3.73a11.79,11.79,0,0,0-4.62-2.74c-1.62-.6-3.27-1.06-4.89-1.52-.81-.23-1.62-.47-2.37-.73A4.94,4.94,0,0,1,336,198a20.47,20.47,0,0,1-3.05-3.73c-.59-.9-1.15-1.83-1.68-2.77-.14-.37-.28-.72-.43-1.06a8.48,8.48,0,0,0,3.37,0,2.71,2.71,0,0,0,1-.43l.06,0c.92.92,2.77,2.78,3.25,3.29.09.1.09.22.06.48a1.06,1.06,0,0,0,.24.93,1.7,1.7,0,0,0,1.46.18,7,7,0,0,1,3.78.79l.47-.88a7.84,7.84,0,0,0-4.43-.89,3.85,3.85,0,0,1-.53.05.22.22,0,0,1,0-.08,1.49,1.49,0,0,0-.33-1.26c-.52-.56-2.53-2.58-3.4-3.44l0-.07c.21-.53.38-1.06.55-1.52a2.48,2.48,0,0,1,.26-.56c.05-.07.07-.09.08-.09h0a1.3,1.3,0,0,1,.17,0l1.62-.12-.06-1h-1.81a1,1,0,0,0-.37.08,1.51,1.51,0,0,0-.55.4,3.45,3.45,0,0,0-.5.83c-.25.52-.44,1-.66,1.44l-.16.29-.07,0a2.11,2.11,0,0,1-.48.15,7,7,0,0,1-2.81-.27,7.37,7.37,0,0,1-1.32-.5h0a52.78,52.78,0,0,0-4.06-6.18,10.21,10.21,0,0,0,3.42-1.63c1.25-.3,2.49-.55,3.7-.72a12.2,12.2,0,0,1,1.53-.12c.23,0,.44,0,.55,0a6.27,6.27,0,0,1,.61.18,26.09,26.09,0,0,1,2.94,1.56,15.84,15.84,0,0,0,1.75.86,6.56,6.56,0,0,0,1.06.31l.49.07c1.34,1.1,2.7,2.16,3.87,3.32a7.36,7.36,0,0,1,.9,1.08,2.63,2.63,0,0,1,.46,1.16,7.66,7.66,0,0,0,.27,1.64,4.09,4.09,0,0,0,1,1.47,19.4,19.4,0,0,0,2.52,2,5.28,5.28,0,0,0,.75.43l.35.15a.78.78,0,0,1,.19.13c.33.29.69.68,1.05,1,.73.75,1.47,1.47,2.24,2.17.38.35.77.7,1.17,1l.61.51c.11.08.21.16.34.24l.2.13.12.06a1.17,1.17,0,0,0,.25.07l.1-1a.06.06,0,0,1,.06,0l0,0-.12-.08-.28-.21-.57-.49c-.38-.33-.75-.68-1.12-1-.73-.7-1.45-1.42-2.15-2.16-.35-.37-.68-.75-1.11-1.14a1.78,1.78,0,0,0-.44-.31l-.35-.16a5.35,5.35,0,0,1-.59-.35,18.31,18.31,0,0,1-2.3-1.86,2.94,2.94,0,0,1-.72-1,7.51,7.51,0,0,1-.18-1.39,4.16,4.16,0,0,0-.62-1.7,9.77,9.77,0,0,0-1.05-1.3c-.93-1-1.91-1.79-2.88-2.62a5.34,5.34,0,0,0,.74-.24c.6-.25,1.07-.48,1.58-.66a11.07,11.07,0,0,1,1.58-.41,6.35,6.35,0,0,1,1.57-.09c.54,0,1.06.15,1.73.24a3.34,3.34,0,0,0,1.08-.06,3,3,0,0,0,1-.47l-.54-.83a1.7,1.7,0,0,1-1.32.17c-.49-.12-1.1-.34-1.73-.45a7.91,7.91,0,0,0-1.94-.11,13.65,13.65,0,0,0-1.89.27c-.62.14-1.24.36-1.74.5a4.44,4.44,0,0,1-1.43.17,5.26,5.26,0,0,1-2.51-1.24,27.81,27.81,0,0,0-3.08-2.09,8.53,8.53,0,0,0-1-.45,6.21,6.21,0,0,0-1.19-.22c-.33,0-.63,0-.92-.05l.61-.68a2.84,2.84,0,0,1,.39-.18,4.63,4.63,0,0,1,1.14-.21,5.2,5.2,0,0,1,2.36.28c.4.13.77.33,1.28.54a2.9,2.9,0,0,0,1,.23,1.71,1.71,0,0,0,.66-.1,2.35,2.35,0,0,0,.54-.3,4.28,4.28,0,0,0,1.06-1.39c.21-.41.44-.8.67-1.17s.47-.65.78-1.07a18.86,18.86,0,0,1,1.88,1c.31.19.56.34.69.4a2.19,2.19,0,0,0,1,.25,2.23,2.23,0,0,0,1-.25,3.11,3.11,0,0,1,1.46.22l.33-.94a3.49,3.49,0,0,0-2.24-.17,1.19,1.19,0,0,1-1.13,0l-.62-.36a17.59,17.59,0,0,0-1.92-1.08,6.51,6.51,0,0,0,.23-.66,9.68,9.68,0,0,1,3-4.32l-.64-.78a15.73,15.73,0,0,0-2.11,2.05,7.57,7.57,0,0,0-1.53,2.62,3.55,3.55,0,0,1-.54,1c-.25.29-.64.71-.92,1.11a15,15,0,0,1-1.49,2.06c-.09,0-.07,0-.12,0a1.22,1.22,0,0,1-.34-.12c-.35-.18-.81-.44-1.29-.65a7.36,7.36,0,0,0-3.18-.59h-.19a42.73,42.73,0,0,0,.3-6.63,20.91,20.91,0,0,1,.79-4.51c.4-1.54,2.57-3.6,2-4.09s-2-5-2-5l-.59.9,1.38,3.16s-.59,3.17-1.38,3.73-1.19,2.21-1.59,4.31,1.1,4.5-1.91,7.73a5.52,5.52,0,0,0-.57-2.9,5.32,5.32,0,0,0-.66-1,7.39,7.39,0,0,0-.86-.82c-.3-.2-.66-.44-.93-.6s-.52-.29-.77-.45a11.59,11.59,0,0,1-2.66-2.25,5.83,5.83,0,0,1-1.41-2.95,4,4,0,0,1,.12-1.59c.14-.59.35-1.17.51-1.85a3.52,3.52,0,0,0-.1-2.28,4.08,4.08,0,0,0-.55-1l-.59-.74a3.63,3.63,0,0,1-.62-3.1l-.93-.37a4.68,4.68,0,0,0,.55,4.15l.56.78a3.34,3.34,0,0,1,.35.71,2.2,2.2,0,0,1,0,1.45c-.17.55-.42,1.15-.61,1.79A5.71,5.71,0,0,0,323,162a7.53,7.53,0,0,0,1.59,3.94,13.22,13.22,0,0,0,3,2.82c.27.2.56.37.84.56s.42.31.65.47a3.15,3.15,0,0,1,.82,1.12,4,4,0,0,1,0,2.86,7.34,7.34,0,0,1-.69,1.44l0,0c-3.36,1.59-7.51,3.11-9.43.87l-4.11-3.3s.42,3.36.66,5.19c0,0,2.33,1.27,5.69,5.95.22,1,1.92,6,2.07,7.11.21,1.51.37,3,.49,4.55.06.82.11,1.63.15,2.44-.28.66-.56,1.3-.88,1.9a6.91,6.91,0,0,1-.7,1.14,1.8,1.8,0,0,1-.35.34l-.09,0-.32,0c-.46,0-1,0-1.54.12a3.76,3.76,0,0,0-1.62.66L316.74,204l.52.85,2.55-1.56a4.41,4.41,0,0,1,2.56-.4l.41,0a1.56,1.56,0,0,0,.61-.19,2.78,2.78,0,0,0,.77-.62,8.79,8.79,0,0,0,.56-.72,22.33,22.33,0,0,1-.26,3.32,3.57,3.57,0,0,1-.57,1.61c-.54.5-1.12.93-1.76,1.46a6.16,6.16,0,0,0-1.66,2,15.94,15.94,0,0,0-.94,2.26,36,36,0,0,0-1.21,4.58l-.46,2.27c-.08.37-.17.74-.27,1.07a4,4,0,0,1-.18.44c-.06.14-.14.16-.12.18l-.05,0-1.92,1.06.46.89,2-1-.05,0a1.47,1.47,0,0,0,.67-.63,4.36,4.36,0,0,0,.3-.62c.15-.41.25-.79.35-1.17l.57-2.27c.09-.36.19-.71.29-1.06a17.57,17.57,0,0,0,1.07,4.95c.63,1,1,2.19.69,5.23a6.82,6.82,0,0,1-1.38,3.41,8.56,8.56,0,0,0-1.32,2.71,8.29,8.29,0,0,0-.27,1.85c0,.52,0,.71-.77,1.81-1.31,2-2.77,4.49-2.79,4.51l.87.51s1.46-2.52,2.75-4.46a3.7,3.7,0,0,0,.94-2.32,7,7,0,0,1,.24-1.66,7.76,7.76,0,0,1,1.19-2.41,7.73,7.73,0,0,0,1.54-3.86c.26-2.87,0-4.52-.85-5.86-.46-.72-.93-4.28-1.16-6.79.1-.3.2-.61.31-.91a16,16,0,0,1,.93-2,4.68,4.68,0,0,1,1.32-1.48c.58-.43,1.27-.9,1.89-1.42a3.4,3.4,0,0,0,.88-1.34,9.35,9.35,0,0,0,.37-1.26,27.46,27.46,0,0,0,.5-4.8c.05-1.58,0-3.16,0-4.73s-.14-2.94-.27-4.42a13.78,13.78,0,0,1,2.33,3.32,90.44,90.44,0,0,1,2.06,9.61,29,29,0,0,0-1.24,6.58,10.84,10.84,0,0,1-.67,3.27c-.2.43-.55,1-.83,1.55a12.64,12.64,0,0,0-.81,1.78,13.23,13.23,0,0,0-.5,3.81c-.07,1.18-.23,2.37-.37,3.59l-.09.94c0,.16,0,.33,0,.5a.22.22,0,0,0,0,.08l-.05.15a9.38,9.38,0,0,1-.77,1.51c-.62,1-1.31,2-2,3l.79.62c.77-1,1.51-1.94,2.21-3a10.09,10.09,0,0,0,1-1.7l.09-.27a2.38,2.38,0,0,0,.06-.37c0-.13,0-.27,0-.41l.12-.87c.19-1.19.41-2.4.55-3.64a12,12,0,0,1,.56-3.37,11.85,11.85,0,0,1,.77-1.5c.3-.52.62-1,1-1.62a12.69,12.69,0,0,0,1-3.8c.07-.57.16-1.13.25-1.68a74.46,74.46,0,0,0,2.19,9,19,19,0,0,1-.5,4.26,20.86,20.86,0,0,1-1.73,4.6,17.37,17.37,0,0,1-1.22,2.14c-.45.69-1,1.4-1.43,2.18a10.41,10.41,0,0,0-1.48,5.25,16,16,0,0,0,.06,1.7c-.37,2.24-.9,3.57-2.33,4.73a8.68,8.68,0,0,1-2.05,1.14c-1,.44-2,.85-2.27,2a44.15,44.15,0,0,1-2.17,5.14l.9.44a45.59,45.59,0,0,0,2.24-5.32c.18-.67.7-.93,1.7-1.36a9.46,9.46,0,0,0,2.27-1.28,6.46,6.46,0,0,0,2.15-3.09q.19.61.42,1.17a4.31,4.31,0,0,1,.37,2.21c-.08.74-.27,1.64-.4,2.47l-.45,2.55L328,250.4l0,.32-.05.22a2.73,2.73,0,0,1-.21.47c-.19.32-.44.64-.7,1a3.68,3.68,0,0,0-.72,1.31,1.57,1.57,0,0,0,0,.49,2.53,2.53,0,0,0,.1.43,2.11,2.11,0,0,1,.12.51,2.39,2.39,0,0,1-.11,1l.92.4a3.32,3.32,0,0,0,.21-1.51,3.12,3.12,0,0,0-.14-.74.5.5,0,0,1-.05-.2.39.39,0,0,1,0-.14,2.91,2.91,0,0,1,.55-.89,11,11,0,0,0,.8-1.09,3.48,3.48,0,0,0,.33-.7,2.6,2.6,0,0,0,.1-.4l.06-.31.25-1.25.5-2.5c.16-.85.34-1.62.48-2.58a5.53,5.53,0,0,0-.39-2.81,10.82,10.82,0,0,1-.62-2.34,13,13,0,0,1-.09-2.42,8.8,8.8,0,0,1,1.37-4.48c.43-.68.94-1.35,1.44-2.08a18.86,18.86,0,0,0,1.37-2.28,22.21,22.21,0,0,0,2-4.94,17.56,17.56,0,0,0,.43-2.16c2.13,2,5,4.22,5.7,5.82.79,1.84,1.58,5.25,2.37,6.71s.79,4.76,0,5.75c-.4.5-.33,2-.16,3.56l-.3-.08A44.86,44.86,0,0,1,342,247.3a9.07,9.07,0,0,1-1.08,2.08,2.36,2.36,0,0,1-.69.66l-.17.08-.33.1a4.48,4.48,0,0,0-.68.29,5.09,5.09,0,0,0-2,2.05c-.45.74-.92,1.4-1.4,2.16-.92,1.47-1.75,3-2.56,4.49l.88.48c.85-1.47,1.74-2.93,2.68-4.32.35-.51.75-1.05,1.12-1.59.06.4.14.8.22,1.19a7,7,0,0,1,.22,1.5c0,.83-.08,1.54-.14,2.22,0,.52-.08,1-.1,1.55a11.27,11.27,0,0,0,.49,3.11l1-.29a9.87,9.87,0,0,1-.45-2.77c0-.52.06-1,.1-1.51.06-.71.12-1.44.14-2.29a8,8,0,0,0-.24-1.73,4.87,4.87,0,0,1-.13-2.4,2.45,2.45,0,0,1,.84-.6,2.72,2.72,0,0,1,.5-.19l.29-.08.42-.16a3.88,3.88,0,0,0,1.22-1,10.4,10.4,0,0,0,1.37-2.4c.26-.6.49-1.21.7-1.81,0,.22,0,.42,0,.59,0,1.75.79,3,1.06,4.47a5.82,5.82,0,0,0,.79,2.24l.54,2.86a2.78,2.78,0,0,1-.14,1.25c-.5.78-.47,2.35-.44,3.86a11.48,11.48,0,0,1-.06,2.14,19.07,19.07,0,0,1-.94,2.93l.92.39a20,20,0,0,0,1-3.13,13,13,0,0,0,.07-2.35c0-1.24-.06-2.78.28-3.31a5.7,5.7,0,0,0,.17-3.18c0-.26.06-.53.07-.8l.86.69c1.24.95,2.64,2,2.84,3.12a1.89,1.89,0,0,1-.3,1.52c-.4.69-.63,1.31.42,2.44A11.42,11.42,0,0,1,353.7,265l1-.24a11.87,11.87,0,0,0-2.62-3.65c-.63-.68-.55-.81-.29-1.26a2.89,2.89,0,0,0,.41-2.21c-.27-1.45-1.76-2.61-3.2-3.72-.55-.43-1.06-.83-1.48-1.23a2.31,2.31,0,0,0-.66-1.57c-1.55-1.23-.82-4.3-1.08-8.43a13.57,13.57,0,0,1,0-1.55l.11.22a27.56,27.56,0,0,0,1.88,3c.35.49.7,1,1.08,1.44l.29.35a2.28,2.28,0,0,0,.52.42,4.76,4.76,0,0,0,.92.41,24.76,24.76,0,0,1,3.16,1.22,4.16,4.16,0,0,1,2.11,2,24.69,24.69,0,0,1,.9,3.26,9.71,9.71,0,0,0,.51,1.77,5.72,5.72,0,0,0,1.06,1.6,15.23,15.23,0,0,0,2.76,2.32l.55-.83A14.22,14.22,0,0,1,359.09,256.23Z" style="opacity:0.2"></path><path d="M276,232.76c-.74-1.1-.75-1.29-.77-1.81a9,9,0,0,0-.27-1.85,8.56,8.56,0,0,0-1.32-2.71,6.82,6.82,0,0,1-1.38-3.41c-.28-3,.05-4.25.69-5.23A17.57,17.57,0,0,0,274,212.8c.1.35.2.7.29,1.06l.56,2.26c.11.39.21.77.36,1.18a3.41,3.41,0,0,0,.29.62,1.56,1.56,0,0,0,.68.63l0,0,2,1,.46-.89-1.92-1.06-.05,0s-.06,0-.12-.18a2.67,2.67,0,0,1-.18-.44,10.44,10.44,0,0,1-.27-1.07l-.46-2.27a35.59,35.59,0,0,0-1.22-4.58,15.86,15.86,0,0,0-.93-2.26,6.16,6.16,0,0,0-1.66-2c-.65-.53-1.22-1-1.77-1.46a3.71,3.71,0,0,1-.56-1.61,22.33,22.33,0,0,1-.26-3.32,8.79,8.79,0,0,0,.56.72,2.78,2.78,0,0,0,.77.62,1.51,1.51,0,0,0,.61.19l.4,0a4.4,4.4,0,0,1,2.56.4l2.56,1.56.52-.85-2.41-1.68a3.8,3.8,0,0,0-1.63-.66c-.56-.09-1.07-.08-1.53-.12l-.33,0-.08,0a1.8,1.8,0,0,1-.35-.34,7.68,7.68,0,0,1-.71-1.14c-.31-.6-.59-1.24-.87-1.9,0-.81.09-1.62.15-2.44.12-1.52.28-3,.49-4.55.15-1.08.32-2.2.53-3.24,1.92-5.55,7.28-8.63,7.28-8.63a35.63,35.63,0,0,0,.91-6.45,41,41,0,0,1-4.95,3.4c-2.6,1.39-5.54.69-8.89-.9l0,0a7.34,7.34,0,0,1-.69-1.44,4,4,0,0,1,0-2.86,3.15,3.15,0,0,1,.82-1.12c.22-.16.38-.29.65-.47s.57-.36.84-.56a13.22,13.22,0,0,0,3-2.82,7.7,7.7,0,0,0,1.59-3.94,5.71,5.71,0,0,0-.28-2.16c-.2-.64-.44-1.24-.61-1.79a2.2,2.2,0,0,1,0-1.45,3.34,3.34,0,0,1,.35-.71l.55-.78a4.68,4.68,0,0,0,.56-4.15l-.93.37a3.6,3.6,0,0,1-.63,3.1l-.59.74a4.92,4.92,0,0,0-.55,1,3.65,3.65,0,0,0-.1,2.28c.17.68.37,1.26.51,1.85a4,4,0,0,1,.13,1.59,5.91,5.91,0,0,1-1.41,2.95,11.43,11.43,0,0,1-2.67,2.25c-.24.16-.51.3-.77.45s-.62.4-.92.6a7.39,7.39,0,0,0-.86.82,4.51,4.51,0,0,0-.66,1,5.62,5.62,0,0,0-.58,2.9c-3-3.23-1.52-5.67-1.91-7.73s-.79-3.74-1.58-4.31c-.62-.44-1.12-2.48-1.3-3.34a13.68,13.68,0,0,1-1.13,1.41,16.46,16.46,0,0,1,1.84,3.19,21.55,21.55,0,0,1,.79,4.51,42.73,42.73,0,0,0,.3,6.63h-.19a7.31,7.31,0,0,0-3.18.59c-.48.21-.94.47-1.29.64a1,1,0,0,1-.35.13s0,0-.11,0a15,15,0,0,1-1.49-2.06c-.29-.4-.67-.82-.92-1.11a3.33,3.33,0,0,1-.54-1,7.73,7.73,0,0,0-1.53-2.62,16.34,16.34,0,0,0-2.11-2.05l-.64.78a9.68,9.68,0,0,1,3,4.32,4.73,4.73,0,0,0,.23.66,18.51,18.51,0,0,0-1.93,1.08c-.27.16-.49.3-.61.36a1.19,1.19,0,0,1-1.13,0,3.48,3.48,0,0,0-2.24.17l.33.94a3.11,3.11,0,0,1,1.46-.22,2.19,2.19,0,0,0,2,0l.68-.4a20.29,20.29,0,0,1,1.89-1c.31.42.54.7.77,1.07a13.27,13.27,0,0,1,.68,1.17,4.49,4.49,0,0,0,1.05,1.39,2.65,2.65,0,0,0,.55.3,1.71,1.71,0,0,0,.66.1,2.9,2.9,0,0,0,1-.23c.51-.21.88-.41,1.27-.54a5.24,5.24,0,0,1,2.37-.28,4.55,4.55,0,0,1,1.13.21,2.51,2.51,0,0,1,.4.18c.17.2.38.43.61.68-.29,0-.6,0-.92.05a6.07,6.07,0,0,0-1.19.22,8.53,8.53,0,0,0-1,.45,27.81,27.81,0,0,0-3.08,2.09,5.26,5.26,0,0,1-2.51,1.24,4.44,4.44,0,0,1-1.43-.17c-.5-.14-1.12-.36-1.75-.5a13.51,13.51,0,0,0-1.88-.27,7.88,7.88,0,0,0-1.94.11c-.64.11-1.25.33-1.73.45a1.7,1.7,0,0,1-1.32-.17l-.55.83a3.12,3.12,0,0,0,1,.47,3.34,3.34,0,0,0,1.08.06c.67-.09,1.19-.21,1.73-.25a6.87,6.87,0,0,1,1.57.1,11.07,11.07,0,0,1,1.58.41c.51.18,1,.41,1.58.66a5.67,5.67,0,0,0,.73.24c-1,.83-1.94,1.67-2.87,2.62a9.17,9.17,0,0,0-1.05,1.3,4,4,0,0,0-.62,1.69,8.48,8.48,0,0,1-.18,1.4,2.94,2.94,0,0,1-.72,1,18.31,18.31,0,0,1-2.3,1.86,5.35,5.35,0,0,1-.59.35l-.35.16a1.78,1.78,0,0,0-.44.31c-.43.39-.76.77-1.12,1.14-.69.74-1.41,1.46-2.14,2.16-.37.35-.74.7-1.12,1l-.57.49-.28.21a1.23,1.23,0,0,1-.12.08l0,0a.09.09,0,0,1,.07,0l.09,1a1,1,0,0,0,.25-.07l.13-.06.2-.13c.13-.08.23-.16.34-.24l.61-.51c.4-.33.79-.68,1.17-1,.76-.7,1.51-1.42,2.23-2.17.37-.36.72-.75,1.06-1a.78.78,0,0,1,.19-.13l.35-.15a5.76,5.76,0,0,0,.74-.43,19.4,19.4,0,0,0,2.52-2,4.11,4.11,0,0,0,1.05-1.47,7.66,7.66,0,0,0,.27-1.64,2.74,2.74,0,0,1,.45-1.16,8.15,8.15,0,0,1,.91-1.08c1.17-1.16,2.53-2.22,3.86-3.32l.5-.07a6.16,6.16,0,0,0,1-.31,15.19,15.19,0,0,0,1.76-.86,25.26,25.26,0,0,1,2.94-1.56,6.27,6.27,0,0,1,.61-.18,3.63,3.63,0,0,1,.55,0,12.35,12.35,0,0,1,1.53.12c1.2.17,2.45.42,3.7.72a10.16,10.16,0,0,0,3.41,1.63,54.76,54.76,0,0,0-4.05,6.17h0a7.67,7.67,0,0,1-1.32.5A7,7,0,0,1,260,186a2.11,2.11,0,0,1-.48-.15l-.07,0a3.13,3.13,0,0,1-.16-.29c-.23-.44-.42-.92-.66-1.44a3.45,3.45,0,0,0-.5-.83,1.51,1.51,0,0,0-.55-.4,1,1,0,0,0-.37-.08h-1.81l-.06,1,1.62.12s.18,0,.16,0h0s0,0,.07.09a2.09,2.09,0,0,1,.27.56c.17.46.34,1,.55,1.52l0,.07c-.87.86-2.88,2.88-3.41,3.44a1.51,1.51,0,0,0-.32,1.26v.08a3.09,3.09,0,0,1-.54-.06,8,8,0,0,0-4.43.9l.48.88a7,7,0,0,1,3.78-.79,1.7,1.7,0,0,0,1.46-.18,1.06,1.06,0,0,0,.24-.93c0-.26,0-.38.06-.48.48-.51,2.33-2.37,3.25-3.29l.06,0a2.71,2.71,0,0,0,1,.43,8.48,8.48,0,0,0,3.37,0c-.15.34-.29.69-.43,1.06-.53.94-1.09,1.87-1.68,2.77a20.47,20.47,0,0,1-3.05,3.73,5,5,0,0,1-1.89,1.09c-.76.26-1.56.5-2.37.73-1.62.46-3.27.92-4.89,1.52a11.79,11.79,0,0,0-4.62,2.74l-3.39,3.73-1.7,1.86a8.28,8.28,0,0,1-.83.84,3.34,3.34,0,0,1-.94.48,12.14,12.14,0,0,1-2.4.35,4.11,4.11,0,0,0-2.62,1l.71.71a3.08,3.08,0,0,1,2-.69,13.31,13.31,0,0,0,2.61-.33,4.3,4.3,0,0,0,1.32-.62,6.49,6.49,0,0,0,.65-.6c-.39,1.4-.69,3-1,4.47-.15.85-.29,1.6-.42,2.15a6,6,0,0,1-2,2.69,6.25,6.25,0,0,0-2,2.56,15.5,15.5,0,0,0-.4,2.6,5.44,5.44,0,0,1-.53,2.46l.71.7c.59-.59.7-1.74.82-3.07a14.81,14.81,0,0,1,.36-2.42,5.42,5.42,0,0,1,1.68-2.1,6.94,6.94,0,0,0,2.29-3.19c.13-.56.27-1.33.43-2.2.38-2.1.95-5.17,1.7-6.46l.36-.36,3.52-3.67a10.52,10.52,0,0,1,4.09-2.24c1.56-.53,3.17-.94,4.81-1.36.82-.21,1.65-.42,2.49-.7a6.73,6.73,0,0,0,1.31-.54,6.94,6.94,0,0,0,1.19-.82,16.63,16.63,0,0,0,1.67-1.69c-1.52,5.93-2.63,12.73-3.33,16.9-.38.43-.7.83-1.07,1.24-.53.59-1.07,1.16-1.63,1.68a9.56,9.56,0,0,1-3.74,2.33c-1.47.48-3.13.8-4.75,1.48a9.21,9.21,0,0,0-2.34,1.39,6.28,6.28,0,0,0-1.66,2.29l-.24.66-.17.6-.31,1.21-.55,2.4a8.17,8.17,0,0,1-3.29,5.84c-.6.49-1.28.83-2,1.42l-1.81,1.71a8.23,8.23,0,0,0-1.66,2l.89.45a20.65,20.65,0,0,1,3.32-3.28c.55-.41,1.35-.81,2-1.32a10.65,10.65,0,0,0,1.91-1.76,11.12,11.12,0,0,0,2.09-4.72l.63-2.36.34-1.15.18-.57.2-.49a4.61,4.61,0,0,1,1.24-1.6,7.42,7.42,0,0,1,1.91-1c1.41-.55,3-.8,4.65-1.27a12.2,12.2,0,0,0,5-3c-1.21,3.11-4.32,4.71-6,7.77a35.9,35.9,0,0,0-3.43,8.95,5.55,5.55,0,0,0,.45,2.44,10.27,10.27,0,0,1-.95,2.72,25.08,25.08,0,0,1-1.7,2.91c-.31.47-.64.94-1,1.38l-.25.32c-.11.09,0,0-.15.12a4.3,4.3,0,0,1-.67.31,27.8,27.8,0,0,0-3.29,1.37,5.46,5.46,0,0,0-2.65,2.8,25.52,25.52,0,0,0-.87,3.47,5.26,5.26,0,0,1-1.23,2.89,14.22,14.22,0,0,1-2.49,2.21l.55.83a15.58,15.58,0,0,0,2.76-2.32,5.48,5.48,0,0,0,1-1.6,9.77,9.77,0,0,0,.52-1.77,24.68,24.68,0,0,1,.89-3.26,4.22,4.22,0,0,1,2.12-2,24.2,24.2,0,0,1,3.16-1.22,5,5,0,0,0,.92-.41,2.28,2.28,0,0,0,.52-.42l.29-.35c.38-.47.73-.95,1.07-1.44a26.2,26.2,0,0,0,1.89-3l.1-.22a11.52,11.52,0,0,1,0,1.55c-.26,4.13.47,7.2-1.08,8.43a2.27,2.27,0,0,0-.66,1.57,18.21,18.21,0,0,1-1.48,1.22c-1.44,1.12-2.93,2.28-3.2,3.73a2.89,2.89,0,0,0,.41,2.21c.26.45.34.58-.29,1.26a11.87,11.87,0,0,0-2.62,3.65l1,.24a11.42,11.42,0,0,1,2.39-3.21c1-1.13.82-1.75.42-2.44a1.89,1.89,0,0,1-.3-1.52c.2-1.09,1.6-2.17,2.84-3.12.29-.23.58-.46.85-.69,0,.27.05.54.08.8a5.7,5.7,0,0,0,.17,3.18c.34.53.3,2.07.28,3.31a13,13,0,0,0,.07,2.35,20.45,20.45,0,0,0,1,3.13l.93-.39a18.64,18.64,0,0,1-.95-2.93,12.61,12.61,0,0,1-.05-2.14c0-1.51.06-3.08-.44-3.86a2.65,2.65,0,0,1-.14-1.25l.54-2.86a5.82,5.82,0,0,0,.79-2.24c.26-1.49,1.06-2.72,1.06-4.47,0-.17,0-.37,0-.59.22.6.44,1.21.71,1.81a10.4,10.4,0,0,0,1.37,2.4,4,4,0,0,0,1.21,1l.43.16.29.08a3,3,0,0,1,.5.19,2.56,2.56,0,0,1,.84.59,4.9,4.9,0,0,1-.13,2.41,7.4,7.4,0,0,0-.24,1.73c0,.85.08,1.58.14,2.28,0,.5.08,1,.1,1.52a10.27,10.27,0,0,1-.45,2.77l1,.29a11.27,11.27,0,0,0,.49-3.11c0-.53-.06-1-.11-1.55,0-.69-.11-1.4-.13-2.22a7.05,7.05,0,0,1,.22-1.5c.08-.38.16-.79.21-1.19.38.54.78,1.08,1.13,1.59.94,1.39,1.83,2.85,2.68,4.32l.88-.48c-.81-1.52-1.64-3-2.56-4.49-.48-.76-.95-1.42-1.4-2.16a5.15,5.15,0,0,0-2-2.05,4.48,4.48,0,0,0-.68-.29l-.33-.1-.17-.08a2.36,2.36,0,0,1-.69-.66,9.07,9.07,0,0,1-1.08-2.08,44.86,44.86,0,0,1-1.47-4.81l-.3.08c.17-1.58.24-3.07-.16-3.56-.79-1-.79-4.29,0-5.75s1.58-4.87,2.37-6.71c.69-1.6,3.57-3.81,5.7-5.82a17.56,17.56,0,0,0,.43,2.16,22.67,22.67,0,0,0,2,4.94,20.32,20.32,0,0,0,1.38,2.28c.5.73,1,1.4,1.43,2.08a8.71,8.71,0,0,1,1.38,4.48,13,13,0,0,1-.09,2.42,10.31,10.31,0,0,1-.63,2.34,5.64,5.64,0,0,0-.38,2.81c.13,1,.32,1.73.48,2.58l.5,2.5.25,1.25.06.31a2.6,2.6,0,0,0,.1.4,3,3,0,0,0,.32.7c.26.41.55.76.8,1.09a2.78,2.78,0,0,1,.56.89.39.39,0,0,1,0,.14.83.83,0,0,1-.05.2,3.14,3.14,0,0,0-.15.74,3.47,3.47,0,0,0,.22,1.51l.92-.4a2.42,2.42,0,0,1-.11-1,2.15,2.15,0,0,1,.12-.5,2.53,2.53,0,0,0,.1-.43,1.57,1.57,0,0,0,0-.49,3.84,3.84,0,0,0-.72-1.31,10.2,10.2,0,0,1-.7-1,2.13,2.13,0,0,1-.21-.47l-.05-.22-.05-.32-.22-1.27-.45-2.55c-.14-.83-.32-1.73-.41-2.47a4.32,4.32,0,0,1,.38-2.21c.14-.37.29-.76.42-1.17a6.44,6.44,0,0,0,2.14,3.09A9.35,9.35,0,0,0,270,242.1c1,.43,1.52.69,1.7,1.36a44.61,44.61,0,0,0,2.24,5.32l.9-.45a43,43,0,0,1-2.17-5.13c-.31-1.17-1.27-1.58-2.27-2a8.49,8.49,0,0,1-2.05-1.14c-1.43-1.16-2-2.49-2.33-4.73a16,16,0,0,0,.06-1.7,10.32,10.32,0,0,0-1.49-5.25c-.46-.78-1-1.49-1.42-2.18A17.37,17.37,0,0,1,262,224a20.86,20.86,0,0,1-1.73-4.6,19,19,0,0,1-.5-4.26,74.46,74.46,0,0,0,2.19-9c.09.55.18,1.11.25,1.68a13,13,0,0,0,1,3.8c.35.65.67,1.1,1,1.62a10.75,10.75,0,0,1,.78,1.5,12.35,12.35,0,0,1,.56,3.37c.13,1.24.35,2.45.55,3.64l.12.87a2.93,2.93,0,0,1,0,.41l.06.37.1.27a10.09,10.09,0,0,0,1,1.7c.7,1,1.43,2,2.2,3l.79-.62c-.7-1-1.39-2-2-3a8.63,8.63,0,0,1-.77-1.51l-.05-.15a.22.22,0,0,0,0-.08c0-.17,0-.34,0-.5l-.09-.94c-.14-1.22-.3-2.41-.38-3.59a12.87,12.87,0,0,0-.49-3.81,13.88,13.88,0,0,0-.81-1.78c-.28-.55-.63-1.12-.83-1.55a10.54,10.54,0,0,1-.67-3.27,29,29,0,0,0-1.24-6.58,90.44,90.44,0,0,1,2.06-9.61,13.5,13.5,0,0,1,2.33-3.32c-.13,1.48-.22,2.95-.27,4.42s-.08,3.15,0,4.73a27.46,27.46,0,0,0,.5,4.8,8.09,8.09,0,0,0,.37,1.26,3.4,3.4,0,0,0,.88,1.34c.62.52,1.31,1,1.88,1.42a4.6,4.6,0,0,1,1.33,1.48,14.66,14.66,0,0,1,.92,2c.12.3.21.61.32.91-.23,2.51-.7,6.07-1.16,6.79-.87,1.34-1.11,3-.85,5.86a7.73,7.73,0,0,0,1.54,3.86,7.76,7.76,0,0,1,1.19,2.41,7,7,0,0,1,.24,1.66,3.7,3.7,0,0,0,.94,2.32c1.29,1.94,2.73,4.43,2.75,4.46l.86-.5S277.26,234.73,276,232.76Z" style="opacity:0.2"></path><path d="M279.58,177.29a45.18,45.18,0,0,0,5.18-4.19c-.63-3-2.24-7.63-2.68-10.51-.28.35-.57.7-.85,1C281.23,163.61,280.33,166.86,279.58,177.29Z" style="opacity:0.2"></path><path d="M314.5,180.23c0-.25-.05-.5-.08-.74a18.9,18.9,0,0,1-7.06-4.8,44,44,0,0,0,2.5-11.45,42,42,0,0,0,3.08,4.08h0C313.43,170.66,314.11,174.45,314.5,180.23Z" style="opacity:0.2"></path><path d="M272.17,254.57c2.62-1.44,5.12-2.95,7.34-4.43-2.83,3.3-9.05,7.66-16.16,11.56-9.39,5.15-20.33,9.49-27,9.49a6.89,6.89,0,0,1-2.59-.4c-7.7-3.36-13.38-54-1.6-84.05,10.34-26.22,28.19-41.89,39.49-41.89a8.38,8.38,0,0,1,3.73.79c-10.4,3.35-24.09,17.23-32.49,38.55-11.07,28.18-5.74,75.77,1.5,78.92a6.33,6.33,0,0,0,2.43.38C253.08,263.49,263.35,259.41,272.17,254.57Z" style="fill:#fff;opacity:0.1"></path><path d="M360,270.79a6.89,6.89,0,0,1-2.59.4c-7.78,0-21.33-5.9-31.49-12.11,7.48,3.49,15.06,6,20.15,6a6.85,6.85,0,0,0,2.59-.4c7.71-3.36,13.42-54,1.65-84-6.38-16.19-15.62-28.35-24.42-35.29,11.21,2.87,26.5,17.9,35.76,41.38C373.4,216.75,367.69,267.43,360,270.79Z" style="fill:#fff;opacity:0.1"></path><path d="M264.11,287.4h-10a.5.5,0,0,0-.5.5.5.5,0,0,0,.5.5h10a.51.51,0,0,0,.5-.5A.5.5,0,0,0,264.11,287.4Z" style="fill:#407BFF"></path><path d="M249.11,287.4H219.36a9.35,9.35,0,0,1-9.34-9.34v-4.8a.51.51,0,0,0-.5-.5.5.5,0,0,0-.5.5v4.8a10.35,10.35,0,0,0,10.34,10.34h29.75a.51.51,0,0,0,.5-.5A.5.5,0,0,0,249.11,287.4Z" style="fill:#407BFF"></path><path d="M263.39,116.41a.5.5,0,0,0-.5-.5h-12a.5.5,0,0,0-.5.5.5.5,0,0,0,.5.5h12A.5.5,0,0,0,263.39,116.41Z" style="fill:#407BFF"></path><path d="M278.39,116.41a.5.5,0,0,0-.5-.5h-10a.5.5,0,0,0-.5.5.5.5,0,0,0,.5.5h10A.5.5,0,0,0,278.39,116.41Z" style="fill:#407BFF"></path><path d="M281.11,287.4h-12a.5.5,0,0,0-.5.5.5.5,0,0,0,.5.5h12a.51.51,0,0,0,.5-.5A.5.5,0,0,0,281.11,287.4Z" style="fill:#407BFF"></path><path d="M210,236.26a.51.51,0,0,0-.5-.5.5.5,0,0,0-.5.5v10a.5.5,0,0,0,.5.5.5.5,0,0,0,.5-.5Z" style="fill:#407BFF"></path><path d="M209.52,139.76a.5.5,0,0,0,.5-.5v-13a9.35,9.35,0,0,1,9.34-9.34h21.53a.5.5,0,0,0,.5-.5.5.5,0,0,0-.5-.5H219.36A10.35,10.35,0,0,0,209,126.25v13A.5.5,0,0,0,209.52,139.76Z" style="fill:#407BFF"></path><path d="M209.52,154.76a.5.5,0,0,0,.5-.5v-10a.51.51,0,0,0-.5-.5.5.5,0,0,0-.5.5v10A.5.5,0,0,0,209.52,154.76Z" style="fill:#407BFF"></path><path d="M333.39,116.41a.5.5,0,0,0-.5-.5h-50a.5.5,0,0,0-.5.5.5.5,0,0,0,.5.5h50A.5.5,0,0,0,333.39,116.41Z" style="fill:#407BFF"></path><path d="M209.52,171.76a.5.5,0,0,0,.5-.5v-12a.51.51,0,0,0-.5-.5.5.5,0,0,0-.5.5v12A.5.5,0,0,0,209.52,171.76Z" style="fill:#407BFF"></path><path d="M209.52,250.76a.5.5,0,0,0-.5.5v12a.5.5,0,0,0,.5.5.5.5,0,0,0,.5-.5v-12A.51.51,0,0,0,209.52,250.76Z" style="fill:#407BFF"></path><path d="M384.23,234.29a.5.5,0,0,0-.5.5v43.27a9.34,9.34,0,0,1-2.11,5.9.49.49,0,0,0,.07.7.47.47,0,0,0,.31.12.51.51,0,0,0,.39-.19,10.32,10.32,0,0,0,2.34-6.53V234.79A.51.51,0,0,0,384.23,234.29Z" style="fill:#407BFF"></path><path d="M384.23,202.29a.5.5,0,0,0-.5.5v12a.5.5,0,0,0,.5.5.5.5,0,0,0,.5-.5v-12A.51.51,0,0,0,384.23,202.29Z" style="fill:#407BFF"></path><path d="M384.23,219.29a.5.5,0,0,0-.5.5v10a.5.5,0,0,0,.5.5.5.5,0,0,0,.5-.5v-10A.51.51,0,0,0,384.23,219.29Z" style="fill:#407BFF"></path><path d="M384.23,127.29a.5.5,0,0,0-.5.5v10a.5.5,0,0,0,.5.5.5.5,0,0,0,.5-.5v-10A.51.51,0,0,0,384.23,127.29Z" style="fill:#407BFF"></path><path d="M383.62,123.37a.39.39,0,0,0,.18,0,.49.49,0,0,0,.29-.64,10.39,10.39,0,0,0-9.7-6.78.5.5,0,0,0-.5.5.5.5,0,0,0,.5.5,9.36,9.36,0,0,1,8.76,6.13A.52.52,0,0,0,383.62,123.37Z" style="fill:#407BFF"></path><path d="M384.23,142.29a.5.5,0,0,0-.5.5v50a.5.5,0,0,0,.5.5.5.5,0,0,0,.5-.5v-50A.51.51,0,0,0,384.23,142.29Z" style="fill:#407BFF"></path><path d="M356.11,287.4h-10a.5.5,0,0,0-.5.5.5.5,0,0,0,.5.5h10a.51.51,0,0,0,.5-.5A.5.5,0,0,0,356.11,287.4Z" style="fill:#407BFF"></path><path d="M373.11,287.4h-12a.5.5,0,0,0-.5.5.5.5,0,0,0,.5.5h12a.51.51,0,0,0,.5-.5A.5.5,0,0,0,373.11,287.4Z" style="fill:#407BFF"></path><path d="M355.39,116.41a.5.5,0,0,0-.5-.5h-12a.5.5,0,0,0-.5.5.5.5,0,0,0,.5.5h12A.5.5,0,0,0,355.39,116.41Z" style="fill:#407BFF"></path><path d="M341.11,287.4h-50a.5.5,0,0,0-.5.5.5.5,0,0,0,.5.5h50a.51.51,0,0,0,.5-.5A.5.5,0,0,0,341.11,287.4Z" style="fill:#407BFF"></path><path d="M370.39,116.41a.5.5,0,0,0-.5-.5h-10a.5.5,0,0,0-.5.5.5.5,0,0,0,.5.5h10A.5.5,0,0,0,370.39,116.41Z" style="fill:#407BFF"></path><path d="M209,202.65v28.61a.5.5,0,0,0,.5.5.5.5,0,0,0,.5-.5v-50a.51.51,0,0,0-.5-.5.5.5,0,0,0-.5.5v20.39H165a1.36,1.36,0,1,0,0,1Z" style="fill:#407BFF"></path><g style="opacity:0.5"><path d="M264.11,287.4h-10a.5.5,0,0,0-.5.5.5.5,0,0,0,.5.5h10a.51.51,0,0,0,.5-.5A.5.5,0,0,0,264.11,287.4Z" style="fill:#fff"></path><path d="M249.11,287.4H219.36a9.35,9.35,0,0,1-9.34-9.34v-4.8a.51.51,0,0,0-.5-.5.5.5,0,0,0-.5.5v4.8a10.35,10.35,0,0,0,10.34,10.34h29.75a.51.51,0,0,0,.5-.5A.5.5,0,0,0,249.11,287.4Z" style="fill:#fff"></path><path d="M263.39,116.41a.5.5,0,0,0-.5-.5h-12a.5.5,0,0,0-.5.5.5.5,0,0,0,.5.5h12A.5.5,0,0,0,263.39,116.41Z" style="fill:#fff"></path><path d="M278.39,116.41a.5.5,0,0,0-.5-.5h-10a.5.5,0,0,0-.5.5.5.5,0,0,0,.5.5h10A.5.5,0,0,0,278.39,116.41Z" style="fill:#fff"></path><path d="M281.11,287.4h-12a.5.5,0,0,0-.5.5.5.5,0,0,0,.5.5h12a.51.51,0,0,0,.5-.5A.5.5,0,0,0,281.11,287.4Z" style="fill:#fff"></path><path d="M210,236.26a.51.51,0,0,0-.5-.5.5.5,0,0,0-.5.5v10a.5.5,0,0,0,.5.5.5.5,0,0,0,.5-.5Z" style="fill:#fff"></path><path d="M209.52,139.76a.5.5,0,0,0,.5-.5v-13a9.35,9.35,0,0,1,9.34-9.34h21.53a.5.5,0,0,0,.5-.5.5.5,0,0,0-.5-.5H219.36A10.35,10.35,0,0,0,209,126.25v13A.5.5,0,0,0,209.52,139.76Z" style="fill:#fff"></path><path d="M209.52,154.76a.5.5,0,0,0,.5-.5v-10a.51.51,0,0,0-.5-.5.5.5,0,0,0-.5.5v10A.5.5,0,0,0,209.52,154.76Z" style="fill:#fff"></path><path d="M333.39,116.41a.5.5,0,0,0-.5-.5h-50a.5.5,0,0,0-.5.5.5.5,0,0,0,.5.5h50A.5.5,0,0,0,333.39,116.41Z" style="fill:#fff"></path><path d="M209.52,171.76a.5.5,0,0,0,.5-.5v-12a.51.51,0,0,0-.5-.5.5.5,0,0,0-.5.5v12A.5.5,0,0,0,209.52,171.76Z" style="fill:#fff"></path><path d="M209.52,250.76a.5.5,0,0,0-.5.5v12a.5.5,0,0,0,.5.5.5.5,0,0,0,.5-.5v-12A.51.51,0,0,0,209.52,250.76Z" style="fill:#fff"></path><path d="M384.23,234.29a.5.5,0,0,0-.5.5v43.27a9.34,9.34,0,0,1-2.11,5.9.49.49,0,0,0,.07.7.47.47,0,0,0,.31.12.51.51,0,0,0,.39-.19,10.32,10.32,0,0,0,2.34-6.53V234.79A.51.51,0,0,0,384.23,234.29Z" style="fill:#fff"></path><path d="M384.23,202.29a.5.5,0,0,0-.5.5v12a.5.5,0,0,0,.5.5.5.5,0,0,0,.5-.5v-12A.51.51,0,0,0,384.23,202.29Z" style="fill:#fff"></path><path d="M384.23,219.29a.5.5,0,0,0-.5.5v10a.5.5,0,0,0,.5.5.5.5,0,0,0,.5-.5v-10A.51.51,0,0,0,384.23,219.29Z" style="fill:#fff"></path><path d="M384.23,127.29a.5.5,0,0,0-.5.5v10a.5.5,0,0,0,.5.5.5.5,0,0,0,.5-.5v-10A.51.51,0,0,0,384.23,127.29Z" style="fill:#fff"></path><path d="M383.62,123.37a.39.39,0,0,0,.18,0,.49.49,0,0,0,.29-.64,10.39,10.39,0,0,0-9.7-6.78.5.5,0,0,0-.5.5.5.5,0,0,0,.5.5,9.36,9.36,0,0,1,8.76,6.13A.52.52,0,0,0,383.62,123.37Z" style="fill:#fff"></path><path d="M384.23,142.29a.5.5,0,0,0-.5.5v50a.5.5,0,0,0,.5.5.5.5,0,0,0,.5-.5v-50A.51.51,0,0,0,384.23,142.29Z" style="fill:#fff"></path><path d="M356.11,287.4h-10a.5.5,0,0,0-.5.5.5.5,0,0,0,.5.5h10a.51.51,0,0,0,.5-.5A.5.5,0,0,0,356.11,287.4Z" style="fill:#fff"></path><path d="M373.11,287.4h-12a.5.5,0,0,0-.5.5.5.5,0,0,0,.5.5h12a.51.51,0,0,0,.5-.5A.5.5,0,0,0,373.11,287.4Z" style="fill:#fff"></path><path d="M355.39,116.41a.5.5,0,0,0-.5-.5h-12a.5.5,0,0,0-.5.5.5.5,0,0,0,.5.5h12A.5.5,0,0,0,355.39,116.41Z" style="fill:#fff"></path><path d="M341.11,287.4h-50a.5.5,0,0,0-.5.5.5.5,0,0,0,.5.5h50a.51.51,0,0,0,.5-.5A.5.5,0,0,0,341.11,287.4Z" style="fill:#fff"></path><path d="M370.39,116.41a.5.5,0,0,0-.5-.5h-10a.5.5,0,0,0-.5.5.5.5,0,0,0,.5.5h10A.5.5,0,0,0,370.39,116.41Z" style="fill:#fff"></path><path d="M209,202.65v28.61a.5.5,0,0,0,.5.5.5.5,0,0,0,.5-.5v-50a.51.51,0,0,0-.5-.5.5.5,0,0,0-.5.5v20.39H165a1.36,1.36,0,1,0,0,1Z" style="fill:#fff"></path></g></g><g id="freepik--Character--inject-93"><path d="M189.47,223.64c-8-.56-1.54-.64-1.54-.64s2-2.6.62-7.79a18.85,18.85,0,0,0-.62-1.83c-1.06-2.67-3.74-5.69-6.51-8.31a84,84,0,0,0-7.94-6.56l4-10.29s13.63,11.59,18.85,24.23C200.05,221.55,197.47,224.19,189.47,223.64Z" style="fill:#e4897b"></path><path d="M192.43,215.31a10.66,10.66,0,0,0-3.88-.1,18.85,18.85,0,0,0-.62-1.83c-1.06-2.67-3.74-5.69-6.51-8.31C190.38,209,192.43,215.31,192.43,215.31Z" style="opacity:0.2"></path><polygon points="169.83 410.63 177.4 410.28 178.78 392.73 171.21 393.07 169.83 410.63" style="fill:#e4897b"></polygon><polygon points="178.78 392.73 178.06 401.78 170.49 402.13 171.2 393.08 178.78 392.73" style="opacity:0.2"></polygon><path d="M176.65,407.94l-8.27-.14a.66.66,0,0,0-.66.5L166.05,415a1.09,1.09,0,0,0,1.06,1.36c3,0,7.3-.1,11,0,4.39.08,7.17-.17,12.32-.08,3.11,0,4.05-3.07,2.76-3.37-5.9-1.39-9.74-1.07-14.78-4.29A3.4,3.4,0,0,0,176.65,407.94Z" style="fill:#263238"></path><path d="M177.26,408.85a.19.19,0,0,1,.1-.19c.34-.17,3.43-1.66,4.34-1.13a.57.57,0,0,1,.28.48,1,1,0,0,1-.36.87c-.85.71-3,.38-4.23.12h0A.16.16,0,0,1,177.26,408.85Zm.74-.1c1.67.31,2.91.26,3.39-.15a.64.64,0,0,0,.23-.57.19.19,0,0,0-.11-.19l-.06,0C180.88,407.61,179.22,408.2,178,408.75Z" style="fill:#407BFF"></path><path d="M177.33,409a.18.18,0,0,1-.07-.17c0-.08.26-2.11,1.25-2.88a1.31,1.31,0,0,1,1-.29c.49.06.63.31.66.51.11.85-1.74,2.45-2.67,2.85a.15.15,0,0,1-.13,0Zm2.13-3a.94.94,0,0,0-.73.22,4.17,4.17,0,0,0-1.06,2.31c1-.55,2.21-1.81,2.14-2.32,0,0,0-.11-.16-.17Z" style="fill:#407BFF"></path><path d="M180.47,398.86l-12.56,2.67s-3.58-42.4-5.35-65.87c-.54-7.14-2.24-17.09-4.41-27.74-1.59-7.83-3.45-16-5.29-23.76-1.3-5.53-2.6-10.82-3.8-15.56,0-.12-.06-.25-.1-.36h0c-3-11.79-5.23-20.09-5.23-20.09l26.55-1.6S182.05,306,183.34,329C184.69,353,180.47,398.86,180.47,398.86Z" style="fill:#407BFF"></path><polygon points="181.86 399.82 166.62 401.02 166.28 396.11 183.01 394.55 181.86 399.82" style="fill:#263238"></polygon><path d="M152.86,284.16c-1.3-5.53-2.6-10.82-3.8-15.56,0-.12-.06-.25-.1-.36h0c1.29-4.17,2.26-7.09,2.26-7.09S155.92,272.73,152.86,284.16Z" style="opacity:0.2"></path><path d="M164.71,180.42c7-1.87,20.95,13.32,20.95,13.32l-7.77,11.76s-9.18-6.71-14.6-9.36C154.12,191.65,156.23,182.68,164.71,180.42Z" style="fill:#263238"></path><polygon points="120.74 409.59 128.28 410.14 131.71 392.84 124.17 392.28 120.74 409.59" style="fill:#e4897b"></polygon><polygon points="124.17 392.29 131.72 392.85 129.94 401.76 122.4 401.21 124.17 392.29" style="opacity:0.2"></polygon><path d="M126.64,254.71c-1,13.38,1.7,57.72,1.75,78,.06,24.14-8.63,66.55-8.63,66.55l13.81,1s14.84-46.61,16.33-70.86c1-15.93,1.34-54.25,1.47-74.52Z" style="fill:#407BFF"></path><polygon points="135.2 400.7 118.94 399.5 119.35 394.64 136.4 394.92 135.2 400.7" style="fill:#263238"></polygon><path d="M127.39,179.31a168.43,168.43,0,0,1,2.09,25.19c.08,5.9-.1,11.5-.38,16.57-.66,11.87-1.9,20.86-1.88,23.94l40.46,1.17c10.11-42.22,2.07-65.28,2.07-65.28a77.89,77.89,0,0,0-9.49-2.14c-.67-.11-1.36-.2-2.06-.28A147.76,147.76,0,0,0,141,178c-1.09,0-2.19.07-3.27.14C132.26,178.47,127.39,179.31,127.39,179.31Z" style="fill:#263238"></path><path d="M143.45,158.7c.87,5.56,1.56,15.71-2.45,19.28a17.05,17.05,0,0,0,13.06,5.65c4.76,0,5.13-3.28,4.14-5.15-6.12-1.65-5.78-6.22-4.54-10.48Z" style="fill:#e4897b"></path><path d="M147.61,162.5l6,5.5a17.46,17.46,0,0,0-.65,3c-2.35-.41-5.49-3.08-5.64-5.55A8.27,8.27,0,0,1,147.61,162.5Z" style="opacity:0.2"></path><path d="M164.23,142.29s2.15,8.36-2.91,12.9-7.06-14.68-7.06-14.68Z" style="fill:#263238"></path><path d="M163.91,158.22a24.47,24.47,0,0,1-.67,2.83c-.12.35-.24.7-.39,1a10.51,10.51,0,0,1-5.45,5.47,9.41,9.41,0,0,1-10.88-2.24,3.38,3.38,0,0,1-.26-.27c-3.51-4-3.13-8.43-3.08-15.89a10.23,10.23,0,0,1,14.72-9.25C164.06,142.88,165.08,151.64,163.91,158.22Z" style="fill:#e4897b"></path><path d="M154.34,152c-.08.59.25,1.11.65,1.14s.75-.45.79-1.05-.25-1.12-.65-1.14S154.39,151.36,154.34,152Z" style="fill:#263238"></path><path d="M161.19,152.43c-.08.6.25,1.12.65,1.14s.74-.45.79-1-.25-1.12-.65-1.14S161.23,151.85,161.19,152.43Z" style="fill:#263238"></path><path d="M159,152.58a21.23,21.23,0,0,0,2.55,5.38,3.56,3.56,0,0,1-3,.35Z" style="fill:#de5753"></path><path d="M152.36,149.62a.38.38,0,0,0,.36-.12,2.88,2.88,0,0,1,2.35-1,.35.35,0,1,0,.1-.7h0a3.57,3.57,0,0,0-3,1.27.36.36,0,0,0,0,.5h0Z" style="fill:#263238"></path><path d="M157.41,161.38h0a5.46,5.46,0,0,1-4.66-1.94.2.2,0,0,1,0-.27.19.19,0,0,1,.26,0h0a5.24,5.24,0,0,0,4.34,1.79.18.18,0,0,1,.2.16v0a.18.18,0,0,1-.16.2Z" style="fill:#263238"></path><path d="M164.29,150.26a.37.37,0,0,0,.21,0,.36.36,0,0,0,.2-.46h0a3.53,3.53,0,0,0-2.43-2.17.36.36,0,0,0-.42.28h0a.37.37,0,0,0,.28.41h0a2.86,2.86,0,0,1,1.9,1.75A.35.35,0,0,0,164.29,150.26Z" style="fill:#263238"></path><path d="M143.77,161.05A4.46,4.46,0,0,0,144,159c-.3-2.35-.1-4.45.48-4.61,1-.26,1.06.94,1.06.94,2.15-1.67,3.79-5.93,2.78-8.71a2.65,2.65,0,0,1,3.27-3.32s-8.27-3.36-9.9-1.34-3.09,7.82-1.53,14.4C140.57,158.12,143.77,161.05,143.77,161.05Z" style="fill:#263238"></path><path d="M139.54,155a7,7,0,0,0,3.82,3.84c2.3,1,3.74-1,3.35-3.37-.37-2.06-2-5.11-4.42-5S138.69,152.89,139.54,155Z" style="fill:#e4897b"></path><path d="M148.59,142.36a18.33,18.33,0,0,0,12,3.5s-4-.89-5.93-2.62c0,0,7.24,3.17,10.57.9s1.32-5.93,1.32-5.93-.21,2-1.32,2.3c0,0,.39-2.83-7.34-5.47s-18.91.72-17.32,6.89S148.59,142.36,148.59,142.36Z" style="fill:#263238"></path><path d="M129.49,205.08v-.58c-.07-4.44-.27-9.05-.69-13.71a10.27,10.27,0,0,1,4.64.14S135.32,199.63,129.49,205.08Z" style="opacity:0.2"></path><path d="M130.63,191.64c-3.57,2.81-7.24,5.78-10.73,8.75-1.75,1.49-3.48,3-5.12,4.53a62.71,62.71,0,0,0-4.61,4.62,25,25,0,0,0-1.78,2.21l-.31.48-.22.38a3.63,3.63,0,0,0,0-.71.91.91,0,0,0-.31-.62c-.06,0,0,.15.18.35a8.9,8.9,0,0,0,1.86,1.45,39.19,39.19,0,0,0,5.73,2.74c1,.41,2.11.82,3.18,1.22l3.23,1.12-.79,5.62c-1.32,0-2.53,0-3.8-.13s-2.51-.21-3.76-.4a35.1,35.1,0,0,1-7.73-2,16.46,16.46,0,0,1-4.19-2.3,11,11,0,0,1-2.21-2.28,8.42,8.42,0,0,1-1.51-3.94,9,9,0,0,1,.6-4.19c.18-.41.36-.84.55-1.22l.57-1.08a33.21,33.21,0,0,1,2.41-3.55,90.7,90.7,0,0,1,10.5-10.95c1.84-1.64,3.68-3.24,5.58-4.77s3.76-3,5.8-4.53Z" style="fill:#e4897b"></path><path d="M130,179.46c-7-1.87-23.81,15.23-23.81,15.23l11.59,11.77s8.22-8.63,13.64-11.28C140.59,190.69,138.49,181.73,130,179.46Z" style="fill:#263238"></path><path d="M128.85,407.94l-8.28-.14a.66.66,0,0,0-.66.5L118.25,415a1.08,1.08,0,0,0,1,1.36c3,0,7.3-.1,11.06,0,4.38.08,7.17-.17,12.31-.08,3.11,0,4.06-3.07,2.76-3.37-5.89-1.39-9.73-1.07-14.77-4.29A3.42,3.42,0,0,0,128.85,407.94Z" style="fill:#263238"></path><path d="M129.45,408.85a.19.19,0,0,1,.1-.19c.35-.17,3.43-1.66,4.34-1.13a.58.58,0,0,1,.29.48,1.06,1.06,0,0,1-.36.87c-.85.71-3,.38-4.23.12h0A.17.17,0,0,1,129.45,408.85Zm.74-.1c1.67.31,2.92.26,3.4-.15a.67.67,0,0,0,.23-.57.22.22,0,0,0-.11-.19l-.07,0C133.08,407.61,131.41,408.2,130.19,408.75Z" style="fill:#407BFF"></path><path d="M129.52,409a.18.18,0,0,1-.07-.17c0-.08.27-2.11,1.25-2.88a1.32,1.32,0,0,1,1-.29c.5.06.63.31.66.51.12.85-1.74,2.45-2.66,2.85a.15.15,0,0,1-.13,0Zm2.14-3a1,1,0,0,0-.74.22,4.31,4.31,0,0,0-1.06,2.31c.95-.55,2.21-1.81,2.14-2.32,0,0,0-.11-.16-.17Z" style="fill:#407BFF"></path><path d="M126.4,265.45s-.59-17.07,1.48-30.11l42.38.27v7l2.52,17.65Z" style="fill:#407BFF"></path><polygon points="141.02 240.76 165.63 240.66 165.33 236.67 141.05 236.75 141.02 240.76" style="fill:#263238"></polygon><polygon points="166.77 240.66 170.26 240.65 170.26 236.66 166.47 236.67 166.77 240.66" style="fill:#263238"></polygon><polygon points="140.03 236.75 127.24 236.79 126.86 240.82 139.91 240.76 140.03 236.75" style="fill:#263238"></polygon><path d="M152.32,241.19a1,1,0,0,1-.74-.31,1,1,0,0,1-.29-.75l.1-2.9h0a1,1,0,0,1,1-1l4.51,0a1,1,0,0,1,1,1l.22,2.89a1,1,0,0,1-.27.77,1,1,0,0,1-.76.33l-4.83,0Zm0-3.93-.11,2.9.08.08,4.83,0,.55-.12-.48,0-.21-2.89a.07.07,0,0,0-.07-.07h-4.52a.07.07,0,0,0-.07.07Z" style="fill:#fff"></path><path d="M155.3,238.8a.24.24,0,0,1,0-.48h1.48a.24.24,0,1,1,0,.48Z" style="fill:#fff"></path><rect x="125.14" y="186.3" width="55.37" height="39.85" rx="3.07" style="fill:#407BFF"></rect><rect x="125.14" y="186.3" width="55.37" height="39.85" rx="3.07" style="fill:#fff;opacity:0.5"></rect><rect x="126.1" y="186.3" width="55.37" height="39.85" rx="3.07" style="fill:#407BFF"></rect><rect x="126.1" y="186.3" width="55.37" height="39.85" rx="3.07" style="fill:#fff;opacity:0.7000000000000001"></rect><path d="M179.56,189.38v33.7a1.17,1.17,0,0,1-1.17,1.16h-.95a1.16,1.16,0,0,0,1.16-1.16v-33.7a1.15,1.15,0,0,0-1.16-1.16h.95A1.16,1.16,0,0,1,179.56,189.38Z" style="opacity:0.2"></path><path d="M178.6,189.38v33.7a1.16,1.16,0,0,1-1.16,1.16H129.17a.75.75,0,0,1-.26,0,1.15,1.15,0,0,1-.9-1.12v-33.7a1.16,1.16,0,0,1,1.16-1.16h48.27A1.15,1.15,0,0,1,178.6,189.38Z" style="fill:#407BFF"></path><path d="M174.51,224.24H132a.84.84,0,0,1-.27,0c.07-1,.14-2.06.2-3.13.28-5.07.45-10.67.38-16.57-.08-5.2-.34-10.63-.9-16.12a1.16,1.16,0,0,1,.59-.16h42.25C175.48,195.31,176.53,207.46,174.51,224.24Z" style="opacity:0.2"></path><path d="M167.93,217.26c-2,.88-10.14-3.34-10.43-5.2s1.31-9.54.78-14.2c-1.46-.48-2.9-2.57-3.86-4.67a9.54,9.54,0,0,1-3.4,4.22c0,.14,0,.27-.05.43-.54,4.64,1.05,12.37.78,14.22s-8.43,6.08-10.44,5.2-3-11.78-.56-18c2.69-6.81,7.7-10.13,9.83-8.63.95.67,1,1.72.78,4a7.83,7.83,0,0,0,1.91-4.86c0-.46,0-1,0-1.48h1.91c0,.35,0,.68,0,1h0c-.12,1.22,1.42,4.59,2.75,6.11-.32-2.79-.35-4,.7-4.74,2.13-1.5,7.14,1.82,9.83,8.63C171,205.48,170,216.38,167.93,217.26Z" style="fill:#fff;opacity:0.2"></path><path d="M174.29,188.22h-2c1.18,6.93,2.3,19.12.26,36h1.93C176.53,207.46,175.48,195.31,174.29,188.22Zm-40.94,0H132a1.16,1.16,0,0,0-.59.16c.56,5.49.82,10.92.9,16.12.07,5.9-.1,11.5-.38,16.57-.06,1.07-.13,2.11-.2,3.13a.84.84,0,0,0,.27,0h1.66c.05-1,.12-2,.18-3.07.32-5.89.46-11.34.38-16.69C134.18,198.79,133.88,193.35,133.35,188.22Z" style="fill:#fff;opacity:0.2"></path><path d="M116.77,217.58l6.91-5.39L126.16,223s-6.9,3.27-9-.22Z" style="fill:#e4897b"></path><polygon points="130.87 212.19 132.5 221.23 126.16 223 123.68 212.19 130.87 212.19" style="fill:#e4897b"></polygon><path d="M192.42,216.89l-6.91-5.39L183,222.31s6.89,3.27,9-.23Z" style="fill:#e4897b"></path><polygon points="178.33 211.5 176.7 220.53 183.04 222.31 185.51 211.5 178.33 211.5" style="fill:#e4897b"></polygon></g></svg>