<svg xmlns="http://www.w3.org/2000/svg" viewBox="0 0 500 500"><g id="freepik--background-complete--inject-47"><rect x="63.83" y="77.35" width="157.61" height="232.6" style="fill:#e6e6e6"></rect><rect x="70.77" y="86.57" width="144.15" height="214.65" style="fill:#f5f5f5"></rect><polygon points="111.51 86.57 70.77 290.06 70.77 179.89 89.41 86.57 111.51 86.57" style="fill:#fff"></polygon><polygon points="129.72 86.57 86.75 301.22 78.65 301.22 121.61 86.57 129.72 86.57" style="fill:#fff"></polygon><polygon points="214.92 145.1 214.92 255.28 205.8 301.22 183.7 301.22 214.92 145.1" style="fill:#fff"></polygon><rect x="139.84" y="77.35" width="5.6" height="232.6" style="fill:#e6e6e6"></rect><rect x="69.37" y="116.49" width="151.85" height="6.19" style="fill:#e6e6e6"></rect><rect x="282.54" y="77.35" width="157.61" height="232.6" style="fill:#e6e6e6"></rect><rect x="289.48" y="86.57" width="144.15" height="214.65" style="fill:#f5f5f5"></rect><polygon points="330.22 86.57 289.48 290.06 289.48 179.89 308.12 86.57 330.22 86.57" style="fill:#fff"></polygon><polygon points="348.43 86.57 305.46 301.22 297.36 301.22 340.32 86.57 348.43 86.57" style="fill:#fff"></polygon><polygon points="433.63 145.1 433.63 255.28 424.5 301.22 402.41 301.22 433.63 145.1" style="fill:#fff"></polygon><rect x="358.55" y="77.35" width="5.6" height="232.6" style="fill:#e6e6e6"></rect><rect x="288.08" y="116.49" width="151.85" height="6.19" style="fill:#e6e6e6"></rect><path d="M69.89,350.16c0-.43-1.47-43.29-8.44-50.06-6.78-6.6-14.56-.25-14.89,0l-.7-.83c.09-.08,8.87-7.25,16.35,0,7.28,7.09,8.71,49,8.77,50.82Z" style="fill:#e0e0e0"></path><path d="M70.49,358.59c0-.52-4.77-51.45,13.83-72.8l.83.71c-18.3,21-13.63,71.47-13.58,72Z" style="fill:#e0e0e0"></path><path d="M69.8,353.2l-1.09-.07c0-.58,3.64-57.91-10-70.46l.74-.81C73.47,294.76,70,350.82,69.8,353.2Z" style="fill:#e0e0e0"></path><path d="M71.57,353.17H70.48c0-1.58.45-38.73,11-44.77a7.47,7.47,0,0,1,6.83-.67c6.38,2.64,9.54,14,9.68,14.48l-1.06.28c0-.11-3.15-11.32-9-13.75a6.4,6.4,0,0,0-5.86.6C72,315.07,71.58,352.79,71.57,353.17Z" style="fill:#e0e0e0"></path><path d="M67.46,353.19l-1.08-.06c0-.29,1.59-29.35-6.26-39.59-1.9-2.48-4-3.67-6.14-3.51-5.14.36-9.45,7.88-9.49,8l-1-.54c.19-.33,4.64-8.1,10.36-8.5,2.56-.18,5,1.14,7.09,3.93C69.08,323.43,67.53,352,67.46,353.19Z" style="fill:#e0e0e0"></path><path d="M69.18,357.15C69,354.33,64.06,288,72.7,276.28l.88.64c-8.41,11.37-3.36,79.46-3.31,80.14Z" style="fill:#e0e0e0"></path><path d="M90.66,314.44s-5.18,1.92-3.64,6.43S105,332.81,105,332.81s6.87-6.29.56-16.53S90.8,311.21,90.66,314.44Z" style="fill:#ebebeb"></path><path d="M68.12,305.85s5.52-.23,5.83,4.53-12,17.93-12,17.93-8.76-3.17-6.88-15.05S66.74,302.92,68.12,305.85Z" style="fill:#ebebeb"></path><path d="M63.44,283.07s3.68-.4,3.39-2.64-14.32-8-22.59,1.32c0,0,5.3,9.09,12.95,9.21S63.44,283.07,63.44,283.07Z" style="fill:#ebebeb"></path><path d="M70.3,277.62S67,279.23,66,277.17s7.91-14.37,19.87-10.82c0,0,.31,10.52-6.12,14.67S70.3,277.62,70.3,277.62Z" style="fill:#ebebeb"></path><path d="M52.87,312.63s2.54-2.05-.2-3.05-16.2-.72-16.34,12.61c0,0,15.67,2.6,17.61-2.47S52.87,312.63,52.87,312.63Z" style="fill:#ebebeb"></path><path d="M84.83,282.73s-2.54-2.05.2-3.05,16.2-.72,16.34,12.61c0,0-15.67,2.61-17.61-2.47S84.83,282.73,84.83,282.73Z" style="fill:#ebebeb"></path><path d="M76.54,293.47S76.32,291,78.33,292s9,8.55,1.76,15.73c0,0-9.79-7.25-8-11S76.54,293.47,76.54,293.47Z" style="fill:#ebebeb"></path><path d="M50.6,297s1.51-2-.71-2.24S37.69,297.2,40,307.16c0,0,12.14-.92,12.66-5.05S50.6,297,50.6,297Z" style="fill:#ebebeb"></path><polygon points="92.69 390.11 51.01 390.11 46.52 344.48 97.19 344.48 92.69 390.11" style="fill:#f0f0f0"></polygon><rect x="43.23" y="339.45" width="55.12" height="10.07" style="fill:#e6e6e6"></rect><path d="M180.28,356.09a.24.24,0,0,1-.25-.24.25.25,0,0,1,.24-.26c1.6-.06,3.27-.18,5-.36a.25.25,0,0,1,.28.22.25.25,0,0,1-.22.27c-1.71.19-3.39.31-5,.37Zm-5,0h0a49.11,49.11,0,0,1-5-.49.25.25,0,0,1-.21-.28.25.25,0,0,1,.29-.21c1.63.24,3.29.4,4.95.48a.25.25,0,0,1,.24.26A.26.26,0,0,1,175.28,356.08Zm14.93-1a.25.25,0,0,1-.24-.21.24.24,0,0,1,.2-.29c1.57-.26,3.17-.57,4.9-.93a.25.25,0,0,1,.3.19.24.24,0,0,1-.2.29c-1.73.37-3.34.68-4.92,1Zm-24.81-.43h-.06a42.48,42.48,0,0,1-4.79-1.52.25.25,0,1,1,.18-.46,43.51,43.51,0,0,0,4.73,1.5.24.24,0,0,1,.18.3A.24.24,0,0,1,165.4,354.61ZM200,353a.24.24,0,0,1-.24-.19.25.25,0,0,1,.18-.3c1.48-.37,3.07-.78,4.84-1.26a.25.25,0,0,1,.13.49c-1.78.48-3.36.89-4.85,1.25ZM156.09,351l-.12,0a35.19,35.19,0,0,1-4.25-2.69.25.25,0,0,1,.29-.4,35,35,0,0,0,4.2,2.64.25.25,0,0,1,.1.34A.24.24,0,0,1,156.09,351Zm53.56-.64a.25.25,0,0,1-.24-.18.25.25,0,0,1,.18-.31l.82-.23a.25.25,0,0,1,.14.48l-.83.23Zm-61.56-5.3a.26.26,0,0,1-.18-.07,29.81,29.81,0,0,1-2.59-3c-.21-.28-.42-.57-.61-.85a.24.24,0,0,1,.06-.35.25.25,0,0,1,.35.06c.19.29.39.57.6.85a29.65,29.65,0,0,0,2.55,3,.25.25,0,0,1-.18.42Zm-5.66-8.18a.27.27,0,0,1-.23-.14,32,32,0,0,1-1.75-4.72.25.25,0,0,1,.48-.14,31.08,31.08,0,0,0,1.73,4.65.26.26,0,0,1-.13.33A.18.18,0,0,1,142.43,336.91Zm-2.77-9.57a.26.26,0,0,1-.25-.21,41,41,0,0,1-.37-5,.25.25,0,0,1,.24-.25h0a.25.25,0,0,1,.25.25,39.87,39.87,0,0,0,.37,4.95.25.25,0,0,1-.21.28Zm-.17-10h0a.24.24,0,0,1-.22-.27c.15-1.63.38-3.3.7-5a.24.24,0,0,1,.29-.2.25.25,0,0,1,.2.29c-.31,1.66-.55,3.31-.69,4.93A.27.27,0,0,1,139.49,317.37Zm1.83-9.82h-.07a.25.25,0,0,1-.17-.31c.44-1.59.95-3.2,1.52-4.78a.25.25,0,0,1,.47.17c-.57,1.57-1.08,3.16-1.51,4.74A.26.26,0,0,1,141.32,307.55Zm3.4-9.4a.16.16,0,0,1-.1,0,.25.25,0,0,1-.13-.33c.18-.39.35-.77.54-1.16.53-1.12,1.09-2.24,1.67-3.34a.25.25,0,0,1,.33-.11.25.25,0,0,1,.11.34c-.58,1.09-1.14,2.21-1.66,3.33-.18.38-.36.76-.53,1.14A.26.26,0,0,1,144.72,298.15Zm4.65-8.84a.33.33,0,0,1-.13,0,.24.24,0,0,1-.08-.34c.86-1.43,1.76-2.85,2.7-4.22a.25.25,0,0,1,.35-.07.25.25,0,0,1,.06.35c-.93,1.36-1.83,2.78-2.69,4.2A.24.24,0,0,1,149.37,289.31ZM155,281a.23.23,0,0,1-.15-.05.25.25,0,0,1-.05-.35c1-1.32,2.08-2.63,3.16-3.89a.25.25,0,0,1,.38.32c-1.07,1.26-2.13,2.56-3.14,3.88A.25.25,0,0,1,155,281Zm6.51-7.58a.26.26,0,0,1-.17-.07.25.25,0,0,1,0-.36c1.15-1.2,2.35-2.38,3.56-3.52a.25.25,0,1,1,.35.37c-1.21,1.12-2.41,2.3-3.55,3.5A.27.27,0,0,1,161.5,273.46Zm7.3-6.83a.25.25,0,0,1-.19-.09.25.25,0,0,1,0-.35c1.28-1.07,2.61-2.11,3.94-3.1a.24.24,0,0,1,.35.05.25.25,0,0,1-.05.35c-1.33,1-2.64,2-3.92,3.09A.28.28,0,0,1,168.8,266.63Zm8-6a.26.26,0,0,1-.21-.11.26.26,0,0,1,.08-.35c1.05-.69,2.13-1.37,3.22-2l1-.62a.25.25,0,0,1,.34.09.26.26,0,0,1-.09.35l-1,.61c-1.07.64-2.15,1.32-3.2,2A.23.23,0,0,1,176.82,260.67Zm8.64-5a.24.24,0,0,1-.22-.14.25.25,0,0,1,.11-.34c1.45-.74,3-1.47,4.51-2.17a.25.25,0,1,1,.2.45c-1.53.7-3,1.43-4.49,2.17A.2.2,0,0,1,185.46,255.65Zm-10.3-3.59A.28.28,0,0,1,175,252c-1.23-1.11-2.47-2.23-3.7-3.36a.25.25,0,0,1,0-.35.26.26,0,0,1,.36,0c1.23,1.13,2.47,2.24,3.7,3.36a.25.25,0,0,1,0,.35A.25.25,0,0,1,175.16,252.06Zm19.39-.56a.26.26,0,0,1-.23-.15.25.25,0,0,1,.14-.33c1.51-.61,3.08-1.21,4.68-1.79a.25.25,0,1,1,.17.46c-1.59.58-3.16,1.19-4.66,1.79A.16.16,0,0,1,194.55,251.5Zm9.4-3.43a.26.26,0,0,1-.24-.17.26.26,0,0,1,.16-.32c1.52-.5,3.13-1,4.78-1.51a.26.26,0,0,1,.31.17.24.24,0,0,1-.17.31c-1.65.5-3.25,1-4.76,1.51Zm-36.18-2.75a.23.23,0,0,1-.17-.07q-1.83-1.69-3.65-3.42a.25.25,0,0,1,0-.35.25.25,0,0,1,.36,0c1.2,1.15,2.42,2.28,3.64,3.41a.26.26,0,0,1,0,.36A.27.27,0,0,1,167.77,245.32Zm45.75-.16a.26.26,0,0,1-.24-.18.26.26,0,0,1,.18-.31q2.4-.67,4.83-1.32a.24.24,0,0,1,.3.18.24.24,0,0,1-.18.3q-2.41.64-4.82,1.32Zm9.67-2.58a.26.26,0,0,1-.24-.19.24.24,0,0,1,.18-.3q2.42-.63,4.85-1.23a.24.24,0,0,1,.3.18.25.25,0,0,1-.18.3l-4.85,1.23Zm9.7-2.45a.25.25,0,0,1-.06-.5l4.84-1.23a.24.24,0,0,1,.3.17.25.25,0,0,1-.18.31L233,240.12Zm-72.37-1.7a.22.22,0,0,1-.17-.07c-1.23-1.2-2.42-2.39-3.55-3.54a.25.25,0,0,1,.36-.35c1.12,1.15,2.31,2.34,3.54,3.53a.26.26,0,0,1,0,.36A.24.24,0,0,1,160.52,238.43Zm82-.82a.24.24,0,0,1-.24-.19.24.24,0,0,1,.18-.3q2.42-.66,4.81-1.35a.24.24,0,0,1,.3.18.23.23,0,0,1-.17.3c-1.59.47-3.2.91-4.81,1.35Zm9.6-2.78a.26.26,0,0,1-.24-.18.24.24,0,0,1,.17-.31c1.63-.51,3.22-1,4.74-1.55a.25.25,0,0,1,.16.48c-1.52.52-3.12,1-4.76,1.55Zm9.45-3.24a.27.27,0,0,1-.24-.17.25.25,0,0,1,.15-.32c1.59-.6,3.14-1.23,4.62-1.85a.24.24,0,0,1,.33.13.25.25,0,0,1-.13.33c-1.49.63-3,1.25-4.64,1.86Zm-108.09-.3a.27.27,0,0,1-.18-.08c-1.16-1.25-2.3-2.49-3.37-3.71a.25.25,0,0,1,0-.35.26.26,0,0,1,.36,0c1.07,1.21,2.2,2.45,3.36,3.7a.25.25,0,0,1,0,.35A.26.26,0,0,1,153.52,231.29Zm117.28-3.62a.25.25,0,0,1-.11-.47c1.51-.73,3-1.49,4.44-2.27a.25.25,0,0,1,.34.11.24.24,0,0,1-.1.33c-1.44.78-2.94,1.55-4.47,2.28A.18.18,0,0,1,270.8,227.67Zm-123.89-3.89a.25.25,0,0,1-.19-.09c-1.08-1.31-2.13-2.62-3.12-3.92a.25.25,0,0,1,.4-.3c1,1.29,2,2.6,3.11,3.9a.26.26,0,0,1,0,.36A.3.3,0,0,1,146.91,223.78Zm132.66-.88a.25.25,0,0,1-.21-.12.24.24,0,0,1,.08-.34c1.43-.88,2.83-1.81,4.17-2.75a.25.25,0,0,1,.28.41c-1.34,1-2.75,1.88-4.19,2.76A.2.2,0,0,1,279.57,222.9Zm8.17-5.76a.25.25,0,0,1-.19-.09.25.25,0,0,1,0-.35c1.28-1,2.55-2.13,3.78-3.26a.25.25,0,0,1,.34.37c-1.24,1.14-2.52,2.24-3.8,3.28A.3.3,0,0,1,287.74,217.14Zm-146.89-1.31a.25.25,0,0,1-.21-.1c-1-1.38-1.9-2.79-2.77-4.17a.26.26,0,0,1,.07-.35.26.26,0,0,1,.35.08c.87,1.38,1.8,2.78,2.76,4.15a.25.25,0,0,1-.06.35A.23.23,0,0,1,140.85,215.83Zm154.25-5.45a.25.25,0,0,1-.18-.42c1.13-1.19,2.25-2.44,3.33-3.71a.25.25,0,0,1,.35,0,.24.24,0,0,1,0,.35c-1.09,1.29-2.21,2.54-3.35,3.73A.27.27,0,0,1,295.1,210.38Zm-159.59-3a.26.26,0,0,1-.22-.13c-.69-1.22-1.35-2.46-2-3.69-.13-.24-.25-.49-.37-.74a.26.26,0,0,1,.11-.34.25.25,0,0,1,.34.12c.12.24.24.49.37.74.61,1.22,1.27,2.45,2,3.66a.25.25,0,0,1-.1.34A.19.19,0,0,1,135.51,207.39Zm166-4.64a.3.3,0,0,1-.15-.05.25.25,0,0,1,0-.35c1-1.31,1.95-2.68,2.88-4.07a.25.25,0,1,1,.41.27c-.93,1.41-1.9,2.78-2.89,4.1A.23.23,0,0,1,301.55,202.75Zm-170.44-4.34a.25.25,0,0,1-.23-.15c-.64-1.55-1.23-3.13-1.76-4.7a.25.25,0,0,1,.16-.31.23.23,0,0,1,.31.15c.53,1.56,1.12,3.13,1.75,4.67a.23.23,0,0,1-.13.32A.16.16,0,0,1,131.11,198.41Zm176-4a.19.19,0,0,1-.12,0,.25.25,0,0,1-.09-.34c.84-1.42,1.65-2.89,2.41-4.37a.25.25,0,0,1,.34-.1.24.24,0,0,1,.1.33c-.76,1.49-1.58,3-2.42,4.39A.26.26,0,0,1,307.08,194.43ZM127.91,189a.26.26,0,0,1-.24-.19c-.43-1.62-.8-3.26-1.12-4.89a.24.24,0,0,1,.2-.29.25.25,0,0,1,.29.2c.31,1.61.69,3.25,1.12,4.85a.26.26,0,0,1-.18.31Zm183.77-3.4-.1,0a.26.26,0,0,1-.13-.33c.68-1.49,1.33-3,1.95-4.6a.24.24,0,0,1,.32-.14.25.25,0,0,1,.14.33c-.61,1.56-1.27,3.12-1.95,4.61A.25.25,0,0,1,311.68,185.55ZM126,179.13a.25.25,0,0,1-.25-.22c-.2-1.67-.34-3.35-.41-5a.25.25,0,0,1,.23-.26.23.23,0,0,1,.26.24c.08,1.63.22,3.31.42,5a.25.25,0,0,1-.22.28Zm189.32-2.88-.08,0a.25.25,0,0,1-.16-.31c.43-1.27.84-2.58,1.22-3.87.08-.3.17-.6.25-.9a.25.25,0,0,1,.31-.17.25.25,0,0,1,.17.31c-.08.3-.17.6-.25.9-.38,1.3-.79,2.61-1.22,3.89A.27.27,0,0,1,315.34,176.25Zm-189.76-7.1h0a.24.24,0,0,1-.24-.26c.06-1.68.19-3.36.39-5a.25.25,0,0,1,.27-.22.25.25,0,0,1,.22.28c-.19,1.62-.32,3.29-.38,5A.25.25,0,0,1,125.58,169.15ZM318,166.62H318a.25.25,0,0,1-.19-.29c.36-1.66.67-3.3.91-4.9a.23.23,0,0,1,.28-.21.24.24,0,0,1,.21.28c-.24,1.61-.55,3.27-.91,4.93A.25.25,0,0,1,318,166.62Zm-191.24-7.38h-.05a.24.24,0,0,1-.19-.29c.35-1.65.79-3.29,1.29-4.86a.25.25,0,0,1,.48.16c-.5,1.55-.93,3.17-1.29,4.8A.25.25,0,0,1,126.79,159.24Zm192.71-2.5h0a.25.25,0,0,1-.23-.27c.11-1.46.16-2.92.16-4.33v-.65a.25.25,0,0,1,.24-.25h0a.25.25,0,0,1,.25.25v.65c0,1.42-.05,2.89-.16,4.36A.25.25,0,0,1,319.5,156.74Zm-189.65-7-.1,0a.26.26,0,0,1-.13-.33,45.92,45.92,0,0,1,2.28-4.48.25.25,0,1,1,.43.25,46,46,0,0,0-2.25,4.43A.25.25,0,0,1,129.85,149.74Zm189.51-3a.24.24,0,0,1-.25-.22,45.11,45.11,0,0,0-.82-4.9.25.25,0,0,1,.19-.3.25.25,0,0,1,.3.19,46,46,0,0,1,.83,4.95.26.26,0,0,1-.22.28ZM134.85,141.1a.23.23,0,0,1-.15,0,.25.25,0,0,1,0-.35,50.08,50.08,0,0,1,3.19-3.88.25.25,0,0,1,.35,0,.26.26,0,0,1,0,.36,49.09,49.09,0,0,0-3.16,3.84A.23.23,0,0,1,134.85,141.1ZM317.13,137a.25.25,0,0,1-.24-.17,35.28,35.28,0,0,0-1.7-3.93c-.1-.2-.2-.4-.31-.6A.25.25,0,0,1,315,132a.24.24,0,0,1,.33.1l.32.61a38.36,38.36,0,0,1,1.72,4,.24.24,0,0,1-.15.32Zm-175.57-3.32a.25.25,0,0,1-.19-.09.25.25,0,0,1,0-.35c1.2-1.1,2.5-2.18,3.85-3.22a.25.25,0,0,1,.3.4c-1.34,1-2.62,2.1-3.82,3.19A.24.24,0,0,1,141.56,133.71Zm170.92-5.5a.26.26,0,0,1-.21-.11,39.94,39.94,0,0,0-3.13-3.85.25.25,0,0,1,.37-.34,41,41,0,0,1,3.17,3.9.25.25,0,0,1-.06.35A.24.24,0,0,1,312.48,128.21Zm-163-.62a.22.22,0,0,1-.21-.11.24.24,0,0,1,.07-.34c1.35-.9,2.78-1.78,4.26-2.64a.25.25,0,0,1,.25.43c-1.47.85-2.9,1.74-4.24,2.62A.22.22,0,0,1,149.46,127.59Zm8.64-5a.25.25,0,0,1-.12-.48c1.43-.73,2.94-1.46,4.51-2.19a.26.26,0,0,1,.33.13.25.25,0,0,1-.12.33c-1.56.72-3.07,1.45-4.49,2.18A.23.23,0,0,1,158.1,122.58Zm147.65-1.73a.28.28,0,0,1-.17-.07c-1.21-1.06-2.52-2.1-3.89-3.09a.23.23,0,0,1-.06-.34.25.25,0,0,1,.35-.06c1.38,1,2.71,2,3.93,3.12a.24.24,0,0,1,0,.35A.25.25,0,0,1,305.75,120.85Zm-138.58-2.47a.25.25,0,0,1-.23-.16.25.25,0,0,1,.13-.32c1.49-.63,3-1.24,4.65-1.88a.25.25,0,1,1,.18.46c-1.64.64-3.15,1.26-4.63,1.88ZM297.65,115a.22.22,0,0,1-.13,0c-1.38-.83-2.85-1.64-4.36-2.4a.26.26,0,0,1-.11-.34.25.25,0,0,1,.33-.11c1.53.77,3,1.59,4.4,2.42a.26.26,0,0,1,.09.35A.27.27,0,0,1,297.65,115Zm-121.17-.28a.25.25,0,0,1-.08-.48c1.56-.58,3.15-1.15,4.71-1.69a.25.25,0,0,1,.16.48c-1.55.54-3.14,1.1-4.7,1.68Zm9.45-3.27a.27.27,0,0,1-.24-.17.26.26,0,0,1,.16-.32c1.59-.51,3.19-1,4.78-1.49a.25.25,0,0,1,.31.17.25.25,0,0,1-.16.31c-1.59.48-3.19,1-4.77,1.49Zm102.81-1-.1,0c-1.5-.64-3.06-1.25-4.64-1.83a.24.24,0,0,1-.15-.32.26.26,0,0,1,.32-.15c1.59.58,3.16,1.2,4.67,1.84a.26.26,0,0,1,.13.33A.26.26,0,0,1,288.74,110.48Zm-93.23-1.9a.26.26,0,0,1-.24-.19.24.24,0,0,1,.17-.3c1.63-.45,3.25-.88,4.84-1.28a.25.25,0,0,1,.31.18.25.25,0,0,1-.19.3c-1.58.4-3.21.83-4.82,1.28Zm83.84-1.52h-.08c-1.58-.49-3.19-1-4.79-1.38a.24.24,0,0,1-.18-.3.24.24,0,0,1,.3-.18c1.61.42,3.23.89,4.82,1.38a.25.25,0,0,1,.17.31A.26.26,0,0,1,279.35,107.06Zm-74.14-.92A.26.26,0,0,1,205,106a.25.25,0,0,1,.19-.3c1.63-.37,3.28-.72,4.9-1.05a.26.26,0,0,1,.29.2.25.25,0,0,1-.19.3c-1.62.32-3.26.67-4.89,1Zm64.47-1.62h-.06c-1.6-.35-3.25-.67-4.89-1a.25.25,0,1,1,.08-.5c1.65.29,3.31.61,4.92,1a.25.25,0,0,1,.19.29A.25.25,0,0,1,269.68,104.52ZM215,104.19a.25.25,0,0,1-.24-.21.24.24,0,0,1,.2-.29c1.65-.28,3.32-.55,4.95-.78a.25.25,0,0,1,.07.49c-1.63.24-3.29.5-4.93.78Zm44.82-1.37h0c-1.63-.21-3.3-.4-5-.55a.25.25,0,0,1-.22-.27.23.23,0,0,1,.27-.22c1.66.15,3.34.33,5,.54a.25.25,0,0,1,.21.28A.24.24,0,0,1,259.83,102.82Zm-34.92-.06a.26.26,0,0,1-.25-.22.25.25,0,0,1,.22-.27c1.67-.2,3.35-.36,5-.5a.26.26,0,0,1,.27.23.25.25,0,0,1-.23.27c-1.63.14-3.31.3-5,.49Zm10-.83a.24.24,0,0,1-.25-.24.25.25,0,0,1,.23-.26c1.67-.08,3.35-.14,5-.18h0a.25.25,0,0,1,.25.25.23.23,0,0,1-.24.25c-1.65,0-3.33.09-5,.18Zm15,0h0c-1.65-.09-3.32-.15-5-.17a.26.26,0,0,1-.25-.26.27.27,0,0,1,.26-.24c1.67,0,3.35.08,5,.17a.25.25,0,0,1,.24.26A.26.26,0,0,1,249.87,101.92Z" style="fill:#e0e0e0"></path><path d="M443.92,329.17H263.17a5.87,5.87,0,0,1-5.86-5.86V60a5.87,5.87,0,0,1,5.86-5.87H443.92A5.87,5.87,0,0,1,449.78,60V323.31A5.87,5.87,0,0,1,443.92,329.17ZM263.17,54.42A5.62,5.62,0,0,0,257.56,60V323.31a5.62,5.62,0,0,0,5.61,5.61H443.92a5.61,5.61,0,0,0,5.61-5.61V60a5.62,5.62,0,0,0-5.61-5.62Z" style="fill:#e0e0e0"></path><path d="M235.49,329.17H54.75a5.87,5.87,0,0,1-5.87-5.86V60a5.87,5.87,0,0,1,5.87-5.87H235.49A5.86,5.86,0,0,1,241.35,60V323.31A5.86,5.86,0,0,1,235.49,329.17ZM54.75,54.42A5.62,5.62,0,0,0,49.13,60V323.31a5.62,5.62,0,0,0,5.62,5.61H235.49a5.61,5.61,0,0,0,5.61-5.61V60a5.62,5.62,0,0,0-5.61-5.62Z" style="fill:#e0e0e0"></path><rect y="390.24" width="500" height="0.25" style="fill:#e0e0e0"></rect><rect x="52.46" y="405.53" width="16.06" height="0.25" style="fill:#e0e0e0"></rect><rect x="171.14" y="402.82" width="53.53" height="0.25" style="fill:#e0e0e0"></rect><rect x="69.52" y="414.82" width="36.25" height="0.25" style="fill:#e0e0e0"></rect><rect x="379.14" y="402.69" width="43.19" height="0.25" style="fill:#e0e0e0"></rect><rect x="431.24" y="402.69" width="6.33" height="0.25" style="fill:#e0e0e0"></rect><rect x="317" y="408.92" width="53.89" height="0.25" style="fill:#e0e0e0"></rect></g><g id="freepik--Shadow--inject-47"><path d="M458.88,448.39c0,3.39-93.52,6.14-208.88,6.14s-208.88-2.75-208.88-6.14,93.52-6.13,208.88-6.13S458.88,445,458.88,448.39Z" style="fill:#f5f5f5"></path></g><g id="freepik--Line--inject-47"><path d="M336.47,320.6a.25.25,0,0,1-.11-.47l2.24-1.1a.24.24,0,0,1,.33.11.23.23,0,0,1-.11.33c-.74.38-1.49.75-2.24,1.11A.23.23,0,0,1,336.47,320.6Z" style="fill:#263238"></path><path d="M156.85,323.15H155.3a.25.25,0,0,1,0-.5c1.66,0,3.34,0,5-.06a.28.28,0,0,1,.26.25.25.25,0,0,1-.24.25C159.18,323.13,158,323.15,156.85,323.15Zm-6.57-.24h0c-1.67-.12-3.36-.29-5-.51a.25.25,0,0,1-.22-.28.24.24,0,0,1,.28-.21c1.65.21,3.33.38,5,.5a.25.25,0,0,1,0,.5Zm15.08-.15a.25.25,0,0,1,0-.5c1.65-.15,3.33-.35,5-.59a.25.25,0,0,1,.28.21.26.26,0,0,1-.21.29c-1.67.24-3.35.44-5,.59Zm-25.05-1.16h-.05c-1.66-.32-3.31-.69-4.92-1.11a.25.25,0,1,1,.13-.48c1.59.41,3.24.78,4.89,1.1a.25.25,0,0,1,.2.29A.26.26,0,0,1,140.31,321.6Zm35-.28a.26.26,0,0,1-.25-.2.26.26,0,0,1,.2-.3c1.62-.31,3.26-.68,4.9-1.08a.25.25,0,0,1,.3.19.24.24,0,0,1-.18.3c-1.64.4-3.3.77-4.92,1.08Zm-44.73-2.24h-.08c-1.6-.53-3.19-1.11-4.74-1.74a.24.24,0,0,1-.14-.32.25.25,0,0,1,.33-.14c1.53.62,3.12,1.2,4.7,1.73a.25.25,0,0,1-.07.48Zm54.5-.14a.25.25,0,0,1-.07-.49c1.58-.46,3.19-1,4.79-1.51a.26.26,0,0,1,.32.16.26.26,0,0,1-.16.32c-1.61.54-3.23,1.05-4.81,1.51Zm158.06-1.82a.24.24,0,0,1-.21-.12.24.24,0,0,1,.09-.34c1.49-.85,2.93-1.73,4.28-2.61a.25.25,0,0,1,.35.07.25.25,0,0,1-.07.34c-1.36.89-2.81,1.78-4.31,2.63A.28.28,0,0,1,343.14,317.12Zm-148.53-1.39a.25.25,0,0,1-.23-.16.25.25,0,0,1,.14-.32c1.55-.59,3.12-1.22,4.67-1.87a.25.25,0,0,1,.19.46c-1.55.65-3.12,1.29-4.68,1.88Zm-73.35-.44a.23.23,0,0,1-.11,0c-1.51-.74-3-1.55-4.44-2.39a.26.26,0,0,1-.09-.35.25.25,0,0,1,.34-.09c1.43.84,2.91,1.64,4.42,2.38a.26.26,0,0,1,.11.34A.25.25,0,0,1,121.26,315.29Zm82.62-3.47a.27.27,0,0,1-.23-.14.25.25,0,0,1,.13-.33c1.49-.7,3-1.43,4.52-2.19a.26.26,0,0,1,.34.11.25.25,0,0,1-.12.34c-1.51.76-3,1.5-4.53,2.19Zm147.67-.21a.25.25,0,0,1-.2-.1.25.25,0,0,1,0-.35c1.37-1,2.66-2.11,3.85-3.2a.25.25,0,0,1,.36,0,.25.25,0,0,1,0,.35c-1.2,1.1-2.51,2.18-3.88,3.23A.3.3,0,0,1,351.55,311.61ZM112.6,310.2a.24.24,0,0,1-.14-.05c-.8-.56-1.59-1.14-2.36-1.72-.56-.43-1.12-.88-1.66-1.33a.25.25,0,1,1,.31-.38c.55.44,1.1.88,1.66,1.31.75.58,1.54,1.16,2.34,1.71a.25.25,0,0,1,.06.35A.26.26,0,0,1,112.6,310.2Zm100.27-2.89a.25.25,0,0,1-.11-.47c1.43-.77,2.91-1.59,4.39-2.44a.25.25,0,1,1,.24.43c-1.47.85-3,1.68-4.4,2.45A.24.24,0,0,1,212.87,307.31ZM359,304.83a.23.23,0,0,1-.17-.07.25.25,0,0,1,0-.35,40.35,40.35,0,0,0,3.1-3.92.24.24,0,0,1,.34-.06.25.25,0,0,1,.07.35,41,41,0,0,1-3.14,4A.24.24,0,0,1,359,304.83Zm-254.12-1a.26.26,0,0,1-.18-.07c-1.19-1.16-2.36-2.39-3.47-3.66a.25.25,0,0,1,.37-.33c1.1,1.26,2.26,2.48,3.45,3.63a.26.26,0,0,1,0,.36A.26.26,0,0,1,104.85,303.8Zm116.75-1.5a.22.22,0,0,1-.21-.12.24.24,0,0,1,.08-.34c1.39-.85,2.83-1.75,4.26-2.67a.25.25,0,0,1,.27.43c-1.44.92-2.87,1.81-4.27,2.66A.22.22,0,0,1,221.6,302.3Zm8.47-5.43a.26.26,0,0,1-.21-.11.24.24,0,0,1,.07-.34c1.34-.9,2.69-1.83,4.15-2.84a.25.25,0,1,1,.28.41c-1.45,1-2.81,1.94-4.15,2.84A.23.23,0,0,1,230.07,296.87Zm134.59-.3a.2.2,0,0,1-.11,0,.24.24,0,0,1-.11-.33,35.52,35.52,0,0,0,1.93-4.6.25.25,0,1,1,.47.16,33.94,33.94,0,0,1-2,4.67A.25.25,0,0,1,364.66,296.57Zm-266.44-.32a.23.23,0,0,1-.2-.1c-1-1.33-2-2.73-2.87-4.15a.26.26,0,0,1,.07-.35.26.26,0,0,1,.35.08c.9,1.41,1.86,2.8,2.85,4.12a.25.25,0,0,1,0,.35A.3.3,0,0,1,98.22,296.25Zm140.11-5.12a.23.23,0,0,1-.2-.1.25.25,0,0,1,.05-.35q2.06-1.47,4.08-2.95a.25.25,0,0,1,.3.41q-2,1.49-4.08,2.94A.23.23,0,0,1,238.33,291.13ZM92.81,287.78a.25.25,0,0,1-.22-.13c-.8-1.48-1.55-3-2.24-4.52a.25.25,0,0,1,.12-.33.24.24,0,0,1,.33.12c.69,1.52,1.44,3,2.23,4.49a.26.26,0,0,1-.1.34Zm275.05-.7h-.05a.24.24,0,0,1-.2-.29,36.71,36.71,0,0,0,.55-5,.25.25,0,0,1,.25-.24h0a.26.26,0,0,1,.24.27,37.6,37.6,0,0,1-.56,5A.25.25,0,0,1,367.86,287.08Zm-121.39-1.86a.26.26,0,0,1-.15-.46l4.06-3a.23.23,0,0,1,.34,0,.24.24,0,0,1-.05.35l-4,3A.3.3,0,0,1,246.47,285.22Zm8.11-6a.25.25,0,0,1-.2-.1.25.25,0,0,1,.06-.35l4.08-2.94a.25.25,0,0,1,.35.06.25.25,0,0,1-.06.35l-4.08,2.93A.2.2,0,0,1,254.58,279.27Zm-165.92-.65a.25.25,0,0,1-.23-.16c-.58-1.57-1.12-3.18-1.6-4.79a.25.25,0,0,1,.17-.31.25.25,0,0,1,.31.17c.48,1.6,1,3.2,1.59,4.76a.26.26,0,0,1-.15.32Zm279.66-1.56a.25.25,0,0,1-.25-.23c-.13-1.62-.35-3.29-.65-5a.24.24,0,0,1,.2-.29.25.25,0,0,1,.29.2,49.91,49.91,0,0,1,.66,5,.27.27,0,0,1-.23.27Zm-105.53-3.62a.25.25,0,0,1-.15-.45c1.42-1,2.82-1.93,4.17-2.83a.26.26,0,0,1,.35.07.26.26,0,0,1-.07.35c-1.35.89-2.75,1.84-4.16,2.82A.27.27,0,0,1,262.79,273.44ZM85.81,269a.25.25,0,0,1-.24-.19c-.37-1.63-.68-3.3-.94-5a.25.25,0,1,1,.5-.08c.25,1.65.56,3.31.93,4.93a.26.26,0,0,1-.19.3Zm185.36-1.1a.22.22,0,0,1-.21-.12.24.24,0,0,1,.07-.34l1.12-.7c1.05-.66,2.11-1.3,3.17-1.94a.26.26,0,0,1,.35.09.25.25,0,0,1-.09.34c-1.07.63-2.12,1.28-3.17,1.93l-1.11.7A.22.22,0,0,1,271.17,267.88Zm95.33-.69a.25.25,0,0,1-.24-.18,18,18,0,0,0-2.19-4.42.26.26,0,0,1,.07-.35.25.25,0,0,1,.35.07,18.18,18.18,0,0,1,2.24,4.55.23.23,0,0,1-.15.31Zm-86.68-4.45a.25.25,0,0,1-.22-.13.24.24,0,0,1,.1-.34c1.5-.83,3-1.62,4.45-2.36a.25.25,0,0,1,.33.11.25.25,0,0,1-.11.34c-1.45.73-2.94,1.52-4.43,2.35A.27.27,0,0,1,279.82,262.74ZM84.28,259.05a.25.25,0,0,1-.24-.23c-.15-1.68-.23-3.37-.26-5a.25.25,0,0,1,.24-.26.26.26,0,0,1,.26.25c0,1.66.11,3.34.25,5a.25.25,0,0,1-.22.27ZM361,258.94a.27.27,0,0,1-.16-.06,25.88,25.88,0,0,0-4-2.92.25.25,0,1,1,.25-.43,25.93,25.93,0,0,1,4.11,3,.25.25,0,0,1,0,.35A.25.25,0,0,1,361,258.94Zm-72.17-.75a.25.25,0,0,1-.23-.14.24.24,0,0,1,.13-.33c1.54-.71,3.09-1.39,4.62-2a.26.26,0,0,1,.33.14.24.24,0,0,1-.14.32c-1.52.62-3.07,1.3-4.61,2A.16.16,0,0,1,288.79,258.19Zm9.32-3.78a.25.25,0,0,1-.09-.49c1.6-.56,3.21-1.08,4.8-1.55a.25.25,0,0,1,.31.17.24.24,0,0,1-.17.31c-1.58.46-3.18,1-4.77,1.54Zm54.28-.63-.1,0a44.38,44.38,0,0,0-4.73-1.62.25.25,0,0,1-.17-.31.24.24,0,0,1,.31-.17,46.12,46.12,0,0,1,4.78,1.64.25.25,0,0,1-.09.48Zm-44.64-2.2a.26.26,0,0,1-.24-.19.25.25,0,0,1,.19-.3c1.64-.39,3.31-.72,4.95-1a.24.24,0,0,1,.28.2.24.24,0,0,1-.2.29c-1.63.27-3.28.6-4.92,1Zm35-.6h-.05c-1.58-.31-3.25-.58-4.95-.79a.25.25,0,1,1,.06-.49c1.71.21,3.39.47,5,.78a.25.25,0,0,1,.2.3A.25.25,0,0,1,342.74,251Zm-25.07-1a.26.26,0,0,1-.25-.23.25.25,0,0,1,.23-.27c1-.1,2-.18,3-.23.67,0,1.36-.08,2.05-.1h0a.24.24,0,0,1,.25.24.25.25,0,0,1-.24.26c-.69,0-1.37.06-2,.1-1,.05-2,.13-3,.23Zm15.08-.2h0c-1.64-.11-3.33-.17-5-.19a.26.26,0,0,1-.25-.26.25.25,0,0,1,.25-.24h0c1.7,0,3.39.08,5,.19a.25.25,0,0,1,.23.26A.26.26,0,0,1,332.75,249.73ZM84.12,249h0a.23.23,0,0,1-.23-.26c.08-1.68.23-3.37.44-5a.23.23,0,0,1,.27-.21.24.24,0,0,1,.22.28c-.2,1.64-.35,3.32-.44,5A.24.24,0,0,1,84.12,249Zm1.23-10h0a.26.26,0,0,1-.2-.29l.21-1c.28-1.31.6-2.63,1-3.92a.24.24,0,0,1,.3-.18.25.25,0,0,1,.18.31c-.35,1.28-.67,2.59-.94,3.89l-.21,1A.24.24,0,0,1,85.35,239ZM88,229.31h-.09a.24.24,0,0,1-.15-.32c.54-1.58,1.15-3.16,1.8-4.71a.24.24,0,0,1,.33-.13.25.25,0,0,1,.13.32c-.65,1.54-1.25,3.12-1.79,4.69A.24.24,0,0,1,88,229.31ZM91.86,220l-.11,0a.26.26,0,0,1-.11-.34c.74-1.49,1.55-3,2.39-4.44a.24.24,0,0,1,.34-.09.24.24,0,0,1,.09.34c-.84,1.44-1.63,2.93-2.37,4.41A.25.25,0,0,1,91.86,220Zm5-8.71a.23.23,0,0,1-.14,0,.24.24,0,0,1-.07-.34c.92-1.4,1.9-2.78,2.91-4.13a.25.25,0,1,1,.4.3c-1,1.34-2,2.72-2.89,4.1A.26.26,0,0,1,96.89,211.33ZM291,204.89l-2.25,0a.25.25,0,0,1-.24-.26.25.25,0,0,1,.25-.24c1.62,0,3.3,0,5,0a.26.26,0,0,1,.26.25.25.25,0,0,1-.25.25C292.87,204.88,291.94,204.89,291,204.89Zm7.82-.3a.25.25,0,0,1,0-.5c1.63-.12,3.32-.28,5-.48a.25.25,0,1,1,.06.49c-1.69.2-3.38.37-5,.49Zm-15.09,0h0c-1.24-.11-2.45-.25-3.6-.43-.47-.06-.94-.14-1.4-.22a.25.25,0,0,1-.21-.28.25.25,0,0,1,.29-.21l1.39.22c1.14.17,2.35.31,3.58.42a.26.26,0,0,1,.22.28A.24.24,0,0,1,283.75,204.58Zm25.09-1.16a.26.26,0,0,1-.25-.21.25.25,0,0,1,.21-.29c1.62-.26,3.29-.55,4.95-.87a.25.25,0,0,1,.29.19.25.25,0,0,1-.2.3c-1.66.32-3.33.62-5,.88Zm-205.92-.13a.25.25,0,0,1-.19-.41c1.08-1.28,2.21-2.54,3.37-3.76a.25.25,0,0,1,.35,0,.26.26,0,0,1,0,.36c-1.15,1.2-2.27,2.46-3.35,3.73A.25.25,0,0,1,102.92,203.29ZM273.84,203h-.06c-1.59-.37-3.24-.8-4.88-1.27a.25.25,0,0,1-.17-.31.25.25,0,0,1,.31-.17c1.63.47,3.27.89,4.85,1.26a.25.25,0,0,1-.05.49Zm44.88-1.47a.25.25,0,0,1-.24-.19.24.24,0,0,1,.18-.3c1.63-.38,3.27-.8,4.87-1.24a.26.26,0,0,1,.31.18.25.25,0,0,1-.17.31c-1.62.44-3.26.85-4.89,1.24Zm-54.55-1.3h-.08c-1.53-.52-3.12-1.1-4.74-1.71a.25.25,0,0,1-.14-.33.24.24,0,0,1,.32-.14c1.61.61,3.2,1.19,4.72,1.71a.25.25,0,0,1-.08.48Zm64.26-1.35a.25.25,0,0,1-.07-.49c1.6-.5,3.2-1,4.76-1.58a.25.25,0,0,1,.32.15.26.26,0,0,1-.15.32c-1.57.55-3.18,1.09-4.78,1.59Zm-73.66-2.23-.1,0c-1.47-.62-3-1.27-4.62-2a.25.25,0,0,1,.21-.46c1.63.73,3.13,1.38,4.61,2a.24.24,0,0,1,.13.33A.25.25,0,0,1,254.77,196.6ZM109.84,196a.27.27,0,0,1-.18-.08.26.26,0,0,1,0-.36c1.22-1.14,2.49-2.27,3.77-3.35a.25.25,0,0,1,.35,0,.24.24,0,0,1,0,.35c-1.27,1.08-2.53,2.2-3.75,3.34A.26.26,0,0,1,109.84,196Zm228.07-.53a.25.25,0,0,1-.09-.48c1.56-.62,3.12-1.28,4.63-2a.26.26,0,0,1,.33.13.25.25,0,0,1-.13.33c-1.52.68-3.08,1.34-4.65,2Zm-92.33-3-.11,0-4.55-2.15a.26.26,0,0,1-.12-.34.26.26,0,0,1,.34-.11c1.51.72,3,1.44,4.54,2.14a.25.25,0,0,1-.1.48Zm101.53-1.16a.28.28,0,0,1-.23-.13.25.25,0,0,1,.12-.34c1.5-.75,3-1.54,4.43-2.35a.24.24,0,0,1,.34.1.25.25,0,0,1-.09.34c-1.45.81-2.95,1.6-4.46,2.36A.22.22,0,0,1,347.11,191.35Zm-229.57-1.82a.28.28,0,0,1-.2-.1.25.25,0,0,1,0-.35q2-1.52,4.13-2.91a.25.25,0,0,1,.34.07.25.25,0,0,1-.07.35c-1.38.92-2.76,1.89-4.1,2.89A.25.25,0,0,1,117.54,189.53Zm119-1.34-.11,0q-2.26-1.09-4.54-2.16a.25.25,0,0,1,.21-.46l4.55,2.17a.25.25,0,0,1,.12.33A.27.27,0,0,1,236.49,188.19Zm119.39-1.76a.25.25,0,0,1-.21-.12.24.24,0,0,1,.08-.34c1.42-.9,2.83-1.84,4.17-2.79a.25.25,0,0,1,.35.06.25.25,0,0,1-.06.35c-1.35.95-2.76,1.9-4.2,2.8A.2.2,0,0,1,355.88,186.43Zm-230-2.46a.24.24,0,0,1-.21-.13.25.25,0,0,1,.09-.34c1.45-.84,2.93-1.66,4.42-2.42a.26.26,0,0,1,.34.11.26.26,0,0,1-.11.34c-1.48.75-3,1.56-4.4,2.4A.2.2,0,0,1,125.92,184Zm101.47-.06-.11,0c-1.64-.75-3.14-1.42-4.59-2a.25.25,0,0,1-.13-.33.25.25,0,0,1,.33-.13c1.45.63,3,1.3,4.6,2.05a.24.24,0,0,1,.12.33A.25.25,0,0,1,227.39,183.91Zm136.69-3.31a.23.23,0,0,1-.2-.1.24.24,0,0,1,0-.35c1.32-1.06,2.59-2.16,3.8-3.27a.25.25,0,0,1,.35,0,.26.26,0,0,1,0,.36c-1.22,1.11-2.5,2.22-3.83,3.29A.22.22,0,0,1,364.08,180.6Zm-145.93-.68-.09,0c-1.6-.64-3.18-1.25-4.69-1.79a.25.25,0,0,1-.15-.32.24.24,0,0,1,.32-.15c1.51.55,3.1,1.15,4.7,1.8a.24.24,0,0,1,.14.32A.25.25,0,0,1,218.15,179.92Zm-83.27-.52a.25.25,0,0,1-.1-.48c1.53-.67,3.1-1.31,4.67-1.9a.25.25,0,0,1,.32.15.24.24,0,0,1-.14.32c-1.57.59-3.13,1.22-4.65,1.89Zm73.81-2.89-.08,0c-1.59-.5-3.21-1-4.81-1.4a.25.25,0,0,1-.18-.31.26.26,0,0,1,.3-.17c1.62.43,3.25.9,4.85,1.41a.25.25,0,0,1,.16.31A.26.26,0,0,1,208.69,176.51Zm-64.4-.65a.23.23,0,0,1-.23-.17.25.25,0,0,1,.16-.31c1.59-.51,3.22-1,4.85-1.39a.25.25,0,1,1,.12.48c-1.61.42-3.23.88-4.82,1.38Zm54.68-2h-.05c-1.63-.36-3.29-.69-4.92-1a.25.25,0,0,1-.21-.29.25.25,0,0,1,.29-.2c1.65.28,3.31.61,4.95,1a.25.25,0,0,1-.06.5Zm172.48-.14a.23.23,0,0,1-.17-.07.25.25,0,0,1,0-.35c1.16-1.23,2.26-2.51,3.27-3.79a.25.25,0,1,1,.39.31c-1,1.29-2.13,2.58-3.29,3.82A.27.27,0,0,1,371.45,173.77ZM154,173.34a.25.25,0,0,1-.05-.49c1.63-.33,3.3-.63,5-.89a.26.26,0,0,1,.29.21.25.25,0,0,1-.21.29c-1.66.25-3.32.55-4.94.88Zm35-1.16h0c-1.65-.22-3.33-.4-5-.53a.25.25,0,1,1,0-.5c1.67.14,3.36.32,5,.53a.25.25,0,0,1,.21.28A.24.24,0,0,1,189.07,172.18Zm-25.1-.36a.25.25,0,0,1-.25-.22.26.26,0,0,1,.23-.28c1.65-.17,3.34-.3,5-.4a.25.25,0,0,1,.26.24.23.23,0,0,1-.23.26c-1.67.1-3.35.23-5,.4Zm15.07-.48h0c-1.67-.06-3.35-.09-5-.07h0a.25.25,0,0,1-.25-.25.25.25,0,0,1,.25-.25c1.67,0,3.36,0,5,.07a.25.25,0,0,1,0,.5Zm198.64-5.46a.24.24,0,0,1-.21-.38c.93-1.41,1.78-2.86,2.54-4.31a.25.25,0,0,1,.34-.1.24.24,0,0,1,.1.33c-.77,1.47-1.63,2.93-2.56,4.35A.24.24,0,0,1,377.68,165.88Zm4.66-8.88a.15.15,0,0,1-.09,0,.24.24,0,0,1-.14-.32,48.71,48.71,0,0,0,1.62-4.72.25.25,0,0,1,.31-.17.24.24,0,0,1,.17.3c-.46,1.61-1,3.21-1.63,4.78A.27.27,0,0,1,382.34,157Zm2.74-9.64h0a.25.25,0,0,1-.21-.29,48.11,48.11,0,0,0,.6-4.95.26.26,0,0,1,.26-.24.25.25,0,0,1,.23.27,49.25,49.25,0,0,1-.59,5A.25.25,0,0,1,385.08,147.36Z" style="fill:#263238"></path><path d="M385.76,137.21a.25.25,0,0,1-.25-.24c0-.82-.08-1.65-.14-2.49a.25.25,0,0,1,.23-.26.27.27,0,0,1,.27.22c.06.85.11,1.69.14,2.51a.25.25,0,0,1-.24.26Z" style="fill:#263238"></path></g><g id="freepik--speech-bubble--inject-47"><path d="M75.67,126.14a37.28,37.28,0,1,1,60.92-7.69l4,10.46-11.83-.19c-.15.14-.28.3-.44.44A37.29,37.29,0,0,1,75.67,126.14Z" style="fill:#407BFF"></path><path d="M62.58,93.17h0a.24.24,0,0,1-.22-.27A37.37,37.37,0,0,1,82.32,64a.26.26,0,0,1,.34.12.24.24,0,0,1-.12.33A36.82,36.82,0,0,0,62.83,93,.26.26,0,0,1,62.58,93.17Z" style="fill:#407BFF"></path><path d="M62.34,104.23a.25.25,0,0,1-.24-.2,13.73,13.73,0,0,1-.15-5.6.24.24,0,0,1,.29-.2.25.25,0,0,1,.2.29,13.28,13.28,0,0,0,.15,5.4.25.25,0,0,1-.19.3Z" style="fill:#407BFF"></path><path d="M99.89,118.52a4.54,4.54,0,0,1-1.44-3.39,4.37,4.37,0,0,1,1.42-3.33,5.56,5.56,0,0,1,7.24,0,4.41,4.41,0,0,1,1.42,3.33,4.55,4.55,0,0,1-1.45,3.39,5.34,5.34,0,0,1-7.19,0ZM98.61,82.75h9.76l-1.63,24h-6.51Z" style="fill:#fff"></path></g><g id="freepik--Character--inject-47"><path d="M334.26,305.12c1.75,4.31-23.31-72.85-38.87-84.73-3.71-2.84-10.31-7.18-13.3-7-7.7.58-9.9,12.95-13.82,22.3-5.22,12.46,7.67,46.5,7.67,46.5l11.27-1.56c.65,2.9,2.37,10.86,5.6,17.48,2.86,5.89,4.55,4.58,6.57,9.57,4.42,11,9.91,21.82,21.59,28.88l79.57,31.88,8.23-16.26Z" style="fill:#a77865"></path><g style="opacity:0.30000000000000004"><path d="M293.56,243.5c2.65,4.53,7.55,9.7,9.11,23.83.6,5.45,1.08,18-5.13,28.63v-18.9C297.89,265.07,293.21,255.48,293.56,243.5Z"></path></g><path d="M350.47,313a5.15,5.15,0,0,0-4.61-.45l6.92,4.46A5.12,5.12,0,0,0,350.47,313Z" style="fill:#a77865"></path><path d="M350.47,313a5.15,5.15,0,0,0-4.61-.45l6.92,4.46A5.12,5.12,0,0,0,350.47,313Z" style="fill:#a24e3f"></path><g style="opacity:0.30000000000000004"><path d="M345.1,312a4.21,4.21,0,0,0,.43,4.29,6.32,6.32,0,0,0,4.11,2.34,7.16,7.16,0,0,0,4.66-.83Z" style="fill:#a24e3f"></path></g><path d="M325.3,326a4.34,4.34,0,1,1-4.33-4.34A4.33,4.33,0,0,1,325.3,326Z" style="fill:#a24e3f;opacity:0.5"></path><circle cx="320.97" cy="326.03" r="2.02" style="fill:#a24e3f"></circle><path d="M354.57,324a2.3,2.3,0,1,1-2.3-2.31A2.3,2.3,0,0,1,354.57,324Z" style="fill:#a24e3f;opacity:0.5"></path><path d="M353.35,324a1.08,1.08,0,1,1-1.08-1.08A1.08,1.08,0,0,1,353.35,324Z" style="fill:#a24e3f"></path><path d="M312.62,377.92s-49.9,14.9-106.59,3l-1.69-.36c-1.51-.33-3-.68-4.55-1.07,0,0-.81.92-2.15,2.59l-1.13,1.44c-8,10.34-16,31.46-20,62.66q-.43,4-.85,8.31H328.17C324.36,426,317.84,390.81,312.62,377.92Z" style="fill:#263238"></path><path d="M403.34,355.21a13,13,0,0,1,8.38-6.75,77.9,77.9,0,0,0,8.73-2.66c4.22-1.74,12.67-5.67,14.14-3.72,2.06,2.73-9.43,10.17-9.43,10.17s21.87,3,24.33,4.72.89,3.74-1.1,3.74-13.55.23-13.55.23,18.37,1.74,19.36,4.22-1.67,2.29-3.66,2.54-16.44-1.43-16.44-1.43,18.53,3.74,17.79,6.47-4.24,3.52-8.16,2.45-13.37-2.33-13.37-2.33,13.71,4.62,12.17,7.4c-1.78,3.21-6.95.53-10.43-.71s-28.55-8-31.78-11.26C398.37,366.33,401,359.94,403.34,355.21Z" style="fill:#a77865"></path><path d="M417.42,365.88a.27.27,0,0,1-.28-.25.26.26,0,0,1,.25-.25h0a7.17,7.17,0,0,0,5.48-11.8.27.27,0,0,1,0-.23.25.25,0,0,1,.16-.17,7.33,7.33,0,0,0,2.44-1.43.25.25,0,0,1,.33.37,7.69,7.69,0,0,1-2.28,1.41,7.67,7.67,0,0,1-6.08,12.35Z" style="opacity:0.2"></path><path d="M181.12,278.18l-7.62-53.46c6.72-10,58.8-23.48,48.37-21.46l30.42,1.66s11.69,2.61,21.7,5.87c9.66,3.15,9.28,2.63,9.28,2.63s21.11,51.62,16,71.35c-4.27,16.32-2.42,53.9,3.48,65.27l15.74,37.71c-55.58,43.28-126.73,0-126.73,0a150.34,150.34,0,0,0,5.31-23.6c-.82-9.53.32-24.22-3.72-40.91C192.53,320,182.47,281.31,181.12,278.18Z" style="fill:#407BFF"></path><path d="M269.71,271.53s-3.77-1.55-4.92,11.55c-.87,9.89-1,15.4-.65,19S273.67,316,273.67,316l-5.06.1,7.85,18.63s16.44-2,19.09-8.72-.81-10-2.85-14.15-3.52-6.62-3.52-6.62,9.37-17.46,8.27-19.65-3.38-1.76-4.85.14-8,13.35-8,13.35,6.55-19.55,5.66-21.7-4.23-3-6.92,2.8-5.54,13.61-5.54,13.61,4.31-18.5,3.19-19.47-3.69-2.12-5.68,3.18-4.44,14.7-4.44,14.7S272.59,270.92,269.71,271.53Z" style="fill:#a77865"></path><path d="M274.94,312.65s-63.8,19.53-65.77,17.71c-.57-.52-.6-9.88-2.46-20.52-2.14-15.59-.57-38.71-5.35-56.8-2.06-7.82-14.44-25.55-18.56-28.49-5.08-3.62-8-4.36-13.42,3.79-5.84,8.82-8.66,27.74-3.93,45.67.05.23,5.76,41.72,14.49,68.78,6.7,20.76,15.05,24.91,53.72,11,25.84-9.25,52.3-23.48,52.3-23.48Z" style="fill:#a77865"></path><path d="M209.15,330.44a20.61,20.61,0,0,0-9.64,9.66s-1.13-2.85,2.3-7.64c2.09-2.93,6.84-5.76,6.84-5.76Z" style="opacity:0.30000000000000004"></path><polygon points="271.02 313.85 281.5 325.06 266.29 315.27 271.02 313.85" style="opacity:0.30000000000000004"></polygon><path d="M253.72,101.87s7.63-13.63-8.36-23.53c0,0-.7-19.34-18.84-19.11a24.5,24.5,0,0,0-23.42,14S183.31,61.79,174,76.09s3.48,27.3,3.48,27.3-19.8,7-8.38,21.54,22.75,9,22.75,9-5.86,8.56,4.56,14.77,30.72-9.48,30.72-9.48Z" style="fill:#263238"></path><path d="M266.5,115.13s11.41,26.2,11.93,37c9.71,8.9,18.88-22.58,17.25-43.58C274.9,116,266.5,115.13,266.5,115.13Z" style="fill:#263238"></path><path d="M281.51,90.88s10.83-3.12,16.77,9.25-2.08,16.34-2.08,16.34,8.69,12.9-5.89,16.42-67.56,18.61-67.56,18.61S212,148.9,209.37,141a17.47,17.47,0,0,1,1.8-14.29s-13.47-7.45-3.32-21.9S281.51,90.88,281.51,90.88Z" style="fill:#263238"></path><path d="M254.61,205.46c-3.1-3.33-4.43-6.72-3.65-11.37a47.7,47.7,0,0,1,3.36-10.85l-4.6-5.39-24.11-24.32c.61,16.24,2.55,42.32-10.14,51.14,0,0-14.16,5.11-20.6,8.18,4.1,3.37,42.79,49,67.13,47.09,22.13-1.78,8.64-40.35,11-49.47C266.68,208.51,260.54,206.8,254.61,205.46Z" style="fill:#a77865"></path><path d="M250.77,195.48c-6.63-3.94-13.91-10.76-13-18.56a36,36,0,0,1,1.88-8.39l13.46,17.83A44.69,44.69,0,0,0,250.77,195.48Z" style="opacity:0.2"></path><path d="M218.79,127.43c2.27,24.76,2.71,35.27,15.49,48.25,19.22,19.53,48.79,13,53.88-11.58,4.58-22.1.1-58.88-24.21-69.29C240,84.56,216.52,102.67,218.79,127.43Z" style="fill:#a77865"></path><path d="M250.5,135.43c-1.1,2-.89,4.41.48,5.3s3.37-.06,4.48-2.1.89-4.42-.48-5.3S251.61,133.39,250.5,135.43Z" style="fill:#263238"></path><path d="M275.49,134.48c-.95,2-.57,4.34.84,5.14s3.33-.21,4.28-2.25.57-4.34-.84-5.14S276.44,132.44,275.49,134.48Z" style="fill:#263238"></path><path d="M255,123.92a1.08,1.08,0,0,0-.87.31,8.94,8.94,0,0,1-8.09,2.51,1.11,1.11,0,0,0-1.4.86,1.32,1.32,0,0,0,.94,1.5,11.15,11.15,0,0,0,10.27-3,1.24,1.24,0,0,0,0-1.73A1.26,1.26,0,0,0,255,123.92Z" style="fill:#263238"></path><path d="M274.18,120.54a1.12,1.12,0,0,0-.84.25,1.2,1.2,0,0,0-.07,1.7,12.74,12.74,0,0,0,10.26,4.79,1.11,1.11,0,0,0,1-1.32,1.32,1.32,0,0,0-1.39-1.09,10.22,10.22,0,0,1-8.08-3.88A1.28,1.28,0,0,0,274.18,120.54Z" style="fill:#263238"></path><path d="M211.3,147.61a19.9,19.9,0,0,0,12,9.36c6.55,1.65,9.93-8.89,7.7-15.46A13.18,13.18,0,0,0,216.2,133C209.92,134.25,208,141.81,211.3,147.61Z" style="fill:#a77865"></path><path d="M268.64,134.21s3.88,9.27,8.25,15a1.91,1.91,0,0,1-.9,2.92,12.23,12.23,0,0,1-6.64.11Z" style="fill:#a24e3f"></path><path d="M254.59,133l5.54,1.84S255.26,136.84,254.59,133Z" style="fill:#263238"></path><path d="M279.22,132l5.65,1.51S280.12,135.78,279.22,132Z" style="fill:#263238"></path><path d="M269.48,167.73a8.45,8.45,0,0,0-1-7.7,8.83,8.83,0,0,0-7.15-3.26,10.59,10.59,0,0,0-7.23,3.32,5.09,5.09,0,0,0-1.68,3.58,4.32,4.32,0,0,0,2.73,3.5,12.18,12.18,0,0,0,4.58.75,13.67,13.67,0,0,1,4.6.66,7.51,7.51,0,0,0,2.11.71S268.93,169.47,269.48,167.73Z" style="fill:#263238"></path><path d="M256.38,158.28c.66.15,10.83,2.33,11.32,2.15s.36-.8.32-1a9.41,9.41,0,0,0-.84-.83l-.26-.19a9,9,0,0,0-5.55-1.74A10.19,10.19,0,0,0,256.38,158.28Z" style="fill:#fff"></path><path d="M263.39,165.22c-3.82-1.81-10.53-.35-10.61-.33a4.87,4.87,0,0,0,2.41,2.28,12.18,12.18,0,0,0,4.58.75,13.67,13.67,0,0,1,4.6.66,7.51,7.51,0,0,0,2.11.71,4.69,4.69,0,0,0,1.26-.12A9.11,9.11,0,0,0,263.39,165.22Z" style="fill:#de5753"></path><path d="M212.6,113.68c-3.53,4.73,2.64,19,2.64,19s12-3.1,12,14.8c4.35.88,9.87-15.63,9.76-32.42C236.46,105.6,218.84,105.34,212.6,113.68Z" style="fill:#263238"></path><path d="M209.52,85.83c-5,7.43-4.6,16.57,1,20.38s14.25.86,19.33-6.58,4.56-16.56-1-20.38S214.57,78.4,209.52,85.83Z" style="fill:#407BFF"></path><path d="M284.05,92.05C279.21,81,254.87,71.55,230,81.16c-22.48,8.65-27.67,38.91-11.71,40.71s35.39-13.19,35.39-13.19Z" style="fill:#263238"></path><path d="M267,79.72s15.82-7.57,24.09,3.47-10.94,29.63-20.47,27.12c0,0-13,20.58-28.42,10.08,0,0-9,9.39-19.16,2.64S244.63,68.21,267,79.72Z" style="fill:#263238"></path><path d="M222.1,150.42H222c-3.84-1.07-5.53-3.16-6.27-4.72a5.55,5.55,0,0,1-.33-4.36,4.24,4.24,0,0,1,5.37-2.27.26.26,0,0,1,.14.33.25.25,0,0,1-.33.13,3.76,3.76,0,0,0-4.72,2,5,5,0,0,0,.32,3.94c.7,1.48,2.3,3.44,5.95,4.45a.27.27,0,0,1,.18.31A.25.25,0,0,1,222.1,150.42Z" style="opacity:0.2"></path><path d="M262.46,238.39a4.34,4.34,0,1,1-4.34-4.33A4.33,4.33,0,0,1,262.46,238.39Z" style="fill:#a24e3f;opacity:0.5"></path><circle cx="258.12" cy="238.39" r="2.02" style="fill:#a24e3f"></circle></g><g id="freepik--Mosquitoes--inject-47"><path d="M371.53,97.16a1.65,1.65,0,0,1,1.56-.6,7,7,0,0,1,3.39,1.4,27.48,27.48,0,0,1,9.06,10.12l.29.35a41.16,41.16,0,0,1-11.14-6.3,11.24,11.24,0,0,1-3-3.18A1.8,1.8,0,0,1,371.53,97.16Z" style="fill:#407BFF"></path><g style="opacity:0.5"><path d="M371.53,97.16a1.65,1.65,0,0,1,1.56-.6,7,7,0,0,1,3.39,1.4,27.48,27.48,0,0,1,9.06,10.12l.29.35a41.16,41.16,0,0,1-11.14-6.3,11.24,11.24,0,0,1-3-3.18A1.8,1.8,0,0,1,371.53,97.16Z" style="fill:#fff"></path></g><path d="M387.85,109.44a2.29,2.29,0,0,1,1.45-2.24,1.94,1.94,0,0,1,1-.12c1.38.17,2.33.72,2.62,1.89a2.7,2.7,0,0,1,0,1.75l6.62,7.39a33.49,33.49,0,0,1-4.7-4c-1.17-1.15-2.92-2.68-2.92-2.68a3.16,3.16,0,0,1-1.71.27,7.26,7.26,0,0,1-2.25-.72Z" style="fill:#263238"></path><path d="M388.53,108.57s-2.51-2.13-4.55-1.13a6.35,6.35,0,0,0-2.85,3.11,13.53,13.53,0,0,0-4.95,1.36c-2.15,1.19-5.52,2.55-6.18,5.2a2.62,2.62,0,0,0,3.28,3.17,12,12,0,0,0,6.94-4.12,11.81,11.81,0,0,0,1.91-3s2.63.62,4.11-.2a6.32,6.32,0,0,0,2.28-2.35Z" style="fill:#263238"></path><path d="M393.13,125.3a.13.13,0,0,1-.08,0l-2-1.52a.14.14,0,0,1-.05-.08l-1.44-8.91-3.22-3.15a.11.11,0,0,1,0-.17.13.13,0,0,1,.18,0l3.25,3.17a.08.08,0,0,1,0,.07l1.44,8.9,2,1.49a.14.14,0,0,1,0,.18A.12.12,0,0,1,393.13,125.3Z" style="fill:#263238"></path><path d="M388,121.9a.12.12,0,0,1-.09,0l-1.21-1.19a.16.16,0,0,1,0-.07l-1.48-9.07a.13.13,0,0,1,.1-.15.13.13,0,0,1,.14.11l1.48,9,1.18,1.16a.12.12,0,0,1,0,.17A.09.09,0,0,1,388,121.9Z" style="fill:#263238"></path><path d="M385.27,120.58a.12.12,0,0,1-.09,0l-.66-.72a.25.25,0,0,1,0-.07c0-.29-.53-7-.53-7.24a.12.12,0,0,1,.12-.13h0a.13.13,0,0,1,.13.13c0,.2.34,4.75.53,7.17l.64.69a.14.14,0,0,1,0,.18A.16.16,0,0,1,385.27,120.58Z" style="fill:#263238"></path><path d="M380.23,127.55l-.08,0a.14.14,0,0,1,0-.18l1.5-2c.2-5,.47-12.45.4-12.81a.11.11,0,0,1,.06-.16.14.14,0,0,1,.17.07c.12.27-.26,10-.38,13a.19.19,0,0,1,0,.07l-1.53,2A.14.14,0,0,1,380.23,127.55Zm1.53-2.17Z" style="fill:#263238"></path><path d="M373.4,126.45a.14.14,0,0,1-.12-.07.12.12,0,0,1,.07-.17l2.84-1.25c.5-2.67,1.23-6.66,1.22-7a.12.12,0,0,1,.06-.14.12.12,0,0,1,.17,0c0,.05.1.19-1.21,7.19a.12.12,0,0,1-.08.09l-2.9,1.28Z" style="fill:#263238"></path><path d="M395.72,120.66a.11.11,0,0,1-.07,0,13.51,13.51,0,0,0-1.5-.95h0c-.13,0-.44-.46-3.24-6.57l-3.07-2a.12.12,0,0,1,0-.17.12.12,0,0,1,.17,0l3.09,2s0,0,.05,0c1.11,2.44,2.83,6.1,3.09,6.47a8,8,0,0,1,1.59,1,.12.12,0,0,1,0,.17A.14.14,0,0,1,395.72,120.66Z" style="fill:#263238"></path><path d="M363.92,113.06a3,3,0,0,1,.83-3.48,7.25,7.25,0,0,1,3.51-1.48c5.4-1.07,11-.44,16.41.38l-.5.38c-5,2.19-10.08,4.4-15.45,5.43a7.84,7.84,0,0,1-2.64.16A3,3,0,0,1,363.92,113.06Z" style="fill:#407BFF"></path><g style="opacity:0.5"><path d="M363.92,113.06a3,3,0,0,1,.83-3.48,7.25,7.25,0,0,1,3.51-1.48c5.4-1.07,11-.44,16.41.38l-.5.38c-5,2.19-10.08,4.4-15.45,5.43a7.84,7.84,0,0,1-2.64.16A3,3,0,0,1,363.92,113.06Z" style="fill:#fff"></path></g><path d="M123.46,230.88a1.68,1.68,0,0,0-1.54.66,7.1,7.1,0,0,0-1.46,3.38,27.61,27.61,0,0,0,.57,13.6l0,.46a41.07,41.07,0,0,0,3.59-12.32,11.16,11.16,0,0,0-.09-4.35A1.82,1.82,0,0,0,123.46,230.88Z" style="fill:#407BFF"></path><g style="opacity:0.5"><path d="M123.46,230.88a1.68,1.68,0,0,0-1.54.66,7.1,7.1,0,0,0-1.46,3.38,27.61,27.61,0,0,0,.57,13.6l0,.46a41.07,41.07,0,0,0,3.59-12.32,11.16,11.16,0,0,0-.09-4.35A1.82,1.82,0,0,0,123.46,230.88Z" style="fill:#fff"></path></g><path d="M120.32,251.12a2.29,2.29,0,0,0-2.61-.6,2,2,0,0,0-.77.59c-.87,1.09-1.17,2.15-.55,3.19a2.7,2.7,0,0,0,1.23,1.24l.41,9.93a33.17,33.17,0,0,0,.6-6.12c0-1.65.23-4,.23-4a3.19,3.19,0,0,0,1.42-1,7.05,7.05,0,0,0,1.11-2.09Z" style="fill:#263238"></path><path d="M119.22,251s.32-3.29,2.48-4a6.34,6.34,0,0,1,4.22.24,13.7,13.7,0,0,1,4.51-2.49c2.38-.65,5.75-2,8.08-.58a2.62,2.62,0,0,1-.15,4.56,12,12,0,0,1-7.86,1.9,11.78,11.78,0,0,1-3.5-.85s-1.45,2.29-3.09,2.73a6.33,6.33,0,0,1-3.28-.1Z" style="fill:#263238"></path><path d="M127.53,266.23h0a.12.12,0,0,1-.1-.14l.39-2.48-5.19-7.39a.12.12,0,0,1,0-.08l.11-4.55a.13.13,0,0,1,.13-.12h0a.12.12,0,0,1,.12.13l-.11,4.51,5.19,7.4a.16.16,0,0,1,0,.09l-.41,2.53A.12.12,0,0,1,127.53,266.23Z" style="fill:#263238"></path><path d="M128.82,260.23h0a.12.12,0,0,1-.12-.12l0-1.66-5.25-7.52a.13.13,0,1,1,.2-.15l5.28,7.56a.19.19,0,0,1,0,.08l0,1.69A.12.12,0,0,1,128.82,260.23Z" style="fill:#263238"></path><path d="M129.87,257.35a.12.12,0,0,1-.12-.12l0-.94c-1.56-1.86-4.5-5.38-4.64-5.52a.13.13,0,0,1,.18-.18c.18.19,4.49,5.36,4.68,5.58a.19.19,0,0,1,0,.08l0,1a.12.12,0,0,1-.12.12Z" style="fill:#263238"></path><path d="M138.37,258.83h0l-2.52-.4a.09.09,0,0,1-.07,0c-2.16-2-9.23-8.76-9.32-9a.12.12,0,0,1,.23-.09c.22.33,5.63,5.5,9.24,8.92l2.48.4a.12.12,0,0,1,.11.14A.13.13,0,0,1,138.37,258.83Z" style="fill:#263238"></path><path d="M139.53,254.38l-.07,0c-5.84-4.11-5.88-4.26-5.9-4.32a.14.14,0,0,1,.09-.15.12.12,0,0,1,.14.06c.22.24,3.53,2.6,5.76,4.16l2.92-1.08a.12.12,0,0,1,.16.07.13.13,0,0,1-.07.16l-3,1.11Z" style="fill:#263238"></path><path d="M122.42,264.72h0a.12.12,0,0,1-.1-.14,7.74,7.74,0,0,1,.46-1.83c-.08-.45-1.41-4.28-2.31-6.8,0,0,0-.05,0-.07l.82-3.61a.12.12,0,0,1,.15-.09.11.11,0,0,1,.09.15l-.81,3.57c2.28,6.41,2.36,6.9,2.26,7a12.6,12.6,0,0,0-.42,1.73A.13.13,0,0,1,122.42,264.72Z" style="fill:#263238"></path><path d="M140.05,237a3,3,0,0,0-3-1.92,7.27,7.27,0,0,0-3.56,1.39c-4.62,3-8.19,7.36-11.51,11.75l.62-.08c5.13-1.93,10.31-3.89,14.89-6.91a7.59,7.59,0,0,0,2-1.73A3,3,0,0,0,140.05,237Z" style="fill:#407BFF"></path><g style="opacity:0.5"><path d="M140.05,237a3,3,0,0,0-3-1.92,7.27,7.27,0,0,0-3.56,1.39c-4.62,3-8.19,7.36-11.51,11.75l.62-.08c5.13-1.93,10.31-3.89,14.89-6.91a7.59,7.59,0,0,0,2-1.73A3,3,0,0,0,140.05,237Z" style="fill:#fff"></path></g><path d="M414,276a1.63,1.63,0,0,0-1.62-.12,6.85,6.85,0,0,0-2.77,2.25,26.75,26.75,0,0,0-5.6,11.94l-.17.41a39.84,39.84,0,0,0,8.6-9,10.9,10.9,0,0,0,1.88-3.78A1.77,1.77,0,0,0,414,276Z" style="fill:#407BFF"></path><g style="opacity:0.5"><path d="M414,276a1.63,1.63,0,0,0-1.62-.12,6.85,6.85,0,0,0-2.77,2.25,26.75,26.75,0,0,0-5.6,11.94l-.17.41a39.84,39.84,0,0,0,8.6-9,10.9,10.9,0,0,0,1.88-3.78A1.77,1.77,0,0,0,414,276Z" style="fill:#fff"></path></g><path d="M402.27,292a2.21,2.21,0,0,0-2-1.68,1.93,1.93,0,0,0-.93.16c-1.23.55-2,1.32-1.9,2.49a2.58,2.58,0,0,0,.5,1.62l-4.1,8.72a32.11,32.11,0,0,0,3.27-5c.77-1.4,2-3.31,2-3.31a3.2,3.2,0,0,0,1.67-.22,7,7,0,0,0,1.89-1.3Z" style="fill:#263238"></path><path d="M401.4,291.39s1.74-2.68,3.92-2.32a6.21,6.21,0,0,1,3.52,2.1,13.18,13.18,0,0,1,5-.12c2.34.51,5.85.83,7.2,3.12a2.54,2.54,0,0,1-2.16,3.86,12,12,0,0,1-10.23-4.19s-2.28,1.31-3.88,1a6.28,6.28,0,0,1-2.78-1.55Z" style="fill:#263238"></path><path d="M401.75,308.25a.11.11,0,0,1-.07,0,.12.12,0,0,1,0-.17l1.45-1.95L402,297.42a.24.24,0,0,1,0-.08l2.14-3.86a.12.12,0,0,1,.17,0,.13.13,0,0,1,.05.17l-2.12,3.82,1.14,8.69a.1.1,0,0,1,0,.09l-1.48,2A.12.12,0,0,1,401.75,308.25Z" style="fill:#263238"></path><path d="M405.55,303.67l-.06,0a.11.11,0,0,1-.05-.17l.77-1.4-1.14-8.82a.12.12,0,0,1,.11-.14.13.13,0,0,1,.14.11l1.14,8.86a.11.11,0,0,1,0,.08l-.79,1.43A.15.15,0,0,1,405.55,303.67Z" style="fill:#263238"></path><path d="M407.75,301.67h-.06a.13.13,0,0,1-.06-.17l.4-.82c-.5-2.3-1.45-6.63-1.5-6.82a.12.12,0,0,1,.08-.16.11.11,0,0,1,.15.09c.08.24,1.47,6.61,1.53,6.88a.19.19,0,0,1,0,.08l-.42.86A.14.14,0,0,1,407.75,301.67Z" style="fill:#263238"></path><path d="M414.39,306.75a.11.11,0,0,1-.08,0l-2-1.47s0,0,0-.06c-1.21-3.5-4-11.67-4-11.95a.11.11,0,0,1,.14-.1.11.11,0,0,1,.1.13c0,.39,2.37,7.25,3.94,11.8l2,1.45a.13.13,0,0,1,0,.18A.16.16,0,0,1,414.39,306.75Z" style="fill:#263238"></path><path d="M420.44,303.82h0l-3.06-.38a.14.14,0,0,1-.1-.07c-3.18-6.15-3.14-6.29-3.13-6.35a.12.12,0,0,1,.15-.09.12.12,0,0,1,.1.11c.08.3,1.87,3.82,3.08,6.16l3,.37a.12.12,0,0,1,.11.14A.13.13,0,0,1,420.44,303.82Z" style="fill:#263238"></path><path d="M398,304.66a.11.11,0,0,1-.07,0,.12.12,0,0,1,0-.18,8.19,8.19,0,0,1,1.21-1.37c.13-.42.71-4.3,1.07-6.87a.09.09,0,0,1,0-.06l2.31-2.73a.13.13,0,0,1,.18,0,.14.14,0,0,1,0,.18l-2.3,2.7c-.91,6.53-1.06,7-1.19,7a13,13,0,0,0-1.14,1.31A.12.12,0,0,1,398,304.66Z" style="fill:#263238"></path><path d="M425.56,288.71a2.93,2.93,0,0,0-1.75-3,7,7,0,0,0-3.68-.4c-5.32.51-10.34,2.65-15.17,4.94l.58.21c5.27.64,10.6,1.27,15.89.74a7.56,7.56,0,0,0,2.5-.59A2.92,2.92,0,0,0,425.56,288.71Z" style="fill:#407BFF"></path><g style="opacity:0.5"><path d="M425.56,288.71a2.93,2.93,0,0,0-1.75-3,7,7,0,0,0-3.68-.4c-5.32.51-10.34,2.65-15.17,4.94l.58.21c5.27.64,10.6,1.27,15.89.74a7.56,7.56,0,0,0,2.5-.59A2.92,2.92,0,0,0,425.56,288.71Z" style="fill:#fff"></path></g></g></svg>
